<svg xmlns="http://www.w3.org/2000/svg" viewBox="0 0 2542.3 1161.27"><defs><style>.cls-1{isolation:isolate;}.cls-2{fill:#ffd879;}.cls-3{fill:#f8eeed;}.cls-4{fill:#5abfc4;}.cls-5{fill:#f39686;}.cls-6{fill:#e8e8e8;mix-blend-mode:multiply;}.cls-7{fill:#f4d29b;}.cls-12,.cls-8{fill:#fff;}.cls-8{stroke:#1d1d1b;stroke-miterlimit:10;}.cls-9{fill:#a4bddd;}.cls-10{fill:#1f1f42;}.cls-11,.cls-21,.cls-24{fill:#b2cbec;}.cls-13{fill:#fcdaa3;}.cls-14{fill:#f9c3ae;}.cls-15{fill:#ec6661;}.cls-16{fill:#d98a80;}.cls-17{fill:#3e3845;}.cls-18{fill:#453e4e;}.cls-19{fill:#ededed;}.cls-20{fill:#f4f4f4;}.cls-21{opacity:0.5;}.cls-22{fill:#e8979b;}.cls-23{fill:#f3a1a6;}.cls-24{opacity:0.53;}.cls-25{fill:#dfbe8a;}.cls-26{fill:#b99b6b;}</style></defs><g class="cls-1"><g id="Слой_2" data-name="Слой 2"><g id="Layer_1" data-name="Layer 1"><path class="cls-2" d="M2454.63,1129S99.46,1134.49,0,1131.47c0,0,30.5-208.31,48.45-309.56,7.56-42.61,15.24-85.65,34-125.69,27.33-58.48,78.33-108.75,142.37-140.29,63-31.06,139.84-45.7,188.1-92.11,33.14-31.88,47.27-73.47,63.35-114.31q1.74-4.41,3.52-8.81c4.69-11.58,9.66-23,15.4-34.14,12.53-24.23,28.58-46.47,47.36-67q4.08-4.46,8.35-8.81C617.58,162.52,714.75,114.16,811,75.72,908.78,36.63,1012.44,3.3,1120.47.21s221.92,28.18,290.28,99.39c58.93,61.38,79.84,146.4,148,200.42,35.19,27.88,80.43,45.12,126.72,56.24,127.42,30.63,270.76,19.54,384.14,77.71,79.87,41,132.88,110.95,173.87,182.19C2332.13,770.18,2457.05,957.51,2454.63,1129Z"/><ellipse class="cls-3" cx="1229.46" cy="1131.47" rx="1229.46" ry="29.8"/><path class="cls-4" d="M189,705.27a3.33,3.33,0,0,1,.14,1.47c-.2,3.85-3.18,13.44-7.93,25.43-.46,1.15-.93,2.32-1.42,3.52-12.31,30-34.46,72.19-52.33,78.57l-4.65,3.13a36,36,0,0,1-6.2.13c-17.43-1.12-27.8-15.24-25-31.32a34,34,0,0,0,.26-11.63c-1.71,7.27-4,14.12-4.46,17.06-.75,4.39-1.27,18.87,1.18,26-7.8-15.39-6.78-29.3-5.18-36.3,2.6-11.39,6.76-11.79,8.29-27.69,1.34-13.9,13-30.75,13.38-31.28-.47.33-15.46,10.8-18.62,29.66-2.13,12.78-4.55,18.41-7.28,23.13,3.95-13.48.37-13.84,3.26-37.38,3.27-26.64,19.43-36.46,38.21-56.55s-1.1-16.27,15.72-42.56,41.92-16.94,47-13.22c2.61,1.88,4.44,6.23,5.73,10.32s2,7.72,2.44,8.71c8.17,18.34-1.83,32.71-4.34,38.43-1.27,2.88-1.55,6.85-1.14,10.94.08.82.2,1.65.33,2.47A38,38,0,0,0,189,705.27Z"/><path class="cls-5" d="M163.9,729.43c-27.66.59-29.19-22.49-19.86-27.66,8.76-4.87,6.45-22.11,6.55-29.52,0-4.68,8.74,2.87,14.52,10.42,3,3.93,5.23,7.87,5,10.07a11.93,11.93,0,0,0,.09,3.09,8.31,8.31,0,0,0,5.6,6.53C178.16,703.23,191.55,728.86,163.9,729.43Z"/><path class="cls-6" d="M170.23,695.83c-7.17.17-13.38-10.11-15.28-14.48l10.16,1.32c3,3.93,5.23,7.87,5,10.07A11.93,11.93,0,0,0,170.23,695.83Z"/><path class="cls-5" d="M186.7,670.88c-3.35,8-4.73,13.66-6.32,17.33a0,0,0,0,0,0,0,11.8,11.8,0,0,1-1.92,3.21c-2.76,3-15,2.18-21.54-7.14s-7.86-16.3-7.86-21.11,3.63-21.68,15.14-23.58,24-1.11,24.6,2.33c.52,3.14-.61,10.2-1.36,13.86C186.76,659,189.54,664.11,186.7,670.88Z"/><path class="cls-7" d="M197.66,801.84,208.9,867.9s-15.67,5.82-16.39,0-7.62-75.25-5.94-92.41-8-72.24-8-72.24l16.08,40.09S194.28,782,197.66,801.84Z"/><path class="cls-8" d="M188.57,782c1.26,6.9,4.94,19.88,10.84,20.32s11.79-10.48,12.23-21.4-8.08-70.08-15.72-70.08S187.27,775,188.57,782Z"/><path class="cls-5" d="M227.36,1122.3c-7,2-27.51-.73-35.34-.29s-23.62.87-23.62-2.62c0-2,.76-6,1.31-10.33a53.43,53.43,0,0,0,.57-9s19.61-9.42,19.26-2.33c-.28,5.63,15.47,9.93,23.49,12.35a27.22,27.22,0,0,1,4.28,1.5C220.37,1113.3,234.34,1120.26,227.36,1122.3Z"/><path class="cls-9" d="M196.16,950.58c-.67,5.62-1,30.23-4.67,144.48-.1,3.31-13.05,6.82-18.7,6.16-1.32-.16-2.24-.54-2.51-1.19-.91-2.21-6.15-67.07-10.8-106.37-2.77-23.31-.18-27.42.52-37.44.91-12.94-.86-41.58-3-68.19-2.36-29.69-5.15-56.85-5.15-56.85L193,841.07C195.91,861.44,198.58,930.5,196.16,950.58Z"/><path class="cls-6" d="M172.79,1101.22c-1.32-.16-2.24-.54-2.51-1.19-.91-2.21-6.15-67.07-10.8-106.37-2.77-23.31-.18-27.42.52-37.44.91-12.94-.86-41.58-3-68.19,4.75-10.61,8.33-17.54,8.33-17.54,2.33,8.89,3.35,60.68,0,77.36s-4,24-5.28,31.53,5.83,50.7,5.28,58.17S172.79,1101.22,172.79,1101.22Z"/><path class="cls-5" d="M112.14,1122.83c-7-2.13-22.59-15.72-29.37-19.65S62.56,1090.94,64.48,1088c1.12-1.71,3.94-4.63,6.76-7.92a53.93,53.93,0,0,0,5.45-7.23s22-1,18.59,5.22c-4.51,8.15,6.24,20.21,11.62,26.64a28.31,28.31,0,0,1,2.76,3.6C111.25,1111.48,119.1,1125,112.14,1122.83Z"/><path class="cls-10" d="M112.14,1122.83c-7-2.13-23.41-12-30-17.82-5.85-5.2-19.62-14.07-17.7-17,1.12-1.71,3.94-4.63,6.76-7.92h0c4,5.06,18,18,22.4,20.82,3.12,2,9.74,3.28,13.25,3.81a28.31,28.31,0,0,1,2.76,3.6C111.25,1111.48,119.1,1125,112.14,1122.83Z"/><path class="cls-11" d="M160,956.22c-9.67,37.34-56.42,107.31-60.78,121-1.59,5-13.78,1.62-20.1-1.88-2.27-1.26-3.78-2.54-3.78-3.46,0-2.33,16.89-54.3,32.31-92.76,7.71-19.22,16.72-34.22,16.31-42.36-.67-13.33-4.32-30.8-6.93-49-2.18-15.22-3.65-31-2.06-45.28,3.49-31.44,13.48-26.11,13.48-26.11s35.6.76,35.73,15C164.47,863.07,168.4,923.76,160,956.22Z"/><path class="cls-6" d="M144.05,701.77c2.89,3.81,10.24,20.85,21.3,21.06,5.71.11,7.87-10.92,7.87-10.92s1.84,16.73-.43,20.05-28.8,8.76-28.74,4.4S144.05,701.77,144.05,701.77Z"/><path class="cls-6" d="M149.65,844.45c6.67.21,14.74-2.84,26.43-2s17.67.91,17.67.91,7.77-11.07,4.06-12.21-54.59,0-54.59,0Z"/><path class="cls-12" d="M193.34,839.66c-1.46,2.4-19.38-1-29,1.4-2.48.63-54.52,2.84-50.58-10.88,3.79-13.18,9-47.68,5.07-63s-7.09-54.75,0-57.2c5.37-1.86,14.38-5.54,20-7.38,2.94-1,5-1.41,5.17-.86,3.7,11.28,14.09,23.3,21.95,22.65s7.62-22.93,9.83-22.06,19.21,5.24,20.08,8.52-.43,40.39-6.37,65.94S194.8,837.26,193.34,839.66Z"/><path class="cls-13" d="M151.86,881.67c-11.82,1.61-27.65,3-36.15,2-3.78-.45-6.11-1.37-6-3,1.31-23,.13-36.81,4.07-50.53,3.79-13.17,9-47.68,5.07-63-.66-2.57-1.3-5.82-1.87-9.47-2.84-18-4-45.7,1.87-47.74,5.37-1.86,14.37-5.54,20-7.38,4,13.31,7.81,80.3,9.4,106.19S149.79,875.63,151.86,881.67Z"/><path class="cls-6" d="M127.18,758c-.5,9.23-2.75,14.36-2.73,19.14s1.4,31.24-4.1,44-4.93,20-6.38,30.2c-1.34,9.33-1.35,26.75,1.74,32.4-3.78-.45-6.11-1.37-6-3,1.31-23,.13-36.81,4.07-50.53,3.79-13.17,9-47.68,5.07-63-.66-2.57-1.3-5.82-1.87-9.47,3.64-6.61,6.6-12.21,6.6-12.21S127.88,745,127.18,758Z"/><path class="cls-13" d="M118.84,710c-8.5,5-14,28.51-21.32,56.43S94,813,101.3,812.11s17.47-31.44,21-38.72,6.7-21,6.12-26.78S125.61,706,118.84,710Z"/><path class="cls-14" d="M223,746.18a71.37,71.37,0,0,0,11-8.78c2.25-2.39,7.25-7.86,10-8.6,1.69-.45,2.81-1.08,3.8-.74,1.52.5,0,2.67.28,3.8.58,2.08-1.14,4.14-2.83,6s-6.2,12.63-16.3,16.45-12.92,5.9-13.69,3.17,1-7.81,7.68-11.29"/><path class="cls-14" d="M209.22,763.91c.73-4.89.42-8.56,2.15-12s5.37-8.19,6.94-9.08,9.85-10.06,10.91-10.69,1,.85.71,3-6,10-6.44,12.56-4.34,5.39-3.9,6.24-10.37,9.95-10.37,9.95"/><path class="cls-14" d="M221,767.61c1.91-3.19.06-4.27,6.42-7.93s8.15-4.61,10.69-7.46,8.13-12.17,9.06-14.52-2.27-1.73-5.21,2.88-5.37,7.34-7.8,7.63-10.86,6.21-14.61,5.75c-3.09-.38-10.37,9.95-10.37,9.95l11.82,3.7"/><path class="cls-7" d="M197,773.63c2.21-.87,11.75-15.37,14.64-15.66s13.18,3.12,14,4.87-6.75,18.71-14,29.48-9.91,10.31-14,9.52S187.66,777.33,197,773.63Z"/><path class="cls-6" d="M340.62,790.19c-.16.24-.34.44-.5.67a12.59,12.59,0,0,1-1.88,2.83,42.45,42.45,0,0,1-3.34,3.39,48,48,0,0,1-12.53,9.11c-37.29,22.43-111.62,38.67-126.88,39.25a5.91,5.91,0,0,1-2.65-.24c-.47-.32-1.11-2-1.85-4.73-4.18-15.48-11.67-65.53-11.21-104.78a170,170,0,0,1,2.44-29.14c.12-.69.26-1.38.41-2.06s.31-1.3.47-2l.36-1.41c.08-.26.15-.52.23-.77A46.21,46.21,0,0,1,186,693.8c.08.82.2,1.65.33,2.47a29.7,29.7,0,0,1,2.5-5.24,11.9,11.9,0,0,1,1.37-1.84c.34-.55.63-1.12,1-1.65a47.81,47.81,0,0,1,87,32.25c.48-.24.95-.48,1.42-.7a48.75,48.75,0,0,1,21.43-4.71,48.52,48.52,0,0,1,39.53,75.81Z"/><path class="cls-6" d="M173.92,777.09c-5.22,2.58-8.12,2-11.33,7.53s-27.88,19.47-27.88,19.47l41.37-36.48Z"/><path class="cls-5" d="M159.43,766.25c5-6.53,9.16-10.87,11.31-12.5s11.29-8.24,12.92-8.21.93,1.93-1.67,6.36S159.43,766.25,159.43,766.25Z"/><path class="cls-15" d="M342,790.19c-.15.24-.34.44-.49.67a12.59,12.59,0,0,1-1.88,2.83,42.63,42.63,0,0,1-3.35,3.39,47.85,47.85,0,0,1-12.53,9.11C285.18,829.38,207,846,195.49,845.44a2.84,2.84,0,0,1-1.31-.24c-.48-.33-1.13-2.06-1.9-4.94-4.31-16.2-12.06-68.54-11.08-108.09a161.69,161.69,0,0,1,2.37-25.62c.1-.56.2-1.11.33-1.66.16-.78.35-1.57.55-2.35.13-.48.24-.95.36-1.41.08-.26.15-.52.23-.77.41-1.44.86-2.81,1.33-4.09a29.7,29.7,0,0,1,2.5-5.24c.43-.71,2-3,2.37-3.49a48.51,48.51,0,0,1,88.42,31.55l-.06.7A48.51,48.51,0,0,1,342,790.19Z"/><path class="cls-5" d="M189.75,766.45c-2.86,3.18-6.79,3.88-9.83,5.67-3.21,1.88-7.6,4.61-10,5-1,.14-8.84,4.85-13.5,10-4.12,4.57-11.07-5.33-6.81-12.14.11-.16,4.37-2.51,4.51-2.64,4.23-3.7,3.57-4,6-7l.16-.21a42.56,42.56,0,0,1,11.24-10.19c.75-.46,1.57-.89,2.42-1.31,2.3,0,5.9,4.38,7.8,6.65a6.74,6.74,0,0,1,1.08,1.86,10.87,10.87,0,0,1,.74,4.17c0,.3,0,.57,0,.77v.06c.08.12.57-.15,1.32-.66a.17.17,0,0,0,.1-.06c.76-.5,1.75-1.24,2.86-2l.08-.05C189.1,763.48,190,766.06,189.75,766.45Z"/><path class="cls-5" d="M193,764.07a2.77,2.77,0,0,1-.69,1.19c-1.09,1.32-2.45,2.82-7.79,6.75-6.66,4.92-13,5.72-16.93,4.68h0c-3.66-.94-11-6.53-7.41-11.38l.16-.21c3.6-4.84,11.26-11.4,13.55-11.51a.15.15,0,0,1,.11,0c2.3,0,5.9,4.37,7.8,6.65a6.74,6.74,0,0,1,1.08,1.86,9.14,9.14,0,0,1,.38,4.24s.12,0,.36-.07a5.63,5.63,0,0,0,1.47-.72l2.79-1.55a23.56,23.56,0,0,1,3.33-1.8c.32-.12.8.26,1,.41A1.93,1.93,0,0,1,193,764.07Z"/><path class="cls-5" d="M178.82,756.89c1.22-.51,6.05-1.95,7.17-2.66,1.85-1.18,5.64-1.24,8.59-2.14,1.71-.52-.21-2.66-2.09-2.77-3.48-.2-12.59,2.15-14,2.31s-4.51,1.37-5.67,3C172.31,755.32,177.32,757.52,178.82,756.89Z"/><path class="cls-5" d="M181,761.46c4.37-1.69,10.18-4,10.86-4a2.09,2.09,0,0,1,.87,3.48c-1.48,1.44-8.55,4.56-10.37,5.94S178.46,762.43,181,761.46Z"/><path class="cls-5" d="M178.82,756.89c3.22-.77,11.56-3.9,12.36-3.52s2,2.68.83,3.44-9.89,3.58-11.19,4.41-3.49-3.92-2-4.33"/><path class="cls-13" d="M96.86,809.64c2.8,4.15,8.52,14.83,36.47-4.59s28.18-17.45,25.85-20.65-9.84-9.84-8.68-10.71-34.64,9.31-44.83,17.46S95.36,807.44,96.86,809.64Z"/><path class="cls-10" d="M227.36,1122.3c-7,2-27.51-.73-35.34-.29s-23.62.87-23.62-2.62c0-2,.76-6,1.31-10.33h0c6.12,2,24.95,5.09,30.16,5.09,3.73,0,9.94-2.61,13.16-4.1a27.22,27.22,0,0,1,4.28,1.5C220.37,1113.3,234.34,1120.26,227.36,1122.3Z"/><path class="cls-4" d="M148.9,629.17l-1.65.87-.9.48-1,.61a24.69,24.69,0,0,0-2.39,1.64,35.53,35.53,0,0,0-5.81,5.38,51.17,51.17,0,0,0-6,8.47,105.87,105.87,0,0,0-5.46,11.17q-1.3,3.06-2.56,6.33c-.43,1.09-.85,2.19-1.27,3.31l-.63,1.68-.7,1.71a41.68,41.68,0,0,1-9,12.29c-3.68,3.62-7.74,6.9-11.76,10.18s-8,6.53-11.7,10.07a51.37,51.37,0,0,0-9.28,11.55,31.62,31.62,0,0,0-2.79,6.5c-.36,1.09-.58,2.22-.87,3.34s-.54,2.21-.73,3.3a91.45,91.45,0,0,0-1.67,12.41c-.54,7.76,0,14.25-.06,18.79a21.75,21.75,0,0,1-.48,5.25,6.41,6.41,0,0,1-.43,1.31l-.18.44.17-.44a6.65,6.65,0,0,0,.42-1.32,22,22,0,0,0,.39-5.23c-.05-4.54-.65-11-.23-18.82a90.38,90.38,0,0,1,1.47-12.52c.18-1.11.43-2.21.69-3.32s.47-2.26.83-3.4a31.78,31.78,0,0,1,2.75-6.69,51.88,51.88,0,0,1,9.26-11.91c3.63-3.64,7.63-7,11.6-10.32s8-6.66,11.5-10.27a40.13,40.13,0,0,0,8.48-11.86c.22-.56.43-1.11.65-1.66s.41-1.14.61-1.7c.4-1.13.8-2.24,1.22-3.34.81-2.21,1.64-4.36,2.48-6.43a105.3,105.3,0,0,1,5.4-11.49,54,54,0,0,1,6.12-8.94,38.35,38.35,0,0,1,6.09-5.82c.48-.36.89-.72,1.34-1l1.25-.81,1.08-.7.89-.49,1.64-.9Z"/><path class="cls-6" d="M188.79,642c-1.57,1.73-7.68,3.81-11.83,4.13s-11.44,6-14.37,13.21-6.34,14-6.34,14,8-22.53,8.7-23.3,13.1-13.42,13.1-13.42Z"/><path class="cls-4" d="M179.63,643.54c-2.4,0-3.76-.13-6,1.18a26.86,26.86,0,0,0-4.86,4.08,32.28,32.28,0,0,0-4.56,5.34,23.77,23.77,0,0,0-3.11,6.75c-.68,2.48-1.26,5.17-2.09,7.73s-1.66,5.12-2.66,7.58c-.25.61-.5,1.22-.74,1.83l-.81,1.79c-.51,1.19-1.12,2.33-1.68,3.45s-1.22,2.19-1.81,3.25-1.29,2-1.91,3-1.35,1.84-2,2.72-1.38,1.63-2,2.4a38.84,38.84,0,0,1-4,3.77,15.2,15.2,0,0,1-1.82,1.39L138,700.89c-1,.62-1.85,1-2.4,1.29l-.85.45.84-.47c.54-.33,1.37-.72,2.35-1.37l1.57-1.12a14.67,14.67,0,0,0,1.76-1.44,36,36,0,0,0,3.85-3.86c.62-.78,1.28-1.58,1.94-2.43s1.26-1.79,1.89-2.75,1.21-2,1.79-3,1.17-2.13,1.69-3.27,1.08-2.27,1.55-3.46l.75-1.79c.22-.61.45-1.22.68-1.83.91-2.46,1.7-5,2.39-7.57s1.21-5.13,1.84-7.75a35.4,35.4,0,0,1,2.56-7.1c1.47-3.07,2.16-4.51,3.88-6.37a31.26,31.26,0,0,1,3.44-3.46C171.07,642.29,181,642.65,179.63,643.54Z"/><path class="cls-4" d="M189.09,635.72c-1.3-4.09-3.13-8.44-5.73-10.32-5.13-3.72-30.24-13.07-47.05,13.22s-5.53,26.08-21.3,46.16c-17,21.63-29.36,26.32-32.63,53-2.89,23.54.68,23.9-3.26,37.38,2.74-4.73,5.15-10.35,7.28-23.12a44.43,44.43,0,0,1,6.9-17.21c6.93-23,20.83-29.27,38.21-40.06,19-11.79,18.34-25,18.77-31.66s.05-7.38,7.86-9.39,8.3-11.13,15.07-10.48a57.08,57.08,0,0,0,12.44,0C189.58,643,190.11,639.28,189.09,635.72Z"/><path class="cls-5" d="M151.86,659.46c-.5-2.7-1.1-4.59-3.58-3.93s-3.42,8.35-1.18,12.44,4.06,5.2,4.76,4.89S151.86,659.46,151.86,659.46Z"/><path class="cls-6" d="M127.26,937.46c-.48,10.48-3.62,12.53-12.29,28.78s-35.85,109.09-35.85,109.09c-2.27-1.26-3.78-2.54-3.78-3.46,0-2.33,16.89-54.3,32.31-92.76,7.71-19.22,16.72-34.22,16.31-42.36-.67-13.33-4.32-30.8-6.93-49l1.44-3.69C118.62,898.11,127.74,927,127.26,937.46Z"/><path class="cls-5" d="M893.33,724.42c8.35-4.69,41-27.94,41.92-35.8s-15.72-12.93-21-10.18-15,11.29-27.19,17.22S888,727.42,893.33,724.42Z"/><path class="cls-9" d="M856,736.87c3.28,5.51,6.36,9.7,6.36,9.7,5.41-5.67,33.73-18.84,34-20.42a18,18,0,0,0-.27-2.77c-1.13-7.84-5.31-29.23-7.26-29.31-2.33-.08-28.09,12.33-37.93,17.92C844.82,715.45,850.67,727.9,856,736.87Z"/><path class="cls-16" d="M811,684.62c1.85,9.09,3.4,21.32,0,27.43s8.4,23.58,25.28,22.13,16.3-23.52,16.3-23.52-10.91,2-14.4-1.23-.88-21-.88-21l-25-3.85"/><path class="cls-6" d="M820.12,694.07c1.7,4.76,2.48,6.72,11.37,11.09s15.34-5.54,15.34-5.54Z"/><path class="cls-16" d="M844,646.7c3.44,1.34,3.59,3.13,5.82,14.31a71.36,71.36,0,0,1,.65,21.78c-2.14,14.2-3.05,17.08-5,18.39s-18.92-.86-22-4.31-11.93-6.36-13-14.37-5.1-28.38,6.4-37.55S840,645.16,844,646.7Z"/><path class="cls-5" d="M912.18,1100.15c.22,1.76,5.18,10.06,3.62,13.7s18.82-8.67,18.82-8.67l-4.29-12Z"/><path class="cls-17" d="M823,858s.29,5.13.81,12.75c.33,5,.76,11,1.26,17.41,1.27,16.07,3,34.15,5,42.27A136,136,0,0,0,837,950.24h0c8.1,19.42,19.75,41.65,21.48,48.93,9.6,40.5,39.95,87.47,49.78,109.35.82,1.86,21.2-9.91,22.95-16.75.68-2.64-38-102.53-45.56-129.86-5.36-19.31-12.61-58.25-19-85.58v-.06c-1-4.36-2-8.43-3-12.08a113.62,113.62,0,0,0-4.33-13.63l-17.62,3.6Z"/><path class="cls-5" d="M775.28,1101.84c-.87,1.52-1.94,11.25-5.34,13.07s19.9,5.48,19.9,5.48l3.78-12.16Z"/><path class="cls-12" d="M824.29,1140.4c-1.27,4.9-15.63,3.42-22,2.14s-36.38-8.64-38.93-10.88c-1.46-1.28-1-3.62-.05-6.73.73-2.32,1.78-5.07,2.6-8.13,1.92-7.2,3.6-8.34,6.36-8,1.85.25-1.57,4.89,3.94,6.73,7.21,2.41,12.68-.24,16.46-1.84s14.73,9.92,23.66,15S825.58,1135.5,824.29,1140.4Z"/><path class="cls-12" d="M957.59,1121.86c-6.17,2.08-35.84,10.67-39.17,10-1.86-.37-2.67-2.5-3.35-5.57-.54-2.42-1-5.41-1.85-8.59-1.93-7.18-1.05-9,1.54-10.06,1.73-.7,1.08,5,6.77,3.87,7.45-1.5,10.88-6.53,13.35-9.8s17.71,1.24,28,1.23,11.37,1.2,12.71,6.09S963.75,1119.79,957.59,1121.86Z"/><path class="cls-18" d="M795.37,1110.2c3.54-3,37.85-123.88,39.59-134.21.46-2.69,1.18-12.55,2-25.75,1.09-17.77,2.35-41.56,3.3-62,.35-7.41.66-14.38.9-20.44.21-5.32.38-10,.48-13.62a81.25,81.25,0,0,0,0-8.75c-.89-2.89-50.1-3.06-50.1-3.06-4.7,11.2-6,23.52-5.53,36.19.15,4.21.48,8.46,1,12.71.82,7.49,2,15,3.27,22.43,4.12,24.32,8.44,55.64,3.32,68.77-8.12,20.83-19.18,116-23.26,120.9S791.84,1113.24,795.37,1110.2Z"/><path class="cls-17" d="M778.29,1109.31l-1.81-.53c1.26-5.62,30.86-137.88,31.5-140,.84-3.42,5.55-80.64.17-96.28l1.65-.57c5.56,16.17.77,94.22-.14,97.34C809,971.38,778.59,1107.94,778.29,1109.31Z"/><path class="cls-6" d="M856,736.87c3.28,5.51,6.36,9.7,6.36,9.7,5.41-5.67,33.73-18.84,34-20.42a18,18,0,0,0-.27-2.77c-2.43.47-7.89,4.16-10.26,4.55-2.62.42-16.59,9.47-19.79,7.71s-3.49-9.89-7.82-15.42C858.25,720.22,857,728.41,856,736.87Z"/><path class="cls-6" d="M786.05,878.55c.15,4.21.48,8.46,1,12.71,5.22-.74,11.17-1.92,16.19-3,5.89-1.31,14.45-.71,21.9-.09,7.3.61,13.54,1.23,15.18.09,3.31-2.29,27.25-7.15,26.33-11.89v-.06c-1-4.36-2-8.43-3-12.08-6.54,1-14.31,2.25-22.43,3.59-5.71.93-11.59,1.93-17.34,2.94C808.32,873.45,793.75,876.3,786.05,878.55Z"/><path class="cls-9" d="M789,885.39c20.2,2.64,79.3-5.66,78.55-10.31-3.89-23.92-7.87-33.63-7.87-64.32,0-12.83,1.54-26.39,3-75.09.31-10.34-10.16-25-10.16-25s-5.31-3.21-6.4,0c-1.22,3.59-1.28,17.62-4.35,19.39-5.83,3.34-17.38,5.53-25.36-3.54s-33.9,28.93-33.9,28.93c.09.36.18.76.26,1.18,4.55,22.08,8.57,106.34-.26,124.77C781.56,883.49,784.17,884.75,789,885.39Z"/><path class="cls-6" d="M789,885.39c1.3-1.66,1.85-7.2,3.1-17.28,1.46-11.64-2.62-67.54-3.2-72.49s-1.43-32.31-4.66-39.88l-1.44.88c4.55,22.08,8.57,106.34-.26,124.77C781.56,883.49,784.17,884.75,789,885.39Z"/><path class="cls-6" d="M854.19,711.56C847,718.77,822.4,734,822,735.63s1.33,4.24-.72,6.28-19.65,17.47-26.5,20.09-12.91-1.56-12.91-1.56l25.48-23.23Z"/><path class="cls-5" d="M812.26,708c11-6.25,33.77-19.82,44.25-27.68s20.07,11.29,18,14.93-46.86,35.87-56.76,41.62S806.39,711.33,812.26,708Z"/><path class="cls-6" d="M812.26,708c-.2,3.49,9,26.72,9,26.72l-6.34,4-4.49-25.18Z"/><path class="cls-11" d="M812.26,708c2.23-2.86-27,13.66-29.91,20.23s-4.08,16.63-1.58,28.53c.74,3.53,2,6.8,4.08,6.84,11.73.23,36.88-23.65,36.39-24.45S809.81,711.13,812.26,708Z"/><path class="cls-5" d="M912.87,679.26c4.77-4.76,15-43.48,17-53.67S941,614,941.59,619.26s-2.41,63-6.34,69.36S912.87,679.26,912.87,679.26Z"/><path class="cls-15" d="M975.43,517.74a10,10,0,0,0-1.4-2.22c-.11-.18-.2-.38-.31-.56a37.52,37.52,0,0,0-69.41,21.75,37.52,37.52,0,0,0-50.71,52.16c.27.43.57.82.85,1.23a9.81,9.81,0,0,0,.87,1.55,29.08,29.08,0,0,0,5.37,5.65l.47.4.88.7c.83.67,1.68,1.3,2.56,1.89,28,19.59,98.14,38.24,101.2,36.36s17.85-67.25,13.43-103.75a37.26,37.26,0,0,0-2.46-11.72A34.26,34.26,0,0,0,975.43,517.74Z"/><path class="cls-5" d="M872.4,697.44c8.68-6.31,23-38.32,33.94-57.9,5.6-10-6.6-22.91-9.53-12.8-3.41,11.72-38.16,44.81-40.3,53.58C853.69,691.85,867.75,700.82,872.4,697.44Z"/><path class="cls-5" d="M896.86,631.18c.36-3.82,2.66-16.76,4.32-19.68s20.06,3.91,19.35,9c-.81,5.73-8.5,15.19-16.66,21S896.86,631.18,896.86,631.18Z"/><path class="cls-5" d="M919.14,615.35a.64.64,0,0,1-.06.28c-.3.69,1.09,4.31.73,5.52-.79,1.51-7.84,3.5-9.47,3.2-5.17-1-10.2-2.08-9.84-8.52.22-4.06.87-4.92,1.53-5.94a3.87,3.87,0,0,1,.6-.76,2.49,2.49,0,0,1,1.2-.57,27,27,0,0,1,3-.38c2.29-.21,6.62,1.79,9.48,3.86a12.73,12.73,0,0,1,2.17,2A2.2,2.2,0,0,1,919.14,615.35Z"/><path class="cls-5" d="M913.49,611.48a101.12,101.12,0,0,0,5.65-10.4c.49-1.39,3.55-6.59,2.19-7.61s-2.32.58-4.16,3.32-9.09,13.77-9.09,13.77Z"/><path class="cls-5" d="M922.1,598.78c.69-.21,1.12.32,1.36,1.19s-1.36,4.58-1.86,6.45a49.41,49.41,0,0,1-3.36,8.37c-.68,1.11-5-1.1-4.07-2.64a59.29,59.29,0,0,0,3.43-5.83C918.13,605,922.1,598.78,922.1,598.78Z"/><path class="cls-5" d="M902.42,609.32a51.38,51.38,0,0,1,6.17-8.69c1.41-1.3,6.23-7.34,7.37-7.55s1.73.68.42,3-3.35,4.75-5,7.42-2.83,4.16-3.28,5.42S902.42,609.32,902.42,609.32Z"/><path class="cls-5" d="M919.14,621.47a1,1,0,0,0,1.28-.74c0-.08.07-.17.11-.27,1-3.05,3.34-11.75,3.39-13.45s-.88-1.43-1.79-.1c-1.08,1.6-3.26,8.54-4,9.83a3.27,3.27,0,0,1-.52.69,2.58,2.58,0,0,1-1.67.8C915.76,618.24,917.66,621.08,919.14,621.47Z"/><path class="cls-11" d="M824.29,1140.4c-1.27,4.9-15.63,3.42-22,2.14s-36.38-8.64-38.93-10.88c-1.46-1.28-1-3.62-.05-6.73,6.16,4.29,35.54,13.61,42.54,15.06S816.84,1141.09,824.29,1140.4Z"/><path class="cls-11" d="M957.59,1121.86c-6.17,2.08-35.84,10.67-39.17,10-1.86-.37-2.67-2.5-3.35-5.57,11.31-.43,45.42-8,60.53-17.26C976.94,1113.91,963.75,1119.79,957.59,1121.86Z"/><path class="cls-4" d="M809.7,694.83a4.07,4.07,0,0,1-1.22-.19c-1.77-.58-3.1-2.42-4-5.47s-3-5.29-4.87-7.13c-2.22-2.19-4.31-4.27-3.68-7.61a42.43,42.43,0,0,0-.16-16.53c-1.5-7.66,1.94-9.81,8.19-13.7A88.78,88.78,0,0,0,814.34,637l.56.67A90,90,0,0,1,804.45,645c-6.3,3.92-9.18,5.71-7.79,12.78a43.34,43.34,0,0,1,.16,16.86c-.54,2.89,1.21,4.63,3.43,6.83,1.94,1.92,4.14,4.1,5.1,7.51.78,2.75,1.92,4.39,3.39,4.88a4.14,4.14,0,0,0,3.44-.72l.54.69A5.43,5.43,0,0,1,809.7,694.83Z"/><path class="cls-4" d="M853.37,641c1.18-5.7,1.23-10.54-.8-12.77a9.81,9.81,0,0,1-6.73,8.3c1.8-4.24,1.06-12.13-.25-13.44-5.15,11.2-11.35,16.64-11.35,16.64a44.6,44.6,0,0,0,3.27-12.06c-9.82,8.56-13,1.43-22.89,7.18-4.83,2.81-5-3.42-12.26,9.1s-.58,14.26-7,25,6.41,11.81,8.44,15.65,6.88,11.86,8.83,10.47-1.73-6.27.13-10.47,7.35-3.77,7.35-6.18c0-5.11-9.71-17.55,4.22-19,6.68-.72,9.13-10.42,16.47-6.43,5.58,3,6.41.08,8.43,5.22,1.18,3-.61-2.52,2.61-4.29C854.83,652.26,852,647.52,853.37,641Z"/><path class="cls-16" d="M815.17,676.24c-3.5-3.34-7.86-1.42-7.86,2.2s2.4,10.13,7.86,11.68S815.17,676.24,815.17,676.24Z"/><path class="cls-4" d="M828.51,655.78l-.11.33c-.06.19-.2.6-.38,1a11.27,11.27,0,0,1-2.15,3.28c-1.07,1.19-2.53,2.19-3.58,3.42a5.77,5.77,0,0,0-1.17,2.15,7.74,7.74,0,0,0-.24,1.29l0,.34a.49.49,0,0,1,0,.14v.91a10.77,10.77,0,0,0,.42,2.69c.26.89.63,1.79.83,2.73a8.83,8.83,0,0,1,.14,2.74,16.78,16.78,0,0,1-.45,2.36c-.2.71-.4,1.36-.61,1.91s-.37,1.06-.54,1.45c-.32.79-.51,1.24-.51,1.24s.15-.46.4-1.28c.13-.4.27-.9.41-1.48a18.72,18.72,0,0,0,.43-1.93,10.17,10.17,0,0,0-.1-4.8c-.25-.83-.67-1.65-1-2.58a11.8,11.8,0,0,1-.74-3l-.06-.73v-.8a9.31,9.31,0,0,1,.17-1.58,7.58,7.58,0,0,1,1.27-2.88,17.21,17.21,0,0,1,1.83-2.1,21.1,21.1,0,0,0,1.51-1.67,8.55,8.55,0,0,0,1.49-2.73c.12-.36.18-.59.24-.84l.08-.34Z"/><path class="cls-5" d="M626.18,715.69c3.32-7.84,5.06-13.84,5.41-16.62s1.59-14.39.74-15.84-2.22.16-4.87,4.78S626.18,715.69,626.18,715.69Z"/><path class="cls-15" d="M461.9,548.61a15.33,15.33,0,0,1,2.23-3.53c.18-.3.32-.61.5-.9a59.72,59.72,0,0,1,110.48,34.63,59.73,59.73,0,0,1,80.72,83c-.43.69-.91,1.31-1.35,2a17.32,17.32,0,0,1-1.38,2.47,46.29,46.29,0,0,1-8.56,9l-.75.65c-.45.37-.93.74-1.4,1.11-1.32,1.06-2.67,2.07-4.07,3-44.56,31.18-156.22,60.87-161.09,57.87s-28.42-107-21.38-165.15a59.23,59.23,0,0,1,3.92-18.66A52.81,52.81,0,0,1,461.9,548.61Z"/><path class="cls-5" d="M522.05,739.51c-23.93-2.13-36.55-35.08-36.55-35.08s7.21.09,10-1.87,2.13-16.22,1.52-26.89c-.43-7.31,9.34-.82,16.76,5.42,4.45,3.74,8.05,7.39,8.11,7.94.11,1,.3,6.22.64,10.34.14,1.74.31,3.27.5,4.24.66,3.28,9,3.44,11.64,3.44S546,741.64,522.05,739.51Z"/><path class="cls-5" d="M558.1,1111.6c-5.69-9.79-5.88-16-4.72-23.11q.14-.84.3-1.71a138.11,138.11,0,0,1,5.09-18s-21.08-8.42-23.39,4.59c-.59,3.32-1.37,7.22-2.22,11.15-1.88,8.59-4.12,17.28-5.5,20.15C525.65,1108.9,564.25,1122.18,558.1,1111.6Z"/><path class="cls-12" d="M558.1,1111.6c-5.69-9.79-5.88-16-4.72-23.11-5.58.91-14.11.36-20.22-3.92-1.88,8.59-4.12,17.28-5.5,20.15C525.65,1108.9,564.25,1122.18,558.1,1111.6Z"/><path class="cls-11" d="M523.69,1116.77c3.91,2.65,38.35,23.84,44.49,23.84a21.73,21.73,0,0,0,6.92-1.06c3.21-1.11,5.2-3.09,3.48-5.9-.89-1.48-11.87-13.2-14.33-16.15s-8.11-14.79-10.23-14.87c-3.59-.13-7,5.88-9.68,5-9.18-2.87-10.2-10.15-14.27-11.63-1.75-.64-5.07,9.34-6.27,15.7C523.31,1114.4,523.18,1116.42,523.69,1116.77Z"/><path class="cls-10" d="M523.69,1116.77c3.91,2.65,38.35,23.84,44.49,23.84a21.73,21.73,0,0,0,6.92-1.06c-4.87-.17-48.22-23.15-51.29-27.8h0C523.31,1114.4,523.18,1116.42,523.69,1116.77Z"/><path class="cls-7" d="M581.37,954.35c-.29,4.38-27.3,11.36-38.11,2.21a11.71,11.71,0,0,1-3.19-4.17c-6.16-13.49-12.05-34.61-16.51-49q-.79-2.53-1.51-4.76c-.22-.68-.45-1.49-.68-2.43-1.08-4.54-2.19-11.92-3.26-20.5-.73-5.79-1.43-12.12-2.08-18.49-1.51-14.73-2.78-29.64-3.49-38.36-.39-4.8-.61-7.73-.61-7.73l44.18,7.42c.5,1.62,3,14.25,6.34,31.21.55,2.86,1.12,5.84,1.72,8.9C571.66,897.59,581.59,951.18,581.37,954.35Z"/><path class="cls-19" d="M546.58,647c-1.23,3.45-4.46,4.93-5.19,8.74s-5.41,8.11-5.41,8.11L534.5,644.9S548.82,640.69,546.58,647Z"/><path class="cls-7" d="M581.37,954.35C580.72,976.15,566,1071,564,1076.94c-1.54,4.62-21.75.86-30.23-4.43l-.06,0c-2.31-1.45-3.73-3-3.63-4.58.49-7.17,10.65-101.4,10-115.5a4.54,4.54,0,0,1,2.09-4.33C550.56,942.56,581.37,954.35,581.37,954.35Z"/><path class="cls-6" d="M535,1047.2c-2.62,15.14-3,24.32-1.3,25.27-2.31-1.45-3.73-3-3.63-4.58.49-7.17,10.65-101.4,10-115.5-6.16-13.49-12.05-34.61-16.51-49q-.79-2.53-1.51-4.76c-.22-.68-.45-1.49-.68-2.43l2.8-1.85c1.24,8.16,9.39,32.33,12.3,39.6,2.18,5.44,4.36,8.93,5.69,14.11a38.55,38.55,0,0,1,1,6c.05.59.08,1.44.08,2.52C543.22,971.9,537.46,1033.06,535,1047.2Z"/><path class="cls-6" d="M522.53,699.37a27,27,0,0,1-8.33-1.6c-6.26-2.42-11.65-12.58-14.44-17.42l14,.74c4.45,3.74,8.05,7.39,8.11,7.94C522,690.07,522.19,695.25,522.53,699.37Z"/><path class="cls-5" d="M538.11,650.19c.12,4.79-2.13,9.18-1.48,12.45s1.11,9-.1,13.11-7.27,14.1-8.91,17.21-9.51,2.46-11.8,1.15-13.77-9.34-16.06-13.77-8.36-10.81-3.77-21,13.93-17.38,25.07-17.21S538.05,647.74,538.11,650.19Z"/><path class="cls-6" d="M536.67,648.2c-3.69,1.77-4.86,3.95-9.81,4.24s-6.76-2.38-13-1-11.23,8.44-12.82,13.68-6-5.69-5.52-8.45,14.73-16,20.54-16.29S536.67,648.2,536.67,648.2Z"/><path class="cls-12" d="M542,634.33c1.65,3.93,9,8.61,6.52,11.06a11.09,11.09,0,0,1-11.2,3c-4.91-1.36-5.89,3.07-12,2.33s-8.35-4.3-12.66-1-10.44,4.79-10.69,10.44-2.53,9.2-4.42,10.94-3.69-5.28-7.75-7.62-7.25-6.85-7.37-10.61,5.77-12.49,6.88-15.94,3.32-9.34,10.45-11.92,16.35-2,20.28,0S535.49,618.85,542,634.33Z"/><path class="cls-12" d="M498.23,629.61l-.52.19c-.36.12-.81.3-1.36.54a15.71,15.71,0,0,0-2,1.08,14.64,14.64,0,0,0-2.31,1.82,36.25,36.25,0,0,0-4.8,6c-.81,1.2-1.63,2.44-2.48,3.71a43.78,43.78,0,0,0-2.33,3.88,16.28,16.28,0,0,0-1.56,4.16,8.75,8.75,0,0,0,.1,4.2,9.4,9.4,0,0,0,1.92,3.5,10.73,10.73,0,0,0,3,2.08,29.36,29.36,0,0,0,5.22,1.91c1.31.35,2.07.49,2.07.49s-.77-.1-2.09-.38a29.88,29.88,0,0,1-5.37-1.66,10.93,10.93,0,0,1-3.24-2,10,10,0,0,1-2.25-3.66,9.58,9.58,0,0,1-.36-4.62,17.52,17.52,0,0,1,1.43-4.54c.66-1.44,1.43-2.81,2.2-4.13s1.54-2.6,2.29-3.85a37.78,37.78,0,0,1,4.72-6.6,17.48,17.48,0,0,1,4.76-3.6c.67-.33,1.19-.58,1.51-.7l.51-.22Z"/><path class="cls-5" d="M498.71,671.08c-.62-2.7-.62-9.46-5-12.29s-6.8.37-7,4.43,5.49,13.89,9.43,13.52S498.71,671.08,498.71,671.08Z"/><path class="cls-13" d="M526.52,856c-.34,6.17-.74,13-1.17,20.08-.54,8.8-1.16,18.09-1.79,27.3h0c-2.35,33.72-5.15,66.27-6.75,69.32-2.84,5.4-26.39-12.85-33.24-20.79a8.19,8.19,0,0,1-1.84-2.81c-.58-2.69-2.41-38.25-3.61-70.86v-.11c-.14-3.68-.27-7.32-.38-10.87-.06-1.92-.12-3.81-.17-5.67-.49-16.17-.69-29.75-.35-35.4.35-5.44,20.61-8.75,35.32-7.35,8.3.8,14.84,3.09,15.08,7.35C527.79,829.34,527.34,840.78,526.52,856Z"/><path class="cls-5" d="M386.19,1052.36c1.7-1.79,7.17-6.12,13.37-10.06,5.72-3.64,12.07-6.94,16.68-7.65,9.61-1.46.41-27.41-11.22-20.75-2.23,1.28-5.56,3.79-8.84,6.07-3.6,2.52-7.12,4.77-9,4.86-3.6.17-9.34,5.24-10.16,18.36S382.91,1055.8,386.19,1052.36Z"/><path class="cls-12" d="M386.19,1052.36c1.7-1.79,7.17-6.12,13.37-10.06-2.83-7.73-3.32-16.36-3.38-22.33-3.6,2.52-7.12,4.77-9,4.86-3.6.17-9.34,5.24-10.16,18.36S382.91,1055.8,386.19,1052.36Z"/><path class="cls-11" d="M359.77,1081.13l0,0a9.43,9.43,0,0,0,3.44,2c5.25,1.78,17.86-20.88,27.21-32,1.55-1.86-10.59-6.49-9.77-10.25s10.82-16.51,8.49-16.62c-6.88-.33-10.61.15-12.81,1a6,6,0,0,0-2.75,1.91c-1.47,1.8-5.53,11.55-11.68,24.21C355.88,1063.86,354.06,1075.91,359.77,1081.13Z"/><path class="cls-10" d="M359.77,1081.13a21,21,0,0,1-2.09-11.89c.66-6.93,13.76-34.49,18.68-44a6,6,0,0,0-2.75,1.91c-1.47,1.8-5.53,11.55-11.68,24.21C355.88,1063.86,354.06,1075.91,359.77,1081.13Z"/><path class="cls-13" d="M516.81,972.71c-5.91,12.79-93.29,65-95.06,65.89-3.82,2-15.66-18.79-17.85-28.48-.5-2.17-.51-3.77.15-4.46,1.12-1.17,71.79-43.44,77.68-56.55a4.43,4.43,0,0,1,2.94-2.69C494.05,944.07,516.81,972.71,516.81,972.71Z"/><path class="cls-6" d="M493.16,703.25c5.76,6,9.83,20.23,15.65,23.72s16.2,5.33,18.51.92,11.92,10.79,3,16.51-31.24,3.26-33.92-15.08S493.16,703.25,493.16,703.25Z"/><path class="cls-6" d="M564.17,858.65c-13.21,16.68-28.28,17.15-38.81,17.43h0a65.6,65.6,0,0,1-7.24-.38c-13.16-1.26-34.64-5.39-40.37-8.43-.06-1.92-.12-3.81-.17-5.67,9-1,24-2.72,38.46-4.39L526.52,856c15.34-1.79,28-3.3,28.8-3.56s4-1.74,7.13-2.69C563,852.61,563.57,855.59,564.17,858.65Z"/><path class="cls-11" d="M491.57,703c-3.93,2-14.84,1.37-16.8,4s1.23,41.27,3.44,53.32-6,101.24-4.06,101.73,37.24,12.09,55.92,11.35S565.25,857,566,855.06s-15-79.5-11.57-95,1.22-48.18-2.95-49.41-18.47-4.16-21.56-4.43,1.06,24.59-6.22,27c-5,1.68-16.23-1.72-20.41-8.61S495.2,701.13,491.57,703Z"/><path class="cls-5" d="M460.32,731.9c-2.35-.43-5-1-7.92-1.74q-3.67-.92-7.11-1.87c-50.36-13.79-64-30.69-66.48-33.09s20-15.84,27.21-11.25,27.21,10.48,46.38,14.42C452.4,698.37,502.88,739.59,460.32,731.9Z"/><path class="cls-6" d="M460.32,731.9c-2.35-.43-5-1-7.92-1.74q-3.67-.92-7.11-1.87l.3-.41s4.71-17.58,6.81-29.51Z"/><path class="cls-6" d="M488.53,704.23c2.38,2.58,7.72,22.85,10.4,38.26s1.15,33.72,2.24,45.64,4,47.72,2.2,56.67-24-31-24.47-41.48S488.53,704.23,488.53,704.23Z"/><path class="cls-17" d="M488.53,704.23c3,5.8,8.06,33.87,9.2,42.81,1,8.07.88,46.22,4.32,63.67s.25,36.14,1.72,39.34-19.17-2.22-25.07-4.43-15-4.42-13.77-7.62,2.71-48.18,2-62-.4-73.48,4.72-72.8C481.19,704.52,487.46,702.13,488.53,704.23Z"/><path class="cls-5" d="M606.53,808.75c-6.24,2.21-26.49-19.3-37.14-32.86-2.24-2.84-4-5.34-5.22-7.19-.06-.09-.12-.18-.17-.27-1.73-2.78,1-7.81,4.51-12.57A105.35,105.35,0,0,1,578.13,745c.55-.54.87-.83.87-.83s.07.08.19.25c.7.9,3.19,4.13,6.42,8.21,6,7.57,14.5,18.06,18.71,22C611.2,781,614.15,806,606.53,808.75Z"/><path class="cls-6" d="M585.61,752.61c-3,4.92-16.22,23.28-16.22,23.28-2.24-2.84-4-5.34-5.22-7.19,1.23-3.93,2.93-8.94,4.34-12.84a48.06,48.06,0,0,1,2.54-6.33,71.14,71.14,0,0,1,7.08-4.55l1.06-.58C579.89,745.3,582.38,748.53,585.61,752.61Z"/><path class="cls-17" d="M554.3,711.42c6.75,2.44,31.34,30.71,33.79,32.92S567,773.82,567.2,776.53s-7.43-11.54-11.09-11.79S554.3,711.42,554.3,711.42Z"/><path class="cls-6" d="M532.21,707c3.72,14.92,7.11,39.11,8.45,45.66s6.07,75.64,6,79.85,5.17,11.42,5.17,11.42,3.49-64.29,1.09-83.78S532.21,707,532.21,707Z"/><path class="cls-17" d="M532.21,707c2.16,9.68,12.78,46.76,13.11,67.74s3.79,63.59,3.7,67.85,17.6,5.24,17,3.28-7.87-57-6.88-74.73,1-54.74-1.32-57.69S531.54,704,532.21,707Z"/><path class="cls-17" d="M473.06,703.91c-3.95-2.06-21.4-7.51-20.66-5.54s-3.2,32-6.39,37.86,13,.24,17.7,18.43,3.35,26.81,3.35,26.81S479,707,473.06,703.91Z"/><path class="cls-5" d="M593.57,801.82c4.68,3.72,24,22.48,28.94-17.9,3.77-31.14,1.81-35.42,2-61.34,0-5.27-13.72-7.3-14.33,1-.94,13-10.26,44.86-10.5,53S593.57,801.82,593.57,801.82Z"/><path class="cls-5" d="M381.55,698c-8.68-5.36-7.49-17,1.52-26.59,8.45-9,49.5-45.75,56.05-42.8s.66,9.66-6.23,18.76-28.76,31.25-28.84,35.86S381.55,698,381.55,698Z"/><path class="cls-5" d="M610.38,688.52c-1.37,4.22,0,8.11,0,11.77,0,3.85.65,17.33.44,18.79s-.24,2.45-.64,4.46c-1.23,6.25,13.92,5,14,1,.14-7.46,1.87-7.27,2.62-10.18,1.3-5,3.26-9.93,3.37-15.36,0-.91,0-1.86-.06-2.85-1.18-2.07-7-3.05-10-3.59a7.25,7.25,0,0,0-2.23,0,11.25,11.25,0,0,0-4.13,1.49c-.27.16-.49.31-.66.43l-.07,0c-.14,0-.16-.59-.08-1.53a.17.17,0,0,1,0-.12c.06-.94.21-2.21.36-3.62v-.09C613.39,687.58,610.63,688.15,610.38,688.52Z"/><path class="cls-5" d="M624.61,693.42c-.17-1.35,1.95-7,1.69-8.33-.67-3.52-1.38-12.21.46-9.84a22.18,22.18,0,0,1,4.09,9.92c.13,1.46-.25,10.61-1.1,12.47C629.38,698.47,624.82,695.1,624.61,693.42Z"/><path class="cls-5" d="M619.39,693.85c0-2.57-1.46-8-2.27-10.44-1.19-3.58-3.88-9.19-5-7.4-1.31,2,.79,4.71,1.64,8.57a77.48,77.48,0,0,1,.07,10.87C613.48,697.8,619.37,696.63,619.39,693.85Z"/><path class="cls-5" d="M624.61,693.42a45.32,45.32,0,0,0-.5-11.95c-.34-.76-2.43-7.28-5.15-9.4-1.3-1-.94,6.29.87,9.4.74,1.27-.07,10.79-.14,12.39s5.32,1.12,4.92-.44"/><path class="cls-5" d="M609,687.76a62.72,62.72,0,0,1,1.58,12.53c.44,8.56-2.9,12.44.43,18.79,0,0,13.36,1.18,15.88-4.51,0-.07.07-.16.11-.25,1.27-7.85,4.32-13.72,3.43-17.92-1.23-5.82-7.1-3.34-10.12-3.88a7.25,7.25,0,0,0-2.23,0,9.37,9.37,0,0,0-4,1.85,32.68,32.68,0,0,0-1-6.26,32.33,32.33,0,0,0-3.59-7C607.81,678.76,608.05,684.64,609,687.76Z"/><path class="cls-5" d="M430.32,626.92c3.33-7.82,6.44-13.25,8.19-15.43s9.24-11.15,10.88-11.54,1.43,1.7-.05,6.82S430.32,626.92,430.32,626.92Z"/><path class="cls-5" d="M460.83,619.41c-2.07,3.92-5.84,5.62-8.44,8.2s-12.91,11.58-13.81,12.75-1.6,1.87-2.77,3.55c-3.64,5.23-13.28-6.52-10.42-9.4,5.27-5.28,3.93-6.39,5.51-9,2.72-4.43,4.87-9.24,8.7-13.1.63-.65,1.34-1.29,2.09-1.93,2.31-.59,7,2.9,9.53,4.69a7.56,7.56,0,0,1,1.56,1.6,11.43,11.43,0,0,1,1.8,4c.07.31.11.58.15.78,0,0,0,.06,0,.07s.54-.3,1.16-1a.26.26,0,0,0,.09-.09c.63-.7,1.44-1.69,2.35-2.77l.06-.07C459.42,616.6,460.93,619,460.83,619.41Z"/><path class="cls-5" d="M447.43,612.59c1.09-.82,3.66-6.26,4.81-7,3-2,9.74-7.49,6.76-7.17a22.14,22.14,0,0,0-10,4c-1.15.93-7.46,7.56-8.21,9.46C440.49,612.66,446.07,613.6,447.43,612.59Z"/><path class="cls-5" d="M450.74,616.63c1.83-1.8,6.77-4.51,9.09-5.62,3.4-1.63,9.3-3.59,8.83-1.51-.52,2.32-3.94,2.71-7.31,4.78a77.94,77.94,0,0,0-7.86,7.5C452,623.63,448.75,618.58,450.74,616.63Z"/><path class="cls-5" d="M447.43,612.59a44.65,44.65,0,0,1,8.94-8c.78-.28,6.92-3.32,10.34-2.83,1.62.23-3.88,5.05-7.36,5.91-1.43.35-7.72,7.55-8.82,8.71s-4.5-3-3.1-3.84"/><path class="cls-5" d="M462.5,620a62.72,62.72,0,0,0-10.11,7.57c-6.46,5.63-6.93,10.73-13.81,12.75,0,0-10.13-8.79-7.79-14.56l.11-.25c4.76-6.37,6.86-12.64,10.5-14.92,5-3.16,7.33,2.79,9.82,4.58a7.27,7.27,0,0,1,1.55,1.6,9.4,9.4,0,0,1,1.46,4.17A22.78,22.78,0,0,1,467,615.13C469.77,614.62,465.38,618.52,462.5,620Z"/><path class="cls-6" d="M484.33,950.55a7.82,7.82,0,0,1-.76,1.37c-3.82,5.7-18,17.21-23.4,19-5.7,1.88-51.54,36.88-56.27,39.19-.5-2.17-.51-3.77.15-4.46,1.12-1.17,71.79-43.44,77.68-56.55-.58-2.69-2.41-38.25-3.61-70.86.71,14.22,6.38,54.63,6.55,68.17A13.31,13.31,0,0,1,484.33,950.55Z"/><path class="cls-12" d="M508.84,647.41l.62-.18a3.09,3.09,0,0,1,.37-.1l.58-.08a3.71,3.71,0,0,1,.67-.06l.67,0a9.8,9.8,0,0,1,3.1.82,27.89,27.89,0,0,1,3.42,1.76c1.18.69,2.41,1.45,3.74,2.12l1,.48c.35.12.69.28,1,.37l.53.15.07,0h0l.16,0,.31,0a3.94,3.94,0,0,0,1.07,0,13,13,0,0,0,4.55-1.61c1.55-.8,3.09-1.75,4.77-2.54a10.68,10.68,0,0,1,2.71-.91,4.53,4.53,0,0,1,.74-.08,5.75,5.75,0,0,1,.72,0l1.34.07a16.63,16.63,0,0,0,5-.3,4.92,4.92,0,0,0,2-1.05,4.3,4.3,0,0,0,1.2-1.84l.18-.51a3.8,3.8,0,0,0,.09-.54,3.13,3.13,0,0,0,0-1,4.88,4.88,0,0,0-.83-1.82,15.88,15.88,0,0,0-2.51-2.63c-.82-.73-1.55-1.36-2.1-1.93a4.12,4.12,0,0,1-1-1.53A1.49,1.49,0,0,1,543,634a1.52,1.52,0,0,0,.08.63,4,4,0,0,0,1.06,1.46c.57.54,1.32,1.13,2.17,1.82a16.43,16.43,0,0,1,2.69,2.58,5.3,5.3,0,0,1,1,1.95,3.86,3.86,0,0,1,.1,1.19c0,.22-.06.39-.08.58s-.11.39-.17.59a5.15,5.15,0,0,1-1.28,2.17,5.71,5.71,0,0,1-2.29,1.32,17.5,17.5,0,0,1-5.3.57h-1.34a4.09,4.09,0,0,0-.62,0,2.49,2.49,0,0,0-.59.09,9.24,9.24,0,0,0-2.35.92c-1.55.81-3,1.82-4.6,2.73a14.43,14.43,0,0,1-5.13,2,6.36,6.36,0,0,1-1.43,0l-.31,0h-.16l-.1,0h-.06l-.08,0-.66-.15c-.44-.11-.84-.27-1.25-.39s-.78-.31-1.15-.48c-1.47-.67-2.76-1.39-3.94-2a27.87,27.87,0,0,0-3.21-1.48,7.55,7.55,0,0,0-2.39-.53h-.45c-.13,0-.21,0-.31,0l-.26,0a1.39,1.39,0,0,0-.31.1l-.61.21Z"/><path class="cls-12" d="M537.19,635.13s0-.24-.11-.69-.21-1.1-.44-1.92a15.17,15.17,0,0,0-1.13-2.8,10.56,10.56,0,0,0-2.31-3,8.53,8.53,0,0,0-3.92-1.94,9.06,9.06,0,0,0-1.23-.19l-1.42-.15c-1-.09-1.89-.18-2.87-.22-2-.13-4-.11-6.1-.11a21.9,21.9,0,0,1-3.3-.23,18.43,18.43,0,0,1-3.25-.83c-1-.31-2.1-.9-2.87-1a8.29,8.29,0,0,0-2.88.11,21.06,21.06,0,0,0-5.61,2,18.84,18.84,0,0,0-4.59,3.19,7.64,7.64,0,0,0-1.52,2.05c-.39.76-.8,1.5-1.22,2.19a37.28,37.28,0,0,1-4.64,6.2l-1.47,1.58-.51.57.48-.6,1.4-1.65a36.8,36.8,0,0,0,4.3-6.35c.38-.7.74-1.43,1.1-2.22a8.43,8.43,0,0,1,1.52-2.3,19.51,19.51,0,0,1,4.63-3.62,22.63,22.63,0,0,1,5.83-2.44,9.56,9.56,0,0,1,3.41-.29,5.31,5.31,0,0,1,.92.19l.78.27c.49.18,1,.33,1.48.47a16.31,16.31,0,0,0,6,.64c2.06-.11,4.18-.23,6.21-.22,1,0,2,0,3,.08l1.43.07a13.53,13.53,0,0,1,1.52.16,11.43,11.43,0,0,1,5.33,2.35,13.61,13.61,0,0,1,3.18,3.72,19.27,19.27,0,0,1,1.54,3.34,21.23,21.23,0,0,1,.64,2.27c.11.53.16.81.16.81Z"/><path class="cls-7" d="M1220.89,654.84l-.23.66c-.07.28-.18.67-.26,1.08s-.14.83-.16,1.31a22.89,22.89,0,0,0,1,7.5,55.39,55.39,0,0,0,3.66,9.54c.19.4.39.8.58,1.21l.57,1.28a12,12,0,0,1,.45,1.26,9.88,9.88,0,0,1,.38,1.27,19.79,19.79,0,0,1,.6,5.51,30.52,30.52,0,0,1-.7,5.62c-.38,1.85-.89,3.65-1.34,5.44-.23.89-.44,1.78-.58,2.67a12.35,12.35,0,0,0-.16,1.33,11.21,11.21,0,0,0-.05,1.3,33.13,33.13,0,0,0,.36,4.75,51.34,51.34,0,0,0,1.46,6.93,19.06,19.06,0,0,0,.62,1.89,2.48,2.48,0,0,0,.31.62,3.16,3.16,0,0,1-.28-.64c-.14-.43-.32-1.07-.5-1.9a51.36,51.36,0,0,1-1.07-7,33.79,33.79,0,0,1-.09-4.65,19,19,0,0,1,1-5,48.54,48.54,0,0,0,2.72-11.27,21.54,21.54,0,0,0-.32-6,11.87,11.87,0,0,0-.35-1.49,13.36,13.36,0,0,0-.44-1.43c-.16-.44-.33-.88-.49-1.31L1227,674a53.34,53.34,0,0,1-3-9.26,20,20,0,0,1-.48-6.49,8.08,8.08,0,0,1,.17-.94l.15-.55c.17-.42.27-.65.27-.65Z"/><path class="cls-20" d="M1213.67,621.38c10.6,2.32,19.44,16.58,13.71,27.77s-6.31,11.28-6.35,18.62,3.6,9.44,2.89,18.2-3.83,13.66-1.12,19.39-49.81,17-51,6,3.38-61.89,6.35-65.88S1205.9,619.68,1213.67,621.38Z"/><path class="cls-10" d="M1196.07,1140.91c-.18,5.53-13.64,9-23.57,2.93s-12.36-11.58-18.19-13.74-10.38-7.13-6.83-15c1.59-3.5,7.3,9.06,14.86,13.66s13.23,12.94,18.27,14.17S1196.07,1140.91,1196.07,1140.91Z"/><path class="cls-5" d="M1151.36,1022.52c-.75,26,4.14,67.8,0,78.36s-4.45,14.63-3.35,18.71,11.66,7.32,15,10.84,10.4,12.94,17.49,14.49,18.27-3,15.12-5.21-13.86-12.52-15.75-16.32-11.34-18.29-12.52-21,11.34-75.56,11.1-78.3S1151.56,1015.93,1151.36,1022.52Z"/><path class="cls-10" d="M1255.75,1118.47c-.44,2.14-.91,2.43-3,2.67-5.55.65-16.07-.18-22.17-2.33s-29.57-5.22-31.1-5.65-2.21-7,0-6.26S1255.75,1118.47,1255.75,1118.47Z"/><path class="cls-5" d="M1198.73,1002c.72,10.13,5.67,71.78,4.72,80.36s-9,18.68-2.3,24.9c4.67,4.33,15.22,2.81,22.15,6.19s29.29,6.47,32.45,5.07-10.82-9.57-17.22-13-16.67-13.56-18.3-16.42c-2.6-4.53,6.85-70.82,5.9-77.86S1198.19,994.41,1198.73,1002Z"/><path class="cls-8" d="M1222.56,705.73c16.69,10.87,28.55,71.81,33,80.27s-5.75,18.32-12.64,11.64-13.8-28.87-17.39-34.75S1222.56,705.73,1222.56,705.73Z"/><path class="cls-5" d="M1201.93,744.75c-9,1.39-23.16-37.9-22.19-39.06.64-.82,2-6.49,2.55-11.53a27.83,27.83,0,0,0,.12-5.69s.14-14.3.45-15.23c2.33-6.71,16.74-10.8,18.57-1.16a115.34,115.34,0,0,1,1.64,14.65c.17,2.58.3,5,.49,7.06a31.55,31.55,0,0,0,.81,5.19c1.5,5.54,5.17,3.76,6.83,4.22S1210.92,743.35,1201.93,744.75Z"/><path class="cls-6" d="M1203.56,693.79c-4.35-1.54-13.68-7.53-16.12-10.5-5.54-6.72-1.53-12-1.53-12,5.48,2.48,11.94,12.32,17.16,15.45C1203.24,689.31,1203.37,691.69,1203.56,693.79Z"/><path class="cls-5" d="M1210.75,632.78c5.88,1.35,13.5,14.39,9.6,29.54s-6.93,24.11-12.13,25.38-19.3-3.9-22.26-9.81-2.22-23.87-.86-28S1194.87,629.14,1210.75,632.78Z"/><path class="cls-11" d="M1173.37,1034.13c10.05,10.42,50.54-13,60.91-11.84s1.12-47.17,3.53-106.76c1.79-44.2-6.39-103.23-8.67-116.79-.55-3.31-1.35-8-1.79-11.34-.69-5,3-23,3.15-23.39a44.42,44.42,0,0,1,4.06-8.63c4.53-7-4-47.27-12-49.92s-14.11-3.58-14.63-1.89c0,0,0,.06,0,.1,1.79,7.9-9,39.43-9.57,39.45-2.75.14-17.22-37.23-19.3-37.66-6.41-1.38-19.65.12-19.19,1.82a128.2,128.2,0,0,1,1.64,20.18c-.22,6.48-4.43,19.31-4.57,23.25-.11,3.56,14.09,35.35,13,43.61-.07.6-1.82,3-4.25,9-2.76,6.78-6.42,18.19-9.54,36.94-5.9,35.31-3.91,162.91-14.55,176.13a12.42,12.42,0,0,0-1.63,2.53C1135.42,1028.83,1164,1024.45,1173.37,1034.13Z"/><path class="cls-6" d="M1140,1018.88c11-10.94,12.12-31.46,12.91-59.43.8-28.38,3.13-91.26,4-103.82s8.72-44.65,9.4-51.68l-.61-.67c-2.76,6.78-6.42,18.19-9.54,36.94-5.9,35.31-3.91,162.91-14.55,176.13A12.42,12.42,0,0,0,1140,1018.88Z"/><path class="cls-6" d="M1207.92,703.65c-1.32,6.8-3.43,35.72-8.45,31.35S1179,705.71,1179,705.71s8.36,31.46,9.59,35.29,34.87,30.37,38.36,15.24-18.78-53.51-18.78-53.51"/><path class="cls-12" d="M1156.91,755.26a15,15,0,0,0,.79,3.71c.83,2.77,2.2,6.67,3.65,11.08,2.76,8.32,5.81,18.44,6.14,26.21a13.49,13.49,0,0,0,7.43,7.69c.43.2.85.41,1.32.58h0c4,1.55,8.9,2.1,13.71,2.51.47,0,1,.07,1.43.11,5,.39,9.94.69,13.68,1.88a14.94,14.94,0,0,0,4.2.72c.5,0,1,0,1.45,0,6.64-.5,11.94-5.52,15.15-9.51.43-.54.83-1.08,1.19-1.57a33.36,33.36,0,0,0,2.21-3.41c-.68-5.47-2.13-11-1.12-16.31,0,0,0,0,0,0q.21-1.07.42-2.1c.43-1.92.94-3.77,1.47-5.51.14-.49.3-1,.43-1.42a50,50,0,0,1,4.08-9.45c4.51-7.74-4.06-51.76-12-54.66s-14.11-3.92-14.63-2.08a.75.75,0,0,0,0,.11c-.71,4-1.62,8.34-2.67,13-.12.53-.24,1.08-.36,1.63-1.47,6.73-3.21,14.09-4.67,18.29-.71,2.11-1.4,3.42-1.94,3.44-2.76.15-17.15-33.89-19.23-34.37-6.41-1.51-19.66.14-19.19,2a151.09,151.09,0,0,1,1.63,22.11C1161.25,736.9,1157.05,751,1156.91,755.26Z"/><path class="cls-6" d="M1157.7,759c.83,2.77,2.2,6.67,3.65,11.08,4.69-8.86,10.17-14.78,9.85-20.66s-1.64-18.54-1.64-18.54Z"/><path class="cls-5" d="M1159.83,707.72c-3.11.78-8.15,11.53-13.18,29.09s-18.23,47.69-19.18,55.31,12.1,23,17.17,11.81c6.94-15.26,17.11-37.34,17.93-40.48,1.82-7,8.87-16.06,8.62-31.65C1171.09,726.18,1159.83,707.72,1159.83,707.72Z"/><path class="cls-12" d="M1213.59,629.2a.12.12,0,0,0,0,.08c-1.1,4.74-3.56,10-6.9,12.29-5.69,3.84-21.24,4.39-21.87,9.5s-6.56,9.37-1.81,17.17-2.85,22-1.49,32.59-7.42,11.38-4.57,25.61-2.48,10.54-.14,18.34c1.32,4.41,1.9,7.4-.56,17.51-.22.93.72-10-4.57-13.24-9.6-5.82-6.3-10.5-12-19.58s-4.3-10.5-5.72-15.24c-4.68-15.62,15.56-28.6,15.64-35.66s-.06-15.55.91-24.51,3-17.57,8.78-24.29,29-19.28,34.35-8.38C1214.41,622.89,1214.33,625.91,1213.59,629.2Z"/><path class="cls-5" d="M1186.91,658.16c.6,5.25-1.15,9.76-3.92,10.08s-5.49-3.67-6.09-8.92,1.16-9.77,3.92-10.09S1186.31,652.91,1186.91,658.16Z"/><path class="cls-8" d="M1238.32,791.12c8,18.34,13.26,23.12,33.35,36.06s33.21,14,33.88,12.52-40.39-45-51.11-56.48S1238.32,791.12,1238.32,791.12Z"/><path class="cls-10" d="M1179.83,1123.39c-11.39,5-11,5.64-16.86,7s9.65,16.27,12.44,12.2c2.53-3.69,5.88-6,13.78-8.57C1191.44,1133.34,1180.93,1122.91,1179.83,1123.39Z"/><path class="cls-10" d="M1243.16,1108.07c-1.92,2.91-3.58,11.11-4.63,10.74s-11.56-.43-12.33-4.28,5-12.39,6-13C1232.87,1101.15,1244.12,1106.62,1243.16,1108.07Z"/><path class="cls-12" d="M1168.2,857.55c.3,26.34-12.31,164.29-13.93,169.64l-1.38-.43c1.62-5.33,14.18-142.9,13.87-169.18-.25-22.93,3.48-39.55,8.15-53.63.44.2.87.4,1.32.58C1171.61,818.44,1167.94,834.89,1168.2,857.55Z"/><path class="cls-12" d="M1187.27,954.75c0,23,1.94,80,2.07,81.19l-1.42.16c-.13-1.22-2.1-58.25-2.09-81.35,0-8.39.77-29.32,1.63-53.55,1.24-34.45,2.74-75.85,2.49-94.16l1.44.11c.23,18.51-1.26,59.77-2.5,94.11C1188,925.46,1187.27,946.39,1187.27,954.75Z"/><path class="cls-12" d="M1216,1027.29l-1.32.54c-2.67-6.48-5.43-64.11-3.67-90,1.47-21.92,3.27-94.88-1.71-128,.5,0,1,0,1.45,0,4.93,33.46,3.17,106.24,1.69,128.14C1210.7,963,1213.41,1021.07,1216,1027.29Z"/><path class="cls-12" d="M1231.52,1022.35l-1.39.37c-1.75-6.41-1.07-74.24-.31-137.32.17-13.29.3-23.78.3-27.84a370.19,370.19,0,0,0-4.25-57.35c.43-.55.83-1.08,1.19-1.57a368.23,368.23,0,0,1,4.49,58.92c0,4.08-.13,14.57-.3,27.85C1230.71,930.9,1229.67,1015.58,1231.52,1022.35Z"/><path class="cls-6" d="M1344.21,818.66A11.51,11.51,0,0,0,1346,816c.16-.21.33-.41.48-.63a45.89,45.89,0,0,0-59.35-66.29A45.89,45.89,0,0,0,1203.37,719c-.34.51-.62,1-.95,1.57a12.45,12.45,0,0,0-1.28,1.74,35.52,35.52,0,0,0-3.57,8.84c-.08.25-.15.49-.22.74-.11.43-.22.88-.33,1.33-.32,1.26-.6,2.53-.81,3.8-7.66,41.09,7,128.65,10.7,131.1s83.93-14.14,122.34-37.52a45.31,45.31,0,0,0,11.81-8.67A39.58,39.58,0,0,0,1344.21,818.66Z"/><path class="cls-15" d="M1345.9,818.23a11.51,11.51,0,0,0,1.76-2.69c.15-.21.33-.41.48-.63a45.9,45.9,0,0,0-59.35-66.3,45.89,45.89,0,0,0-83.73-30.08c-.35.51-.63,1-1,1.57a13.33,13.33,0,0,0-1.29,1.74,35.91,35.91,0,0,0-3.56,8.84c-.08.25-.15.49-.22.74-.11.43-.22.88-.33,1.33-.32,1.26-.6,2.53-.81,3.8-7.66,41.09,7,128.65,10.7,131.1s83.93-14.14,122.34-37.52a45.64,45.64,0,0,0,11.81-8.67A41.26,41.26,0,0,0,1345.9,818.23Z"/><path class="cls-5" d="M1207.33,793.32c7.46-1.89,13.08-2.63,15.61-2.57s13.09.55,14.27,1.51-.44,2-4.94,3.7S1207.33,793.32,1207.33,793.32Z"/><path class="cls-5" d="M1128.25,795.81c-1.72-4.72,1.69-14.83,21.25-11.71,26,4.15,31.28,7.18,52.83,10.34,4.38.64,2.72,12.7-4.22,12.15-10.87-.86-49.38.31-56.14,1.27C1135.05,808.85,1130.07,800.83,1128.25,795.81Z"/><path class="cls-5" d="M1229.48,811.17c-4,.66-7.25-1.12-10.54-1.57-3.44-.5-15.42-3-16.75-3s-2.23-.13-4.08,0c-5.76.25-2.58-13.14,1.05-12.65,6.7.89,6.77-.68,9.48-1,4.68-.47,9.33-1.56,14.2-.91.82.1,1.67.26,2.54.45,1.69,1.34,1.77,6.65,1.85,9.43a6.56,6.56,0,0,1-.3,2,10.21,10.21,0,0,1-1.89,3.49c-.18.22-.35.4-.48.54a.09.09,0,0,0,0,0c0,.13.5.22,1.35.28a.14.14,0,0,0,.11,0c.85.08,2,.12,3.29.18h.08C1230.73,808.62,1229.85,811,1229.48,811.17Z"/><path class="cls-5" d="M1227,797.78c1.19.34,6.51-.8,7.68-.38,3.07,1.08,10.74,2.9,8.87.94a20.12,20.12,0,0,0-8.31-5c-1.3-.32-9.53-1.23-11.31-.72C1223.18,792.82,1225.56,797.36,1227,797.78Z"/><path class="cls-5" d="M1226,802.38c2.29.34,7,2.41,9,3.46,3,1.56,7.7,4.73,5.94,5.54-2,.9-4.11-1.36-7.45-2.65a70.12,70.12,0,0,0-9.71-1.54C1221.6,807.14,1223.45,802,1226,802.38Z"/><path class="cls-5" d="M1227,797.78a40.39,40.39,0,0,1,10.63,2.08c.63.41,6.18,3.16,7.7,5.89.73,1.3-5.75,0-8.29-2.06-1-.84-9.67-1.42-11.11-1.57s-.27-4.91,1.07-4.34"/><path class="cls-5" d="M1229.94,812.72a57,57,0,0,0-11-3.12c-7.59-1.57-11.53.89-16.75-3,0,0,.77-12.11,6.2-13.6l.25-.06c7.19-.06,12.86-2,16.5-.62,5,1.9,2,6.81,2.09,9.59a6.56,6.56,0,0,1-.3,2,8.59,8.59,0,0,1-2.2,3.33,20.52,20.52,0,0,1,11.19,6C1237.83,815,1232.61,814,1229.94,812.72Z"/><path class="cls-5" d="M1282.77,850.73a3,3,0,0,1-.41,3.37c-.83.84-3.85.4-3.6-1.68S1281.51,848.86,1282.77,850.73Z"/><path class="cls-5" d="M1279.18,852.54c-.14,1.4-.12,2.56-1.1,3.69s-3.33,1.3-3.56-1.41c-.09-1-.83-8.59,2.12-9.73C1278.09,844.54,1279.59,848.38,1279.18,852.54Z"/><path class="cls-5" d="M1273.53,854.47a4,4,0,0,1-1,2.84,1.82,1.82,0,0,1-3.19-1.09c-.08-.78-.74-6.61,1.9-7.48C1272.55,848.31,1273.9,851.27,1273.53,854.47Z"/><path class="cls-5" d="M1268.38,856.68a3.66,3.66,0,0,1-.88,2.56,1.64,1.64,0,0,1-2.87-1c-.07-.71-.67-6,1.71-6.74C1267.5,851.13,1268.71,853.79,1268.38,856.68Z"/><path class="cls-12" d="M1210.46,630.78s-.06.35-.16,1c0,.31-.13.64-.21,1s-.2.86-.33,1.36a38.09,38.09,0,0,1-2.68,7.14,31.61,31.61,0,0,1-4.18,6.47c-.34.41-.67.76-1,1.07a9.74,9.74,0,0,1-.79.79l-.72.67.79-.58c.26-.18.55-.42.88-.7s.72-.59,1.1-1a32.56,32.56,0,0,0,5-6.1,40.54,40.54,0,0,0,3.66-7.1c.19-.52.38-1,.51-1.42s.29-.83.36-1.12l.28-.94Z"/><path class="cls-12" d="M1173.69,641.38l-.15.21c-.09.13-.28.42-.46.72-.38.62-.88,1.52-1.45,2.69a61.27,61.27,0,0,0-3.84,10,46.59,46.59,0,0,0-1.48,7,29.39,29.39,0,0,0,0,8.07c.21,1.42.58,2.75.79,4.09a32.78,32.78,0,0,1,.49,4.1,14,14,0,0,1-.34,4.05,8.35,8.35,0,0,1-1.88,3.53,29.67,29.67,0,0,1-3.09,2.91,42.61,42.61,0,0,0-3.17,3,30.29,30.29,0,0,0-7.6,14.33,33.46,33.46,0,0,0-.81,7,39,39,0,0,0,1.3,10.43c.33,1.22.65,2.17.89,2.81s.38,1,.38,1-.14-.34-.36-1-.51-1.6-.81-2.83a38.94,38.94,0,0,1-1-10.39,33.61,33.61,0,0,1,1-6.89,29.54,29.54,0,0,1,2.82-7.19,28.77,28.77,0,0,1,5-6.56c1-1,2.07-1.9,3.19-2.81a30.06,30.06,0,0,0,3.31-2.94,9.7,9.7,0,0,0,2.29-4,15.26,15.26,0,0,0,.53-4.48,34,34,0,0,0-.38-4.32c-.18-1.43-.5-2.79-.65-4.06a27.37,27.37,0,0,1,.25-7.54,45,45,0,0,1,1.6-6.67,59.92,59.92,0,0,1,3.94-9.49c.58-1.09,1.07-1.92,1.41-2.45.18-.28.28-.42.39-.58l.16-.22Z"/><path class="cls-13" d="M1156.8,723s.32.7.9,1.93c.28.61.62,1.35,1,2.2s.8,1.79,1.17,2.83a11,11,0,0,1,.71,3.33,6.39,6.39,0,0,1-.9,3.48,8.51,8.51,0,0,1-.55.83l-.67.92a7.2,7.2,0,0,0-1.06,2.32,5.36,5.36,0,0,0,0,2.64,7.32,7.32,0,0,0,1.08,2.29,25.11,25.11,0,0,0,3.16,3.53,39.61,39.61,0,0,1,3.07,3.18,10.3,10.3,0,0,1,2,3.47,13.4,13.4,0,0,1,.59,3.6,25.74,25.74,0,0,1-.49,5.54c-.26,1.33-.48,2.07-.48,2.07s.26-.72.59-2a25.87,25.87,0,0,0,.79-5.57,13.89,13.89,0,0,0-.42-3.79,11.15,11.15,0,0,0-2-3.8,44.71,44.71,0,0,0-3-3.41,23.06,23.06,0,0,1-2.83-3.48,4.62,4.62,0,0,1-.69-3.82,5.77,5.77,0,0,1,.9-1.72l.68-.85a9.61,9.61,0,0,0,.72-1,8.35,8.35,0,0,0,1.39-4.43,13.12,13.12,0,0,0-.62-4c-.34-1.17-.73-2.2-1.08-3.08s-.66-1.65-.92-2.28l-.79-2Z"/><path class="cls-13" d="M1173,720.08l0,.43c0,.14,0,.31.06.51s.11.52.17.83a6.64,6.64,0,0,0,.27.94,8.49,8.49,0,0,0,.36,1c.28.72.63,1.49,1,2.32.81,1.65,1.87,3.47,3,5.41a57.9,57.9,0,0,1,3.22,6.11l.17.4.07.17.07.21.27.85a14.42,14.42,0,0,1,.33,1.64,22.51,22.51,0,0,1,.21,3.37c0,2.21-.18,4.31-.11,6.12,0,.45,0,.88.1,1.29a7.94,7.94,0,0,0,.17,1.15,6.32,6.32,0,0,0,.26,1,3.34,3.34,0,0,0,.31.81,5.37,5.37,0,0,0,.3.63l.29.43.23.36-.21-.37-.25-.45c-.1-.18-.16-.4-.26-.64a4.18,4.18,0,0,1-.25-.82,6.74,6.74,0,0,1-.18-1,8,8,0,0,1-.09-1.14c0-.4,0-.82,0-1.27,0-1.77.36-3.83.52-6.08a21.69,21.69,0,0,0,0-3.52,17.36,17.36,0,0,0-.24-1.85l-.22-.86-.05-.22-.09-.25-.14-.44a62.73,62.73,0,0,0-2.87-6.49c-1-2-1.9-3.87-2.56-5.48a22.57,22.57,0,0,1-.8-2.19,6.78,6.78,0,0,1-.26-.91,6.35,6.35,0,0,1-.16-.74c0-.2-.06-.38-.08-.54l0-.51,0-.43Z"/><path class="cls-11" d="M2280.06,1062.52s-.47-2.76-1.34-7.93-2.4-12.42-4.35-21.73c-1.13-4.69-2.37-9.89-3.73-15.55L2265.85,999c-3.56-13-7.83-27.7-12.76-43.63-2.46-8-5.21-16.22-8-24.78l-9-26.38q-4.87-13.5-10-27.69c-3.61-9.37-7.08-19-11-28.7s-7.75-19.58-12-29.44l-6.32-14.92-6.69-14.93c-4.36-10.06-9.3-19.92-14-29.95-2.39-5-5-9.88-7.51-14.84s-5-10-7.73-14.77l-8.05-14.58c-2.62-4.76-5.64-9.59-8.43-14.37-5.61-9.66-11.53-18.94-17.3-28.26s-11.82-18.42-17.64-27.47l-17.69-26.54c-23.46-34.72-46.74-62.29-66.39-89.47-39.35-54.34-71.12-85.38-66-94.13,4.92-8.47,31.66,33.14,72.56,86.38,20.43,26.64,40.64,59.44,65.13,93.56l18.48,26.1c6.11,8.93,12.37,17.9,18.5,27.09s12.36,18.5,18.22,28c3,4.76,6,9.32,8.91,14.26l8.58,14.55c2.94,4.81,5.52,9.81,8.25,14.72s5.47,9.83,8,14.81c5.05,10,10.34,19.84,15,29.86l7.18,14.89,6.8,14.88c4.58,9.83,8.77,19.69,13,29.35s8,19.29,11.93,28.65q5.58,14.16,10.9,27.65,5,13.59,9.81,26.39c3,8.57,6,16.83,8.74,24.82,5.46,16,10.2,30.72,14.2,43.87l5.41,18.51c1.56,5.77,3,11.07,4.28,15.86,2.35,9.78,4.31,17.63,5.2,22.68s1.57,7.89,1.57,7.89Z"/><path class="cls-11" d="M1959.34,435.71l-48.4-54.84c-5.88-6.66-11.78-13.35-16.74-20.72a201.23,201.23,0,0,1-10.38-18c-15.32-28.85-30.52-58.31-37.16-90.3,17.51,24.65,43.84,41.24,68.22,59.12,4.32,3.18,8.65,6.45,12.08,10.57,4.41,5.29,7.16,11.76,9.62,18.2a296.72,296.72,0,0,1,11.66,38c1.89,8.06,6.4,20.48,8.67,28.44C1963.34,428.73,1963.81,440.77,1959.34,435.71Z"/><path class="cls-11" d="M1995.44,479.13c-13-54.62-2.13-47.63-2.13-68.73,0-15.65-1-31.47,2.35-46.77,3-14,9.14-27.48,8.89-41.76-.31-17.26-9.84-32.82-19.06-47.41l-29.71-47c-3.91-.26-4.45,5.63-3.18,9.34,6.19,18,19.31,35.11,16.17,53.88-1,6.22-3.86,12-5.15,18.2-5.17,24.84,14.89,48.8,13.35,74.13-.52,8.66-3.5,17-4.69,25.6C1968.46,436.26,1995.44,479.13,1995.44,479.13Z"/><path class="cls-11" d="M1975,458.76c-19.25,2.6-34.36-23-55.88-28.91-8.84-2.42-17.88-4.08-26.63-6.81-32.63-10.16-58.8-34.15-83.79-57.45-15.4-14.35-38.84-22.42-43.86-45.31,10.55,8.8,24.88,22.92,41.42,27.13s34.28,6.82,47.72,17.33c10.79,8.42,17.64,21.12,28.55,29.38,7.35,5.54,15.7,9.67,24.21,13.19C1930.63,417.18,1975,458.76,1975,458.76Z"/><path class="cls-11" d="M1764.33,430.61c5.59,7.15,13.05,12.57,20.4,17.88,19,13.77,39.14,28,62.43,31.07,9.76,1.29,19.72.57,29.43,2.16,12.68,2.08,24.58,8.06,37.39,9.12,14.42,1.2,28.64-3.93,43.11-4.38,15.15-.47,27.71-3.77,42.16.84,3.1-4.6-9.83-12.94-15.09-14.7l-58.79-19.72c-13.3-4.46-27-9-41-8.33-10.68.5-21,4-31.48,5.93-27,5-51.6-14.15-79-15C1771.81,435.38,1764.33,430.61,1764.33,430.61Z"/><path class="cls-11" d="M2002.11,489.58c-4.8-24.56,17.75-40.88,21.17-56.74s3.48-29,20.89-56.29-.54-121.72,5.47-112.25,32.47,59.28,31.78,92.87.34,66.43-28,92.23-44.24,49.47-34.69,62.24S2002.11,489.58,2002.11,489.58Z"/><path class="cls-11" d="M2028.68,524.91c-28.51-5.43-62.34,4.46-89.81,12.22s-65.84-13.48-85.37-17.79-87.51,26.72-95,23.77,7.51,10.72,26.09,10.92,68.2-7.68,94.6,6.81,70.64,19.72,96.47,7.28,67-24.38,73.39-15.55S2028.68,524.91,2028.68,524.91Z"/><path class="cls-11" d="M2037.41,535.31c-.6-15,20.85-51,46.21-69.35s27.42-43.09,38.21-63.78,44.29-48.73,35.61-86.9,3-20.62,10.7-.92,20.11,63.21,9.25,88.26-34.77,51.48-62.78,74.65-62.34,79.57-55.39,89.2S2037.41,535.31,2037.41,535.31Z"/><path class="cls-11" d="M2231.34,870.1c2.67-14.79,31.4-45.27,60.14-57.69s36.1-36.12,51.12-54,53.8-38,53.6-77.12,7.41-19.48,10.64,1.41,5.94,66.08-10.09,88.17-45.1,42.73-77.47,59.27-78.1,64.18-73.4,75.08S2231.34,870.1,2231.34,870.1Z"/><path class="cls-11" d="M1739.52,641.75c-22.91,6.32,61.43-16.68,97-6.57s63.58-12.68,109.09-19.6,47.48,6.87,81.15-7.8,48.89-18.63,59.9-2.86,20.88,30,13.54,19.43-16.25-1.54-54.58,19.13-72.65,11.66-106.24,11-98.73,21.69-133.11,4.9S1755.31,637.4,1739.52,641.75Z"/><path class="cls-11" d="M1890.58,928.5c-22.91,6.31,61.43-16.68,97-6.58s63.58-12.67,109.09-19.59,47.48,6.87,81.15-7.81,50.57-33.06,57.34-15.06c7.25,19.29,13.23,35.82,13.23,35.82-7.34-10.59-13.38-5.73-51.72,14.94s-72.64,11.66-106.23,11-98.73,21.69-133.11,4.9S1906.37,924.14,1890.58,928.5Z"/><path class="cls-11" d="M2086.69,604.92c10.37-22.56,25.71-39,54.28-50.3s45.29-36.38,47.67-56.67,40.64-45.06,47.63-76.85-1.52-61,11-75.45-1.67-1.06,7.49,30,22,57.72-4.41,99.6-48.7,69.52-56.85,86.82c-16.88,35.79-56.07,26.47-70.66,42.06s-16.22,29.56-16.22,29.56Z"/><path class="cls-11" d="M2131.9,671.59c-12.74-8.91-56.3,4.44-89.39,28s-75.8,5.33-105.15,14.45-90.45,50.33-120.9,30.6-9.91,9.31,10.68,19.27,48.76,21.91,80.4,0,59,6.71,102-7.69,68.56-64.92,107.26-55.88,45.07,20,45.07,20Z"/><path class="cls-11" d="M2135.33,674.48c-1.2-11.69,6.54-40.55,32.33-50.23s52.56-10.06,78.83-36,81.81-76.29,77.17-102.24,5.87-8.29,12.27,10.32-6.31,33.71-8.95,43.4-26.61,57.87-54.67,70.24c-27.85,12.28-45,43-71.88,37.57-16.86-3.44-63.52,30.48-49.87,53.72S2136.91,678,2136.91,678"/><path class="cls-11" d="M2181.62,757.2c-20.2-14.13-31.71-23.81-83.75,5.18s-36.45,64.14-107.73,63.72-83.84,27.6-122.27-1.42,4.26,14.6,26.85,33.61,23.73,4.52,61.2,8.48,75.53,21.64,108.76-16.56,34.85-78.72,83.82-69.5,60.77,35.41,60.77,35.41Z"/><path class="cls-11" d="M2181.62,757.2c1.43-20.19,10.4-28.82,33-39.22s45.6-2.8,70.85-43.3,62.34-26.93,76.81-72.09,4.9-63.5,4.9-63.5,32.5,50.86,8.51,79.19-40.86,41.41-52.47,70.93-36.12,23.72-56.6,35.83-37.12,3.94-52.6,32.84-14.4,37.67-14.4,37.67Z"/><path class="cls-13" d="M2348,1053.27s4.27-78.49,5-91.93c4.09-52.43,13.14-116.34,10.18-154.33-3.32-42.52-10.89-97.88-15.22-121.91-2.75-15.26-9-29.38-13.59-43.37-9.17-28-18.31-53.78-26.37-75.82-16.15-44-28-72.95-28-72.95s7.82,30.25,17.84,75.91c5,22.82,34,110,36.35,125.06,2.36,15.19,11.61,89,13.3,122.92,1.38,27.75-12,142.86-13.37,150-2.63,13.61-6.47,74.25-6.47,74.25Z"/><path class="cls-13" d="M2345.84,955.54c37.27,3.69,95.49-5.18,141.65-77.93s41.64-99.6,41.64-99.6-53.74,51.17-88.79,60.11S2345.84,955.54,2345.84,955.54Z"/><path class="cls-13" d="M2363.22,807s87.88-43.81,122.89-100.77,62.07-171.38,55.09-164.62-57.53,94.56-92.24,114.61-60.46,70-69.19,92.39S2363.22,807,2363.22,807Z"/><path class="cls-13" d="M2338.92,677.56s72.58-90.18,89.71-153.78S2459,328.39,2453.3,331.57,2407.57,448,2378.48,480.32,2338.92,677.56,2338.92,677.56Z"/><path class="cls-13" d="M2301.62,552.73S2341.34,430.3,2339,337.08s-8.35-172.34-11.15-182.33-42,142.61-43.64,179.24S2289.44,533.25,2301.62,552.73Z"/><path class="cls-13" d="M2160.88,54.46c-8.45-26.85,87.65,168,98.75,238.89s42,259.38,42,259.38S2238.37,414,2207.34,333.31,2164.8,66.9,2160.88,54.46Z"/><path class="cls-13" d="M2302.83,561.84c-22.93-13.81-106.33-87.12-162.2-175.42s-80.36-215.93-79.87-221.17,117,144.25,145.83,204.6S2302.83,561.84,2302.83,561.84Z"/><path class="cls-13" d="M2338.92,677.56c-29.72-10.5-102-33.56-178.62-97.31s-123.88-141-123.87-146.12,63.1,60.07,118.8,78.06S2338.92,677.56,2338.92,677.56Z"/><path class="cls-13" d="M2350.24,817.72c43.23,23.81-113.13-56-166.74-97S2063.83,597.54,2081.12,609.4s79.46,47.43,137.66,67.44S2334,808.77,2350.24,817.72Z"/><path class="cls-13" d="M2339.17,981.14c19.12,45.64-19.32-102.23-64.26-119.82s-98.11-37.44-131.14-79.74c0,0-1.51,44.19,47,80.11S2313.74,920.42,2339.17,981.14Z"/><ellipse class="cls-21" cx="2438.96" cy="802.16" rx="52.45" ry="269.74"/><path class="cls-22" d="M2261.44,868.3a15.63,15.63,0,0,1,3.42-2.41c.28-.2.52-.44.8-.64a59.72,59.72,0,0,1,88.82,74.28,59.72,59.72,0,0,1,42.79,107.59c-.65.47-1.33.86-2,1.3a15.93,15.93,0,0,1-2.21,1.75,46.27,46.27,0,0,1-11.34,5l-.95.31c-.56.17-1.14.33-1.72.49-1.63.47-3.26.89-4.91,1.22-53.1,11.76-167.62-3.55-171-8.19s14.72-109.77,43.45-160.75a59.41,59.41,0,0,1,10.76-15.74A53.36,53.36,0,0,1,2261.44,868.3Z"/><path class="cls-22" d="M1908.77,874.42a9.39,9.39,0,0,1,1.39-2.19c.11-.18.19-.38.31-.56a37.08,37.08,0,0,1,68.6,21.51,37.08,37.08,0,0,1,50.12,51.55c-.26.42-.56.81-.84,1.22a9.92,9.92,0,0,1-.85,1.53,29,29,0,0,1-5.31,5.58l-.47.4-.87.69c-.82.66-1.66,1.29-2.53,1.87-27.67,19.36-97,37.8-100,35.93s-17.64-66.47-13.28-102.54a37,37,0,0,1,2.44-11.59A32.1,32.1,0,0,1,1908.77,874.42Z"/><path class="cls-22" d="M2152.88,858.45a6.15,6.15,0,0,1,.2-1.7c0-.14,0-.28,0-.42a24.4,24.4,0,0,1,46.84-6.6,24.39,24.39,0,0,1,44.33,16.48c0,.32-.1.64-.15,1a6.81,6.81,0,0,1-.08,1.15,18.43,18.43,0,0,1-1.58,4.81c-.05.13-.11.25-.16.38s-.22.43-.33.65c-.3.62-.62,1.23-1,1.82-11,19.32-46.95,49.86-49.28,49.6s-29.25-34.5-36.85-57.17a24.12,24.12,0,0,1-1.82-7.57A20.2,20.2,0,0,1,2152.88,858.45Z"/><path class="cls-22" d="M1702.33,1018a11.59,11.59,0,0,1-1.63-2.92c-.14-.24-.31-.45-.45-.7A47.86,47.86,0,0,1,1767,949.91a47.86,47.86,0,0,1,89.37-25c.32.56.57,1.14.86,1.7a12.42,12.42,0,0,1,1.21,1.92,36.9,36.9,0,0,1,3,9.46c.06.26.11.52.16.78.09.46.17.94.25,1.41.24,1.34.43,2.68.56,4,4.86,43.31-17.06,133.27-21,135.55s-86.22-21-124.41-48.27a47.62,47.62,0,0,1-11.63-9.91A42,42,0,0,1,1702.33,1018Z"/><path class="cls-23" d="M2048.11,727.15a11.78,11.78,0,0,1,2-2.73c.16-.23.29-.47.45-.7,15.61-21.71,46.26-26.36,68.47-10.4a49.69,49.69,0,0,1,20.56,46,49.68,49.68,0,0,1,50.18,4.82c22.21,16,27.56,46.51,12,68.21-.38.53-.81,1-1.21,1.51a12.25,12.25,0,0,1-1.25,1.92,37.46,37.46,0,0,1-7.48,6.74l-.65.47c-.39.28-.8.54-1.21.81-1.14.78-2.3,1.51-3.49,2.18-38.17,22.39-131.37,39.05-135.23,36.27s-18-89.07-9.29-135.9a47.1,47.1,0,0,1,4.16-14.94A39.85,39.85,0,0,1,2048.11,727.15Z"/><path class="cls-23" d="M2220.92,702.08a9.57,9.57,0,0,1,.8-2.64c.05-.23.09-.45.15-.67,6-20.93,28.22-32.93,49.64-26.79a40.47,40.47,0,0,1,28.43,29.65,40.44,40.44,0,0,1,39.81-10.1c21.42,6.13,33.92,28.08,27.93,49-.15.51-.35,1-.52,1.49a9.8,9.8,0,0,1-.43,1.81,30.12,30.12,0,0,1-3.88,7.22c-.12.19-.25.37-.37.55l-.71,1c-.65.91-1.34,1.79-2.07,2.63-23.11,27.67-90,66.07-93.73,65s-38.28-63.37-44.5-101.67a38.41,38.41,0,0,1-.91-12.59A32.88,32.88,0,0,1,2220.92,702.08Z"/><path class="cls-22" d="M1913.57,764.24a8,8,0,0,1-1.16-2.08c-.11-.17-.23-.32-.32-.49-9.41-16.29-3.52-37.28,13.13-46.9a35,35,0,0,1,35.47.13,35,35,0,0,1,17.61-30.78c16.66-9.62,37.79-4.22,47.19,12.06.23.4.41.81.62,1.21a9.65,9.65,0,0,1,.86,1.36,25.76,25.76,0,0,1,2.16,6.75l.12.55c.06.33.11.67.17,1,.17,1,.3,1.91.39,2.87,3.31,31-13,95.52-15.87,97.19s-62.31-14.24-89.82-33.35a33,33,0,0,1-8.37-7A27.57,27.57,0,0,1,1913.57,764.24Z"/><path class="cls-23" d="M1682.68,857.38a15.85,15.85,0,0,1-2.15-3.94c-.19-.32-.41-.61-.59-.94-17.32-30.87-5.76-70.27,25.82-88a65.79,65.79,0,0,1,66.76,1.07A65.79,65.79,0,0,1,1806.39,708c31.58-17.73,71.23-7.07,88.56,23.8.42.76.75,1.54,1.13,2.3a16.81,16.81,0,0,1,1.6,2.58,48.75,48.75,0,0,1,3.91,12.74l.21,1c.1.62.2,1.26.29,1.9.3,1.8.53,3.6.67,5.41,5.52,58.34-26.63,179.54-32.11,182.61s-117-28.25-168.34-64.87a62.62,62.62,0,0,1-15.59-13.34A54,54,0,0,1,1682.68,857.38Z"/><path class="cls-22" d="M2082,1020.32a7.86,7.86,0,0,1-1.76-1.34c-.15-.11-.31-.2-.46-.3a31.66,31.66,0,0,1,23.36-56.77,31.65,31.65,0,0,1,47.54-38.82c.35.25.65.53,1,.8a8.49,8.49,0,0,1,1.24.84,24.53,24.53,0,0,1,4.35,4.93c.11.14.21.29.31.43s.35.52.52.79c.5.75,1,1.5,1.41,2.28,14.42,25,25,85.3,23.18,87.74s-57.84,10.1-88.2,3.72a31.09,31.09,0,0,1-9.68-2.93A27.87,27.87,0,0,1,2082,1020.32Z"/><path class="cls-23" d="M2328.27,808a5.53,5.53,0,0,1,.89-1.45c.07-.12.12-.25.2-.37,6.89-11.54,22.06-15.18,33.87-8.12a25,25,0,0,1,12.26,22.19,25,25,0,0,1,25.36.29c11.81,7.05,15.79,22.13,8.9,33.67-.17.29-.37.54-.55.81a6.78,6.78,0,0,1-.54,1,18.82,18.82,0,0,1-3.46,3.69l-.31.27-.57.46c-.54.43-1.09.85-1.66,1.24-18.17,12.84-64.18,25.16-66.23,23.93s-12.8-43.88-10.44-67.72a23.41,23.41,0,0,1,1.45-7.66A20.32,20.32,0,0,1,2328.27,808Z"/><path class="cls-23" d="M1946.86,1025.49a6.13,6.13,0,0,1,.48-1.64c0-.13.05-.27.09-.41,3.59-13,17.25-20.48,30.51-16.81a25,25,0,0,1,17.7,18.16,25,25,0,0,1,24.53-6.45c13.26,3.67,21.1,17.16,17.5,30.11-.08.32-.2.62-.3.93a6.61,6.61,0,0,1-.26,1.12,18.58,18.58,0,0,1-2.36,4.48l-.22.34-.43.59c-.41.56-.83,1.11-1.27,1.64-14.12,17.2-55.22,41.27-57.52,40.63s-24-38.92-28-62.53a23.78,23.78,0,0,1-.63-7.77A22,22,0,0,1,1946.86,1025.49Z"/><path class="cls-23" d="M1617.38,951.65a5.9,5.9,0,0,1-1.53-.75l-.39-.16c-12.15-5.75-17.23-20.5-11.34-32.93A25,25,0,0,1,1625,903.46a25,25,0,0,1-2.16-25.26c5.88-12.44,20.51-17.85,32.66-12.1.3.14.57.31.86.46a6.22,6.22,0,0,1,1.06.45,18.41,18.41,0,0,1,4,3.09l.3.28.51.52c.48.5,1,1,1.39,1.53,14.53,16.86,31.22,61.47,30.2,63.63s-42.45,17-66.41,16.9a23.52,23.52,0,0,1-7.76-.7A20.6,20.6,0,0,1,1617.38,951.65Z"/><path class="cls-24" d="M1612.22,611.66c-.9,3.87-1.68,7.74-2.52,11.61-14.08,53.22-36.73,50-62.49,26.29l.22,306.48c26.67-23.54,53.5-12.24,63.38,28,0,0,1.87,8.35,2.91,12.72,16.46,69.61,79.58,118.16,151.11,118.11l578.94-.41c70.77,0,133.29-47.67,150.46-116.33q49.17-196.64,0-392.22C2477,537.36,2414.38,490,2343.71,490l-579.81.41C1691.25,490.5,1628.64,540.9,1612.22,611.66Z"/><rect class="cls-25" x="1352.2" y="770.97" width="335.92" height="63.69" transform="translate(718.43 2323.55) rotate(-90.04)"/><path class="cls-12" d="M2169.14,544.48q67.31,256.95.37,515.75l-246,.17a1589.34,1589.34,0,0,0-.36-515.75Z"/><rect class="cls-26" x="1488.41" y="923.87" width="63.69" height="7.49"/><rect class="cls-26" x="1488.39" y="904.67" width="63.69" height="7.49"/><rect class="cls-26" x="1488.38" y="885.47" width="63.69" height="7.49"/><rect class="cls-26" x="1488.37" y="866.27" width="63.69" height="7.49"/><rect class="cls-26" x="1488.35" y="847.07" width="63.69" height="7.49"/><rect class="cls-26" x="1488.34" y="827.87" width="63.69" height="7.49"/><rect class="cls-26" x="1488.32" y="808.67" width="63.69" height="7.49"/><rect class="cls-26" x="1488.31" y="789.47" width="63.69" height="7.49"/><rect class="cls-26" x="1488.3" y="770.27" width="63.69" height="7.49"/><rect class="cls-26" x="1488.28" y="751.07" width="63.69" height="7.49"/><rect class="cls-26" x="1488.27" y="731.87" width="63.69" height="7.49"/><rect class="cls-26" x="1488.26" y="712.67" width="63.69" height="7.49"/><rect class="cls-26" x="1488.24" y="693.47" width="63.69" height="7.49"/><rect class="cls-26" x="1488.23" y="674.27" width="63.69" height="7.49"/><path class="cls-15" d="M2389.61,1130.89l1.24-4.25,3.76-12c3.26-10.25,8-24.87,13.37-42.47s11.45-38.22,17.11-60.51c2.86-11.15,5.43-22.72,7.82-34.56s4.9-23.92,7.46-35.94c5.13-24,10.5-48,15.39-70.55,2.44-11.26,4.79-22.15,6.8-32.51,1-5.17,1.8-10.22,2.53-15.15s1.66-9.64,2.48-14.18c3.32-18.13,6-33.26,7.07-44,.54-5.34.7-5.33.24,0-.91,10.73-3.39,25.92-6.46,44.09-.75,4.55-1.54,9.29-2.27,14.19s-1.39,10-2.33,15.23c-1.87,10.41-4.06,21.33-6.34,32.63-4.58,22.59-9.6,46.65-14.39,70.75-2.4,12.06-4.75,24.1-7,36s-4.65,23.62-7.37,34.84c-5.36,22.47-11.18,43.21-16.31,60.94s-9.66,32.43-12.78,42.71l-3.55,11.9-1.18,4.24Z"/><path class="cls-15" d="M2396.09,1117c-20.35-18-27.75-6.71-40.07-21.42-23.78-28.38-17.17-58.08-17.17-58.08a133.38,133.38,0,0,0,15.65,21.91c9.92,11.32,18.64,11.53,25.78,24.5S2398.09,1118.81,2396.09,1117Z"/><path class="cls-15" d="M2395.68,1118c26.43-6.43,27.67,7.06,45.44-.17,34.29-14,42.36-43.29,42.36-43.29a134,134,0,0,1-24.08,12c-14.07,5.36-21.88,1.46-34.26,9.58S2393.08,1118.6,2395.68,1118Z"/><path class="cls-15" d="M2417.42,1040.49c-14.4-4.38-25.32-15.16-32.21-30.38-10.74-23.73-.33-42.79-.33-42.79s2,25.16,15.88,36.82,19.56,30.34,19.56,30.34Z"/><path class="cls-15" d="M2419.41,1041.37c14.63,3.52,29.5-.25,43.15-9.89,21.28-15,22-36.73,22-36.73s-14.45,20.69-32.33,23.71-32.23,16.26-32.23,16.26Z"/><path class="cls-15" d="M2435.81,964.86c-10.1-2.08-25.16-12.51-34.66-32.68s-7.53-31.82-7.53-31.82,8.57,19.92,18.88,25.1,26,33,26,33Z"/><path class="cls-15" d="M2436,965.13c10,2.64,28.11,0,45.61-13.79s20.92-25.12,20.92-25.12-16.55,14-28.09,14-38,18-38,18Z"/><path class="cls-15" d="M2450.1,905.23c-9.15-1.84-20.07-17.14-23.84-32.24s-3.54-22.89-3.15-28.36,6.84,19.73,16.07,27.17S2451.44,900,2451.44,900Z"/><path class="cls-15" d="M2449.26,905.63c8.59,3.64,26.23-2.84,37.86-13.19s15.82-16.92,18.58-21.65-16.77,12.44-28.58,13.38-26,16.39-26,16.39Z"/><path class="cls-15" d="M2463.33,843.81c-14.12-6.15-19.63-20.22-22.18-30s-1.9-29.1-1.39-26.18,9,8.38,15.64,21S2463.33,843.81,2463.33,843.81Z"/><path class="cls-15" d="M2462.26,844.33c15.31-1.65,24.77-13.44,30.13-22s10.5-27.2,9.14-24.57-11.08,5.32-21.18,15.35S2462.26,844.33,2462.26,844.33Z"/><path class="cls-15" d="M2480.53,718.74c-5.81,9.12-13.6,30-9.31,42.78s14.72-5.4,12.32-18.13A207.56,207.56,0,0,1,2480.53,718.74Z"/><path class="cls-15" d="M2472.28,787.2c-4.84,5.37-20.1-24.26-17.55-34.21,1.14-4.43-.58,3.57,7.3,12.34S2477.47,781.45,2472.28,787.2Z"/><path class="cls-15" d="M2470.69,788.48c2.71,6.69,27.2-15.91,28.21-26.13.45-4.56-.68,3.55-11.08,9.09S2467.79,781.29,2470.69,788.48Z"/><path class="cls-12" d="M2388.75,1122.27c4.2-4.11,8.65-8.39,12.17-13.75,3.37-5.15,6.83-10.51,10-16.15a196.83,196.83,0,0,0,16-36.49c2.08-6.47,3.85-13.1,5.33-19.81s2.61-13.54,3.45-20.39a245.58,245.58,0,0,0,1.51-41.13c-.31-6.79-.84-13.51-1.63-20.12s-1.82-13.1-3-19.45a368.52,368.52,0,0,0-19.92-67.56c-3.84-9.57-7.63-18.22-11.2-25.78q-1.3-2.85-2.6-5.48l-2.48-5.07-4.55-8.84c-2.82-5.3-5-9.46-6.65-12.24l-2.41-4.29-.39.21,2.16,4.42,2.59,5.31,3.43,7.22,4.11,9c1.41,3.32,3.08,6.84,4.67,10.69,3.3,7.64,6.78,16.37,10.26,26s7,20.13,10.23,31.39c.8,2.82,1.57,5.68,2.34,8.58s1.51,5.85,2.18,8.85c1.42,6,2.69,12.11,3.86,18.38s2.08,12.69,2.88,19.19,1.4,13.12,1.76,19.79a249.2,249.2,0,0,1-1,40.47,209.71,209.71,0,0,1-8.13,39.63,194.12,194.12,0,0,1-15.33,36.08c-3.06,5.59-6.4,10.88-9.74,16.1-3.2,5-7.46,9.32-11.58,13.48s-8.26,8.21-11.9,12.46S2384.5,1126.36,2388.75,1122.27Z"/><path class="cls-12" d="M2390.34,821.27c-.83-14.13-7.32-83.4-33.37-72.43C2328.92,760.64,2390.34,821.27,2390.34,821.27Z"/><path class="cls-12" d="M2415.58,879.72c7.57-12,42.7-72,15.15-78.3C2401.06,794.64,2415.58,879.72,2415.58,879.72Z"/><path class="cls-12" d="M2414.52,876.17c-13.92-2.57-81.85-17.59-67.75-42.08C2362,807.72,2414.52,876.17,2414.52,876.17Z"/><path class="cls-12" d="M2432.3,947.25c8.95-11.6,83.7-52.63,47.46-68.43C2447.49,864.75,2431.29,948.56,2432.3,947.25Z"/><path class="cls-12" d="M2434.91,959.21c-15.35-25.28-89-41.28-61.68-67C2398.85,868.06,2435.77,960.62,2434.91,959.21Z"/><path class="cls-12" d="M2430.15,1032.65c10.3-10.42,40.89-90,61.42-56.24C2509.86,1006.49,2429,1033.83,2430.15,1032.65Z"/><path class="cls-12" d="M2428.74,1043.12a226,226,0,0,0-6.78-48.77c-4.18-15.39-17.45-39-37.21-29.44-16,7.74,5.67,20,19,36.21C2422,1023.18,2428.76,1045,2428.74,1043.12Z"/><path class="cls-12" d="M2389.88,1112.19c6.68-13.89,9-20.27,10.45-31.78s1.09-35.06-11.49-42.4c-16.87-9.86-21,11.74-19.09,20.66,3,14.21,14.56,30.28,14.4,46.92s-5.24,25.7-5.24,25.7Z"/><path class="cls-12" d="M2405.26,1103.61c10-11.76,14.84-16.5,24.76-22.49s31.57-15.29,43.41-6.8c15.88,11.39-2.19,23.92-11.09,25.85-14.19,3.09-33.59-.94-48.71,6a143.36,143.36,0,0,0-26.36,15.84Z"/><path class="cls-15" d="M2092.78,971.46q-.53,5.46-1.09,10.93l-55-5.65q-1.46,14.24-3.15,28.44l54.85,6.55q-.66,5.43-1.33,10.86l-63.75-8q3.09-24.62,5.47-49.29Z"/><path class="cls-15" d="M2066.36,893c10.45.56,18.43,3.67,23.91,9.41s7.9,13.63,7.2,23.58-4.21,17.59-10.4,22.48-14.58,6.83-25.14,5.89-18.44-4.3-23.66-10-7.45-13.4-6.77-23.09,4-16.75,10.07-21.66S2055.89,892.44,2066.36,893ZM2063,943c7.89.65,14-.49,18.34-3.46s6.75-7.7,7.21-14.18-1.25-11.45-5.08-15-9.75-5.51-17.73-6-13.93.78-18.19,3.7-6.6,7.51-7,13.78,1.21,11.26,5,14.82S2055.13,942.35,2063,943Z"/><path class="cls-15" d="M2100.31,851.5q-27.11,8.91-54.28,17.23l0,.36q12-.29,22.43.13l31.22,1.24c-.13,3.3-.27,6.61-.42,9.91l-64.19-2.9q.35-7.43.61-14.84,25.86-8,51.65-16.54a2.44,2.44,0,0,0,0-.27q-25.29-10.16-50.71-19.75.12-7.44.17-14.89l64.24.43q0,5.26-.1,10.51l-31.77-.4q-4.79-.06-12.47-.4t-9.31-.54c0,.12,0,.24,0,.36q26.67,10.07,53.2,20.72C2100.49,845.08,2100.4,848.29,2100.31,851.5Z"/><path class="cls-15" d="M2067.7,735.88c10.45-.38,18.68,2,24.65,7.24s9.1,12.86,9.28,22.83-2.62,17.88-8.35,23.29-13.91,8.1-24.52,8.11-18.75-2.64-24.46-7.87-8.61-12.67-8.8-22.38,2.49-17,8.1-22.46S2057.22,736.26,2067.7,735.88Zm1.1,50.07c7.91-.06,13.9-1.74,17.95-5.08s6-8.27,5.92-14.76-2.27-11.29-6.4-14.45-10.2-4.63-18.19-4.39-13.8,2-17.79,5.31-5.9,8.06-5.78,14.35,2.21,11.09,6.32,14.3S2060.92,786,2068.8,786Z"/><path class="cls-15" d="M2087.73,675.41q-.81-11.8-1.8-23.59l-55,4.58c-.29-3.52-.59-7-.91-10.55l55.28-4.94q-.39-4.39-.8-8.79l26.34-2.49q.49,5.32,1,10.63l-17.65,1.56q3.48,39.23,5.21,78.55l-64.19,2.84c-.15-3.5-.32-7-.49-10.52l55.17-2.78q-.6-11.76-1.34-23.52l-55.13,3.51c-.23-3.55-.46-7.1-.71-10.65Z"/><path class="cls-15" d="M2067.61,576.24c6.25-.79,11.29.77,15.1,4.73s6.21,10.11,7.15,18.42q1.16,10.38,2.21,20.75l-63.93,6.44c-.35-3.5-.71-7-1.09-10.49l26-2.77q-.5-4.62-1-9.22c-.92-8.25-.08-14.74,2.59-19.52S2061.59,577,2067.61,576.24Zm14.54,34q-.48-4.55-1-9.1-.81-7.27-3.76-10.9t-8.43-3c-3.43.42-5.79,2-7.1,4.63s-1.62,6.9-1,12.72c.29,2.59.57,5.19.85,7.78Z"/></g></g></g></svg>