<svg xmlns="http://www.w3.org/2000/svg" viewBox="0 0 287.83 270.83"><defs><style>.cls-1{fill:#ff9985;}.cls-2{fill:#f7c6a4;}.cls-3{fill:#ffdc86;}.cls-4{fill:#fdb16f;}.cls-5{fill:#6d72a0;}.cls-6{fill:#000543;}.cls-7{fill:#36d6d2;}.cls-8{fill:#ffa27f;}.cls-9{fill:#fff;}.cls-10{fill:#fa694f;}.cls-11{fill:#7b7c7b;}.cls-12{fill:#26266d;}.cls-13{fill:#f9c29d;}.cls-14{fill:#fbe9dc;}.cls-15{fill:#ffb288;}.cls-16{fill:#0b0949;}.cls-17{fill:#ff9e88;}.cls-18{fill:#8881b6;}.cls-19{fill:#f75b37;}.cls-20{fill:#cc442e;}.cls-21{fill:#91b4de;}.cls-22{fill:#c6926f;}.cls-23{fill:#526989;}</style></defs><g id="Слой_2" data-name="Слой 2"><g id="Слой_1-2" data-name="Слой 1"><path class="cls-1" d="M203.71,59.13l13.91,9.32c-1.68,4.67-7,22.07-17.86,31.42a4.62,4.62,0,0,1-3.44.79,5.15,5.15,0,0,1-3.93-6.77C195.38,84.89,203.4,60.72,203.71,59.13Z"/><path class="cls-1" d="M153.19,114.58l-.81-5.65c.59-.23,1.22-.74,1.92-1,1.78-.54,24.6-10.76,30.65-13.5l9.41-3.69a6.11,6.11,0,0,1,8.17,4.61v.06a6.21,6.21,0,0,1,.06,1.22l-.07.62C199.62,104.7,159.83,113.78,153.19,114.58Z"/><path class="cls-1" d="M144.51,110a1,1,0,0,0,1,.93l5-.19a1,1,0,0,0,1-1,1,1,0,0,0-1-.93l-5,.19A1,1,0,0,0,144.51,110Z"/><path class="cls-1" d="M152.9,118a4.24,4.24,0,0,1-2.22.54,2.5,2.5,0,0,1-1.25-.67,11.69,11.69,0,0,1-2.3-2.79,3.46,3.46,0,0,1-.2-3.65,5.82,5.82,0,0,1,3.45-2.54c2.52-.71,3.43-.94,5.46-.27,2.54.84,3.48,2.73,1,5.56C155.58,115.67,154.53,117.28,152.9,118Z"/><path class="cls-1" d="M147.91,112.85l-4.74,5.57a.88.88,0,0,1-1.25.11.91.91,0,0,1-.09-1.27l4.74-5.58a.88.88,0,0,1,1.25-.1A.91.91,0,0,1,147.91,112.85Z"/><path class="cls-1" d="M149.4,114.75l-4.75,5.57a.88.88,0,0,1-1.25.11.91.91,0,0,1-.08-1.28l4.74-5.57a.88.88,0,0,1,1.25-.1A.91.91,0,0,1,149.4,114.75Z"/><path class="cls-1" d="M151.83,115.33l-4.74,5.58a.89.89,0,0,1-1.25.1.91.91,0,0,1-.09-1.27l4.74-5.58a.9.9,0,0,1,1.26-.1A.91.91,0,0,1,151.83,115.33Z"/><path class="cls-1" d="M154.88,115.56l-4.75,5.57a.88.88,0,0,1-1.25.11.91.91,0,0,1-.09-1.27l4.75-5.58a.88.88,0,0,1,1.25-.1A.91.91,0,0,1,154.88,115.56Z"/><path class="cls-2" d="M201.09,52.69c-1.36,4.83-3,11.6-4.29,17.76a4.66,4.66,0,0,0,2.46,5.08l12,6.08a3.83,3.83,0,0,0,5.35-2.14c1.47-4.19,3.14-8.86,4.8-13.35C214.53,61.83,207.64,57.51,201.09,52.69Z"/><path class="cls-1" d="M246.64,247.6q1.31,3.32,2.59,6.38c7.61,18-2.52,16.13-5.73,8.22-1.61-4-3.2-7.95-4.77-11.93a18.67,18.67,0,0,0,1.93,1C243.36,251.9,245.73,250.38,246.64,247.6Z"/><path class="cls-3" d="M219.5,128.41l1.13-1.85,24.24-.52.29.15.31,0c2.9.3,4.78,2.85,3.91,5.31l-.9,2.58C229.66,178.62,231.15,178.7,241,206c7.84,21.75,11,28.9,14.78,45.1a4.32,4.32,0,0,1-4,5.06l-11.51.55a5.76,5.76,0,0,1-5.78-3.6c-14.7-37.44-22.93-47.59-23.23-64.56C210.9,168,215.21,147,219.5,128.41Z"/><path class="cls-3" d="M237.5,187.2c.81,3.76,1.23,7.28,2.45,11,1.64,4.89,1.94,7.63,3,12.66,2.64,12.74,11.42,24.5,10.52,37.45l-21-52.49c-2.86-7.14-5.75-14.86-3.49-22.17,1.69-5.43,6.07-10,7.25-15.52.87-4.11-.09-8.53,1.6-12.43a2.82,2.82,0,0,1,1.1-1.42c1.07-.6,9.86-14.59,10.47-13.59,3.14,5.16-6.6,28.77-8.4,33.82C238.65,171,236,180.22,237.5,187.2Z"/><path class="cls-3" d="M268.78,184.15c.82,3.76,2.89,7.18,4.12,10.85,1.63,4.89,1.71,10.1,2.75,15.12,2.64,12.75,11.42,24.51,10.52,37.46q-10.51-26.25-21-52.5c-2.86-7.13-5.75-14.85-3.49-22.16,1.69-5.43,6.07-10,7.25-15.52.87-4.11-.09-8.53,1.6-12.43a2.82,2.82,0,0,1,1.1-1.42c1.07-.61,9.86-14.59,10.47-13.59,3.14,5.16-7.71,28.81-9.51,33.86C270.26,170.34,267.27,177.17,268.78,184.15Z"/><path class="cls-1" d="M278.61,247.86c.87,2.2,1.73,4.34,2.59,6.38,7.61,18-2.52,16.13-5.74,8.22q-2.4-6-4.76-11.94a15.45,15.45,0,0,0,1.93,1C275.33,252.16,277.7,250.64,278.61,247.86Z"/><path class="cls-3" d="M251.47,129.43l1.13-1.84,24.24-.53.29.15.31,0c2.9.29,4.78,2.84,3.91,5.3l-.9,2.58C261.63,179.65,263.12,179.72,273,207c7.84,21.74,11,28.89,14.78,45.09a4.32,4.32,0,0,1-4,5.06l-11.51.55a5.77,5.77,0,0,1-5.78-3.59c-14.7-37.45-24-49-24.26-66C241.84,167.59,244.82,147.1,251.47,129.43Z"/><path class="cls-4" d="M272,258.52h.36a.73.73,0,1,0-.08-1.46,5,5,0,0,1-5-3.11c-5.21-13.26-9.76-23.34-13.42-31.44-6.61-14.65-10.6-23.49-10.79-34.32-.26-14.26.7-26.35,2.93-37a.73.73,0,0,0-.43-.79l-4.91-2.27a.84.84,0,0,0-1.07.33.7.7,0,0,0,.35,1l4.38,2c-2.17,10.57-3.1,22.58-2.85,36.71.2,11.1,4.24,20,10.92,34.85,3.65,8.09,8.2,18.15,13.39,31.38A6.54,6.54,0,0,0,272,258.52Z"/><path class="cls-2" d="M216.89,126.74c2.42-7.62,4.52-15.74,2.77-24.67-3.39-17.29-15.3-30.73-18.83-42.56-2.58-8.65,5.5-15.5,13.68-16.84a149.82,149.82,0,0,1,20.3-.61c4.45.2,10.61,2.08,15.86,4a24.52,24.52,0,0,1,14.38,14c2.86,7.26,6.27,15.92,6.2,15.87a376.69,376.69,0,0,1,12,59.72c.68,6.41-2.5,5.77-9.25,5.58L234.8,140.2l-3.59-.1a22.4,22.4,0,0,1-8-2C218.4,136,215.6,130.78,216.89,126.74Z"/><path class="cls-5" d="M242.9,260.23l-11.21,3.68c-2.74.9-3.53,2.81-2.71,4.26l24.7-.28-.1-5.74a1.75,1.75,0,0,0-1.74-1.8Z"/><path class="cls-6" d="M253.68,267.89l.13,1c.07.6-.7,1.16-1.62,1.16L233,270c-2.09,0-3.47-.8-4.05-1.82Z"/><rect class="cls-6" x="246.82" y="265.39" width="4.8" height="1.83" rx="0.36" transform="translate(3.61 -3.33) rotate(0.77)"/><path class="cls-5" d="M274.32,260.4l-11.21,3.67c-2.74.9-3.53,2.82-2.72,4.26l24.71-.27-.11-5.75a1.74,1.74,0,0,0-1.73-1.79Z"/><path class="cls-6" d="M285.1,268.06l.12,1c.08.61-.69,1.17-1.61,1.16l-19.16,0c-2.1,0-3.48-.79-4.06-1.82Z"/><rect class="cls-6" x="278.24" y="265.56" width="4.8" height="1.83" rx="0.36" transform="translate(3.6 -3.74) rotate(0.77)"/><path class="cls-1" d="M220.88,48.46c0,2.58,4.56,4.68,10.19,4.68s10.19-2.1,10.19-4.68-4.56-4.69-10.19-4.69S220.88,45.87,220.88,48.46Z"/><path class="cls-7" d="M239.05,18.18a5.45,5.45,0,0,1-1.64-2.79,15.9,15.9,0,0,1,.24-1.93c.07-1.59-1.16-3-2.4-4.06,0,0-3.65-9.2-14.15-8.92-.27,0-.53,0-.79,0a1.59,1.59,0,0,0-.62-.19,3.27,3.27,0,0,0-1.51.47l-.53.11h-.26a18.55,18.55,0,0,1-1.92-.83c-1.58-.45-2.16,1.29-3.61,1.43-1,.1-2.19-.55-3.12-.36s-1.19,1.23-1.19,2.18.09,2-.56,2.6a11.18,11.18,0,0,1-1.45.79c-1.11.75-1,2.34-.8,3.79A30.23,30.23,0,0,0,206.31,16a2.61,2.61,0,0,0,1.09,1.56.65.65,0,0,0-.54.75.72.72,0,0,0,.81.56l.17,0,2.43-.35a.66.66,0,0,0,.57-.76.72.72,0,0,0-.81-.57l-2.41.35a11.24,11.24,0,0,1,0-3.28,3.75,3.75,0,0,1-.09-1.41,4.29,4.29,0,0,1,.59-.44c1.18-.77,3.61-1.83,7.93-1.68,6.65.23,5.81,7.7,13.12,7.84l2-.73v.06a2.47,2.47,0,0,1,.38-.05,3.44,3.44,0,0,1,3.24,3.47,3.54,3.54,0,0,1-1.42,3.12l1.23,5.94c.16-.63.13-1.35.58-1.81s1.21-.48,1.72-.86c1.25-.91.28-2.95,1-4.29.48-.9,1.67-1.33,2.06-2.28S239.76,19,239.05,18.18Z"/><path class="cls-8" d="M207.58,12.84a3.75,3.75,0,0,0,.09,1.41,9.72,9.72,0,0,1,.5-1.85A4.29,4.29,0,0,0,207.58,12.84Z"/><path class="cls-1" d="M233.42,24.43a3.54,3.54,0,0,0,1.42-3.12,3.44,3.44,0,0,0-3.24-3.47,2.47,2.47,0,0,0-.38.05v-.06l-2,.73c-7.31-.14-6.47-7.61-13.12-7.84-4.32-.15-6.75.91-7.93,1.68a9.72,9.72,0,0,0-.5,1.85,11.24,11.24,0,0,0,0,3.28l2.41-.35a.72.72,0,0,1,.81.57.66.66,0,0,1-.57.76l-2.43.35,1.58,8.38c1.17,6.23,6.16,10.27,12.46,9.33l.44-.08,2.27,11a2.29,2.29,0,0,0,2.63,1.76L236,47.66a2.14,2.14,0,0,0,1.74-2.54l-3-14.75Zm-13.87-5.29c-.12-.65.14-1.23.58-1.3s.89.42,1,1.07-.14,1.22-.58,1.29S219.66,19.79,219.55,19.14Zm-8.78,2.28c-.44.07-.89-.41-1-1.06s.14-1.22.58-1.29.9.41,1,1.06S211.21,21.36,210.77,21.42Zm2.91,2.24,0-.24a1.43,1.43,0,0,0,1.19,1l1.41.17A1.05,1.05,0,0,0,217.4,24l0,.12a1,1,0,0,1-1.12,1.4l-1.42-.17A1.38,1.38,0,0,1,213.68,23.66Zm4.38,6.19a2,2,0,0,1-2.51-1l4.37-1.06C220,28.48,219.71,29.36,218.06,29.85Zm-.14-12.44a.72.72,0,0,1-.81-.57.66.66,0,0,1,.57-.76l2.6-.37a.7.7,0,0,1,.81.56.65.65,0,0,1-.57.76Z"/><path class="cls-9" d="M218.06,29.85c1.65-.49,1.91-1.37,1.86-2.05l-4.37,1.06A2,2,0,0,0,218.06,29.85Z"/><path class="cls-7" d="M221.09,16.27a.7.7,0,0,0-.81-.56l-2.6.37a.66.66,0,0,0-.57.76.72.72,0,0,0,.81.57l2.6-.38A.65.65,0,0,0,221.09,16.27Z"/><path class="cls-6" d="M210.34,19.07c-.44.07-.7.64-.58,1.29s.57,1.13,1,1.06.7-.64.59-1.29S210.78,19,210.34,19.07Z"/><path class="cls-6" d="M220.56,20.2c.44-.07.7-.64.58-1.29s-.57-1.13-1-1.07-.7.65-.58,1.3S220.12,20.26,220.56,20.2Z"/><path class="cls-10" d="M217.45,24.1l0-.12a1.05,1.05,0,0,1-1.07.57l-1.41-.17a1.43,1.43,0,0,1-1.19-1l0,.24a1.38,1.38,0,0,0,1.23,1.67l1.42.17A1,1,0,0,0,217.45,24.1Z"/><rect class="cls-11" x="129.45" y="162.87" width="0.45" height="47.69"/><polygon class="cls-11" points="129.59 210.49 129.16 210.65 119.73 164.58 120.17 164.42 129.59 210.49"/><polygon class="cls-11" points="129.28 210.53 128.89 210.83 110.67 169.53 111.07 169.23 129.28 210.53"/><polygon class="cls-11" points="128.99 210.68 128.67 211.1 102.91 177.37 103.23 176.95 128.99 210.68"/><polygon class="cls-11" points="128.73 210.91 128.51 211.43 96.95 187.58 97.18 187.07 128.73 210.91"/><polygon class="cls-11" points="128.53 211.23 128.42 211.81 93.23 199.46 93.34 198.89 128.53 211.23"/><rect class="cls-11" x="91.97" y="211.61" width="36.43" height="0.59"/><polygon class="cls-11" points="128.35 212.01 128.47 212.59 93.28 224.93 93.16 224.36 128.35 212.01"/><polygon class="cls-11" points="128.38 212.42 128.61 212.94 97.06 236.78 96.83 236.27 128.38 212.42"/><polygon class="cls-11" points="128.49 212.81 128.82 213.23 103.05 246.95 102.73 246.53 128.49 212.81"/><polygon class="cls-11" points="128.68 213.14 129.07 213.44 110.85 254.74 110.46 254.44 128.68 213.14"/><polygon class="cls-11" points="128.92 213.4 129.36 213.56 119.93 259.62 119.49 259.47 128.92 213.4"/><rect class="cls-11" x="129.21" y="213.57" width="0.45" height="47.69"/><polygon class="cls-11" points="129.51 213.64 129.95 213.48 139.38 259.55 138.94 259.71 129.51 213.64"/><polygon class="cls-11" points="129.83 213.6 130.22 213.3 148.44 254.6 148.04 254.9 129.83 213.6"/><polygon class="cls-11" points="130.12 213.45 130.44 213.03 156.2 246.76 155.88 247.18 130.12 213.45"/><polygon class="cls-11" points="130.38 213.22 130.6 212.7 162.16 236.55 161.93 237.06 130.38 213.22"/><polygon class="cls-11" points="130.58 212.9 130.69 212.32 165.88 224.67 165.77 225.24 130.58 212.9"/><rect class="cls-11" x="130.71" y="211.93" width="36.43" height="0.6"/><polygon class="cls-11" points="130.76 212.12 130.64 211.54 165.83 199.2 165.95 199.77 130.76 212.12"/><polygon class="cls-11" points="130.73 211.71 130.5 211.19 162.05 187.35 162.28 187.86 130.73 211.71"/><polygon class="cls-11" points="130.62 211.32 130.29 210.9 156.06 177.18 156.38 177.6 130.62 211.32"/><polygon class="cls-11" points="130.43 210.99 130.04 210.69 148.26 169.39 148.65 169.69 130.43 210.99"/><polygon class="cls-11" points="130.19 210.73 129.75 210.57 139.18 164.51 139.62 164.66 130.19 210.73"/><path class="cls-12" d="M128.93,157.6c-23.53,0-42.6,25-42.6,55.76s19.07,55.76,42.6,55.76,42.6-25,42.6-55.76S152.46,157.6,128.93,157.6Zm0,103c-19.91,0-36.06-21.13-36.06-47.2s16.15-47.2,36.06-47.2S165,187.29,165,213.36,148.84,260.56,128.93,260.56Z"/><path class="cls-5" d="M20.38,116.2a2,2,0,0,1-2-2V93.36A2,2,0,0,1,19,91.94a2.06,2.06,0,0,1,1.43-.58c6.21.07,13.22.11,14.31,0A2,2,0,0,1,36.19,95c-.64.43-.74.5-13.81.36V114.2A2,2,0,0,1,20.38,116.2Z"/><path class="cls-13" d="M113.4,187.68l-19.56-90c-1-5-5.53-9.1-10.16-9.1H38.05c-4.62,0-7.62,4.1-6.65,9.1l17.5,90Z"/><path class="cls-14" d="M60.88,187.68h64.5L105.92,97.73c-1-5-5.54-9.14-10.16-9.14H50.13c-4.62,0-7.62,4.11-6.66,9.14Z"/><path class="cls-5" d="M104.22,166.68a2,2,0,0,1-2-2V149.57a5.07,5.07,0,0,1,5.06-5.06h28.13a2,2,0,0,1,0,4H107.28a1.06,1.06,0,0,0-1.06,1.06v15.11A2,2,0,0,1,104.22,166.68Z"/><rect class="cls-5" x="108.74" y="190.66" width="4" height="65.12"/><path class="cls-5" d="M41.15,215.76V166.22h4v45.32c2.72-.14,6.58-.35,7-.35h93.4v4H52.1c-.43,0-5.66.28-8.84.46Z"/><rect class="cls-13" x="105.47" y="139.54" width="41.87" height="5.59" rx="1.84"/><path class="cls-13" d="M125.58,186.2H48.33l1,5.09a10.31,10.31,0,0,0,10,8.25h66.19Z"/><path class="cls-14" d="M160.27,185.88l-9.31,0-28.09-.1-15.37-.05v9.21a4.68,4.68,0,0,0,4.73,4.68l10.6-.11,28.08.1,9.36,0Z"/><path class="cls-9" d="M103.73,100.94s0,0,0,0Z"/><path class="cls-15" d="M80.15,175.38c.22.09.46.17.69.25Z"/><path class="cls-15" d="M79.63,175.34l.68.23Z"/><path class="cls-5" d="M42.85,166.87a2,2,0,0,1-2-2V149.76a5.07,5.07,0,0,1,5.06-5.06H74a2,2,0,1,1,0,4H45.91a1.06,1.06,0,0,0-1.06,1.06v15.11A2,2,0,0,1,42.85,166.87Z"/><rect class="cls-11" x="43.12" y="163.87" width="0.45" height="47.69"/><polygon class="cls-11" points="43.26 211.49 42.82 211.65 33.39 165.58 33.83 165.42 43.26 211.49"/><polygon class="cls-11" points="42.95 211.53 42.56 211.83 24.34 170.53 24.73 170.23 42.95 211.53"/><polygon class="cls-11" points="42.66 211.68 42.34 212.1 16.57 178.37 16.89 177.95 42.66 211.68"/><polygon class="cls-11" points="42.4 211.91 42.17 212.43 10.62 188.58 10.85 188.07 42.4 211.91"/><polygon class="cls-11" points="42.2 212.23 42.08 212.81 6.89 200.46 7.01 199.89 42.2 212.23"/><rect class="cls-11" x="5.64" y="212.61" width="36.43" height="0.59"/><polygon class="cls-11" points="42.02 213.01 42.14 213.59 6.95 225.93 6.83 225.36 42.02 213.01"/><polygon class="cls-11" points="42.05 213.42 42.28 213.94 10.73 237.78 10.5 237.27 42.05 213.42"/><polygon class="cls-11" points="42.16 213.81 42.48 214.23 16.72 247.95 16.4 247.53 42.16 213.81"/><polygon class="cls-11" points="42.34 214.14 42.74 214.44 24.52 255.74 24.13 255.44 42.34 214.14"/><polygon class="cls-11" points="42.59 214.4 43.02 214.56 33.6 260.62 33.16 260.47 42.59 214.4"/><rect class="cls-11" x="42.87" y="214.57" width="0.45" height="47.69"/><polygon class="cls-11" points="43.18 214.64 43.62 214.48 53.05 260.55 52.61 260.71 43.18 214.64"/><polygon class="cls-11" points="43.49 214.6 43.89 214.3 62.1 255.6 61.71 255.9 43.49 214.6"/><polygon class="cls-11" points="43.79 214.45 44.11 214.03 69.87 247.76 69.55 248.18 43.79 214.45"/><polygon class="cls-11" points="44.04 214.22 44.27 213.7 75.82 237.55 75.59 238.06 44.04 214.22"/><polygon class="cls-11" points="44.24 213.9 44.36 213.32 79.55 225.67 79.43 226.24 44.24 213.9"/><rect class="cls-11" x="44.37" y="212.93" width="36.43" height="0.6"/><polygon class="cls-11" points="44.42 213.12 44.31 212.54 79.5 200.2 79.61 200.77 44.42 213.12"/><polygon class="cls-11" points="44.39 212.71 44.17 212.19 75.72 188.35 75.94 188.86 44.39 212.71"/><polygon class="cls-11" points="44.28 212.32 43.96 211.9 69.72 178.18 70.05 178.6 44.28 212.32"/><polygon class="cls-11" points="44.1 211.99 43.71 211.69 61.92 170.39 62.32 170.69 44.1 211.99"/><polygon class="cls-11" points="43.86 211.73 43.42 211.57 52.85 165.51 53.29 165.66 43.86 211.73"/><path class="cls-16" d="M42.6,158.6c-23.53,0-42.6,25-42.6,55.76s19.07,55.76,42.6,55.76,42.59-25,42.59-55.76S66.12,158.6,42.6,158.6Zm0,103c-19.92,0-36.06-21.13-36.06-47.2s16.14-47.2,36.06-47.2,36.05,21.13,36.05,47.2S62.51,261.56,42.6,261.56Z"/><path class="cls-5" d="M46.21,213.22c0,2.48-1.26,4.48-2.8,4.48s-2.81-2-2.81-4.48,1.26-4.48,2.81-4.48S46.21,210.74,46.21,213.22Z"/><path class="cls-13" d="M161.12,267.58H106.69a3.12,3.12,0,0,1,0-6.23h54.43a3.12,3.12,0,0,1,0,6.23Z"/><path class="cls-14" d="M172.17,267.56H130.05a3.12,3.12,0,0,1,0-6.23h42.12a3.12,3.12,0,0,1,0,6.23Z"/><rect class="cls-11" x="89.75" y="242.72" width="0.12" height="12.17"/><polygon class="cls-11" points="89.78 254.87 89.67 254.91 87.27 243.16 87.38 243.12 89.78 254.87"/><polygon class="cls-11" points="89.7 254.88 89.6 254.96 84.95 244.42 85.06 244.35 89.7 254.88"/><polygon class="cls-11" points="89.63 254.92 89.55 255.03 82.97 246.43 83.06 246.32 89.63 254.92"/><polygon class="cls-11" points="89.56 254.98 89.5 255.11 81.46 249.03 81.51 248.9 89.56 254.98"/><polygon class="cls-11" points="89.51 255.06 89.48 255.21 80.5 252.06 80.53 251.91 89.51 255.06"/><rect class="cls-11" x="80.18" y="255.16" width="9.29" height="0.15"/><polygon class="cls-11" points="89.47 255.26 89.5 255.41 80.52 258.56 80.49 258.41 89.47 255.26"/><polygon class="cls-11" points="89.47 255.37 89.53 255.5 81.48 261.58 81.42 261.45 89.47 255.37"/><polygon class="cls-11" points="89.5 255.46 89.58 255.57 83.01 264.18 82.93 264.07 89.5 255.46"/><polygon class="cls-11" points="89.55 255.55 89.65 255.63 85 266.16 84.9 266.09 89.55 255.55"/><polygon class="cls-11" points="89.61 255.62 89.72 255.66 87.32 267.41 87.2 267.37 89.61 255.62"/><rect class="cls-11" x="89.68" y="255.66" width="0.12" height="12.17"/><polygon class="cls-11" points="89.76 255.68 89.87 255.64 92.28 267.39 92.17 267.43 89.76 255.68"/><polygon class="cls-11" points="89.84 255.67 89.94 255.59 94.59 266.13 94.49 266.2 89.84 255.67"/><polygon class="cls-11" points="89.92 255.63 90 255.52 96.57 264.13 96.49 264.23 89.92 255.63"/><polygon class="cls-11" points="89.98 255.57 90.04 255.44 98.09 261.52 98.03 261.65 89.98 255.57"/><polygon class="cls-11" points="90.03 255.49 90.06 255.34 99.04 258.49 99.01 258.64 90.03 255.49"/><rect class="cls-11" x="90.07" y="255.24" width="9.29" height="0.15"/><polygon class="cls-11" points="90.08 255.29 90.05 255.14 99.03 251.99 99.06 252.14 90.08 255.29"/><polygon class="cls-11" points="90.07 255.18 90.01 255.05 98.06 248.97 98.12 249.1 90.07 255.18"/><polygon class="cls-11" points="90.04 255.09 89.96 254.98 96.53 246.38 96.61 246.48 90.04 255.09"/><polygon class="cls-11" points="90 255 89.9 254.93 94.54 244.39 94.64 244.46 90 255"/><polygon class="cls-11" points="89.94 254.93 89.82 254.9 92.23 243.14 92.34 243.18 89.94 254.93"/><path class="cls-16" d="M89.61,241.38c-6,0-10.86,6.37-10.86,14.23s4.86,14.22,10.86,14.22,10.87-6.37,10.87-14.22S95.61,241.38,89.61,241.38Zm0,26.27c-5.08,0-9.2-5.39-9.2-12s4.12-12.05,9.2-12.05,9.2,5.39,9.2,12.05S94.69,267.65,89.61,267.65Z"/><path class="cls-16" d="M89.61,270.83c-6.54,0-11.86-6.83-11.86-15.22s5.32-15.23,11.86-15.23,11.87,6.83,11.87,15.23S96.16,270.83,89.61,270.83Zm-5.46-4.21a7.85,7.85,0,0,0,10.92,0,8.36,8.36,0,0,1-10.92,0Zm5.46-22.06c-4.52,0-8.2,5-8.2,11.05s3.68,11,8.2,11,8.2-5,8.2-11S94.13,244.56,89.61,244.56Zm0-2a8.63,8.63,0,0,1,5.46,2,7.85,7.85,0,0,0-10.92,0A8.65,8.65,0,0,1,89.61,242.56Z"/><path class="cls-5" d="M117.23,255.51c0,1.8-1.12,3.25-2.49,3.25s-2.49-1.45-2.49-3.25,1.11-3.25,2.49-3.25S117.23,253.72,117.23,255.51Z"/><path class="cls-1" d="M166.6,170.08a1,1,0,0,1-1,.93l-4.85.06a1,1,0,0,1-1-.9,1,1,0,0,1,1-.93l4.84-.06A.94.94,0,0,1,166.6,170.08Z"/><path class="cls-1" d="M158.79,178.05a4.24,4.24,0,0,0,2.16.4,2.4,2.4,0,0,0,1.18-.7,10.92,10.92,0,0,0,2.13-2.74,3.19,3.19,0,0,0,.06-3.45,5.58,5.58,0,0,0-3.43-2.23c-2.46-.54-3.34-.72-5.28,0-2.42.91-3.27,2.74-.77,5.28C156.12,175.94,157.19,177.41,158.79,178.05Z"/><path class="cls-1" d="M163.1,172.61l4.78,5a.88.88,0,0,0,1.22,0,.85.85,0,0,0,0-1.2l-4.79-5a.86.86,0,0,0-1.21,0A.84.84,0,0,0,163.1,172.61Z"/><path class="cls-1" d="M161.88,174.69l4.79,5a.85.85,0,0,0,1.21,0,.84.84,0,0,0,0-1.2l-4.79-5a.86.86,0,0,0-1.21,0A.84.84,0,0,0,161.88,174.69Z"/><path class="cls-1" d="M159.33,175.75l4.79,5a.85.85,0,0,0,1.21,0,.84.84,0,0,0,0-1.2l-4.78-5a.88.88,0,0,0-1.22,0A.85.85,0,0,0,159.33,175.75Z"/><path class="cls-1" d="M156.68,175.85l4.78,5a.88.88,0,0,0,1.22,0,.84.84,0,0,0,0-1.2l-4.78-5a.87.87,0,0,0-1.22,0A.84.84,0,0,0,156.68,175.85Z"/><path class="cls-1" d="M131.86,142a5.08,5.08,0,0,0-.52.77l-.18.4c-.66,6.1,22.77,28.25,29,33.2l2.28-2.87a2,2,0,0,0-.14-.25,4,4,0,0,0-.51-.76c-1.21-1.3-14.73-19.86-17.4-23.56l-5.5-6.83a4.73,4.73,0,0,0-3.7-1.67A4.22,4.22,0,0,0,131.86,142Z"/><path class="cls-1" d="M138.53,142.77c-1.48-10.23-4.94-34-5.35-37.88l-11.5,6.27c2.82,16.91,6.56,30.5,11.5,36.5.14.18.38-.6,1.67-.56a3.46,3.46,0,0,0,2.71-1.18A3.88,3.88,0,0,0,138.53,142.77Z"/><path class="cls-15" d="M80.47,166l.77.26Z"/><path class="cls-15" d="M79.9,166c.24.09.51.17.76.25Z"/><polygon class="cls-17" points="139.74 246.17 131.06 245.47 126.26 255.09 126.42 258.31 131.01 258.69 134.81 256.02 134.61 255.47 139.74 246.17"/><path class="cls-18" d="M142.39,257.07,135,254.69c-2.28,3.9-6,3.4-8.19.4a.38.38,0,0,0-.67.12l-1.57,5.54c-.12.44.42.85,1.14.85l15-.06C144.63,261.53,145.9,258.2,142.39,257.07Z"/><path class="cls-19" d="M143.62,167.37c11.31,2.13,25,9.27,24.29,20.51-1,10.22-6.3,21.55-10.16,31.32a154.77,154.77,0,0,1-14.44,27.64,4.18,4.18,0,0,1-3.5,1.78H127.88a1.58,1.58,0,0,1-1.52-2.31c16.43-28.08,18.75-46.7,19.8-54.39a3.58,3.58,0,0,0-3.39-3.89c-5.54-.62-15.87-1.77-26.87-3.3-11.7-1.63-14.1-12.18-14.71-22.53C101.19,162.14,126.9,164.21,143.62,167.37Z"/><polygon class="cls-17" points="121.97 246.4 113.29 245.7 108.12 255.72 108.65 258.55 113.25 258.92 117.04 256.25 116.84 255.7 121.97 246.4"/><path class="cls-18" d="M124.35,257.36,116.91,255c-2.44,4.19-6.57,3.32-8.63-.27l-1.8,6.33c-.12.45.42.86,1.14.85l15-.05C126.59,261.82,127.86,258.49,124.35,257.36Z"/><path class="cls-19" d="M129.14,171.62c11.31,2.08,23.41,7.06,22.67,18-1,10-6.3,21-10.16,30.59a150.13,150.13,0,0,1-14.44,27,4.22,4.22,0,0,1-3.5,1.74H111.78a1.55,1.55,0,0,1-1.52-2.26c16.43-27.42,18.75-45.6,19.8-53.12a3.51,3.51,0,0,0-3.39-3.79c-5.54-.61-15.86-1.73-26.87-3.23C88.1,185,80.46,177,79.86,166.91,79.85,166.85,112.43,168.54,129.14,171.62Z"/><path class="cls-20" d="M127.78,247.86l-.83-.55A152.88,152.88,0,0,0,141.39,220c.68-1.69,1.4-3.43,2.13-5.2,3.38-8.16,7.21-17.42,8.08-25.71l0-.11v-.08c.64-11.34-12-16.1-22.73-18.1-15.31-2.85-43.37-4.45-46.52-4.63l0-1c3.16.18,31.28,1.78,46.66,4.65,11.08,2.07,24.14,7.05,23.55,19a1,1,0,0,1,0,.34c-.89,8.44-4.75,17.76-8.15,26-.73,1.77-1.45,3.51-2.13,5.2A153.55,153.55,0,0,1,127.78,247.86Z"/><path class="cls-21" d="M89.18,108.07c.08-8.9,8.71-17.23,17.4-18.48,11.64-1.66,15.08-2.44,20.89,1.15.38.28.75.57,1.1.87C135,97,135.2,106.75,131,113.9c-16,27-1.82,30.93-5.2,47.83a4.7,4.7,0,0,1-4.39,3.76c-12.35.62-21.3,5.83-37.92,3.67-1.42-.18-3-.12-4-1.1s-1.51-5.32-1.64-6.89C84.56,137.46,89.07,119.53,89.18,108.07Z"/><path class="cls-1" d="M119.38,101q-4.25-2.76-8.55-5.41c-1.85-1.15-2.58-3.15-1.6-4.39a7.55,7.55,0,0,1,6-3c3,0,8.61,1.33,8.52,4.32a55.24,55.24,0,0,1-.6,7.67C123,101.6,121,102,119.38,101Z"/><path class="cls-1" d="M127.69,169.76c.38-.86.78-1.73,1.18-2.59,0-.09,0-.18,0-.27-20.94-9.49-31-27.09-31-28.49.19-5.25,2-21.82,7.61-31.44,1.45-2.47-.36-7.25-3.13-9s-6.19-1.25-7.63,1.23c-6.56,11.19-7.89,29.79-8.16,37.26a13.56,13.56,0,0,0,2,7.51c9.06,14.86,25.89,24.19,37.7,28.66C126.78,171.63,127.21,170.68,127.69,169.76Z"/><path class="cls-1" d="M133.87,164a.85.85,0,0,1-.3,1.24l-4.08,2a1.06,1.06,0,0,1-1.34-.42.85.85,0,0,1,.3-1.24l4.08-2A1.07,1.07,0,0,1,133.87,164Z"/><path class="cls-1" d="M131.64,174.48a3.79,3.79,0,0,0,2.05-.52,1.94,1.94,0,0,0,.62-1.12,10.18,10.18,0,0,0,.29-3.37,3.76,3.76,0,0,0-1.85-3.16,5.93,5.93,0,0,0-4.14-.63c-2.4.51-3.24.72-4.48,2.17-1.56,1.83-1.27,3.84,2.26,5.14C128.2,173.65,129.92,174.55,131.64,174.48Z"/><path class="cls-1" d="M132.3,167.77l6.84,2.62a.76.76,0,0,0,1.05-.46,1,1,0,0,0-.63-1.11l-6.84-2.63a.78.78,0,0,0-1.06.47A1,1,0,0,0,132.3,167.77Z"/><path class="cls-1" d="M132.41,170.16l6.84,2.62a.77.77,0,0,0,1.06-.46,1,1,0,0,0-.64-1.11l-6.84-2.62a.76.76,0,0,0-1.05.46A1,1,0,0,0,132.41,170.16Z"/><path class="cls-1" d="M130.83,172.16l6.84,2.63a.77.77,0,0,0,1.05-.47,1,1,0,0,0-.63-1.11l-6.84-2.62a.77.77,0,0,0-1.06.46A1,1,0,0,0,130.83,172.16Z"/><path class="cls-1" d="M128.63,173.34l6.84,2.62a.76.76,0,0,0,1.05-.46,1,1,0,0,0-.63-1.11l-6.84-2.62a.77.77,0,0,0-1.06.46A1,1,0,0,0,128.63,173.34Z"/><rect class="cls-13" x="53.84" y="139.54" width="41.87" height="5.59" rx="1.84"/><path class="cls-7" d="M88.57,71.94a9.83,9.83,0,0,1,1.36,2.5c.19.79,0,1.61.15,2.41s.7,1.66,1.53,1.65c.4,0,.77-.2,1.16-.2,1.12,0,1.57,1.34,2.2,2.23A3.63,3.63,0,0,0,98.21,82c.89-.09,1.86-.5,2.62,0,.6.37.85,1.2,1.53,1.39,1,.29,1.72-1,2.74-1.17a4.29,4.29,0,0,1,2.07.6,3.63,3.63,0,0,0,3.75-.82c.49-.51.84-1.18,1.48-1.51.82-.42,1.94-.15,2.68-.69,1.55-1.13.11-2.87,0-4.59-.14-2.16,2-4.4.81-6.26-.27-.44-.72-.82-.74-1.33s.41-1,.44-1.47c.06-1-1.2-1.57-1.65-2.39a3.89,3.89,0,0,1-.17-.65c-1.62-5.52-5.71-9.51-10.43-9.51-3.91,0-7.32,2.76-9.22,6.86H94a4.54,4.54,0,0,0-2.92,2c-1.34,1.83-.18,3.69-1.08,5.38-.35.64-1.17.91-1.6,1.5A2.56,2.56,0,0,0,88.57,71.94Z"/><path class="cls-7" d="M110.14,74.84c-2.37-1.14-6.8-1.84-8.64-2.84A16.29,16.29,0,0,1,98,69.64a6.71,6.71,0,0,1-1.74-2.8s.56-1.75.09-.44a11.41,11.41,0,0,0,0-8.25A10.36,10.36,0,0,1,98,52.88c2.9-4.74,5-4.67,7.29-6.1s2.13-1.13,5.1-2.2a9.93,9.93,0,0,1,8,.69,19.06,19.06,0,0,1,1.93,1.38c.55.52,1.06,1.09,1.58,1.64.75.26,3.55,1.39,4.24,3.19,1.36,3.55.59,5.33.59,5.33-1.91.08-4.12-2.06-5.64-1.42a5.08,5.08,0,0,0-1.32.88c-1.94,1.83-3.54,3.34-3.73,6.21-.15,2.36,1.22,4.92-.07,7-1.14,1.83-3.9,2.28-5.19,4A4.06,4.06,0,0,0,110.14,74.84Z"/><path class="cls-7" d="M106.5,72.14a10.46,10.46,0,0,0,2.14-3.07c.92-2,1.17-4.35,2-6.42a15.8,15.8,0,0,1,10.86-8.77c.64-.17,1.62-.37,1.68-1.19a1.84,1.84,0,0,0-.32-.93c-.38-.68-1-1.45-1.25-1.87a1,1,0,0,0-.36-.41,1,1,0,0,0-.48-.1l-4.33-.14a38,38,0,0,0-5.94.12,7.2,7.2,0,0,0-4.47,1.88c-1.83,1.94-1.62,5-2.33,7.61a13.29,13.29,0,0,1-.64,1.73l-1-.62a15.07,15.07,0,0,0,.06,2.49c-.44.81-.91,1.6-1.34,2.41l3.72,5.66c.56,1.25,1.22,2.56,2,4a12,12,0,0,0,3,3.63s-.89-5.2-.89-5.2A2.76,2.76,0,0,1,106.5,72.14Z"/><path class="cls-1" d="M122.9,51.76a1.84,1.84,0,0,1,.32.93c-.06.82-1,1-1.68,1.19a15.8,15.8,0,0,0-10.86,8.77c-.87,2.07-1.12,4.38-2,6.42a10.46,10.46,0,0,1-2.14,3.07,2.76,2.76,0,0,0,2.15.77l.93,5.2,2.6,14.56A1.8,1.8,0,0,0,114,94.34l5.94-1a1.79,1.79,0,0,0,1.14-2.19l-2.21-12.29a9.83,9.83,0,0,0,1.33-.14,10.41,10.41,0,0,0,8.41-12.06l-1.48-8.25A10.31,10.31,0,0,0,122.9,51.76Zm-5.16,11.76c.12.63-.12,1.21-.53,1.28s-.84-.37-.95-1,.12-1.21.53-1.28l1.26-.23-.5.73A1.63,1.63,0,0,1,117.74,63.52Zm-.16-3-2.49.46a.68.68,0,0,1-.78-.55.67.67,0,0,1,.54-.78l2.49-.45a.67.67,0,0,1,.24,1.32Zm5.18,11.77c-1.56.07-1.76-.62-2-1.3l4-.41C125.37,72.2,122.76,72.3,122.76,72.3Zm1.34-4.22-1,.56c-.6.33-1.33-.22-1.33-1V67.5a.83.83,0,0,0,1,.24l1.05-.56a1.31,1.31,0,0,0,.6-1.26l.12.21A1.42,1.42,0,0,1,124.1,68.08Zm2.57-6.18c.12.63-.12,1.2-.53,1.28s-.83-.38-1-1,.12-1.21.53-1.29l1.26-.23-.5.73A1.4,1.4,0,0,1,126.67,61.9Zm0-3-1.93.35c-.28.05-.57-.21-.64-.57a.62.62,0,0,1,.39-.76l1.94-.35c.28,0,.56.21.63.57A.61.61,0,0,1,126.68,58.88Z"/><path class="cls-7" d="M118.12,59.75a.67.67,0,0,0-.78-.54l-2.49.45a.67.67,0,0,0-.54.78.68.68,0,0,0,.78.55l2.49-.46A.66.66,0,0,0,118.12,59.75Z"/><path class="cls-7" d="M126.44,57.55l-1.94.35a.62.62,0,0,0-.39.76c.07.36.36.62.64.57l1.93-.35a.61.61,0,0,0,.39-.76C127,57.76,126.72,57.5,126.44,57.55Z"/><path class="cls-10" d="M124.39,65.92a1.31,1.31,0,0,1-.6,1.26l-1.05.56a.83.83,0,0,1-1-.24v.13c0,.79.73,1.34,1.33,1l1-.56a1.42,1.42,0,0,0,.41-2Z"/><path class="cls-6" d="M116.79,62.51c-.41.07-.65.65-.53,1.28s.54,1.09.95,1,.65-.65.53-1.28a1.63,1.63,0,0,0-.19-.51l.5-.73Z"/><path class="cls-6" d="M125.72,60.88c-.41.08-.65.65-.53,1.29s.54,1.08,1,1,.65-.65.53-1.28a1.4,1.4,0,0,0-.19-.52l.5-.73Z"/><path class="cls-9" d="M122.76,72.3s2.61-.1,2.06-1.71l-4,.41C121,71.68,121.2,72.37,122.76,72.3Z"/><path class="cls-10" d="M116.66,57.59a.25.25,0,0,1,0-.49l7.09-1.41a.26.26,0,0,1,.3.2.25.25,0,0,1-.2.29l-7.09,1.41Z"/><path class="cls-1" d="M246.37,62l13.92,9.32c-1.68,4.66-7,22.07-17.86,31.42a4.63,4.63,0,0,1-3.44.78,5.14,5.14,0,0,1-3.93-6.77C238.05,87.72,246.07,63.55,246.37,62Z"/><path class="cls-2" d="M242.63,58.9c-1.36,4.83-3,11.59-4.28,17.76a4.64,4.64,0,0,0,2.45,5.08l12,6.08a3.84,3.84,0,0,0,5.35-2.15c1.47-4.18,3.14-8.85,4.8-13.34C256.07,68,249.18,63.72,242.63,58.9Z"/><path class="cls-22" d="M254.87,89a4.24,4.24,0,0,1-1.9-.45l-12-6.09a5,5,0,0,1-2.65-5.49c1.25-6,2.77-11,4-15,.6-2,1.13-3.72,1.52-5.22a.37.37,0,0,1,.45-.27.36.36,0,0,1,.27.45c-.39,1.53-.92,3.26-1.53,5.26-1.21,4-2.73,8.94-4,15a4.27,4.27,0,0,0,2.26,4.66l12,6.09a3.48,3.48,0,0,0,2.86.12,3.44,3.44,0,0,0,2-2.06l1-3c1.21-3.46,1.5-4.28,3.39-9.27a.38.38,0,0,1,.71.27c-1.9,5-2.18,5.8-3.39,9.25l-1,3a4.19,4.19,0,0,1-2.39,2.5A4.12,4.12,0,0,1,254.87,89Z"/><path class="cls-1" d="M195.73,117.17l-.75-5.66c.6-.22,1.23-.73,1.93-.93,1.78-.53,24.7-10.52,30.78-13.2l9.45-3.59a6.1,6.1,0,0,1,8.12,4.68v.06a5.66,5.66,0,0,1,0,1.22l-.08.63C242.26,107.76,202.38,116.43,195.73,117.17Z"/><path class="cls-23" d="M194.46,117.62h-52a1.63,1.63,0,1,1,0-3.25h52a1.63,1.63,0,0,1,0,3.25Z"/><path class="cls-1" d="M187.18,112.86a1,1,0,0,0,1,.93l5-.19a1,1,0,0,0,1-1,1,1,0,0,0-1-.93l-5,.19A1,1,0,0,0,187.18,112.86Z"/><path class="cls-1" d="M195.56,120.88a4.19,4.19,0,0,1-2.21.53,2.39,2.39,0,0,1-1.25-.67,11.54,11.54,0,0,1-2.31-2.79,3.46,3.46,0,0,1-.19-3.65,5.82,5.82,0,0,1,3.45-2.54c2.52-.7,3.42-.93,5.45-.26,2.54.84,3.49,2.72,1,5.55C198.24,118.5,197.2,120.11,195.56,120.88Z"/><path class="cls-1" d="M192.51,113.58l-4.74,5.57a.88.88,0,0,1-1.25.11.91.91,0,0,1-.09-1.27l4.74-5.58a.89.89,0,0,1,1.26-.1A.9.9,0,0,1,192.51,113.58Z"/><path class="cls-1" d="M194.23,115.16l-4.74,5.58a.89.89,0,0,1-1.26.1.92.92,0,0,1-.08-1.27l4.74-5.57a.88.88,0,0,1,1.25-.11A.91.91,0,0,1,194.23,115.16Z"/><path class="cls-14" d="M148.76,106.29c.21,3.81,4.47,7,10.28,8.06h8.28c5.81-1,10.07-4.25,10.29-8.06Z"/><polygon class="cls-14" points="186.21 114.38 179.76 114.38 179.04 100.29 187.21 100.29 186.21 114.38"/></g></g></svg>