<svg xmlns="http://www.w3.org/2000/svg" viewBox="0 0 1189.99 895"><defs><style>.cls-1{fill:#ffd878;}.cls-2{fill:#36d6d2;}.cls-3{fill:#8881b6;}.cls-4{fill:#5e599b;}.cls-5{fill:#4f3936;}.cls-6{fill:#ff9985;}.cls-7{fill:#fff;}.cls-8{fill:#ffb288;}.cls-9{fill:#1e3056;}.cls-10{fill:#f7665f;}.cls-11{fill:#fbe9dc;}.cls-12{fill:#ff9292;}.cls-13{fill:#fa694f;}.cls-14{fill:#000543;}.cls-15{fill:#26266d;}.cls-16{fill:#4db4e8;}.cls-17{fill:#6d72a0;}.cls-18{fill:#2186c4;}.cls-19{fill:#f9c29d;}.cls-20{fill:#5e5d9b;}.cls-21{fill:#0b0949;}.cls-22{fill:#f9ceb2;}.cls-23{fill:#f2a966;}.cls-24{fill:#4e96e5;}.cls-25{fill:#d7e1fc;}.cls-26{fill:#b1d2f2;}.cls-27{fill:#34c6be;}</style></defs><g id="Слой_2" data-name="Слой 2"><g id="Слой_1-2" data-name="Слой 1"><path class="cls-1" d="M447.39,0c-59.64,55.35-59,130.07-64,151.59-7.13,30.95-40.6,45.32-68.07,59.95C247.46,247.7,194.74,312.84,172.5,388.05s-13.71,159.49,23.11,228.38c13,24.27,43.12,75.74,79.07,177.47,19.51,48.84,69,85.9,130.21,100.88H1190V0Z"/><path class="cls-2" d="M1037.14,0c-12.71,16.23-39.72,28-47.47,56.67-6.12,22.6-.16,47.39-7.58,69.6-8.46,25.34-28.46,44.78-45.45,65.41s-32.12,46.18-27.79,72.53c2,12.45,11.27,22.93,23.79,24.72s24.86-3.33,36.59-8.06c71.12-28.64,144.7-44.72,220.76-50.67V0Z"/><path class="cls-2" d="M1079.41,0c-.33,1.16-.65,2.32-.94,3.49-2.88,11.41-4.44,23.37-10,33.75-10.71,19.87-33.75,29.93-48,47.52-19.22,23.8-19.77,57.9-36.38,83.56C965,197.88,910.79,220,909.08,259c-.88,20,16,45.58,24.9,62.83,7.61,14.81,22.08,53,37,61.2a111.65,111.65,0,0,0,65.71,13c27.79-3.1,57.37-16.33,82.19-3.56,8.67,4.45,15.52,11.65,23.3,17.5,14.07,10.59,30.49,16.4,47.84,19.57V0Z"/><path class="cls-3" d="M1190,690.33a77,77,0,0,0-36.45-6.38c-5.36.39-10.81,1.28-16.06.5-12-1.78-17.1-11-19-18.91-7.54-31.2,2.94-64.66-16.27-93.64-9.07-13.68-29.35-26.68-51.68-23.68-18.32,2.45-29.38,14.31-39,24.78s-23.17,21.79-41.88,21.88c-21.06.11-35.9-14.08-56.28-17.58-14.4-2.48-30.82,1.18-39.91,8.89-14,11.89-11.61,31.61-31.55,39.07-5.9,2.2-12.85,2.85-19,4.67-21.55,6.31-28.11,24.79-24,40s15.83,29.18,20,44.38c2.76,10-1.23,23.21-16.45,25.12-13.34,1.68-24.6-6.83-38-8.37-17.06-2-32.67,8.35-36.63,19.38s.27,22.5,3.06,33.69,3.8,23.47-5.53,33c-9.84,10.08-28.59,14.54-42.41,22.37C659.48,852.77,653.37,876,664.1,895H1190Z"/><path class="cls-4" d="M981.61,895h2.91c-3.53-15.41-6.77-31-9.59-46.38-5-27.12-9.61-58.51-1.81-87.94,3.73-14.09,10.31-27.82,16.67-41.1,3.58-7.47,7.28-15.19,10.46-22.93,11.11-27.1,12.58-49.25,4.48-67.73-1.59-3.62-3.59-7.21-5.52-10.69-4.88-8.75-9.48-17-8.26-25.88a1.42,1.42,0,1,0-2.82-.38c-1.34,9.8,3.71,18.87,8.6,27.65,1.9,3.41,3.87,7,5.4,10.44,7.78,17.74,6.3,39.16-4.51,65.51-3.14,7.66-6.83,15.35-10.39,22.78-6.42,13.4-13.06,27.25-16.86,41.6-7.94,30-3.25,61.76,1.77,89.19C974.92,864.39,978.12,879.76,981.61,895Z"/><path class="cls-4" d="M1028.26,840.85c.73,18.36,1.48,37.33-6.85,54.15h3.15c8-17.13,7.26-36,6.54-54.26-.14-3.62-.29-7.36-.37-11-.48-23.62,2.32-44.21,8.56-63,5.45-16.39,14-32.36,22.21-47.8,10.76-20.18,21.88-41,26.37-63.15,7.25-35.77-3.35-72.86-12.71-105.58a1.41,1.41,0,1,0-2.72.78c9.26,32.41,19.76,69.14,12.65,104.23-4.4,21.71-15.43,42.38-26.1,62.38-8.29,15.55-16.87,31.63-22.4,48.24-6.34,19.06-9.19,40-8.7,63.92C1028,833.47,1028.12,837.22,1028.26,840.85Z"/><path class="cls-4" d="M883.92,656.83c1.24,1.78,2.57,3.56,3.86,5.28,2.11,2.81,4.29,5.71,6.09,8.68,3.73,6.16,6.32,13.27,8.16,22.37,3.28,16.3,3,33.21,2.78,49.56-.1,6.28-.19,12.76-.09,19.13.72,45.23,11.83,91,32.2,133.15h3.16c-20.57-42.13-31.8-87.94-32.53-133.19-.1-6.33,0-12.79.09-19,.25-16.51.51-33.57-2.83-50.17-1.9-9.44-4.61-16.84-8.51-23.28-1.88-3.1-4.1-6.06-6.25-8.92-1.27-1.7-2.59-3.45-3.81-5.2a81.63,81.63,0,0,1-13.92-34.49c-1.21-8.26-.81-19.45,8-25.82a41.67,41.67,0,0,1,4.47-2.7,37.68,37.68,0,0,0,5.64-3.56c3.37-2.73,5.76-7.41,3-11.23a1.42,1.42,0,1,0-2.31,1.65c1.58,2.22-.07,5.39-2.51,7.37a35.57,35.57,0,0,1-5.23,3.28,47.43,47.43,0,0,0-4.76,2.88c-10,7.21-10.51,19.5-9.17,28.54A84.45,84.45,0,0,0,883.92,656.83Z"/><path class="cls-4" d="M958.4,889.59a45,45,0,0,1-.51,5.41h2.86a49.48,49.48,0,0,0,.48-5.29c.88-21.51-1-43.52-2.72-64.81-3.27-39.35-6.65-80,7.29-118,1.82-5,4-10,6.07-14.83,5.11-11.89,10.4-24.18,11.38-37,.7-9-.73-18.06-2.11-26.85-1.91-12.15-3.71-23.63-.47-35a1.42,1.42,0,1,0-2.73-.78c-3.42,12-1.48,24.3.4,36.23,1.35,8.62,2.75,17.54,2.08,26.18-.95,12.37-6.14,24.44-11.16,36.12-2.1,4.88-4.27,9.94-6.12,15-14.16,38.57-10.75,79.57-7.45,119.22C957.45,846.34,959.27,868.26,958.4,889.59Z"/><path class="cls-4" d="M868.68,697.37c11,13.69,22.34,27.83,25.63,43.84,3,14.51-.93,29.44-4.72,43.88-1.72,6.57-3.5,13.36-4.64,20.09-3.33,19.71-.63,38,7.81,52.74a150.93,150.93,0,0,0,10.47,15.23c5.51,7.33,10.79,14.41,13.57,21.85h3c-2.86-8.32-8.62-16-14.27-23.56a149.29,149.29,0,0,1-10.28-14.93c-8.11-14.21-10.69-31.8-7.47-50.85,1.11-6.61,2.88-13.34,4.59-19.85,3.87-14.76,7.87-30,4.75-45.18-3.43-16.67-15-31.09-26.2-45-3-3.76-6.15-7.66-9-11.52-11.9-15.85-23.8-38.83-13-58.28a1.43,1.43,0,0,0-.55-1.93,1.41,1.41,0,0,0-1.93.54c-11.6,20.79.76,44.85,13.17,61.38C862.5,689.68,865.64,693.59,868.68,697.37Z"/><path class="cls-4" d="M932.66,746.16a1.41,1.41,0,0,0,1.24-.73c13.89-24.95,17.18-53.36,9.25-80-2-6.63-4.65-13.18-7.23-19.52a191.31,191.31,0,0,1-7.71-21.25c-3.06-11.2-4.75-27.26,4.66-40.18a1.42,1.42,0,1,0-2.29-1.67c-10.07,13.83-8.34,30.8-5.11,42.6A194.65,194.65,0,0,0,933.29,647c2.56,6.27,5.21,12.76,7.14,19.25,7.46,25.09,4.7,51.81-7.77,75.52-4.64-9.42-4.74-19.72-4.85-30.58a129.64,129.64,0,0,0-1.08-18.54c-2-12.52-7.69-24.48-13.24-36-6.38-13.29-13-27-13.51-41.29-.47-12.64,4-25.43,12.55-36a1.43,1.43,0,0,0-2.21-1.8c-9,11.11-13.67,24.57-13.17,37.9.55,14.84,7.28,28.86,13.78,42.41,5.46,11.38,11.11,23.16,13,35.26a127.34,127.34,0,0,1,1,18.13c.12,11.59.23,23.58,6.46,34.26A1.43,1.43,0,0,0,932.66,746.16Z"/><path class="cls-4" d="M795.18,772.18a89.43,89.43,0,0,1,9.26,11.88c6,9.85,7.22,20.74,8.5,32.26a153.7,153.7,0,0,0,2.6,17.41c5,21.82,19.77,41.73,32.82,59.29.51.69,1,1.35,1.54,2h3.77a46.22,46.22,0,0,1-3-3.68c-12.87-17.33-27.47-37-32.32-58.22A149.88,149.88,0,0,1,815.76,816c-1.26-11.33-2.56-23-8.89-33.43a93.07,93.07,0,0,0-9.55-12.27c-2.49-2.84-5.06-5.79-7.24-8.82-3.45-4.8-8.65-14.09-4.75-22.48a1.42,1.42,0,1,0-2.58-1.2c-3.34,7.19-1.55,16.19,5,25.34C790,766.29,792.65,769.29,795.18,772.18Z"/><path class="cls-4" d="M835.21,694.11c6.24,7.52,12.69,15.28,17.53,23.55a77.41,77.41,0,0,1,10.8,43.4c-.44,8-2.2,16.11-3.89,24-2.74,12.7-5.57,25.83-3,38.84,1.7,8.67,5.72,16.89,9.62,24.84a141.68,141.68,0,0,1,7.69,17.71,63.81,63.81,0,0,1,3.2,20.8,22,22,0,0,1-1.5,7.78h3a24.65,24.65,0,0,0,1.34-7.74,67,67,0,0,0-3.34-21.73,143.31,143.31,0,0,0-7.85-18.08c-3.81-7.78-7.75-15.83-9.37-24.13-2.43-12.44.21-24.7,3-37.69,1.72-8,3.5-16.21,4-24.41a80.12,80.12,0,0,0-11.19-45c-4.95-8.47-11.48-16.32-17.79-23.92-3.76-4.52-7.64-9.2-11.13-13.93-11.39-15.44-16-28.86-14-41a1.42,1.42,0,1,0-2.8-.45c-2.07,13,2.69,27.07,14.56,43.16C827.52,684.86,831.43,689.56,835.21,694.11Z"/><path class="cls-4" d="M742.57,823.33a50.5,50.5,0,0,1,9.27,2.52c9.71,4.11,12.15,13.38,14.74,23.2.76,2.89,1.55,5.89,2.53,8.68,3.79,10.72,11.88,20.18,19.29,28,2.93,3.1,6.07,6.25,9.48,9.26h4.39a133.64,133.64,0,0,1-11.82-11.21c-7.2-7.62-15.05-16.78-18.66-27-.95-2.68-1.72-5.62-2.47-8.46-2.65-10-5.38-20.43-16.38-25.09a53.46,53.46,0,0,0-9.79-2.69c-5.81-1.2-11.3-2.34-13.65-6.13a1.42,1.42,0,0,0-2.41,1.51C730.09,820.73,736.43,822.05,742.57,823.33Z"/><path class="cls-4" d="M784.94,803.55c6.54,7.2,13.3,14.64,17.49,23,3.16,6.26,4.9,13.1,6.58,19.71,1.76,6.93,3.58,14.08,7,20.75a108.5,108.5,0,0,0,9.39,14.22A103.52,103.52,0,0,1,834.56,895h3.14c-2.58-5.45-6.32-10.53-10-15.51a107.81,107.81,0,0,1-9.15-13.84c-3.3-6.37-5.08-13.37-6.8-20.14s-3.49-13.75-6.79-20.29C800.6,816.56,793.7,809,787,801.64c-4.88-5.37-9.92-10.91-13.88-16.79-10.58-15.71-13.79-34.71-8.8-52.15a1.41,1.41,0,1,0-2.72-.78c-5.23,18.24-1.88,38.12,9.17,54.52C774.88,792.49,780,798.11,784.94,803.55Z"/><path class="cls-4" d="M804.69,874.45a1.43,1.43,0,0,0,1-2.4c-6.92-7.27-10.45-15.91-14.18-25.06a139.1,139.1,0,0,0-7-15.23c-6-10.67-14.89-20-23.53-29.1-3.73-3.91-7.59-8-11.14-12-14.43-16.59-20.44-31.72-17.88-45a1.42,1.42,0,1,0-2.78-.54c-2.78,14.35,3.28,29.85,18.52,47.38,3.6,4.13,7.47,8.2,11.23,12.13,8.51,8.93,17.32,18.17,23.1,28.52a134.21,134.21,0,0,1,6.81,14.93c3.67,9,7.47,18.29,14.75,25.94A1.42,1.42,0,0,0,804.69,874.45Z"/><path class="cls-4" d="M732.58,859.72a93.67,93.67,0,0,0,9.15,2.95c4.62,1.32,9,2.57,12.81,4.74,9,5.09,12.47,13.64,16.2,22.7.67,1.62,1.35,3.26,2.07,4.89h3.11c-.9-2-1.74-4-2.56-6-3.75-9.1-7.62-18.51-17.42-24.08-4.11-2.34-8.85-3.69-13.44-5a92.5,92.5,0,0,1-8.86-2.86C720,851.63,711.16,839.25,712.08,827a1.42,1.42,0,0,0-2.83-.21C708.24,840.26,717.83,853.82,732.58,859.72Z"/><path class="cls-4" d="M687.21,838.2c6.92,3.52,10.23,9.4,13.74,15.62,3.18,5.63,6.47,11.46,12.62,15.63a56.27,56.27,0,0,0,7.61,4.08c1.86.88,3.78,1.79,5.52,2.8,7.86,4.55,12.91,11.5,17.41,18.67h3.34c-4.92-8-10.34-15.92-19.33-21.13-1.85-1.07-3.82-2-5.72-2.91a53.19,53.19,0,0,1-7.24-3.86c-5.6-3.8-8.58-9.08-11.74-14.68-3.56-6.32-7.24-12.84-14.92-16.76a1.42,1.42,0,0,0-1.91.62A1.44,1.44,0,0,0,687.21,838.2Z"/><path class="cls-4" d="M664,872.16a14.4,14.4,0,0,0,2,.29,7.34,7.34,0,0,1,2.33.47,5.11,5.11,0,0,1,1.92,2.27A131.24,131.24,0,0,0,684.09,895h3.75a129,129,0,0,1-15.13-21.21,7.53,7.53,0,0,0-3.15-3.43,9.68,9.68,0,0,0-3.29-.74,11.23,11.23,0,0,1-1.63-.23,3.84,3.84,0,0,1-3-2.79,1.42,1.42,0,0,0-2.81.42A6.66,6.66,0,0,0,664,872.16Z"/><path class="cls-4" d="M692.77,866.17c.94,2.49,1.66,5.12,2.37,7.67,1.33,4.82,2.7,9.81,5.64,14.33a39.26,39.26,0,0,0,5.85,6.83h4.19a42.7,42.7,0,0,1-7.66-8.39c-2.7-4.14-4-8.7-5.29-13.53-.72-2.61-1.46-5.31-2.45-7.92a52,52,0,0,0-17.92-23.07,1.42,1.42,0,1,0-1.7,2.28A49.18,49.18,0,0,1,692.77,866.17Z"/><path class="cls-4" d="M668.31,854.65c7.63,4.53,10.81,12,14.18,19.91,3.21,7.51,6.53,15.28,14,20.44h2.15l.14-.15a1.44,1.44,0,0,0-.39-2c-7-4.69-10-11.85-13.24-19.43-3.4-8-6.92-16.23-15.34-21.24a1.42,1.42,0,0,0-1.45,2.45Z"/><path class="cls-4" d="M1081.16,895c1.86-4.28,3.52-8.52,5.1-12.56,5.42-13.93,10.87-28.15,16.21-42.26,3.5-9.26,7.12-18.83,15-26.09a79,79,0,0,1,6.84-5.42c1.77-1.3,3.6-2.64,5.3-4.06,19.36-16.1,21.94-40.6,20.7-58.32l-.15-2c-.58-7.68-1.18-15.62,3.51-21.83,3.09-4.09,8-6.87,13.15-9.81,2.3-1.31,4.68-2.67,6.88-4.14,5.46-3.67,9.24-8.63,10.12-13.26a10.17,10.17,0,0,0-1.63-7.9,1.42,1.42,0,0,0-2-.36,1.44,1.44,0,0,0-.36,2,7.35,7.35,0,0,1,1.18,5.75c-.73,3.84-4.14,8.22-8.91,11.43-2.11,1.41-4.44,2.74-6.7,4-5.19,3-10.57,6-14,10.57-5.34,7.07-4.67,15.94-4.08,23.76l.15,2c1.2,17.06-1.24,40.6-19.68,55.93-1.64,1.37-3.43,2.68-5.16,4a79.46,79.46,0,0,0-7.09,5.62c-8.36,7.71-12.27,18-15.72,27.17-5.33,14.11-10.78,28.32-16.2,42.23-1.7,4.37-3.51,9-5.57,13.6Z"/><path class="cls-4" d="M1044.44,895a73.75,73.75,0,0,1,2.28-8.08c1.06-3,2.36-6.13,3.62-9.12,2.45-5.81,5-11.83,6-18.1,1.3-8,.11-16.19-1-24.1-1.54-10.62-3-20.65,1.09-30.17,2.5-5.82,6.84-10.82,11.43-16.12a119.63,119.63,0,0,0,7.77-9.62,52.33,52.33,0,0,0,9.54-26.48,97.28,97.28,0,0,0-.84-16.92c-.87-8-1.68-15.56.2-23.06,2.39-9.48,9.09-18.18,15.58-26.6,8.16-10.6,16.61-21.56,16.61-34.33a1.42,1.42,0,0,0-2.84,0c0,11.8-7.78,21.9-16,32.59-6.66,8.65-13.55,17.59-16.08,27.65-2,8-1.13,16.15-.27,24.05a96.32,96.32,0,0,1,.83,16.43,49.47,49.47,0,0,1-9,25,115.43,115.43,0,0,1-7.59,9.39c-4.53,5.22-9.21,10.63-11.89,16.86-4.4,10.25-2.82,21.15-1.29,31.7,1.12,7.7,2.28,15.66,1,23.23-1,5.94-3.43,11.8-5.82,17.46-1.27,3-2.59,6.15-3.68,9.28a75.16,75.16,0,0,0-2.51,9Z"/><path class="cls-4" d="M1073.68,895a27.91,27.91,0,0,0,4.77-11.68,79.22,79.22,0,0,0,.91-10.32c.1-2.35.21-4.79.47-7.14a56.13,56.13,0,0,1,8.39-23.55,132.47,132.47,0,0,1,11-14.23c2.91-3.43,5.92-7,8.59-10.66,10.38-14.33,15.83-31.42,15.33-48.1-.07-2.33-.26-4.71-.43-7-.56-7.27-1.08-14.13,1.47-20.64,1.87-4.75,5.37-9.12,8.76-13.34q1.36-1.68,2.69-3.37a102.66,102.66,0,0,0,19-39.52,1.42,1.42,0,0,0-2.77-.63,99.75,99.75,0,0,1-18.45,38.41c-.86,1.11-1.75,2.22-2.65,3.33-3.52,4.39-7.17,8.92-9.19,14.08-2.79,7.12-2.22,14.63-1.66,21.89.17,2.27.35,4.61.42,6.88.48,16.05-4.77,32.51-14.79,46.35-2.6,3.58-5.57,7.09-8.45,10.48a131.06,131.06,0,0,0-11.22,14.55,58.88,58.88,0,0,0-8.82,24.75c-.27,2.46-.38,4.94-.49,7.34a75.48,75.48,0,0,1-.86,9.94A23.73,23.73,0,0,1,1070,895Z"/><path class="cls-4" d="M1063.86,895c-2.56-9.68-1-19.94.92-28.77a209.75,209.75,0,0,1,23-59.59c1-1.74,2-3.46,3-5.19,4.18-7.11,8.51-14.45,10.92-22.29,2.15-7,2.77-14.24,3.37-21.28.85-9.92,1.65-19.29,6.33-28a81.49,81.49,0,0,1,6.52-9.63c3.16-4.23,6.43-8.6,8.37-13.47,3.63-9.08,2.3-18.91,1.12-27.58a1.42,1.42,0,0,0-2.82.39c1.14,8.32,2.42,17.75-.93,26.14-1.81,4.51-4.82,8.55-8,12.81a82.35,82.35,0,0,0-6.74,10c-5,9.18-5.83,19.29-6.67,29.07-.58,6.89-1.19,14-3.25,20.68-2.32,7.52-6.56,14.72-10.66,21.69-1,1.74-2,3.47-3,5.21A212.78,212.78,0,0,0,1062,865.63c-1.94,9-3.53,19.34-1.08,29.37Z"/><path class="cls-4" d="M1190,738.59l-.08.08c-1.27,1.13-2.6,2.23-3.93,3.34-5.17,4.32-10.52,8.78-12.86,14.72-2.51,6.34-1,12.94.36,19.31.33,1.51.66,3,.94,4.49,3.9,21-5,41.52-22.73,52.37-3,1.83-6.36,3.51-9.63,5.14-8.58,4.28-17.45,8.7-21,16.55-2.41,5.27-1.79,10.84-1.19,16.23.45,4,.88,7.81.15,11.51a21.45,21.45,0,0,1-8.41,12.67h4.35a23.52,23.52,0,0,0,6.85-12.12c.81-4.13.34-8.32-.12-12.38-.58-5.23-1.13-10.17.95-14.73,3.16-6.94,11.2-10.94,19.71-15.18,3.33-1.66,6.76-3.37,9.86-5.27,18.71-11.47,28.14-33.18,24-55.31-.28-1.52-.62-3-1-4.58-1.38-6.23-2.68-12.12-.49-17.66,2.07-5.26,7.14-9.48,12-13.57.73-.62,1.47-1.23,2.19-1.85Z"/><path class="cls-4" d="M1190,866.91l-.32.14c-2.84,1.22-5.79,2.49-8.54,4-10.76,5.89-17.78,14.8-24.06,24h3.45c5.93-8.49,12.31-16.18,22-21.46,2.38-1.3,5-2.44,7.5-3.53Z"/><path class="cls-4" d="M1190,804.68c-.11,1.47-.27,2.94-.5,4.39-1.79,11.25-8.09,22-17.73,30.17-3.06,2.61-6.54,5-9.9,7.39-6.32,4.41-12.85,9-17.14,15-4,5.73-5.79,12.45-7.32,18.39l-3.86,15h2.93l3.68-14.25c1.54-6,3.13-12.16,6.89-17.45,4-5.65,10-9.87,16.44-14.34,3.42-2.39,7-4.86,10.12-7.55A55.58,55.58,0,0,0,1190,818.33Z"/><path class="cls-4" d="M1190,849a32.31,32.31,0,0,1-2.62,4.28c-3.95,5.4-10,9.7-15.93,13.85-1.51,1.07-3,2.13-4.5,3.21-6.29,4.62-14.84,11.81-16.37,21a1.43,1.43,0,0,0,1.17,1.63,1,1,0,0,0,.24,0,1.41,1.41,0,0,0,1.39-1.18c1.36-8.15,9.35-14.83,15.25-19.15,1.46-1.07,3-2.13,4.45-3.18,6.08-4.29,12.37-8.72,16.59-14.5.12-.16.22-.32.33-.48Z"/><path class="cls-4" d="M1190,887.48a68.09,68.09,0,0,0-9.18,4.91,42.42,42.42,0,0,0-3.5,2.61H1182l.33-.23a62.27,62.27,0,0,1,7.62-4.16Z"/><path class="cls-4" d="M1000.12,894.06a1.42,1.42,0,0,0,1.37-1.07c2.54-10.08.35-20.31-1.76-30.2-1.76-8.23-3.58-16.73-2.59-25s4.82-16.29,8.52-24c3.39-7.11,6.89-14.45,8.36-22.15,2.07-10.81.05-21.73-1.9-32.3-1.34-7.2-2.72-14.66-2.76-22a63.8,63.8,0,0,1,10.84-35.46,147.19,147.19,0,0,1,8.92-11.76,122.36,122.36,0,0,0,11-15.15,52.55,52.55,0,0,0,7-31.92c-1.1-10.62-5.53-20.76-9.81-30.57-2.13-4.88-4.34-9.94-6.09-15-3.68-10.55-7.81-30.23,5.83-43.48a1.42,1.42,0,0,0-2-2c-14.77,14.35-10.43,35.27-6.53,46.46,1.79,5.12,4,10.23,6.17,15.16,4.19,9.61,8.53,19.54,9.59,29.73a49.71,49.71,0,0,1-6.67,30.19,117.27,117.27,0,0,1-10.79,14.79,149.51,149.51,0,0,0-9.08,12,66.69,66.69,0,0,0-11.31,37c.05,7.54,1.45,15.12,2.8,22.45,2,10.78,3.88,21,1.91,31.25-1.4,7.34-4.82,14.51-8.13,21.45-3.8,8-7.73,16.2-8.78,24.93s.82,17.44,2.63,25.9c2.14,10,4.16,19.47,1.79,28.9a1.43,1.43,0,0,0,1,1.73A1.45,1.45,0,0,0,1000.12,894.06Z"/><path class="cls-5" d="M452.62,243.75c-2.87,8.53-4.08,17.9-9.24,25.2-4.43,6.24-11.3,10.27-16.21,16.13s-7.37,15.34-2.08,21.17c2.51,2.77,6.27,4.12,8.77,6.88,7.06,7.78.34,19.4-2,29.41A33.75,33.75,0,0,0,442,374.39c6.26,5.67,15.25,9.94,16.7,18.2,1.13,6.51-3.14,13.44-.25,19.44,4.23,8.8,18,5.81,25.6,12,5.34,4.34,6.2,11.95,8.72,18.33,4.7,11.9,16.78,20.63,29.36,21.21,6.73.3,13.7-1.47,20,1,8.19,3.18,13.26,12.71,21.8,14.58,17.75,3.86,21-17.22,32.54-28.75,14.49-14.53,43.66-13.62,49.6-33.47,1.4-4.65,1.3-10.18,4.75-13.53s9.37-3.14,13.23-6.13c7.23-5.63,3.57-18.24,6.52-26.56.49-.7,3-4.85,3.55-5.27,29-45.95,31.71-99.7,2-132.89-24.61-27.5-65.58-34.28-106.65-22-.39-.33-.61-.7-1-1-9.42-7.56-20.72-9.2-32.41-8.11-21.45,2-27.38,21.79-45,26-6.74,1.61-13.83-2.54-20.74-1.8C461.38,226.53,455.5,235.23,452.62,243.75Z"/><path class="cls-6" d="M491.6,463.65,343.8,490.73l-3.7,16.42c4.43,23.48,20.1,43.73,44,42.44L504.78,543Z"/><path class="cls-7" d="M606.87,542.08c-60,13.9-90.63,19.13-145.18,21.19-8.15.29-15.08-6.24-15.64-14.74l-5.51-84.1c-1.76-26.68,32.52-25.08,153.1-45.92C652.73,408.3,666.47,528.28,606.87,542.08Z"/><path class="cls-6" d="M412.52,503.71c-2.94-19.17-7.08-44.12-14.58-69.3-9-70.11-16.23-126.06-20.85-185.51-.21-2.74.69-9.19.41-16.14l-33-2.57c-9.29,76.25-26.31,263.89,8.12,304.91,8.85,10.54,22.08,18.73,51.4,5.63C418.7,534.17,415,519.84,412.52,503.71Z"/><path class="cls-6" d="M407.66,207c-2.33-1.76-6.11-1-8.4,1.59l-20.68,23.82c-2.29,2.63-2.26,6.23.07,8s6.11,1.05,8.4-1.59L407.73,215C410,212.39,410,208.79,407.66,207Z"/><path class="cls-6" d="M337.51,218.44c1.73-4.68,3.94-9.34,7.19-12.08a17.6,17.6,0,0,1,8.24-3.48,72.8,72.8,0,0,1,21.79-1.14c6.6.66,14,3.21,16.39,11.54,2.3,8.05.16,17.21-4,24.64-7.79,14.07-10.7,19-22.26,26.14-14.48,8.89-26.59,6.81-28-14.28C336.13,238.93,333.75,228.61,337.51,218.44Z"/><path class="cls-6" d="M381.07,215.7l-3.43-41a6.1,6.1,0,0,1,4.94-6.15c2.95-.61,5.55,1.16,5.78,3.94l3.43,41a6.12,6.12,0,0,1-4.94,6.16C383.9,220.25,381.3,218.48,381.07,215.7Z"/><path class="cls-6" d="M366.2,214.61l-3.43-41a6.11,6.11,0,0,1,4.94-6.15c3-.61,5.55,1.16,5.79,3.94l3.43,41a6.11,6.11,0,0,1-4.94,6.15C369,219.16,366.44,217.39,366.2,214.61Z"/><path class="cls-6" d="M351.68,223l-3.43-41a6.13,6.13,0,0,1,4.94-6.15c2.95-.61,5.55,1.17,5.78,3.94l3.44,41a6.13,6.13,0,0,1-4.94,6.15C354.52,227.56,351.91,225.78,351.68,223Z"/><path class="cls-6" d="M338.9,236.46l-3.44-41a6.13,6.13,0,0,1,4.94-6.15c3-.61,5.56,1.17,5.79,3.94l3.43,41a6.12,6.12,0,0,1-4.94,6.15C341.73,241,339.13,239.23,338.9,236.46Z"/><path class="cls-6" d="M751.1,555.55l56.52,109.54-10.38,13.24a39.31,39.31,0,0,1-50.13-12.69l-54.37-78.81Z"/><path class="cls-7" d="M642.12,520.09c21,45.93,33,68.43,59,104.87,3.9,5.44,11.63,6.66,17.46,2.75l57.6-38.62c18.27-12.25,0-33.69-46.89-122.42C706.34,423.18,621.21,474.47,642.12,520.09Z"/><path class="cls-6" d="M757.08,639.67c8.26-13.64,19.26-31.28,32.88-48,28.89-50.41,52-90.62,74.23-134.31,1-2,2.37-7.19,4.76-12.38l25.88,8.39c-17,60.8-63.1,208.6-102.15,229-10,5.23-22.66,7.31-40.79-11.82C742.8,660.86,750.12,651.15,757.08,639.67Z"/><path class="cls-6" d="M850.76,420.37c2.33-.6,5,1.12,5.88,3.84l8.21,24.56c.9,2.72-.25,5.45-2.58,6.05s-5-1.12-5.87-3.84l-8.21-24.56C847.28,423.7,848.44,421,850.76,420.37Z"/><path class="cls-6" d="M900.43,451c.16-4.09,0-8.32-1.66-11.42a14.35,14.35,0,0,0-5.16-5.22,59.37,59.37,0,0,0-16.19-7.7c-5.21-1.56-11.64-1.95-16.07,3.63-4.28,5.39-5.54,13-4.75,19.94,1.49,13.13,2.13,17.82,8.68,26.83,8.19,11.29,18,13.5,25.77-2.06C895,467,900.08,459.93,900.43,451Z"/><path class="cls-6" d="M868.22,435.3l15.5-30a5,5,0,0,0-1.81-6.22,3.77,3.77,0,0,0-5.63,1.19l-15.51,30a5,5,0,0,0,1.82,6.22A3.78,3.78,0,0,0,868.22,435.3Z"/><path class="cls-6" d="M879.85,439.13l15.5-30a5,5,0,0,0-1.81-6.22,3.77,3.77,0,0,0-5.63,1.19l-15.51,30a5,5,0,0,0,1.82,6.22A3.78,3.78,0,0,0,879.85,439.13Z"/><path class="cls-6" d="M888.23,450.05l15.51-30a5,5,0,0,0-1.82-6.22,3.77,3.77,0,0,0-5.63,1.18l-15.5,30a5,5,0,0,0,1.81,6.22A3.76,3.76,0,0,0,888.23,450.05Z"/><path class="cls-6" d="M893.71,464.27l15.5-30A5,5,0,0,0,907.4,428a3.77,3.77,0,0,0-5.64,1.18l-15.5,30a5,5,0,0,0,1.81,6.22A3.77,3.77,0,0,0,893.71,464.27Z"/><path class="cls-8" d="M878.62,417.85l.09-.05.18-.12Z"/><path class="cls-9" d="M883.05,463.5l16.18-4.24a6.63,6.63,0,0,0,4.9-5.76,11.66,11.66,0,0,0-1.06-6l-31.68-67.8c-2.18-4.69-6.81-6.67-10.21-4.38L845,386.18c-3.31,2.22-4.21,7.64-2,12.16l29,59.77A9.72,9.72,0,0,0,883.05,463.5Z"/><path class="cls-7" d="M921.59,331.92l.87,1.52c.28.51.56,1,.85,1.54,16.11,28.7,37.9,48.49,54.14,50.95a17.27,17.27,0,0,0,11.35-1.71c15.88-9,12.29-45.55-8-81.71l-.87-1.53c-.28-.51-.56-1-.85-1.53-20.3-36.16-49.62-58.21-65.5-49.24a17.44,17.44,0,0,0-7.35,8.84C899.91,274.27,905.48,303.22,921.59,331.92Z"/><path class="cls-10" d="M946.54,300.25l-34,12.94a168.36,168.36,0,0,0,9.05,18.73l.87,1.52c.28.51.56,1,.85,1.54a165.78,165.78,0,0,0,11.24,17.43L962.69,329S946.84,300.33,946.54,300.25Z"/><path class="cls-11" d="M934.55,352.41A165.78,165.78,0,0,1,923.31,335c-.29-.51-.57-1-.85-1.54l-.87-1.52a168.36,168.36,0,0,1-9.05-18.73c-8.93-22-11.25-42.25-6.31-54.14l-.07-.11s-16.76,50.45-85.49,88.44a4.53,4.53,0,0,0-.85.62c-.14.07-.27.12-.41.2-7.22,4.08-5,21.84,5.05,39.67.13.24.26.47.4.7l.38.7c10,17.83,24,29,31.2,24.9a2.49,2.49,0,0,0,.38-.25,4.73,4.73,0,0,0,1-.4c68-39.25,119.72-27.47,119.72-27.47l-.06-.12C964.75,384,948.67,371.49,934.55,352.41Z"/><ellipse class="cls-12" cx="954.61" cy="314.63" rx="8.8" ry="16.5" transform="translate(-32.03 506.5) rotate(-29.25)"/><path class="cls-11" d="M854.23,371.77c10.15,18.21,8.9,38.4-2.78,45.09s-36,1.3-46.19-16.92-2.26-42.36,9.43-49S844.08,353.55,854.23,371.77Z"/><path class="cls-7" d="M527.46,689.92c2.45,88-55.65,115.79-65.15,205H765.46c-1.69-50.58-11.8-47-20.51-147.95-8.62-99.92,9.2-163.64,5-215.61a34.21,34.21,0,0,0-.52-6.1,75.13,75.13,0,0,0-1.88-8.41c-2.21-7.78-4.54-16.45-7.29-25.1a109.82,109.82,0,0,0-34-50.66c-57.34-48.28-112.59-27.84-150.63-4.6l-13.09,8.41c-61.67,39.64-38.72,130.35-38.72,130.35C511.44,619.42,526.08,640.69,527.46,689.92Z"/><path class="cls-5" d="M617.89,343.59c-10.46-7.84-31.48-15.53-39.52-22.16-5.42-4.48-10.93-9.24-15-14.9a33.34,33.34,0,0,1-5.75-15.3c0,.09,4.44-8,.88-2.07,8.43-14,10.46-27.78,8.13-40.16C568.4,242,571.48,234.07,580,225c18.86-20.3,29.34-17.86,41.7-22.67,12.13-4.72,11.57-3.43,27.18-5.78,13.66-2.06,28,2.32,38.57,11.11,0,0,6.06,5.71,8.1,8.57,2.2,3.06,4.12,6.32,6.13,9.52,3.44,2,16.06,10.16,17.67,19.62,3.14,18.58-2.36,26.5-2.36,26.5-9.44-1.44-18.15-14-26.24-12.34-3.63,1.09-5.21,1.66-7.31,3-11.31,7.08-20.65,12.84-24.38,26.66-3,11.33,1.12,25.12-7.17,33.82-7.41,7.78-21.36,7.32-29.41,14.53A20.74,20.74,0,0,0,617.89,343.59Z"/><path class="cls-5" d="M547.06,289.13c1.62,9.16,35,52,48.45,62.4.06,0,13.09,21,13.14,21,15.7-11.91,2.88-46.89,2.88-46.89-3.32-3.38-4.9-10.31-3.64-17.88,1.67-10.05,7.71-17.42,13.48-16.44.44.08.76.45,1.16.65l-33.21-41.18C581.86,267.8,540.43,251.67,547.06,289.13Z"/><path class="cls-5" d="M596.92,327.45a54.37,54.37,0,0,0,14.13-13.51c6.84-9.51,10.49-21,17.1-30.71,8-11.75,29.14-32,64.82-33.8,3.47-.17,8.7-.23,9.85-4.33.35-1.25,0-3.08-.67-5.08-1.26-3.88-3.68-8.43-4.51-10.78a4.13,4.13,0,0,0-3.8-3.48l-22.08-5.09c-10.12-2.33-20.29-4.67-30.65-5.4-8.6-.61-17.8.08-24.87,5.06-11.44,8-13.48,23.94-19.83,36.46a65.82,65.82,0,0,1-5.06,8.21l-4.54-4.2a78.33,78.33,0,0,0-2.25,12.8c-3.11,3.65-6.32,7.24-9.38,10.91l13.27,32.67c1.61,6.94,3.63,14.29,6.28,22.24,2.91,8.75,6.83,16,11.66,21.54.21-.25.77-27.42.77-27.42A14.45,14.45,0,0,1,596.92,327.45Z"/><path class="cls-6" d="M702.15,240c.65,2,1,3.83.67,5.08-1.15,4.1-6.38,4.16-9.85,4.33-35.68,1.77-56.81,22.05-64.82,33.8-6.61,9.68-10.26,21.2-17.1,30.71a54.37,54.37,0,0,1-14.13,13.51,14.45,14.45,0,0,0,10.24,6.09l-.56,27.17L605,438c-.11,5.6,3.35,10.26,7.7,10.35l31.59.65c4.35.09,8-4.43,8.11-10L653.75,374a55,55,0,0,0,7,.64c29.95.61,54.95-23.25,55.56-53l.9-43.58A53.31,53.31,0,0,0,702.15,240Zm-38.6,54.79c-.06,3.36-1.87,6.05-4,6s-3.92-2.78-3.87-6.13,1.87-6.05,4.06-6l6.73.1L663.09,292A8.67,8.67,0,0,1,663.55,294.81Zm2.25-15.4-13.25-.21a3.51,3.51,0,1,1,.11-7l13.25.21a3.51,3.51,0,1,1-.11,7Zm25.74,45.08-5.95,1.83c-3.42,1.05-6.57-2.49-5.77-6.5l.13-.67c1.07,1.78,2.9,2.88,4.95,2.25l5.94-1.82a6.76,6.76,0,0,0,4.38-5.78l.42,1.18C697,318.93,695.09,323.4,691.54,324.49Zm19.56-28.93c-.05,3.35-1.86,6-4.05,6s-3.91-2.79-3.86-6.14,1.87-6,4-6l6.73.1-3.33,3.22A8.47,8.47,0,0,1,711.1,295.56Zm3.14-15.4L704,280c-1.5,0-2.7-1.62-2.67-3.55s1.28-3.49,2.78-3.47l10.29.16c1.5,0,2.7,1.62,2.67,3.56S715.74,280.18,714.24,280.16Z"/><path class="cls-5" d="M669.37,276a3.52,3.52,0,0,0-3.46-3.56l-13.25-.21a3.51,3.51,0,1,0-.11,7l13.25.21A3.53,3.53,0,0,0,669.37,276Z"/><path class="cls-5" d="M714.35,273.14,704.06,273c-1.5,0-2.75,1.54-2.78,3.47S702.45,280,704,280l10.29.16c1.5,0,2.75-1.54,2.78-3.46S715.85,273.17,714.35,273.14Z"/><path class="cls-13" d="M695.22,313.8a6.76,6.76,0,0,1-4.38,5.78l-5.94,1.82c-2,.63-3.88-.47-4.95-2.25l-.13.67c-.8,4,2.35,7.55,5.77,6.5l5.95-1.83c3.55-1.09,5.48-5.56,4.1-9.51Z"/><path class="cls-14" d="M659.69,288.68c-2.19,0-4,2.65-4.06,6s1.68,6.1,3.87,6.13,4-2.65,4-6a8.67,8.67,0,0,0-.46-2.81l3.33-3.22Z"/><path class="cls-14" d="M707.24,289.42c-2.18,0-4,2.66-4,6s1.68,6.1,3.86,6.14,4-2.66,4.05-6a8.47,8.47,0,0,0-.46-2.82l3.33-3.22Z"/><path class="cls-6" d="M608,419.29h43.15a21.88,21.88,0,1,1,0,43.76H608a21.88,21.88,0,1,1,0-43.76Z"/><path class="cls-7" d="M668.86,336.32,690.28,341S677.27,350.12,668.86,336.32Z"/><rect class="cls-15" x="108.12" y="724.02" width="0.73" height="76.08"/><polygon class="cls-15" points="108.61 800 109.31 800.24 124.39 726.75 123.69 726.51 108.61 800"/><polygon class="cls-15" points="109.11 800.06 109.74 800.54 138.86 734.65 138.24 734.17 109.11 800.06"/><polygon class="cls-15" points="109.58 800.29 110.09 800.96 151.28 747.16 150.77 746.49 109.58 800.29"/><polygon class="cls-15" points="109.99 800.67 110.35 801.5 160.8 763.45 160.43 762.63 109.99 800.67"/><polygon class="cls-15" points="110.31 801.18 110.5 802.1 166.76 782.4 166.57 781.49 110.31 801.18"/><rect class="cls-15" x="110.52" y="801.78" width="58.25" height="0.95"/><polygon class="cls-15" points="110.6 802.42 110.41 803.34 166.67 823.03 166.86 822.11 110.6 802.42"/><polygon class="cls-15" points="110.55 803.08 110.19 803.9 160.63 841.94 160.99 841.12 110.55 803.08"/><polygon class="cls-15" points="110.37 803.69 109.86 804.36 151.05 858.16 151.56 857.49 110.37 803.69"/><polygon class="cls-15" points="110.08 804.22 109.45 804.7 138.57 870.59 139.2 870.11 110.08 804.22"/><polygon class="cls-15" points="109.69 804.64 108.99 804.88 124.07 878.37 124.77 878.13 109.69 804.64"/><rect class="cls-15" x="108.51" y="804.91" width="0.73" height="76.08"/><polygon class="cls-15" points="108.74 805.02 108.04 804.77 92.96 878.26 93.67 878.5 108.74 805.02"/><polygon class="cls-15" points="108.24 804.95 107.61 804.48 78.49 870.37 79.12 870.84 108.24 804.95"/><polygon class="cls-15" points="107.77 804.72 107.26 804.05 66.07 857.85 66.58 858.52 107.77 804.72"/><polygon class="cls-15" points="107.36 804.34 107 803.52 56.56 841.56 56.92 842.38 107.36 804.34"/><polygon class="cls-15" points="107.05 803.83 106.86 802.92 50.59 822.61 50.78 823.53 107.05 803.83"/><rect class="cls-15" x="48.59" y="802.29" width="58.25" height="0.95"/><polygon class="cls-15" points="106.75 802.59 106.94 801.67 50.68 781.98 50.49 782.9 106.75 802.59"/><polygon class="cls-15" points="106.8 801.94 107.17 801.12 56.72 763.08 56.36 763.9 106.8 801.94"/><polygon class="cls-15" points="106.98 801.33 107.49 800.65 66.31 746.86 65.79 747.53 106.98 801.33"/><polygon class="cls-15" points="107.27 800.79 107.9 800.32 78.78 734.43 78.15 734.9 107.27 800.79"/><polygon class="cls-15" points="107.66 800.38 108.36 800.13 93.29 726.64 92.58 726.89 107.66 800.38"/><path class="cls-15" d="M41.57,804.58c0,49.12,30.49,88.95,68.11,88.95s68.1-39.83,68.1-88.95-30.49-89-68.1-89S41.57,755.45,41.57,804.58Zm10.46,0c0-41.6,25.81-75.3,57.65-75.3s57.64,33.7,57.64,75.3-25.81,75.29-57.64,75.29S52,846.16,52,804.58Z"/><path class="cls-16" d="M354.5,769.14l3.39,10.64c1.51,4.7,3,9.4,4.88,14,2.6,6.35,5.9,12.39,7.8,19,1.4,4.91,2,10,3.28,15,2,7.61,5.49,14.62,8.32,21.91a53.54,53.54,0,0,1,3,24.57c-.13,1-.28,1.24-1.21,1.11-.64-.09-.34-1.34-.59-2Q363.75,824,348.21,773c-2.27-7.45-4.48-15-5.26-22.79a12,12,0,0,1,.22-4.79c.47-1.53,2.76-59.44,4.25-59.63,4.13-.53,2.22,64.69,2.7,67.32A127.35,127.35,0,0,0,354.5,769.14Z"/><path class="cls-16" d="M298.32,777c.2,4.36,1.12,8.65,1.63,13,1.18,10.17,0,20.49.46,30.73.78,17.72,6.42,35.41,3.55,52.88a66.7,66.7,0,0,1-1.17-7.6c-4.42-38.26-8.85-76.64-8.75-115.2,0-1.62,3.18-61.68,4.17-62.9,4.37-5.32,1.45,67.19,1.41,68.78C299.44,763.45,298,770.16,298.32,777Z"/><polygon class="cls-6" points="376.08 863.32 383.57 889.4 372.86 891.56 367.35 886.46 367.81 885.26 361.79 866.2 376.08 863.32"/><path class="cls-11" d="M367.75,882.46l-14.7,4.87c-3.6,1.19-4.3,3.7-2.9,5.59l34-.46-1.28-7.53a2.84,2.84,0,0,0-2.75-2.35Z"/><path class="cls-14" d="M353.64,895h30.08c.58-.28.91-.76.77-1.26l-.37-1.28-34,.46A6.06,6.06,0,0,0,353.64,895Z"/><rect class="cls-14" x="374.13" y="889.2" width="6.61" height="2.4" rx="0.46" transform="translate(8.84 -3.7) rotate(0.57)"/><polygon class="cls-6" points="295.21 863.2 296.06 889.96 285.05 890.9 280.92 885.21 281.67 884.07 280.52 864.45 295.21 863.2"/><path class="cls-11" d="M282.58,882.54l-14.68,4.93c-3.59,1.21-4.28,3.73-2.87,5.62l34-.64-1.32-7.52a2.81,2.81,0,0,0-2.76-2.33Z"/><path class="cls-14" d="M268,895h30.61c.59-.29.93-.77.78-1.27l-.37-1.28-34,.63A5.84,5.84,0,0,0,268,895Z"/><rect class="cls-14" x="289" y="889.22" width="6.61" height="2.4" rx="0.46" transform="translate(4.31 -1.4) rotate(0.28)"/><path class="cls-16" d="M298.21,682.78c-.82,47.45-1.52,142,6.8,187.35.7,3.85-2.09,7.41-5.73,7.33l-20-.43a4.81,4.81,0,0,1-4.53-4.27C265.51,808.55,257.87,724.13,255,687Z"/><path class="cls-16" d="M347.73,741.32c.13,12.5,3.92,25.09,12.37,48.57,7.68,21.34,16.93,56.24,24.64,80.87,1.5,4.76-1.12,8.59-5.79,8.49l-16.75-.34a9.41,9.41,0,0,1-8.48-6.2c-8.3-21.44-14.46-36-24.12-58.22-12.78-29.44-21.68-38.75-23-59.1-.12-1.79-2.13-12-2.19-13.84L293,677.22l55.74,11.35Z"/><path class="cls-7" d="M236.77,629.12l12.66-71.25c.23-2,2.88-6,4.89-7.4a3.12,3.12,0,0,1,2.51-.61l19.23,3.87-12.71,77.82a10.27,10.27,0,0,1-6.57,8.76,10.09,10.09,0,0,1-1.57.41c-3.34.55-6.6-.94-9.7-4.45Z"/><path class="cls-7" d="M327.67,559.91v0Z"/><path class="cls-7" d="M258.21,694.33H350a6.26,6.26,0,0,0,.59-1.62c.15-.73.26-1.38.33-1.9-.2-2.14-.41-4.53-.62-7-.26-3.11-.52-6.39-.77-9.68-.42-5.64-.79-11.24-1-15.76-.15-2.58-.26-5.16-.3-7.74-.48-17.76-4.12-50.81-2.36-84.78.26-5,3.55-10.86.81-14.68l.06,0c3.43-2.13,1.32-9-1.92-11.4C295.79,503.17,261,538,261,538c-12.23,7.38-12.64,26.54-12.86,29.09,7.62,37.11-1.9,67.92,4.28,107.06.51,3.27-2.83,8.59-2.8,12.06C249.68,689.07,249.38,694.33,258.21,694.33Z"/><path class="cls-7" d="M348.43,544.23l41.07,54.26a14.24,14.24,0,0,1-21.66,18.4c-16-16.71-47.15-49.41-46-50.08.9-.52,7.08-12,12-21.4A8.67,8.67,0,0,1,348.43,544.23Z"/><path class="cls-6" d="M258.18,483.35c0,.26,0,.51.07.77.06,0,4-.59,4-.59a1.09,1.09,0,0,1,1.22.92,1.08,1.08,0,0,1-.91,1.22l-4,.57,3.51,13.57c0,.29.12.58.17.87.88-.05,12-.75,18.66-3.62,5.65-2.44,6-3.77,6.73-9.95l.72-6.08a61.9,61.9,0,0,1-28-7.76A18.54,18.54,0,0,0,258.18,483.35Zm6,5c.15,1.05-.27,2-.95,2.08s-1.34-.68-1.49-1.73.27-2,.94-2.07S264,487.26,264.18,488.31Zm12.54-1.5c-.15-1.05.27-2,.94-2.07s1.35.67,1.5,1.72-.27,2-1,2.08S276.87,487.86,276.72,486.81Zm-3.61-3.73a1.07,1.07,0,0,1,.9-1.22l4-.57a1.08,1.08,0,0,1,.31,2.14l-4,.57A1.08,1.08,0,0,1,273.11,483.08ZM267.56,494l.1-.38a2.15,2.15,0,0,0,1.76,1.57l2.16.29a1.59,1.59,0,0,0,1.64-.91l.08.19a1.67,1.67,0,0,1-1.78,2.25l-2.15-.29A2.18,2.18,0,0,1,267.56,494Z"/><path class="cls-6" d="M294.79,507.54c2.36-3.74,2.55-8.75,1.58-13.1l-1.72-9.67c2.52-.31,4.92,1.88,5.38,5a6.13,6.13,0,0,1-1.2,4.79l1.49,7.64,4.07,21a12.46,12.46,0,0,1-5.31,12.74l-5.43,3.63a5.46,5.46,0,0,1-8-2.19,5.15,5.15,0,0,1-.44-1.43L282.4,516.8c2.68-.55,5.2-1.35,6.59-2.58A41.94,41.94,0,0,0,294.79,507.54Z"/><path class="cls-5" d="M274,481.86l4-.57a1.08,1.08,0,0,1,.31,2.14l-4,.57a1.08,1.08,0,0,1-.31-2.14Z"/><path class="cls-5" d="M262.29,483.53a1.09,1.09,0,0,1,1.22.92,1.08,1.08,0,0,1-.91,1.22l-4,.57a1.1,1.1,0,0,1-1.25-.92,1.08,1.08,0,0,1,.85-1.2C258.31,484.1,262.29,483.53,262.29,483.53Z"/><path class="cls-14" d="M263.23,490.39c-.67.09-1.34-.68-1.49-1.73s.27-2,.94-2.07,1.35.67,1.5,1.72S263.91,490.29,263.23,490.39Z"/><path class="cls-14" d="M277.66,484.74c.68-.1,1.35.67,1.5,1.72s-.27,2-1,2.08-1.34-.68-1.49-1.73S277,484.83,277.66,484.74Z"/><path class="cls-13" d="M267.66,493.65a2.15,2.15,0,0,0,1.76,1.57l2.16.29a1.59,1.59,0,0,0,1.64-.91l.08.19a1.67,1.67,0,0,1-1.78,2.25l-2.15-.29a2.18,2.18,0,0,1-1.81-2.72Z"/><path class="cls-5" d="M262.33,500.68c-.06,0,2.49,11.5,2.49,11.5,1.16,3.28,5.26,6.31,8.67,5.87,2-.26,5.59-.56,8.91-1.25,2.68-.55,5.2-1.35,6.59-2.58a41.94,41.94,0,0,0,5.8-6.68c2.36-3.74,2.55-8.75,1.58-13.1l-1.72-9.67c2.52-.31,4.92,1.88,5.38,5a6.13,6.13,0,0,1-1.2,4.79l1.49,7.64c.7-.64,1.79-.7,2.56-1.28,1.94-1.46.55-4.77,1.71-6.92.78-1.45,2.62-2.13,3.24-3.65s-.27-3.4-1.32-4.78a26,26,0,0,1-1.59-2.19c.58-3.33,2.3-7,.71-9.91-.55-1-1.45-1.76-1.94-2.78a17.5,17.5,0,0,1-.8-2.7c-1.66-5.52-7.18-6.42-11.38-8.67-3.83-2.06-6.31-6.5-10.73-7.14a1.86,1.86,0,0,0-1-.27,2.31,2.31,0,0,0-.89.24,10.16,10.16,0,0,0-3.34,1,12.18,12.18,0,0,0-1.89-.83c-2.19-.42-3.53,2.58-5.69,3.11-1.46.37-3.06-.47-4.47.05s-2.1,2.28-2.36,3.85-.43,3.3-1.54,4.42a25.89,25.89,0,0,1-2.36,1.62c-1.83,1.46-2.19,4.08-2.23,6.44a46.54,46.54,0,0,0,.76,8.81c.19,1.05.28,1.84,1.27,2.42a2.39,2.39,0,0,0,1.19.32,18.54,18.54,0,0,1,2.26-10.08,61.9,61.9,0,0,0,28,7.76l-.72,6.08c-.74,6.18-1.08,7.51-6.73,9.95C274.33,499.93,263.21,500.63,262.33,500.68Zm7.84,2.85,7.18-1.77c0,1.18-.42,2.69-3.13,3.51C274.22,505.27,271.21,505.91,270.17,503.53Z"/><path class="cls-7" d="M274.22,505.27s-3,.64-4.05-1.74l7.18-1.77C277.39,502.94,276.93,504.45,274.22,505.27Z"/><path class="cls-17" d="M283.22,648.39a2,2,0,0,1-2-2V615.17c-21.72.23-22,.07-22.61-.35a2,2,0,0,1,1.54-3.61c1.66.13,14.93,0,23.05-.05a1.86,1.86,0,0,1,1.43.58,2,2,0,0,1,.59,1.42V646.4A2,2,0,0,1,283.22,648.39Z"/><polygon class="cls-6" points="184.4 655.14 192.73 648.53 197.7 655.52 189.46 661.09 184.4 655.14"/><path class="cls-6" d="M169,655.53a1.67,1.67,0,0,0,1.68,1.63l8.45.15a1.6,1.6,0,1,0,.06-3.2l-8.46-.15A1.66,1.66,0,0,0,169,655.53Z"/><path class="cls-6" d="M182.52,669.5a7.19,7.19,0,0,1-3.76.68A4.18,4.18,0,0,1,176.7,669a19.26,19.26,0,0,1-3.69-4.81,5.57,5.57,0,0,1-.07-6,9.69,9.69,0,0,1,6-3.87c4.3-.93,5.84-1.22,9.21.07,4.22,1.62,5.68,4.81,1.31,9.24C187.2,665.84,185.33,668.39,182.52,669.5Z"/><path class="cls-6" d="M175.05,660l-8.38,8.74a1.51,1.51,0,0,1-2.12,0,1.46,1.46,0,0,1-.06-2.09l8.39-8.75a1.52,1.52,0,0,1,2.12,0A1.49,1.49,0,0,1,175.05,660Z"/><path class="cls-6" d="M177.16,663.62l-8.39,8.74a1.52,1.52,0,0,1-2.12.06,1.49,1.49,0,0,1-.05-2.1l8.39-8.74a1.5,1.5,0,0,1,2.11-.06A1.48,1.48,0,0,1,177.16,663.62Z"/><path class="cls-6" d="M181.6,665.48l-8.39,8.75a1.52,1.52,0,0,1-2.12,0,1.48,1.48,0,0,1-.05-2.1l8.38-8.74a1.51,1.51,0,0,1,2.12-.05A1.47,1.47,0,0,1,181.6,665.48Z"/><path class="cls-6" d="M186.23,665.68l-8.39,8.74a1.51,1.51,0,0,1-2.12.06,1.49,1.49,0,0,1-.05-2.1l8.38-8.74a1.51,1.51,0,0,1,2.12-.06A1.48,1.48,0,0,1,186.23,665.68Z"/><path class="cls-18" d="M189.71,644.5l38.12-28.26,28.63,1.48a2.51,2.51,0,0,1,2.32,1.8,2.25,2.25,0,0,1,.11.72,2.5,2.5,0,0,1-1,2l-52.22,38a6.15,6.15,0,0,1-8.32-1l-8.2-9.77A3.46,3.46,0,0,1,189.71,644.5Z"/><path class="cls-19" d="M135,763.61,166.3,620c1.55-8,8.86-14.52,16.25-14.52H255.5c7.4,0,12.19,6.53,10.65,14.52l-28,143.58Z"/><path class="cls-11" d="M219,763.61H115.88L147,620.11c1.55-8,8.86-14.58,16.25-14.58h72.95c7.4,0,12.19,6.56,10.64,14.58Z"/><path class="cls-17" d="M149.18,728.91a2,2,0,0,1-2-2v-24.1a2.9,2.9,0,0,0-2.89-2.89h-45a2,2,0,1,1,0-4h45a6.89,6.89,0,0,1,6.89,6.88v24.1A2,2,0,0,1,149.18,728.91Z"/><rect class="cls-17" x="130.41" y="768.36" width="4" height="103.87"/><path class="cls-17" d="M223.18,806.72h-.41c-5.93-.35-7.13-.4-7.32-.41H83.18v-4H215.46c.16,0,.49,0,7.55.42a3,3,0,0,0,2.2-.8,2.92,2.92,0,0,0,.93-2.15V775.63h4v24.15a7,7,0,0,1-7,6.94Z"/><rect class="cls-19" x="80.25" y="686.82" width="66.94" height="8.91" rx="1.84" transform="translate(227.44 1382.55) rotate(180)"/><path class="cls-19" d="M115,761.24H238.54l-1.66,8.13a16.46,16.46,0,0,1-16,13.15H115Z"/><path class="cls-11" d="M59.58,760.74l14.88,0,44.9-.15,24.57-.09v14.7a7.47,7.47,0,0,1-7.55,7.46l-16.95-.17-44.9.15-15,0Z"/><path class="cls-7" d="M150,625.24c0,.07,0,0,0,0Z"/><polygon class="cls-6" points="77.89 871.66 78.77 868.21 84.04 847.69 97.23 844.02 89.55 871.66 77.89 871.66"/><polygon class="cls-6" points="36.51 873.55 37.28 869.66 40.77 849.14 55.53 845.48 50.6 870.77 36.51 873.55"/><path class="cls-8" d="M187.67,744c-.35.15-.74.27-1.11.39Z"/><path class="cls-5" d="M164,559.86c-7-29.5,10.6-34.9,21-35.62a36.68,36.68,0,0,1,6.94.13,14.8,14.8,0,0,1,5.21,4.09,29,29,0,0,0,3.69,1.16c3.71,1,8.67,1.09,10.28,4.33s1.47,8.4.13,11.73c-1,2.47-4.23,5.93-4.77,8.52-.81,3.91-4.31,7.94-6,9.79a36.68,36.68,0,0,0-4.14,5.34,22.42,22.42,0,0,1-9.1,8.31S167.11,567.57,164,559.86Z"/><path class="cls-6" d="M128.7,674.16c9.84-13,29.05-55.4,33.62-64.39L167,642.31c-1.83,3.21-13.09,30.2-26,43.68-1.07,1.12-9.38.85-10.66,1.22Z"/><path class="cls-8" d="M188.5,743.92c-.34.14-.73.26-1.09.37Z"/><path class="cls-5" d="M197.61,524.7c-14-2.24-28.55,6.71-32.48,20s4.24,25.89,18.25,28.13,25-4.37,29-17.66S211.62,527,197.61,524.7Z"/><path class="cls-3" d="M207.07,712.62c-3.18-5.16-10.17-2.7-21.31,1.75a75.26,75.26,0,0,1-7.84,2.79c-2.77.69-5.61,1.35-8.47,2l-.37.09C137.46,726.66,101.64,735,90,777.63,78.89,818.25,73.61,838,69.82,853a10.49,10.49,0,0,0,.6,6.92c2,4.34,5.88,2.89,18.28,6.82,3.22,1,6.08-.14,7.23-4.46,7.88-29.48,20-64.78,24.85-78.59,2.06-5.87,6.25-12.35,9.64-13l48.26-7.55c11-3.7,24.78-27.72,29-42C209,716.7,207.86,713.9,207.07,712.62Z"/><path class="cls-3" d="M182.5,710.21c-4-4.38-12-2-24.75,2.17-3.17,1-7.12,2.3-9.47,2.77-3.49.71-7.07,1.39-10.69,2.08-37.84,7.25-80.73,15.46-90,56.2l-4.9,21.39c-6.45,28-9.43,41.19-11.68,52.9-1,5.37,3.05,11,8.31,11.44l16.4,1.39A5.87,5.87,0,0,0,62,855.66a770.79,770.79,0,0,1,20.28-76.61c2-6,7.73-11.84,12.53-12.63l58.89-8.88C166.58,754,180.44,731,184,717.4A7.45,7.45,0,0,0,182.5,710.21Z"/><path class="cls-10" d="M227.62,629.32c6.29-15.28-2.22-33.11-16.57-36.27-17.72-3.9-23.21-5.65-36.57,2.77-12.33,7.76-19.74,23.89-17.93,34.72,9,54-20.76,54.25-27.13,83.29-.8,3.61-.65,4.38,3,4.6,20.88,1.2,32.1,11.73,62.37,8.2,2.58-.31,5.26-.18,7.79-1.85,1.88-1.24,4.53-5.67,6.33-9a15.58,15.58,0,0,0,1.78-6C214.66,669.12,219.73,648.5,227.62,629.32Z"/><path class="cls-6" d="M180.83,578.5a16.63,16.63,0,0,0,2.23,0l-1.84,20.56c-.16,1.78.83,3.33,2.21,3.45l10,.89c1.38.12,2.63-1.23,2.79-3l3-33.06a4.61,4.61,0,0,0,3.45-1.57,17.29,17.29,0,0,1-4-4.76c-1.83-3.24-2.58-7-4.33-10.29-2.12-4-8.09-11.13-19.3-12.92-1.09-.18-2.74-.38-3-1.72a3,3,0,0,1,.39-1.57A17,17,0,0,0,166.36,546l-1.24,13.8A17.3,17.3,0,0,0,180.83,578.5ZM182,551.19l2.13.2c.69.06,1.17,1,1.07,2s-.74,1.87-1.43,1.8-1.17-1-1.07-2a2.71,2.71,0,0,1,.23-.88Zm-.49-4.16a1.13,1.13,0,0,1,1.22-1l4.19.4a1.11,1.11,0,1,1-.21,2.22l-4.19-.39A1.13,1.13,0,0,1,181.53,547Zm-9.65,11.42.17-.36a2.15,2.15,0,0,0,1.18,2l1.82.78a1.37,1.37,0,0,0,1.64-.54v.22c.12,1.29-1,2.3-2,1.85l-1.82-.78A2.34,2.34,0,0,1,171.88,558.45Zm-4-7.55-.93-1.13,2.13.2c.69.07,1.17,1,1.07,2s-.74,1.87-1.43,1.81-1.17-1-1.07-2A2.65,2.65,0,0,1,167.9,550.9Zm-1.45-5.29a1,1,0,0,1,1-1l3.26.31a1,1,0,0,1,.76,1.19c-.06.61-.5,1.08-1,1l-3.26-.3A1,1,0,0,1,166.45,545.61Z"/><path class="cls-5" d="M181.53,547a1.13,1.13,0,0,1,1.22-1l4.19.4a1.11,1.11,0,1,1-.21,2.22l-4.19-.39A1.13,1.13,0,0,1,181.53,547Z"/><path class="cls-5" d="M167.42,544.58l3.26.31a1,1,0,0,1,.76,1.19c-.06.61-.5,1.08-1,1l-3.26-.3a1,1,0,0,1-.76-1.2A1,1,0,0,1,167.42,544.58Z"/><path class="cls-13" d="M172.05,558.09a2.15,2.15,0,0,0,1.18,2l1.82.78a1.37,1.37,0,0,0,1.64-.54v.22c.12,1.29-1,2.3-2,1.85l-1.82-.78a2.34,2.34,0,0,1-1-3.15Z"/><path class="cls-5" d="M198.63,561.05c-1.83-3.24-2.58-7-4.33-10.29-2.12-4-8.09-11.13-19.3-12.92-1.09-.18-2.74-.38-3-1.72a3,3,0,0,1,.39-1.57c.53-1.19,1.45-2.54,1.8-3.26a1.3,1.3,0,0,1,1.32-1l7.15-.84a62.87,62.87,0,0,1,9.87-.65c2.74.11,5.62.64,7.68,2.46,3.34,2.94,3.43,8,5,12.21,1.3,3.46,3.69,6.4,5.74,9.49l-7.35,13.6a2.26,2.26,0,0,1-.26-.16c-.26-.2-.5-.42-.75-.63A17.29,17.29,0,0,1,198.63,561.05Z"/><path class="cls-6" d="M175.58,600c2.89-5.39,10.12-9.75,16.16-9.75s8.6,4.36,5.72,9.75-10.12,9.76-16.16,9.76S172.7,605.36,175.58,600Z"/><path class="cls-3" d="M155.81,768.22a19.24,19.24,0,0,0-5,.44c-2.95.88-5.25,3.57-8.1,4.79-4.25,1.82-9.12.17-13.43,1.77-6,2.2-9,9.72-10.86,16.66-2.31,8.82-3.72,18.06-7.34,26.26-2.06,4.66-4.81,8.94-6.24,13.91-1.56,5.38-1.47,11.24-2.89,16.67-1.66,6.35-4,12.71-8.17,17.19,2.37-6.1,2.85-13.41,4.11-19.95,1.4-7.22,2.1-14.6,3.56-21.8A177.43,177.43,0,0,1,107,804.24c4.27-13,9.08-26.28,17.39-36.36a16.5,16.5,0,0,1,4.43-4.06,16.63,16.63,0,0,1,5.5-1.59q19.94-3.32,40-5.72c.68-.08,1.85,4.51,1.51,5.24-.63,1.38-5,2.51-6.27,3A39.28,39.28,0,0,1,155.81,768.22Z"/><path class="cls-3" d="M86.55,777.34q-2.37,5.28-4.73,10.54a80.29,80.29,0,0,0-3.52,8.8c-2.85,9.21-2.49,19.79-6,28.64-1.45,3.6-3.5,6.81-5.26,10.22a66.3,66.3,0,0,0-6.53,20.2,271,271,0,0,1,17.91-82.07c1.43-3.64,3.27-7.56,6.86-8.6,2.58-.74,6,0,7.54-2.25.38-.55.61-1.25,1.14-1.62.93-.65,2.39,0,3.12,1.14,2.8,4.16-2.42,4-4.53,5.76C89.76,770.41,88.06,774,86.55,777.34Z"/><path class="cls-20" d="M69.3,852.16c3.81-15,9.09-34.76,20.18-75.35,9.83-35.95,36.66-47.59,62.45-54.58a9.19,9.19,0,0,0,2.72.56c-26.24,6.85-54.17,17.91-64.14,54.4-11.1,40.58-16.37,60.29-20.17,75.32A9.75,9.75,0,0,0,70.9,859a.67.67,0,0,1-.22.84.42.42,0,0,1-.26.08.53.53,0,0,1-.47-.33A11.19,11.19,0,0,1,69.3,852.16Z"/><rect class="cls-19" x="162.78" y="686.82" width="66.94" height="8.91" rx="1.84" transform="translate(392.51 1382.55) rotate(180)"/><path class="cls-6" d="M208.53,605.51c1.2-2.07,6.68-7.2,12.82-4.83.47.18.92.35,1.24.44,6.72,2,8.42,15.47,9.32,25.11.32,3.44,5.07,32.5,5.54,34.81l-17,3.87C216.52,650.4,206,609.93,208.53,605.51Z"/><path class="cls-6" d="M218.71,674.36c2.44-.27,4.14-2.58,3.44-4.7s-1.45-4.35-2.19-6.61l17.45-3.11a145.85,145.85,0,0,1,.74,22.51c-.22,1.93-2,6-4.11,6-7.18,1-16.45-.2-27.92-.48-13.68-.34-28.51-.46-39.83-1V678.9C186.78,677.8,200,676.46,218.71,674.36Z"/><path class="cls-6" d="M154.14,675.58a1.42,1.42,0,0,0,.86,1.8l6.56,2.4a1.4,1.4,0,0,0,1.79-.84,1.44,1.44,0,0,0-.86-1.81l-6.56-2.39A1.39,1.39,0,0,0,154.14,675.58Z"/><path class="cls-6" d="M160.86,690.84a5.63,5.63,0,0,1-3.13-.44,3.44,3.44,0,0,1-1.27-1.58,17.2,17.2,0,0,1-1.55-5,5.16,5.16,0,0,1,1.62-5,7.82,7.82,0,0,1,5.75-1.61c3.62.38,4.9.55,7.18,2.53,2.85,2.47,3.1,5.52-1.54,8C165.53,689.05,163.36,690.67,160.86,690.84Z"/><path class="cls-6" d="M157.67,680.92l-9,5a1.2,1.2,0,0,1-1.67-.53,1.35,1.35,0,0,1,.54-1.76l9-5a1.21,1.21,0,0,1,1.68.52A1.37,1.37,0,0,1,157.67,680.92Z"/><path class="cls-6" d="M158.3,684.51l-9,5a1.2,1.2,0,0,1-1.67-.52,1.36,1.36,0,0,1,.54-1.76l9-5a1.19,1.19,0,0,1,1.67.52A1.35,1.35,0,0,1,158.3,684.51Z"/><path class="cls-6" d="M161.25,687.25l-9,5a1.2,1.2,0,0,1-1.67-.52,1.35,1.35,0,0,1,.54-1.76l9-5a1.19,1.19,0,0,1,1.67.52A1.35,1.35,0,0,1,161.25,687.25Z"/><path class="cls-6" d="M164.82,688.66l-9,5a1.2,1.2,0,0,1-1.67-.52,1.36,1.36,0,0,1,.54-1.77l9-5a1.21,1.21,0,0,1,1.68.53A1.36,1.36,0,0,1,164.82,688.66Z"/><path class="cls-6" d="M131.63,671.9l11.48.35c.11,2.71.17,5.43.14,8.16-.14,1.93-1.57,6-3.48,6.14-6.35,1.2-14.63.22-24.83.23-12.17,0-25.36.27-35.43,0l-.24-8.1c18.19-1.62,29.85-3.3,46.47-5.88Z"/><path class="cls-6" d="M72.81,673.72a1.41,1.41,0,0,0,.85,1.8l6.56,2.4a1.4,1.4,0,0,0,1.79-.84,1.43,1.43,0,0,0-.85-1.81l-6.56-2.39A1.38,1.38,0,0,0,72.81,673.72Z"/><path class="cls-6" d="M79.52,689a5.81,5.81,0,0,1-3.13-.44A3.5,3.5,0,0,1,75.12,687a17.29,17.29,0,0,1-1.55-5,5.16,5.16,0,0,1,1.62-5,7.84,7.84,0,0,1,5.75-1.61c3.62.38,4.91.55,7.18,2.53,2.85,2.47,3.1,5.52-1.54,8C84.2,687.19,82,688.81,79.52,689Z"/><path class="cls-6" d="M76.33,679.06l-9,5a1.2,1.2,0,0,1-1.67-.53,1.35,1.35,0,0,1,.54-1.76l9-5a1.2,1.2,0,0,1,1.67.52A1.37,1.37,0,0,1,76.33,679.06Z"/><path class="cls-6" d="M77,682.65l-9,5a1.2,1.2,0,0,1-1.67-.52,1.35,1.35,0,0,1,.54-1.76l9-5a1.2,1.2,0,0,1,1.67.53A1.34,1.34,0,0,1,77,682.65Z"/><path class="cls-6" d="M79.91,685.39l-9,5a1.22,1.22,0,0,1-1.68-.52,1.36,1.36,0,0,1,.55-1.76l9-5a1.2,1.2,0,0,1,1.67.53A1.35,1.35,0,0,1,79.91,685.39Z"/><path class="cls-6" d="M83.48,686.8l-9,5a1.2,1.2,0,0,1-1.67-.53,1.36,1.36,0,0,1,.54-1.76l9-5A1.2,1.2,0,0,1,84,685,1.36,1.36,0,0,1,83.48,686.8Z"/><path class="cls-7" d="M178.69,566.54c0,.92-1.37,1.67-3.06,1.67s-3.06-.75-3.06-1.67Z"/><path class="cls-14" d="M180.51,560.25c-2.15,0-3.83-.89-3.83-2s1.68-2,3.83-2,3.82.9,3.82,2S182.65,560.25,180.51,560.25Zm0-3.57c-2,0-3.33.8-3.33,1.54s1.34,1.53,3.33,1.53,3.32-.79,3.32-1.53S182.5,556.68,180.51,556.68Z"/><path class="cls-14" d="M167.81,559.63c-2,0-3.55-.89-3.55-2s1.56-2,3.55-2,3.55.89,3.55,2S169.8,559.63,167.81,559.63Zm0-3.57c-1.65,0-3.05.71-3.05,1.54s1.4,1.53,3.05,1.53,3.05-.7,3.05-1.53S169.46,556.06,167.81,556.06Z"/><ellipse class="cls-5" cx="211.98" cy="532.04" rx="14.45" ry="14.42"/><path class="cls-14" d="M185.22,553.43c-.1,1.06-.74,1.87-1.43,1.8s-1.17-1-1.07-2a2.71,2.71,0,0,1,.23-.88l-.93-1.12,2.13.2C184.84,551.45,185.32,552.36,185.22,553.43Z"/><path class="cls-14" d="M169.1,550c.69.07,1.17,1,1.07,2s-.74,1.87-1.43,1.81-1.17-1-1.07-2a2.65,2.65,0,0,1,.23-.88l-.93-1.13Z"/><path class="cls-13" d="M183,543.18l-11.61-.95a.5.5,0,0,1-.46-.54.49.49,0,0,1,.54-.45l11.57,1a.49.49,0,0,1,.45.53A.49.49,0,0,1,183,543.18Z"/><path class="cls-17" d="M247.3,733.76a2,2,0,0,1-2-2V703.12a2.9,2.9,0,0,0-2.89-2.89h-45a2,2,0,1,1,0-4h45a6.89,6.89,0,0,1,6.89,6.88v28.64A2,2,0,0,1,247.3,733.76Z"/><rect class="cls-21" x="213.64" y="725.62" width="0.73" height="76.08"/><path class="cls-21" d="M214.61,802h-1.22V725.37h1.22Zm-.72-.5h.22V725.87h-.22Z"/><polygon class="cls-21" points="214.13 801.59 214.83 801.84 229.91 728.35 229.21 728.1 214.13 801.59"/><path class="cls-21" d="M215,802.17l-1.18-.42,0-.21L229,727.77l1.18.42,0,.21Zm-.6-.74.23.08,15-73-.23-.08Z"/><polygon class="cls-21" points="214.63 801.66 215.26 802.13 244.38 736.24 243.75 735.77 214.63 801.66"/><path class="cls-21" d="M215.36,802.52l-1-.78.08-.18,29.25-66.18,1,.78-.08.18Zm-.42-.94.22.16,28.91-65.42-.21-.16Z"/><polygon class="cls-21" points="215.1 801.89 215.61 802.56 256.8 748.76 256.29 748.09 215.1 801.89"/><path class="cls-21" d="M215.61,803l-.82-1.08,41.5-54.21.83,1.08Zm-.19-1.08.19.26,40.88-53.39-.2-.26Z"/><polygon class="cls-21" points="215.51 802.27 215.87 803.09 266.32 765.05 265.95 764.23 215.51 802.27"/><path class="cls-21" d="M215.77,803.48l-.57-1.29,50.85-38.35.57,1.29Zm0-1.13.15.35L266,765l-.16-.35Z"/><polygon class="cls-21" points="215.83 802.77 216.01 803.69 272.28 784 272.09 783.08 215.83 802.77"/><path class="cls-21" d="M215.83,804l-.29-1.41,56.74-19.86.29,1.41Zm.29-1.08.08.42L272,783.84l-.09-.43Z"/><rect class="cls-21" x="216.03" y="803.37" width="58.25" height="0.95"/><path class="cls-21" d="M274.53,804.57H215.79v-1.45h58.74Zm-58.24-.5H274v-.45H216.29Z"/><polygon class="cls-21" points="216.12 804.02 215.93 804.93 272.19 824.63 272.38 823.71 216.12 804.02"/><path class="cls-21" d="M272.38,825,215.64,805.1l.29-1.41,56.74,19.86Zm-56.16-20.19L272,824.3l.09-.43L216.3,804.35Z"/><polygon class="cls-21" points="216.07 804.67 215.71 805.49 266.15 843.53 266.51 842.71 216.07 804.67"/><path class="cls-21" d="M266.25,843.92,215.4,805.57l.57-1.29.25.19,50.6,38.16ZM216,805.41l50,37.73.15-.35-50-37.73Z"/><polygon class="cls-21" points="215.89 805.28 215.38 805.96 256.56 859.75 257.08 859.08 215.89 805.28"/><path class="cls-21" d="M256.57,860.16l-.2-.26L215.06,806l.83-1.09.2.26,41.3,54ZM215.69,806l40.88,53.38.19-.26L215.89,805.7Z"/><polygon class="cls-21" points="215.6 805.82 214.97 806.29 244.09 872.18 244.72 871.71 215.6 805.82"/><path class="cls-21" d="M244,872.57l-29.33-66.36,1-.78L245,871.79Zm-28.71-66.2,28.92,65.42.22-.16L215.5,806.21Z"/><polygon class="cls-21" points="215.21 806.23 214.51 806.48 229.59 879.97 230.29 879.72 215.21 806.23"/><path class="cls-21" d="M229.4,880.3l-15.18-74,1.18-.42,15.18,74Zm-14.6-73.66,15,73,.23-.08-15-73Z"/><rect class="cls-21" x="214.03" y="806.5" width="0.73" height="76.08"/><path class="cls-21" d="M215,882.84h-1.23V806.26H215Zm-.73-.5h.23V806.75h-.23Z"/><polygon class="cls-21" points="214.26 806.61 213.56 806.37 198.48 879.86 199.18 880.1 214.26 806.61"/><path class="cls-21" d="M199.37,880.43l-1.18-.41.05-.21L213.37,806l1.18.41-.05.21Zm-.6-.74.23.08,15-73-.22-.08Z"/><polygon class="cls-21" points="213.76 806.55 213.13 806.07 184.01 871.96 184.64 872.44 213.76 806.55"/><path class="cls-21" d="M184.74,872.82l-1-.78.08-.18L213,805.69l1,.78-.08.18Zm-.42-.94.22.17,28.91-65.42-.22-.17Z"/><polygon class="cls-21" points="213.29 806.32 212.78 805.65 171.59 859.44 172.1 860.12 213.29 806.32"/><path class="cls-21" d="M172.1,860.53l-.82-1.09,41.5-54.2.82,1.08Zm-.2-1.09.2.26L213,806.32l-.2-.26Z"/><polygon class="cls-21" points="212.88 805.94 212.52 805.11 162.08 843.15 162.44 843.98 212.88 805.94"/><path class="cls-21" d="M162.34,844.37l-.57-1.3,50.85-38.34.57,1.29Zm0-1.14.16.36,50-37.73-.15-.36Z"/><polygon class="cls-21" points="212.56 805.43 212.38 804.51 156.11 824.21 156.3 825.12 212.56 805.43"/><path class="cls-21" d="M156.11,825.45l-.29-1.41,56.74-19.86.29,1.41Zm.29-1.08.09.42,55.79-19.52-.09-.43Z"/><rect class="cls-21" x="154.11" y="803.88" width="58.25" height="0.95"/><path class="cls-21" d="M212.61,805.08H153.86v-1.45h58.75Zm-58.25-.5h57.75v-.45H154.36Z"/><polygon class="cls-21" points="212.27 804.19 212.46 803.27 156.2 783.58 156.01 784.5 212.27 804.19"/><path class="cls-21" d="M212.46,804.52l-56.74-19.86.29-1.41,56.74,19.86ZM156.3,784.33l55.79,19.53.08-.43-55.78-19.52Z"/><polygon class="cls-21" points="212.32 803.53 212.69 802.71 162.24 764.67 161.88 765.49 212.32 803.53"/><path class="cls-21" d="M212.42,803.92l-50.85-38.35.57-1.29.25.19L213,802.63Zm-50.23-38.51,50,37.73.16-.35-50-37.73Z"/><polygon class="cls-21" points="212.5 802.92 213.01 802.25 171.83 748.45 171.31 749.12 212.5 802.92"/><path class="cls-21" d="M212.5,803.33l-.2-.26-41.3-54,.83-1.08.19.26,41.31,54Zm-40.87-54.21,40.87,53.39.2-.26-40.87-53.39Z"/><polygon class="cls-21" points="212.79 802.39 213.42 801.91 184.3 736.02 183.67 736.5 212.79 802.39"/><path class="cls-21" d="M212.69,802.78l-29.33-66.36,1-.78L213.73,802ZM184,736.58,212.89,802l.22-.17L184.2,736.41Z"/><polygon class="cls-21" points="213.18 801.97 213.88 801.73 198.81 728.24 198.1 728.48 213.18 801.97"/><path class="cls-21" d="M213,802.3l-15.17-74,1.17-.41,15.18,74Zm-14.6-73.65,15,73,.22-.08-15-73Z"/><path class="cls-21" d="M211.62,895h7.15c35.95-2.43,64.53-41.27,64.53-88.83,0-49.13-30.49-89-68.1-89s-68.11,39.83-68.11,89C147.09,853.73,175.67,892.57,211.62,895Zm3.58-164.13c31.83,0,57.64,33.71,57.64,75.3s-25.81,75.3-57.64,75.3-57.65-33.71-57.65-75.3S183.36,730.87,215.2,730.87Z"/><path class="cls-17" d="M210.3,804.35c0,3.95,2,7.15,4.49,7.15s4.48-3.2,4.48-7.15-2-7.15-4.48-7.15S210.3,800.4,210.3,804.35Z"/><rect class="cls-19" x="17.66" y="881.13" width="96.98" height="9.93" rx="3.11" transform="translate(132.3 1772.19) rotate(180)"/><rect class="cls-11" y="881.09" width="77.29" height="9.93" rx="3.11" transform="translate(77.29 1772.12) rotate(180)"/><rect class="cls-21" x="131.14" y="851.17" width="0.69" height="19.91"/><polygon class="cls-21" points="131.88 871.19 131.23 870.96 135.18 851.72 135.83 851.95 131.88 871.19"/><polygon class="cls-21" points="131.91 871.32 131.34 870.89 131.42 870.71 138.97 853.62 139.54 854.04 139.46 854.23 131.91 871.32"/><polygon class="cls-21" points="131.9 871.45 131.45 870.87 142.27 856.74 142.72 857.32 131.9 871.45"/><polygon class="cls-21" points="131.86 871.57 131.56 870.89 144.84 860.88 145.14 861.55 131.86 871.57"/><polygon class="cls-21" points="131.81 871.66 131.66 870.93 146.49 865.75 146.64 866.47 146.43 866.54 131.81 871.66"/><rect class="cls-21" x="131.75" y="871" width="15.36" height="0.74"/><polygon class="cls-21" points="146.51 877 146.25 876.91 131.69 871.81 131.84 871.09 146.66 876.28 146.51 877"/><polygon class="cls-21" points="144.89 881.88 131.61 871.87 131.91 871.19 145.19 881.21 144.89 881.88"/><polygon class="cls-21" points="142.34 886.04 131.52 871.91 131.97 871.33 142.79 885.46 142.34 886.04"/><polygon class="cls-21" points="139.06 889.19 131.42 871.91 131.99 871.49 139.63 888.76 139.06 889.19"/><polygon class="cls-21" points="135.27 891.12 131.32 871.88 131.98 871.65 135.93 890.89 135.27 891.12"/><rect class="cls-21" x="131.24" y="871.8" width="0.69" height="19.91"/><polygon class="cls-21" points="127.89 891.15 127.24 890.92 131.18 871.68 131.84 871.91 127.89 891.15"/><polygon class="cls-21" points="124.09 889.26 123.52 888.83 123.6 888.65 131.16 871.55 131.73 871.98 131.65 872.16 124.09 889.26"/><polygon class="cls-21" points="120.8 886.14 120.35 885.55 131.17 871.42 131.62 872 120.8 886.14"/><polygon class="cls-21" points="118.23 882 117.93 881.32 131.21 871.31 131.51 871.98 118.23 882"/><polygon class="cls-21" points="116.58 877.13 116.43 876.4 131.26 871.21 131.41 871.94 131.2 872.01 116.58 877.13"/><rect class="cls-21" x="115.95" y="871.13" width="15.36" height="0.74"/><polygon class="cls-21" points="131.23 871.79 130.96 871.69 116.4 866.6 116.55 865.87 131.38 871.06 131.23 871.79"/><polygon class="cls-21" points="131.16 871.68 117.88 861.67 118.18 860.99 131.46 871 131.16 871.68"/><polygon class="cls-21" points="131.1 871.55 120.28 857.41 120.72 856.83 131.55 870.96 131.1 871.55"/><polygon class="cls-21" points="131.07 871.39 123.44 854.11 124.01 853.68 131.64 870.96 131.07 871.39"/><polygon class="cls-21" points="131.09 871.22 127.14 851.98 127.79 851.75 131.74 870.99 131.09 871.22"/><path class="cls-21" d="M114.42,872c0,12.53,7.77,22.69,17.37,22.69S149.16,884.5,149.16,872s-7.78-22.7-17.37-22.7S114.42,859.43,114.42,872Zm2.66,0c0-10.62,6.59-19.22,14.71-19.22s14.7,8.6,14.7,19.22-6.58,19.2-14.7,19.2S117.08,882.57,117.08,872Z"/><path class="cls-21" d="M147.49,872c0-11.14-7-20.2-15.7-20.2s-15.71,9.06-15.71,20.2,7,20.21,15.71,20.21S147.49,883.11,147.49,872Zm-29.41,0c0-10,6.15-18.21,13.71-18.21s13.7,8.17,13.7,18.21-6.14,18.21-13.7,18.21S118.08,882,118.08,872Z"/><path class="cls-21" d="M127.52,895h8.54c8.08-2.49,14.1-11.87,14.1-23,0-13.06-8.24-23.69-18.37-23.69S113.42,858.9,113.42,872C113.42,883.13,119.44,892.51,127.52,895Zm4.27-44.73c9,0,16.37,9.73,16.37,21.69s-7.34,21.7-16.37,21.7-16.38-9.73-16.38-21.7S122.76,850.27,131.79,850.27Z"/><path class="cls-7" d="M367.34,594.43,307,615.61a5.9,5.9,0,0,0-3.65,7.48l4.45,13.14A5.94,5.94,0,0,0,315.1,640c20.3-5.94,47.31-13.73,64.68-18.83,7.48-2.2,7.79-8.71,6-16.27A14.51,14.51,0,0,0,367.34,594.43Z"/><path class="cls-22" d="M313.7,641.09a6.91,6.91,0,0,1-6.55-4.71l-4.45-13.14a6.93,6.93,0,0,1,4.27-8.75l51-17.9a1,1,0,1,1,.67,1.88l-51,17.91a4.94,4.94,0,0,0-3,6.22L309,635.74a4.93,4.93,0,0,0,6.06,3.15c11.87-3.47,24.48-7.2,36.39-10.72,8.47-2.5,16.57-4.9,23.79-7a1,1,0,0,1,.57,1.92l-23.79,7c-11.91,3.52-24.53,7.26-36.39,10.72A6.76,6.76,0,0,1,313.7,641.09Z"/><path class="cls-6" d="M303.74,623.74c-2.06.4-8,1.6-9.12,1.9l3.93,7.65c1.76,0,4.67-.09,8.32-.28Z"/><path class="cls-6" d="M282.86,621.15a1.55,1.55,0,0,0,.75,1.93L290,626.2a1.3,1.3,0,0,0,1.81-.67,1.56,1.56,0,0,0-.75-1.94l-6.37-3.12A1.31,1.31,0,0,0,282.86,621.15Z"/><path class="cls-6" d="M288.83,637.49a6.23,6.23,0,0,1-3.23-.85,4.11,4.11,0,0,1-1.26-1.78,18.94,18.94,0,0,1-1.44-5.34c-.2-1.69,0-3.73,1.83-5a7.8,7.8,0,0,1,6-.94c3.73.85,5.05,1.18,7.35,3.51,2.87,2.91,3,6.09-1.86,8.09C293.73,636.23,291.43,637.63,288.83,637.49Z"/><path class="cls-6" d="M285.85,626.86l-9.46,4a1.35,1.35,0,0,1-1.72-.75,1.31,1.31,0,0,1,.62-1.75l9.46-4a1.37,1.37,0,0,1,1.1,2.5Z"/><path class="cls-6" d="M286.39,630.64l-9.46,4.06a1.34,1.34,0,0,1-1.71-.75,1.3,1.3,0,0,1,.61-1.75l9.46-4.06a1.36,1.36,0,0,1,1.72.75A1.31,1.31,0,0,1,286.39,630.64Z"/><path class="cls-6" d="M289.35,633.84l-9.46,4a1.37,1.37,0,0,1-1.09-2.5l9.46-4a1.37,1.37,0,0,1,1.09,2.5Z"/><path class="cls-6" d="M293,635.74l-9.46,4a1.33,1.33,0,0,1-1.71-.75,1.3,1.3,0,0,1,.61-1.75l9.46-4a1.34,1.34,0,0,1,1.72.75A1.32,1.32,0,0,1,293,635.74Z"/><path class="cls-21" d="M90.31,868.81c0-.17-.34-.36-.75-.56-4.33,6.56-14.79,8.89-22.07,4.2l-6.37,2.1c-5.7,1.88-3.5,7.07,3,7l24.56-.41c1.17,0,2-.68,1.83-1.37Z"/><path class="cls-6" d="M90.33,868.77c-1.64-2-5.52-2-6.4-1.74l-16.44,5.42C74.77,877.14,86,875.33,90.33,868.77Z"/><path class="cls-21" d="M50.87,868.81c0-.17-.33-.36-.74-.56-4.34,6.56-14.79,8.89-22.08,4.2l-6.36,2.1c-5.7,1.88-3.5,7.07,2.95,7l24.56-.41c1.18,0,2.06-.68,1.83-1.37Z"/><path class="cls-6" d="M50.89,868.77c-1.63-2-5.52-2-6.4-1.74l-16.44,5.42C35.34,877.14,46.56,875.33,50.89,868.77Z"/><path class="cls-17" d="M128.38,871.81c0,2.86,1.79,5.19,4,5.19s4-2.33,4-5.19-1.79-5.18-4-5.18S128.38,869,128.38,871.81Z"/><path class="cls-10" d="M347.89,244.79a3.56,3.56,0,0,1-.65,0,4.47,4.47,0,0,1-1.51-.45l-.36-.21c-6.81-3.22-73.34-36.09-82.24-93.32A63.89,63.89,0,0,1,280.3,96.47a47,47,0,0,1,16.56-11.69,41,41,0,0,1,16.66-3.7,38,38,0,0,1,4.31.27,46.56,46.56,0,0,1,30.11,14,46.39,46.39,0,0,1,33.17-14,42.63,42.63,0,0,1,6.2.47,4.75,4.75,0,0,1,1.88,0,47.19,47.19,0,0,1,18.55,8.08,45.3,45.3,0,0,1,3.73,2.91c16.44,13.92,24.55,36.14,21.15,58-8.88,57.1-75.13,90-82.19,93.3a2.82,2.82,0,0,1-.38.21A4.81,4.81,0,0,1,347.89,244.79Z"/><path class="cls-7" d="M1029.52,243.81a113.58,113.58,0,0,1-15.45-2l-.29,0a4.5,4.5,0,0,1-1.88-.83,4.19,4.19,0,0,1-.45-.39,4.15,4.15,0,0,1-.84-1.18l-.12-.26c-2.48-4.81-22.18-45-5.26-76.11a40.17,40.17,0,0,1,29.22-20.56,29.68,29.68,0,0,1,12.82.46,26.11,26.11,0,0,1,9.89,4.55,24.65,24.65,0,0,1,2.1,1.82,29.18,29.18,0,0,1,9.54,17.13,29.38,29.38,0,0,1,20.7,5.83,27,27,0,0,1,2.79,2.45,4.64,4.64,0,0,1,1.14.88,30,30,0,0,1,6.27,11.21,28.6,28.6,0,0,1,.76,2.9,39.77,39.77,0,0,1-11.5,36.92C1071.69,243.21,1046,244.84,1029.52,243.81Zm12-98.78a27.23,27.23,0,0,0-6.55.4,37.18,37.18,0,0,0-27.07,19c-16.27,29.95,3.06,69,5.32,73.38l.07.14a.61.61,0,0,0,0,.12,1.27,1.27,0,0,0,.26.36l.15.13a1.41,1.41,0,0,0,.6.26l.11,0,.17,0c4.81,1,47.7,9.17,72.28-14.42a36.81,36.81,0,0,0,10.65-34.15,25,25,0,0,0-.69-2.62,26.86,26.86,0,0,0-5.63-10.09,1.31,1.31,0,0,0-.43-.31l-.25-.11-.2-.2a23.52,23.52,0,0,0-2.65-2.35,26.48,26.48,0,0,0-19.93-5.07l-1.51.22-.19-1.51a26.44,26.44,0,0,0-8.81-16.78,23.73,23.73,0,0,0-1.9-1.64,23.2,23.2,0,0,0-8.79-4A27.49,27.49,0,0,0,1041.49,145Z"/><path class="cls-7" d="M1119.86,342c-21.08-12.24-24.62-42.55-25-46.38l0-.21a3.54,3.54,0,0,1,.19-1.62,2.48,2.48,0,0,1,.2-.44,3.21,3.21,0,0,1,.7-.92,1,1,0,0,1,.15-.13c2.77-2.71,25.47-23.95,49.78-19.06a28.37,28.37,0,0,1,19.93,15.38,21,21,0,0,1,2.36,8.75,18.41,18.41,0,0,1-1,7.64,18.87,18.87,0,0,1-.79,1.81,20.64,20.64,0,0,1-9.24,9.8,20.72,20.72,0,0,1,.22,14.81,20,20,0,0,1-1,2.35,3.59,3.59,0,0,1-.39,1,21.4,21.4,0,0,1-6.28,6.57c-.58.4-1.18.77-1.81,1.12a28.13,28.13,0,0,1-27.28-.1Zm33.19-62.88a25.77,25.77,0,0,0-7.78-3c-23-4.61-44.74,16-47.14,18.32l-.13.11a.44.44,0,0,0-.12.14l0,.08a.65.65,0,0,0,0,.24l0,.21c.31,3.33,3.59,32.57,23.51,44.14l.6.34a25.12,25.12,0,0,0,24.37.1,15.18,15.18,0,0,0,1.56-1,18.11,18.11,0,0,0,5.4-5.62.48.48,0,0,0,.06-.18l0-.27.13-.25a16.3,16.3,0,0,0,1-2.16,17.78,17.78,0,0,0-.7-13.86l-.65-1.38,1.39-.62a17.79,17.79,0,0,0,9.08-9,12.6,12.6,0,0,0,.69-1.56,15.48,15.48,0,0,0,.85-6.44,18.16,18.16,0,0,0-2.05-7.58A25.22,25.22,0,0,0,1153.05,279.16Z"/><path class="cls-7" d="M1057.14,92.5a2.55,2.55,0,0,1-.53-.18l-.1,0c-2.11-.9-18.51-8.28-21.35-22.39A16.68,16.68,0,0,1,1039,55.51a12.47,12.47,0,0,1,4.29-3.3A11.09,11.09,0,0,1,1047.8,51a9.82,9.82,0,0,1,1.2,0,12.35,12.35,0,0,1,7.11,2.5,12.35,12.35,0,0,1,7.75-3.15,12.18,12.18,0,0,1,1.47,0,2.89,2.89,0,0,1,.72,0,12.85,12.85,0,0,1,5.11,1.95c.34.22.69.47,1,.74a16.6,16.6,0,0,1,6.19,14.9c-1.57,14.25-17.18,23-19.26,24.14l-.11.06a2.58,2.58,0,0,1-1.19.34,1.54,1.54,0,0,1-.37,0A1.76,1.76,0,0,1,1057.14,92.5Zm-6.54-38.27a9.19,9.19,0,0,0-1.74-.2,6.05,6.05,0,0,0-.93,0,8,8,0,0,0-3.31.89,9.68,9.68,0,0,0-3.33,2.57,13.71,13.71,0,0,0-3.19,11.82c2.54,12.61,17.63,19.4,19.58,20.23,1.83-1,16.31-9.06,17.72-21.84a13.61,13.61,0,0,0-5.06-12.21,8.14,8.14,0,0,0-.81-.58,9.59,9.59,0,0,0-3.81-1.49l-.19.05-.28,0a9,9,0,0,0-1.26,0,9.5,9.5,0,0,0-6.68,3.18l-1,1.13-1.11-1A9.64,9.64,0,0,0,1050.6,54.23Z"/><path class="cls-7" d="M1136.7,146.11a2.25,2.25,0,0,1-.89-.18,1.74,1.74,0,0,1-.27-.14,2,2,0,0,1-.57-.48l0-.06c-1.09-1.24-8.84-10.46-6.44-19.9a11.64,11.64,0,0,1,6.72-7.82,9.34,9.34,0,0,1,3.71-.79,8.17,8.17,0,0,1,3.22.61,7.68,7.68,0,0,1,.76.38,8.6,8.6,0,0,1,3.53,3.37,8.74,8.74,0,0,1,5.48.45c.29.13.58.27.88.44a2.13,2.13,0,0,1,.5.25,8.91,8.91,0,0,1,2.64,2.78,7,7,0,0,1,.43.77,11.49,11.49,0,0,1-.59,11.15c-5.14,8.25-17.16,9.08-18.82,9.16h-.24Zm2.2-26.37a5.88,5.88,0,0,0-2.5.54,8.59,8.59,0,0,0-5,5.81c-1.94,7.61,4.44,15.61,5.63,17,2.32-.15,12.08-1.14,16.19-7.74a8.48,8.48,0,0,0,.45-8.24,5.25,5.25,0,0,0-.29-.53,6,6,0,0,0-1.61-1.77l-.12,0-.23-.14a4.08,4.08,0,0,0-.69-.35,5.79,5.79,0,0,0-4.51,0l-1.41.59-.56-1.43a5.76,5.76,0,0,0-2.77-3.09,4.94,4.94,0,0,0-.52-.26,4.63,4.63,0,0,0-2-.37Z"/><path class="cls-7" d="M1023.84,314.16a2.42,2.42,0,0,1-.33-.84c0-.11,0-.21,0-.31a1.89,1.89,0,0,1,.1-.74l0-.08c.46-1.58,4.07-13.07,13.32-16.12a11.62,11.62,0,0,1,10.21,1.47,9.23,9.23,0,0,1,2.65,2.7,7.92,7.92,0,0,1,1.22,3c0,.26.07.54.09.85a8.52,8.52,0,0,1-.94,4.79,8.7,8.7,0,0,1,2.56,4.86,7.56,7.56,0,0,1,.1,1,2.08,2.08,0,0,1,.07.55A9.16,9.16,0,0,1,1052,319c-.12.25-.27.52-.42.78a11.48,11.48,0,0,1-9.72,5.48c-9.72.1-16.88-9.59-17.84-10.94l-.06-.08Zm23.43-12.32a6,6,0,0,0-1.8-1.82,8.63,8.63,0,0,0-7.6-1.1c-7.46,2.46-10.77,12.14-11.32,13.9,1.38,1.87,7.45,9.56,15.23,9.49a8.47,8.47,0,0,0,7.19-4.05,4,4,0,0,0,.29-.53,6,6,0,0,0,.63-2.31l-.05-.11V315a6,6,0,0,0-.07-.76,5.84,5.84,0,0,0-2.42-3.81l-1.26-.87.91-1.24a5.82,5.82,0,0,0,1.12-4c0-.26,0-.43-.06-.58a4.75,4.75,0,0,0-.78-1.91Z"/><path class="cls-23" d="M555.72,77.64a2.17,2.17,0,0,1-2.09-1.4,8.69,8.69,0,0,0-10.17-5.5,2.17,2.17,0,0,1-1.41-4.08A8.67,8.67,0,0,0,546.62,56,2.17,2.17,0,0,1,548,53.24a2.2,2.2,0,0,1,2.82,1.32A8.71,8.71,0,0,0,561,60.12a2.16,2.16,0,0,1,1.4,4.07,8.69,8.69,0,0,0-4.58,10.6,2.16,2.16,0,0,1-1.35,2.73A2.25,2.25,0,0,1,555.72,77.64Zm-10.27-9.13a10.68,10.68,0,0,1,10.06,7c0,.08.21.11.3.08a.18.18,0,0,0,.11-.22,10.65,10.65,0,0,1,5.63-13,.17.17,0,0,0,.09-.22.15.15,0,0,0-.19-.11,10.7,10.7,0,0,1-12.56-6.85c0-.07-.16-.13-.28-.09a.16.16,0,0,0-.1.22,10.67,10.67,0,0,1-5.61,13.13.16.16,0,0,0-.1.21.17.17,0,0,0,.2.12A10.85,10.85,0,0,1,545.45,68.51Z"/><path class="cls-23" d="M493.41,178.4a1.78,1.78,0,0,1-1.36-.62,5.63,5.63,0,0,0-7.4-1,1.8,1.8,0,0,1-2.28-2.75,5.57,5.57,0,0,0,.32-7.47,1.82,1.82,0,0,1,2.8-2.33,5.62,5.62,0,0,0,7.43,1,1.8,1.8,0,0,1,2.29,2.75,5.6,5.6,0,0,0-.35,7.44,1.79,1.79,0,0,1-.25,2.51A1.89,1.89,0,0,1,493.41,178.4Zm-5.62-4.57a7.55,7.55,0,0,1,4.67,1.6,7.59,7.59,0,0,1,.6-8,7.62,7.62,0,0,1-7.93-.84,7.58,7.58,0,0,1-.61,7.93A7.67,7.67,0,0,1,487.79,173.83Z"/><path class="cls-23" d="M833.58,120.63a2.22,2.22,0,0,1-.51-.06,2.19,2.19,0,0,1-1.63-2.57,8.29,8.29,0,0,0-5.26-9.71,2.12,2.12,0,0,1,1-4.1A8.32,8.32,0,0,0,836.46,98,2.13,2.13,0,0,1,839,96.49a2.23,2.23,0,0,1,1.33,1,2.09,2.09,0,0,1,.27,1.63,8.31,8.31,0,0,0,5.26,9.78,2.12,2.12,0,0,1-1,4.09,8.32,8.32,0,0,0-9.22,6.1A2.13,2.13,0,0,1,833.58,120.63Zm-6.67-14.47a.14.14,0,0,0-.13.1.13.13,0,0,0,.08.15,10.31,10.31,0,0,1,6.53,12c0,.05.09.15.16.17a.14.14,0,0,0,.16-.09A10.32,10.32,0,0,1,845.15,111a.13.13,0,0,0,.15-.1.14.14,0,0,0-.08-.15A10.28,10.28,0,0,1,838.7,98.6c0-.08-.07-.15-.14-.17l-.16.09a10.31,10.31,0,0,1-11.47,7.65Z"/><path class="cls-23" d="M717.3,59.89a1.86,1.86,0,0,1-1.82-1.52A6.07,6.07,0,0,0,709,53.43a1.85,1.85,0,0,1-2-1.69,1.86,1.86,0,0,1,.42-1.36,1.81,1.81,0,0,1,1.27-.69,6.07,6.07,0,0,0,5.55-5.94,1.86,1.86,0,0,1,3.69-.3,6.09,6.09,0,0,0,6.41,4.94,1.88,1.88,0,0,1,.31,3.75,6.07,6.07,0,0,0-5.5,5.93,1.85,1.85,0,0,1-1.71,1.81Zm-7.07-8.44a8.1,8.1,0,0,1,7,5.7,8.07,8.07,0,0,1,6-6.78,8.11,8.11,0,0,1-7-5.7A8.07,8.07,0,0,1,710.23,51.45Z"/><path class="cls-23" d="M918.05,78.18a1.61,1.61,0,0,1-1.3-2.57,4,4,0,0,0-.51-5.42,1.61,1.61,0,0,1-.1-2.27,1.69,1.69,0,0,1,1.15-.54,1.6,1.6,0,0,1,1.15.41,4.08,4.08,0,0,0,5.46,0A1.61,1.61,0,0,1,926.26,70a4.06,4.06,0,0,0,.5,5.38,1.63,1.63,0,0,1,.09,2.27,1.66,1.66,0,0,1-2.3.15,4.09,4.09,0,0,0-5.43,0A1.55,1.55,0,0,1,918.05,78.18Zm.82-7.79a6,6,0,0,1,.27,5,6.11,6.11,0,0,1,5-.18,6,6,0,0,1-.28-5A6.13,6.13,0,0,1,918.87,70.39Z"/><path class="cls-23" d="M801.83,237.11a2.73,2.73,0,0,1-2.19-4.34A13.13,13.13,0,0,0,798,215.24a2.71,2.71,0,0,1-.17-3.83,2.86,2.86,0,0,1,1.9-.91,2.7,2.7,0,0,1,2,.67,13.2,13.2,0,0,0,17.65,0,2.72,2.72,0,0,1,4,3.65,13.15,13.15,0,0,0,1.58,17.44,2.74,2.74,0,0,1,.16,3.82,2.81,2.81,0,0,1-3.9.28,13.23,13.23,0,0,0-17.56,0A2.69,2.69,0,0,1,801.83,237.11Zm-1.92-24.62h-.06a.81.81,0,0,0-.56.27.7.7,0,0,0-.19.52.71.71,0,0,0,.23.49A15.14,15.14,0,0,1,801.25,234a.71.71,0,0,0,.09,1,.72.72,0,0,0,1,0,15.22,15.22,0,0,1,20.22,0,.84.84,0,0,0,1.09-.14.73.73,0,0,0,0-1,15.15,15.15,0,0,1-1.83-20.09.7.7,0,0,0-.09-1,.72.72,0,0,0-1,0,15.21,15.21,0,0,1-20.32,0A.66.66,0,0,0,799.91,212.49Z"/><path class="cls-23" d="M638.72,151.58a2,2,0,0,1-1.8-1.11,7.08,7.08,0,0,0-8.66-3.69,2,2,0,0,1-1.62-3.58,7,7,0,0,0,2.89-9,2,2,0,0,1,1-2.61,2,2,0,0,1,2.67,1,7.08,7.08,0,0,0,8.68,3.74,2,2,0,0,1,1.62,3.57,7,7,0,0,0-2.9,8.93,2,2,0,0,1-1,2.59A2.18,2.18,0,0,1,638.72,151.58Zm-8.15-7.14a9,9,0,0,1,8.16,5.18,9.09,9.09,0,0,1,3.74-11.46,9,9,0,0,1-11.11-4.76,9,9,0,0,1-3.71,11.53A9,9,0,0,1,630.57,144.44Z"/><path class="cls-16" d="M583.65,586.25h-.22a1.5,1.5,0,0,1-.51-.15l-.12-.07c-2.28-1.08-24.56-12.09-27.54-31.26A21.36,21.36,0,0,1,561,536.58a15.69,15.69,0,0,1,5.54-3.92,13.75,13.75,0,0,1,5.58-1.24,12.93,12.93,0,0,1,1.45.09,15.59,15.59,0,0,1,10.08,4.71,15.53,15.53,0,0,1,11.11-4.7,15.31,15.31,0,0,1,2.08.15,1.67,1.67,0,0,1,.63,0,15.78,15.78,0,0,1,6.21,2.7c.42.3.85.63,1.25,1A21.27,21.27,0,0,1,612,554.76c-3,19.13-25.17,30.13-27.53,31.25l-.13.07A1.55,1.55,0,0,1,583.65,586.25Z"/><path class="cls-24" d="M932.05,752.46h-.16a1,1,0,0,1-.83-1.15,112.88,112.88,0,0,0-1.16-37.2,1,1,0,0,1,.36-1l13.66-10.8a1,1,0,1,1,1.25,1.56L932,714.29a115.2,115.2,0,0,1,1,37.34A1,1,0,0,1,932.05,752.46Z"/><path class="cls-24" d="M301.54,725.7a1,1,0,0,1-1-.82l-3.19-17-6.78-6.77a1,1,0,0,1,0-1.41,1,1,0,0,1,1.42,0l7,7a1,1,0,0,1,.28.52l3.25,17.33a1,1,0,0,1-.8,1.16Z"/><path class="cls-7" d="M972.46,893a9.91,9.91,0,0,0,2.26,2h5.52c.79-1,1-2.56.16-4.66l-2.66-6.66c-9-2.52-14.32-12.67-11.81-20.91a1.55,1.55,0,0,0-1-.2l-9.34,7.76c-.75.32-.69,1.51.11,2.47Z"/><path class="cls-6" d="M965,862.53c2.85-.14,5.56,3,5.92,3.92l6.85,17.23C968.71,881.16,962.45,870.77,965,862.53Z"/><path class="cls-14" d="M1079.49,481.89c.16,2.26.85,4.52.52,6.77a13.4,13.4,0,0,1-2.45,5.41,60.82,60.82,0,0,1-8,9.61c-3.41,3.34-7.44,6.63-8.42,11.3-.28,1.35-.81,3.21-2.18,3-1-.13-1.4-1.28-1.51-2.25-1.25-10.74,11.72-19.59,9.73-30.22a30.8,30.8,0,0,1-.71-3.54,8.87,8.87,0,0,1,3-6.7,25.9,25.9,0,0,1,6.35-4.08,6.43,6.43,0,0,1,3.66-1C1083.76,470.75,1079.29,479.07,1079.49,481.89Z"/><path class="cls-6" d="M1171.65,641.43c-35.61-14.89-45.94-18.54-63.22-33.45a11.83,11.83,0,0,1-3.42-5c-1-2.85-20.79-51.49-22.57-56.77l2.31,52.73,7.11,14.87c1.28,1.9,4.13,6.29,5.24,7,2.67,2.77,34.3,16.83,67.5,26.43Z"/><path class="cls-6" d="M1164.6,648.29a1,1,0,0,1-.28,0c-33.49-9.68-64.56-23.53-67.86-26.62-1-.71-2.58-3-5-6.55l-.45-.67-.06-.11c-.25-.5-4.57-9.54-7.12-14.88a1.07,1.07,0,0,1-.1-.39l-2.31-52.73a1,1,0,0,1,.81-1,1,1,0,0,1,1.14.66c1.1,3.29,9.44,24,15.52,39.15,3.71,9.23,6.65,16.53,7,17.61a10.84,10.84,0,0,0,3.13,4.52c15.81,13.65,25.7,17.77,55.05,30l7.91,3.3a1,1,0,0,1,.25,1.69l-7,5.86A1,1,0,0,1,1164.6,648.29Zm-71.87-34.93.42.62c1,1.51,3.67,5.52,4.49,6l.18.15c2.25,2.33,32.2,16,66.55,26l5.38-4.46-6.39-2.67c-29.57-12.31-39.53-16.46-55.59-30.32a13,13,0,0,1-3.71-5.36c-.37-1-3.45-8.69-7-17.54-4.72-11.72-10.27-25.54-13.35-33.41l2,46.32Z"/><path class="cls-6" d="M1021.89,808.09c13.15-16.16,19.58-25.36,22.84-38.83,4.06-16.77,5.25-35.73,3.61-57.93l-28.81,11.74c6.19,34,1.92,41.42-17.19,71.83-14.17,22.55-28.25,46.45-37.53,66.83-3.16,6.94,1.41,12.1,2.69,13.43.19.19,1.88,3.4,6.2-3.34C990.26,846,1010.76,821.76,1021.89,808.09Z"/><path class="cls-6" d="M1113.64,799.83c1-21,1.75-34.9-4.29-47.94-.62-1.35-1.28-2.71-2-4.06h-32c10.64,12.57,11.6,22.46,13.95,46.58.2,2,.4,4.12.62,6.35,2.64,26.4,5.77,54.94,12.07,81,1.89,7.79,5.67,9.75,8.47,9.75a2.44,2.44,0,0,0,1.76-.81c1-1,3.15-4.38,2.22-14.67C1111.5,842.42,1112.68,818.81,1113.64,799.83Z"/><path class="cls-7" d="M1121.68,774c-1.71-10.1-5.24-15.45-6.92-20.11-5.3-14.75-16.06-28.38-19.92-43.69-3.93-15.56-6.13-25.62-8.43-37.62-1.39-11,1.73-62.23,4.46-84.92,1.48-12.25-.43-31.08-5.33-41.21-4.45-9.2-12.74-14.63-23.57-16.3-7.23-1.11-15.66-1.38-31.85,4.32-6,1.43-15.2,8.57-15.37,10.33-2,20.62,15.45,31.81,12.89,57.83-.05.57-1.23,3-1.33,5.63-8.85,32-11.77,30-16.45,56.95l.06-.12c-6.06,28.3,5,51.49,10.62,77.25,2.86,13.24-4.28,15.68-11.76,30.23-3.56,6.93-3.3,14.25,4.45,16.51,13.47,3.93,30.35,8.62,39.21,9.12,37,2.11,66.24-9.37,69.19-14.51C1122.86,781.51,1122.32,777.73,1121.68,774Z"/><path class="cls-6" d="M1036.19,544.08c2.47,7,12.5,12.6,22.4,12.6s15.94-5.64,13.47-12.6-12.5-12.61-22.41-12.61S1033.72,537.12,1036.19,544.08Z"/><path class="cls-6" d="M1031.09,555.46a16.08,16.08,0,0,0-9.25-10.44,6,6,0,0,0-2.24-.44c-2.62,0-3.64-.05-4.76,2.55-10.28,23.77-16.45,38.12-20.17,46.88-4.85,11.43-5.52,13.34-5.65,14.18,0,.2-.07.4-.11.61-4.7,29.14-5,65.05-4.07,84.33h8.4c.57-33.48,5.24-55.68,8.69-72,1.22-5.79,2.27-10.79,2.84-15V606l0-.11,0-.13,0-.12.07-.22.09-.22c.57-1.35,1.22-2.76,1.93-4.21,4.48-9.21,11.57-20.32,21.57-33.81A13.46,13.46,0,0,0,1031.09,555.46Z"/><path class="cls-6" d="M983.89,694.13l0-1c-.84-16.82-.92-53.56,4.08-84.53.05-.25.08-.43.11-.62.15-.9.62-2.39,5.72-14.41,3.78-8.91,10-23.37,20.17-46.88,1.36-3.15,2.93-3.16,5.52-3.16h.16a7,7,0,0,1,2.62.52,17.09,17.09,0,0,1,9.84,11.11,14.48,14.48,0,0,1-2.73,12.55c-10,13.46-17,24.46-21.48,33.65-.76,1.55-1.38,2.91-1.91,4.16l-.18.67c-.57,4.22-1.62,9.23-2.85,15-3.42,16.26-8.11,38.48-8.67,71.87l0,1Zm35.71-148.55h-.16c-2.46,0-2.84,0-3.69,1.95-10.16,23.51-16.38,38-20.16,46.87-4.5,10.62-5.46,13.15-5.59,14,0,.22-.07.43-.12.66-4.87,30.2-4.88,66-4.09,83.13h6.46c.65-33,5.3-55.09,8.7-71.24,1.22-5.79,2.27-10.77,2.83-14.92l.23-1,.09-.21c.54-1.29,1.18-2.68,1.95-4.26,4.52-9.3,11.61-20.41,21.67-34a12.52,12.52,0,0,0,2.4-10.86,15,15,0,0,0-8.66-9.77A4.93,4.93,0,0,0,1019.6,545.58Z"/><path class="cls-25" d="M950.42,869.6,945,847c-.26-1.12-1.31-2-2.08-1.81l-12.26,3.46c-.72.2-.82,1.27-.23,2.24L942.89,871C946.15,876.31,951.76,875.26,950.42,869.6Z"/><path class="cls-6" d="M1177.9,635.23a1.58,1.58,0,0,1-.93,2l-7.32,2.72a1.57,1.57,0,1,1-1.1-2.94l7.32-2.72A1.58,1.58,0,0,1,1177.9,635.23Z"/><path class="cls-6" d="M1170.56,652.34a7.06,7.06,0,0,0,3.68-.58,4.07,4.07,0,0,0,1.49-1.81,18.64,18.64,0,0,0,1.82-5.64,5.5,5.5,0,0,0-1.9-5.59,9.44,9.44,0,0,0-6.77-1.65c-4.25.53-5.77.75-8.44,3-3.35,2.86-3.65,6.29,1.81,9C1165.06,650.47,1167.61,652.22,1170.56,652.34Z"/><path class="cls-6" d="M1174.31,641.11l10.57,5.39a1.46,1.46,0,1,0,1.32-2.6l-10.56-5.38a1.46,1.46,0,1,0-1.33,2.59Z"/><path class="cls-6" d="M1173.56,645.17l10.57,5.38a1.46,1.46,0,0,0,1.33-2.6l-10.57-5.38a1.46,1.46,0,0,0-1.33,2.6Z"/><path class="cls-6" d="M1170.1,648.32l10.56,5.39a1.46,1.46,0,0,0,1.33-2.6l-10.56-5.38a1.47,1.47,0,0,0-2,.63A1.45,1.45,0,0,0,1170.1,648.32Z"/><path class="cls-6" d="M1165.9,650l10.56,5.39a1.46,1.46,0,1,0,1.33-2.6l-10.56-5.38a1.46,1.46,0,1,0-1.33,2.59Z"/><path class="cls-6" d="M1020.61,673.41c4.8,11,7.3,16.44,8.73,19.05l-7.71,3c-3.28-4.85-7.35-11-11.71-18.07Z"/><path class="cls-6" d="M1037.57,689.67a1.45,1.45,0,0,1,1,.65c.33.66-.36,1.54-1.09,1.76a6.62,6.62,0,0,1-2.22,0,2.13,2.13,0,0,0-2,.85,11.58,11.58,0,0,0,5.92,3.75,8.65,8.65,0,0,1,2.32.76,6.52,6.52,0,0,1,2.26,3.08c.46,1-1,3.38-2,4.44s-3.51,1.88-9.15,1.44c-3.9-.3-7.39-3.72-9.86-6.79-1.08-1.34-2.11-3-1.75-4.81.55-2.83,3.7-6,6.47-6.07A32.22,32.22,0,0,1,1037.57,689.67Z"/><path class="cls-16" d="M918.33,721.73c-1.21,11.66,7.09,22.41,7.39,34.13.19,7.27-2.73,14.5-1.65,21.69.75,5.06,3.43,9.66,4.36,14.68,1.47,7.94-1.53,16-1.49,24.08,0,6.34,1.95,12.62,1.49,19-.27,3.75-1.38,7.42-1.52,11.17-.21,5.35,1.53,10.62,1.44,16a17.72,17.72,0,0,0,.19,4.83,4.06,4.06,0,0,0,3.23,3.2c2.58.23,4.08-2.81,4.73-5.32,3.47-13.26,4.44-27.05,4.63-40.76a367.82,367.82,0,0,0-10.69-93.28,93.13,93.13,0,0,0-5.06-15.85,8.84,8.84,0,0,0-3-4.08c-1.46-.9-3.69-.77-4.57.7a4.91,4.91,0,0,0-.47,2.58v12.37Z"/><polygon class="cls-6" points="835.78 854.84 827.09 871.38 839.34 877.25 847.86 863.62 835.78 854.84"/><path class="cls-16" d="M867.35,708.61c2.76,9.51,8,18.82,6.79,28.64-.7,5.51-3.43,10.61-4.14,16.12-.64,4.91.37,9.93-.24,14.84-1.36,11.09-10.38,19.45-15.8,29.23-4.26,7.71-6.34,16.5-10.82,24.08-3.37,5.71-8,10.62-11,16.52s-4.76,14.25-.86,19.61c.84,1.14,2.61,1.43,4,1.82,3.1.89,6-1.72,8.1-4.18,7.88-9.36,14.17-19.93,20.42-30.44,5.76-9.69,11.56-19.45,15.35-30.06A111.42,111.42,0,0,0,885,762.31c1.15-25.34-4-50.65-3-76,.17-4.37-.08-9.8-4.06-11.64-6.18-2.84-12,3.57-12.7,9.07A64.44,64.44,0,0,0,867.35,708.61Z"/><path class="cls-2" d="M996.5,550.91l12.43,67.44a14.37,14.37,0,0,1-27.86,6.81c-6.88-22.29-20.12-65.82-18.78-65.9,1.06-.06,11.84-7.63,20.54-13.86A8.73,8.73,0,0,1,996.5,550.91Z"/><path class="cls-2" d="M1006.24,613.88l27.54,58.19A6,6,0,0,1,1031,680l-12.6,6.12a6,6,0,0,1-7.9-2.53c-10.12-18.74-20.07-40.18-28.72-56.22-3.72-6.91-2.85-15.17,3.88-19.23A14.64,14.64,0,0,1,1006.24,613.88Z"/><path class="cls-7" d="M1101.92,895h33.35c2.17-1.8,1.85-4.73-2.11-6.15l-6.76-2.43c-7.87,5.09-19,2.34-23.52-5-.45.21-.75.42-.81.6l-.35,12.12A.87.87,0,0,0,1101.92,895Z"/><path class="cls-6" d="M1102.05,882c1.78-2.23,5.94-2.17,6.87-1.84l17.48,6.27C1118.53,891.51,1106.58,889.32,1102.05,882Z"/><path class="cls-6" d="M935.61,873.22c-.06.68-.11,1.34-.15,2a35.78,35.78,0,0,0,.12,5.65c.58,5.66,2.65,9.24,5.79,9.48s6.86-2.7,7.39-7.29c.06-.5.11-1,.16-1.5q.44-3.84.84-7.68Z"/><path class="cls-16" d="M960.87,666.11l-42.23,2.29-5.42.61.71,5.16.25,1.34c9.58,42.22,22.06,125.36,14.32,190.49a7.07,7.07,0,0,0,6.91,7.71l15.78.75a7.22,7.22,0,0,0,7.66-6.21c9-82.06,10.22-165.39,7.38-197.75A5,5,0,0,0,960.87,666.11Z"/><path class="cls-16" d="M917.56,682.19l1.4-2.28a82.23,82.23,0,0,0-1.46-9l-.73-3.27L880,660.7l-13-2.58-.14,6c-.19,8.32,1.69,19.72,3.85,32.92,15,91.12-.35,74.24-40,153.33a7.91,7.91,0,0,0,3,10.33l13,7.81a7.91,7.91,0,0,0,10.73-2.51C906.93,788.09,934,779.78,917.56,682.19Z"/><path class="cls-2" d="M970.16,665.61c-3.91-12.26-7.29-25.33-4.47-39.69,5.46-27.83,24.67-49.44,30.36-68.47,4.16-13.92-8.87-24.94-22-27.1a239.66,239.66,0,0,0-32.73-1,86,86,0,0,0-40.47,12.07c-.7.42-1.39.85-2.09,1.3-.13.08-16.41,41.34-16.2,41.18C873.82,613.19,866,652.46,863.1,680c-1.1,10.32,4,9.28,14.91,9l63.26-1.73,5.8-.16a36.1,36.1,0,0,0,13-3.19C967.72,680.51,972.23,672.1,970.16,665.61Z"/><path class="cls-5" d="M1041.52,439.2c1.64-1.14,3.56-2,4.79-3.53,1-1.33,1.48-3,2.42-4.45s2.81-2.52,4.38-1.76c.75.36,1.27,1.07,2,1.43,2.1,1,4.16-1.14,6.14-2.26a7.53,7.53,0,0,1,7.42.16c1.59,1,3.07,2.61,4.91,2.4,1.46-.17,2.67-1.5,4.13-1.27,2.14.35,2.36,3.46,4.14,4.68,1.26.86,2.94.57,4.45.71a7.59,7.59,0,0,1,6.35,4.9c.49,1.4.54,3,1.46,4.18,1.19,1.54,3.53,2,4.47,3.72,1.93,3.52-2.36,5.53-4.09,8.69-2.19,4-.18,10.1-4,12.6-.91.59-2.09.91-2.59,1.86s-.08,2.18-.48,3.18c-.74,1.89-3.66,1.9-5.24,3a14.12,14.12,0,0,0-.91,1.08c-8,9-19.25,12.95-28.17,8.72-7.39-3.5-11.39-11.76-11.34-21.23-.09-.06-.19-.09-.28-.15a9.56,9.56,0,0,1-3.75-6.37c-.92-4.67,2.93-7.16,2.73-11.16-.08-1.53-1.4-2.77-1.68-4.28C1038.4,442.13,1039.89,440.34,1041.52,439.2Z"/><path class="cls-5" d="M1058.47,506c3.43-2.57,10.33-5.1,13-7.28a27.33,27.33,0,0,0,4.91-4.88,11.08,11.08,0,0,0,1.89-5s-1.46-2.62-.29-.68a18.47,18.47,0,0,1-2.67-13.18,16.86,16.86,0,0,0-4.36-7.89c-6.19-6.66-9.63-5.86-13.69-7.44s-3.8-1.12-8.92-1.9a16.34,16.34,0,0,0-12.66,3.65,31.16,31.16,0,0,0-2.66,2.81c-.72,1-1.35,2.08-2,3.13-1.13.64-5.27,3.33-5.8,6.44-1,6.09.78,8.69.78,8.69,3.09-.47,6-4.6,8.61-4.05a8.73,8.73,0,0,1,2.4,1c3.71,2.32,6.77,4.21,8,8.75,1,3.71-.37,8.24,2.35,11.1,2.44,2.55,7,2.4,9.66,4.77A6.92,6.92,0,0,1,1058.47,506Z"/><path class="cls-5" d="M1065.35,500.68a17.94,17.94,0,0,1-4.64-4.43c-2.24-3.13-3.44-6.91-5.61-10.08-2.63-3.86-9.56-10.52-21.27-11.09-1.14-.06-2.86-.08-3.24-1.43a3.28,3.28,0,0,1,.22-1.66c.42-1.28,1.21-2.77,1.48-3.54a1.86,1.86,0,0,1,.47-.82,1.68,1.68,0,0,1,.78-.32l7.25-1.67a65,65,0,0,1,10.06-1.78c2.82-.2,5.84,0,8.16,1.66,3.75,2.64,4.43,7.86,6.51,12a21.17,21.17,0,0,0,1.65,2.7l1.5-1.38a25.36,25.36,0,0,1,.74,4.21c1,1.2,2.07,2.37,3.08,3.57l-4.36,10.72c-.53,2.28-1.19,4.69-2.06,7.3a20.32,20.32,0,0,1-3.83,7.07s0,.08,0,.07-.23-9.07-.23-9.07A4.78,4.78,0,0,0,1065.35,500.68Z"/><path class="cls-6" d="M1025.88,484.46l.3,14.3a17.87,17.87,0,0,0,18.23,17.41,17.24,17.24,0,0,0,2.29-.22l.44,21.31c0,1.84,1.23,3.32,2.66,3.3l10.37-.22c1.43,0,2.56-1.55,2.52-3.39l-.51-25.25-.19-9a4.78,4.78,0,0,0,3.36-2,17.94,17.94,0,0,1-4.64-4.43c-2.24-3.13-3.44-6.91-5.61-10.08-2.63-3.86-9.56-10.52-21.27-11.09-1.14-.06-2.86-.08-3.24-1.43a3.28,3.28,0,0,1,.22-1.66A17.49,17.49,0,0,0,1025.88,484.46Zm17.76,4.59-1.1-1.06,2.21,0c.72,0,1.31.87,1.33,2s-.55,2-1.27,2-1.31-.87-1.33-2A2.69,2.69,0,0,1,1043.64,489.05Zm-2.07-5.27a1.17,1.17,0,0,1,1.14-1.17l4.35-.07a1.15,1.15,0,1,1,0,2.3l-4.34.07A1.16,1.16,0,0,1,1041.57,483.78Zm-7.64,20.37,7-.65c-.14,1.22-.26,2.43-2.91,2.83C1038,506.33,1033.55,507,1033.93,504.15Zm-1-7.56.14-.39a2.24,2.24,0,0,0,1.44,1.9l2,.6a1.41,1.41,0,0,0,1.62-.74l0,.22c.27,1.31-.77,2.47-1.89,2.13l-2-.6A2.42,2.42,0,0,1,1033,496.59Zm-4.92-7.3-1.1-1.06,2.21,0c.72,0,1.32.87,1.33,2s-.55,2-1.26,2-1.32-.88-1.33-2A2.47,2.47,0,0,1,1028,489.29Zm-2.1-5.27a1,1,0,0,1,.88-1.16l3.38-.06a1.06,1.06,0,0,1,.91,1.14,1,1,0,0,1-.88,1.17l-3.37.05A1.05,1.05,0,0,1,1025.93,484Z"/><path class="cls-5" d="M1041.57,483.78a1.17,1.17,0,0,1,1.14-1.17l4.35-.07a1.15,1.15,0,1,1,0,2.3l-4.34.07A1.16,1.16,0,0,1,1041.57,483.78Z"/><path class="cls-5" d="M1026.81,482.86l3.38-.06a1.06,1.06,0,0,1,.91,1.14,1,1,0,0,1-.88,1.17l-3.37.05a1.18,1.18,0,0,1,0-2.3Z"/><path class="cls-13" d="M1033.09,496.2a2.24,2.24,0,0,0,1.44,1.9l2,.6a1.41,1.41,0,0,0,1.62-.74l0,.22c.27,1.31-.77,2.47-1.89,2.13l-2-.6a2.42,2.42,0,0,1-1.35-3.12Z"/><path class="cls-14" d="M1044.75,488c.72,0,1.31.87,1.33,2s-.55,2-1.27,2-1.31-.87-1.33-2a2.69,2.69,0,0,1,.16-.92l-1.1-1.06Z"/><path class="cls-14" d="M1029.14,488.2c.72,0,1.32.87,1.33,2s-.55,2-1.26,2-1.32-.88-1.33-2a2.47,2.47,0,0,1,.15-.92l-1.1-1.06Z"/><path class="cls-7" d="M1040.89,503.5c-.14,1.22-.26,2.43-2.91,2.83,0,0-4.43.7-4-2.18Z"/><path class="cls-6" d="M942.35,484.48l2.56-2.39-1.62-13c7.05-1.86,13-4.87,22.28-2.78,2.89.65,7.34,4.47,9.09,6.85a18.42,18.42,0,0,1,3.59,11.08l-.12,14.86c-.08,10.15-8.22,18.38-18.09,18.31s-17.88-8.45-17.8-18.59Z"/><path class="cls-7" d="M935,475.88c-1.59,2-3.09,4.47-2.54,7a28,28,0,0,1,.88,3c.18,1.72-.88,3.29-1.73,4.79s-1.53,3.41-.65,4.9,2.78,1.84,3.77,3.16c1.46,2,.54,5.42,2.69,6.59.89.49,2.06.37,2.86,1,1.13.87,1,2.72,2,3.68a2.67,2.67,0,0,0,3.07.11,6.26,6.26,0,0,0,2.11-2.47,8.38,8.38,0,0,0,1.22-6c-.6-2.37-2.74-4-4.2-5.93-2.32-3.12-2.86-7.67-.74-10.93.7-1.08,1.64-2,2.38-3a4.9,4.9,0,0,0,1.09-3.58,9.15,9.15,0,0,0-1.61-3.05,3.31,3.31,0,0,1-.45-3.28c.27-.47.73-.82,1-1.3.7-1.33-.44-2.51-1.71-2.72s-1.86.39-2.75,1.15A50.82,50.82,0,0,0,935,475.88Z"/><path class="cls-6" d="M942.32,489c-2.61,0-4.75,2.51-4.78,5.65s2.08,5.7,4.69,5.72,4.75-2.51,4.78-5.65S944.93,489,942.32,489Z"/><path class="cls-6" d="M958.23,539.72H937.51s3.83-36.19,3.83-36.19a3.5,3.5,0,0,1,3.79-3.14l13.66,1.44a3.5,3.5,0,0,1,3.05,3.87Z"/><path class="cls-7" d="M942,485.42l-.57,14.05c-.19,4.64,1,9.74,4.11,13.14a44.76,44.76,0,0,0,7.3,5.77c3.75,2.23,12.94,1.25,16.84,1a7.82,7.82,0,0,0,3.9-1.49,10.83,10.83,0,0,0,4.49-8.91l.06-9.61s-12.45,1.65-20.21-.12c-6.35-1.45-6.95-2.76-8.88-8.95L945.19,478Z"/><path class="cls-6" d="M962,503.38c.13,1.17.81,2.6,3.64,3,0,0,4.15.49,3.8-2.28Z"/><path class="cls-7" d="M962.47,483.27H958.4a1.08,1.08,0,1,0,0,2.15l4.07,0a1.08,1.08,0,0,0,0-2.16Z"/><path class="cls-7" d="M978.51,483.32l-4.07,0a1.08,1.08,0,1,0,0,2.16h4.07a1.08,1.08,0,0,0,1.08-1.07A1.07,1.07,0,0,0,978.51,483.32Z"/><path class="cls-14" d="M975.72,488.29c0,1.06-.56,1.91-1.25,1.91s-1.25-.86-1.24-1.92.56-1.91,1.25-1.91S975.73,487.23,975.72,488.29Z"/><path class="cls-14" d="M960.46,488.54c0,1-.56,1.91-1.25,1.91s-1.24-.86-1.24-1.92.56-1.91,1.25-1.91S960.47,487.48,960.46,488.54Z"/><path class="cls-13" d="M972.18,481.62l-6.31,0a.58.58,0,0,1-.57-.57.59.59,0,0,1,.57-.6l6.31,0a.59.59,0,0,1,0,1.17Z"/><path class="cls-13" d="M973.88,478.78l-12.09,0a.57.57,0,0,1-.56-.57.58.58,0,0,1,.56-.6l12.1,0a.56.56,0,0,1,.56.56A.58.58,0,0,1,973.88,478.78Z"/><path class="cls-13" d="M970.68,495.54l-.14-.4a2.28,2.28,0,0,1-1.75,1.81l-2.29.49a1.75,1.75,0,0,1-1.86-.83l-.06.22a1.8,1.8,0,0,0,2.11,2.23l2.29-.48A2.32,2.32,0,0,0,970.68,495.54Z"/><path class="cls-11" d="M950.21,879.13,969.1,885c4.62,1.42,5.95,4.46,4.57,6.75L932,891.28l.18-9.12a2.86,2.86,0,0,1,2.92-2.84Z"/><path class="cls-14" d="M932,891.28l-.2,1.54c-.13,1,1.17,1.84,2.72,1.84l32.29-.06c3.52,0,5.85-1.26,6.82-2.89Z"/><path class="cls-14" d="M936.15,890.25l6.87-.09a.58.58,0,0,0,.6-.58l0-1.76a.6.6,0,0,0-.62-.56l-6.87.09a.59.59,0,0,0-.6.58l0,1.76A.59.59,0,0,0,936.15,890.25Z"/><path class="cls-11" d="M842.46,873l12.92,13.32c3.17,3.26,2.86,6.5.67,7.91l-34.22-18.46,4.36-7.92a2.76,2.76,0,0,1,3.73-1.23Z"/><path class="cls-14" d="M821.83,875.75l-.89,1.26c-.55.79.13,2.13,1.41,2.8l26.72,14c2.91,1.52,5.42,1.44,7,.43Z"/><path class="cls-14" d="M825.52,876.53l6.09,3.1a.36.36,0,0,0,.48-.16l1-1.92a.36.36,0,0,0-.16-.48L826.82,874a.36.36,0,0,0-.48.15l-1,1.92A.35.35,0,0,0,825.52,876.53Z"/><ellipse class="cls-6" cx="947.3" cy="539.66" rx="16.44" ry="7.53"/><path class="cls-26" d="M889,895a2.17,2.17,0,0,0,.23-.72l22.35-190.72a7.59,7.59,0,0,1,7.55-6.71h57a7.92,7.92,0,0,1,7.77,6.42l36.23,189.14a2,2,0,0,0,2.34,1.59,2,2,0,0,0,1.59-2.34L987.82,702.52a11.91,11.91,0,0,0-11.7-9.66h-57a11.61,11.61,0,0,0-11.53,10.24L885.21,893.81a2,2,0,0,0,.23,1.19Z"/><path class="cls-26" d="M1083.07,894.66a2,2,0,0,1-2-1.63L1045.5,704.6a9.45,9.45,0,0,0-9.27-7.64H977.66a2,2,0,1,1,0-4h58.57a13.45,13.45,0,0,1,13.2,10.89L1085,892.29a2,2,0,0,1-1.59,2.33A1.61,1.61,0,0,1,1083.07,894.66Z"/><path class="cls-2" d="M924.16,560.44l-9.24,63.23a14.37,14.37,0,0,1-28.58-2.47c.43-15.2,2.31-45.27,3.56-64.37a17.24,17.24,0,1,1,34.26,3.61Z"/><path class="cls-6" d="M939.68,667.64c6.62,10.05,10,15,11.85,17.29l-7.08,4.29c-4.06-4.22-9.12-9.61-14.62-15.82Z"/><path class="cls-6" d="M960.25,692.06a1.52,1.52,0,0,1,.37,1.15c-.17.72-1.25,1-2,.67a6.29,6.29,0,0,1-1.71-1.42,2.1,2.1,0,0,0-2.1-.61,11.53,11.53,0,0,0,2.22,6.64,9,9,0,0,1,1.32,2,6.56,6.56,0,0,1-.2,3.81,4.49,4.49,0,0,1-1.58,2.84,4.69,4.69,0,0,1-2.09.6c-2.69.3-5.64.14-7.61-1.45a9,9,0,0,1-2.6-4.38,35.76,35.76,0,0,1-1.81-11.54c0-1.72.26-3.65,1.69-4.84,2.22-1.84,6.64-2.27,8.86-.62A32.35,32.35,0,0,1,960.25,692.06Z"/><path class="cls-2" d="M912.49,611.43l36.69,59.93a6.25,6.25,0,0,1-1.65,8.63l-11.88,7.42a6.25,6.25,0,0,1-8.39-2.13c-13.09-19.21-26.28-40.62-37.46-57.07-4.82-7.08-3.48-15,2.75-19.8C899.34,603.18,907.45,603.81,912.49,611.43Z"/><path class="cls-27" d="M932.53,688.91a7.62,7.62,0,0,1-6.23-3.41c-7.63-11.19-15.71-23.13-23.34-34.39-4.11-6.06-8.08-11.94-11.79-17.39a21.16,21.16,0,0,1-3.67-12.23l.51-41.41a1,1,0,0,1,1-1,1,1,0,0,1,1,1l-.51,41.42a19.2,19.2,0,0,0,3.33,11.08L904.62,650c7.63,11.27,15.71,23.2,23.34,34.39a5.24,5.24,0,0,0,7,1.84l11.88-7.42a5.28,5.28,0,0,0,1.33-7.26l-28.05-45.83a20.8,20.8,0,0,1-3.08-11l.22-40.74a1,1,0,0,1,2,0l-.23,40.74a19,19,0,0,0,2.79,10l28.06,45.83a7.27,7.27,0,0,1-2,10l-11.87,7.42A6.63,6.63,0,0,1,932.53,688.91Z"/><path class="cls-11" d="M1079.2,481.65a1,1,0,0,1-.82-.43c-13.6-19.55-34-21-42.08-20.67a1,1,0,0,1-1-1,1,1,0,0,1,1-1c8.45-.31,29.64,1.17,43.8,21.53a1,1,0,0,1-.82,1.57Z"/><path class="cls-6" d="M989.22,702.7a1.57,1.57,0,0,1-1.12-1.92l2-7.53a1.57,1.57,0,0,1,3,.8l-2,7.54A1.58,1.58,0,0,1,989.22,702.7Z"/><path class="cls-6" d="M979.46,686.84a6.94,6.94,0,0,0-1.65,3.34,4.06,4.06,0,0,0,.61,2.26,19.07,19.07,0,0,0,3.56,4.74,5.57,5.57,0,0,0,5.68,1.68,9.43,9.43,0,0,0,5.26-4.56c2-3.77,2.72-5.13,2.39-8.63-.4-4.39-3-6.61-8.39-3.71C984.17,683.45,981.26,684.51,979.46,686.84Z"/><path class="cls-6" d="M986.47,696.39,976,701.88a1.46,1.46,0,1,0,1.35,2.58L987.83,699a1.46,1.46,0,1,0-1.36-2.58Z"/><path class="cls-6" d="M983.59,693.44l-10.51,5.49a1.46,1.46,0,1,0,1.36,2.58L985,696a1.46,1.46,0,0,0-1.36-2.58Z"/><path class="cls-6" d="M983,688.79l-10.5,5.49a1.46,1.46,0,1,0,1.35,2.58l10.51-5.49a1.46,1.46,0,1,0-1.36-2.58Z"/><path class="cls-6" d="M984.06,684.4l-10.51,5.49a1.46,1.46,0,0,0,1.36,2.59l10.51-5.5a1.44,1.44,0,0,0,.61-2A1.47,1.47,0,0,0,984.06,684.4Z"/><path class="cls-24" d="M922.41,741.09a1,1,0,0,0,.83-1l.39-17.32,5.6-7.78a1,1,0,0,0-1.63-1.16l-5.77,8a1,1,0,0,0-.19.55l-.39,17.63a1,1,0,0,0,1,1Z"/></g></g></svg>