<svg xmlns="http://www.w3.org/2000/svg" xmlns:xlink="http://www.w3.org/1999/xlink" viewBox="0 0 3705.58 2381.58"><defs><style>.cls-1{fill:url(#Безымянный_градиент_13);}.cls-2{fill:#ffd878;}.cls-3{fill:#8881b6;}.cls-4{fill:#5e599b;}.cls-5{fill:url(#Безымянный_градиент_13-2);}.cls-6{fill:#fff;}.cls-7{fill:#f7665f;}.cls-8{fill:url(#Безымянный_градиент_13-3);}.cls-9{fill:url(#Безымянный_градиент_5530);}.cls-10{fill:url(#Безымянный_градиент_5508);}.cls-11{fill:url(#Безымянный_градиент_5508-2);}.cls-12{fill:#4db4e8;}.cls-13{fill:url(#Безымянный_градиент_80);}.cls-14{fill:#7dd6f9;}.cls-15{fill:url(#Безымянный_градиент_13-4);}.cls-16{fill:url(#Безымянный_градиент_5504);}.cls-17{fill:#efbc90;}.cls-18{fill:#f4caab;}.cls-19{fill:#36d6d2;}.cls-20{fill:url(#Безымянный_градиент_5504-2);}.cls-21{fill:url(#Безымянный_градиент_5504-3);}.cls-22{fill:url(#Безымянный_градиент_5530-2);}.cls-23{fill:#dbc6af;}.cls-24{fill:url(#Безымянный_градиент_37);}.cls-25{fill:url(#Безымянный_градиент_5530-3);}.cls-26{fill:#000543;}.cls-27{fill:url(#Безымянный_градиент_37-2);}.cls-28{fill:url(#Безымянный_градиент_5530-4);}.cls-29{fill:url(#Безымянный_градиент_54);}.cls-30{fill:url(#Безымянный_градиент_54-2);}.cls-31{fill:url(#Безымянный_градиент_54-3);}</style><linearGradient id="Безымянный_градиент_13" x1="2473.48" y1="601.69" x2="3346.93" y2="601.69" gradientUnits="userSpaceOnUse"><stop offset="0.03" stop-color="#fdf7e2"/><stop offset="1" stop-color="#fce1aa"/></linearGradient><linearGradient id="Безымянный_градиент_13-2" x1="1578.54" y1="400.68" x2="2147.54" y2="400.68" gradientTransform="translate(837.35 -1220.17) rotate(45)" xlink:href="#Безымянный_градиент_13"/><linearGradient id="Безымянный_градиент_13-3" x1="2164.68" y1="169.5" x2="2531.34" y2="169.5" gradientTransform="translate(808.1 -1611.93) rotate(45)" xlink:href="#Безымянный_градиент_13"/><linearGradient id="Безымянный_градиент_5530" x1="2064.61" y1="-326.23" x2="2274.6" y2="-319.54" gradientTransform="translate(216.3 521.38) rotate(-0.96)" gradientUnits="userSpaceOnUse"><stop offset="0" stop-color="#fce1aa"/><stop offset="1" stop-color="#fcce79"/></linearGradient><linearGradient id="Безымянный_градиент_5508" x1="2268.68" y1="177.2" x2="2419.75" y2="177.2" gradientUnits="userSpaceOnUse"><stop offset="0" stop-color="#79bada"/><stop offset="1" stop-color="#555ea3"/></linearGradient><linearGradient id="Безымянный_градиент_5508-2" x1="2032.17" y1="-345.36" x2="2242.17" y2="-338.68" gradientTransform="translate(216.3 521.38) rotate(-0.96)" xlink:href="#Безымянный_градиент_5508"/><linearGradient id="Безымянный_градиент_80" x1="1889.24" y1="2702.65" x2="1889.24" y2="758.81" gradientUnits="userSpaceOnUse"><stop offset="0" stop-color="#fff"/><stop offset="1" stop-color="#fdf7e2"/></linearGradient><linearGradient id="Безымянный_градиент_13-4" x1="1605.54" y1="1811.5" x2="1605.54" y2="1003.86" xlink:href="#Безымянный_градиент_13"/><linearGradient id="Безымянный_градиент_5504" x1="2318.48" y1="1092.46" x2="2318.48" y2="1241.31" gradientUnits="userSpaceOnUse"><stop offset="0" stop-color="#555ea3"/><stop offset="1" stop-color="#51537a"/></linearGradient><linearGradient id="Безымянный_градиент_5504-2" x1="1501.33" y1="587.02" x2="1413.93" y2="637.57" xlink:href="#Безымянный_градиент_5504"/><linearGradient id="Безымянный_градиент_5504-3" x1="1508.33" y1="630.14" x2="1244.02" y2="811.26" xlink:href="#Безымянный_градиент_5504"/><linearGradient id="Безымянный_градиент_5530-2" x1="1335.22" y1="421.02" x2="1141.22" y2="435.02" gradientTransform="matrix(1, 0, 0, 1, 0, 0)" xlink:href="#Безымянный_градиент_5530"/><linearGradient id="Безымянный_градиент_37" x1="1284.49" y1="453.78" x2="1077.04" y2="425.35" gradientUnits="userSpaceOnUse"><stop offset="0" stop-color="#fcce79"/><stop offset="1" stop-color="#e3a76b"/></linearGradient><linearGradient id="Безымянный_градиент_5530-3" x1="1147.55" y1="485" x2="1058.97" y2="451.88" gradientTransform="matrix(1, 0, 0, 1, 0, 0)" xlink:href="#Безымянный_градиент_5530"/><linearGradient id="Безымянный_градиент_37-2" x1="2816.1" y1="1694.89" x2="2966.09" y2="1694.89" xlink:href="#Безымянный_градиент_37"/><linearGradient id="Безымянный_градиент_5530-4" x1="2901.54" y1="1686.27" x2="3065.03" y2="1615.77" gradientTransform="matrix(1, 0, 0, 1, 0, 0)" xlink:href="#Безымянный_градиент_5530"/><linearGradient id="Безымянный_градиент_54" x1="2795.75" y1="1261.63" x2="2950.9" y2="1305.16" gradientUnits="userSpaceOnUse"><stop offset="0" stop-color="#e57f54"/><stop offset="1" stop-color="#d8513e"/></linearGradient><linearGradient id="Безымянный_градиент_54-2" x1="2836.96" y1="1316.7" x2="3037.62" y2="1301.36" xlink:href="#Безымянный_градиент_54"/><linearGradient id="Безымянный_градиент_54-3" x1="2992.74" y1="1343.33" x2="3079.09" y2="1318.76" xlink:href="#Безымянный_градиент_54"/></defs><g id="Слой_2" data-name="Слой 2"><g id="Слой_1-2" data-name="Слой 1"><circle class="cls-1" cx="2910.21" cy="601.69" r="436.72"/><path class="cls-2" d="M2707.84,929.8h-2.75c-150,.29-289.39-63.53-363.57-168.53-204.11-288.9-603.09-485.11-1061.88-485.11C613.17,276.16,72.89,690.21,72.89,1201s540.28,924.79,1206.75,924.79a1553.76,1553.76,0,0,0,330.52-35.12c137.29-29.9,283.6-1.44,388.65,75.75,180.82,132.89,431.71,215.2,709,215.2,551,0,997.74-325,997.74-725.89S3258.87,929.8,2707.84,929.8Z"/><path class="cls-3" d="M6.79,1251.48c-79.89,318.38,571.69,494.67,568.8,557.37s-337.78,9.31-275.72,181.56C357.38,2150,879.7,2229.64,1269,2063.35c11.27-4.82,299-468.21,109.11-751.65s-265.65,190.43-357.72,175S1150.52,893.84,966,762.5C774.88,626.41,700.3,1043.63,610.85,976.2c-84.75-63.87-110.15-661-352.12-591.93a187.51,187.51,0,0,0-27.16,10.19l-.11,0v0q-7.43,3.42-15.11,7.64c-281.7,155,223.66,800.13,102.92,820.19S47.27,1090.13,6.79,1251.48Z"/><path class="cls-4" d="M1022.64,2155S900,1609,743.13,1292.71,419.28,872.18,419.28,872.18s79,141.75,129.16,329.4,63.1,385.3,141.46,569C808.43,2048.44,1022.64,2155,1022.64,2155Z"/><path class="cls-4" d="M913.41,2141.77S788.25,1817.19,663,1637s-237.42-229.11-237.42-229.11,61.48,80,109.41,190.8,73.87,231.19,138.78,337C772,2095.77,913.41,2141.77,913.41,2141.77Z"/><path class="cls-3" d="M2815.6,2079c60.42-7.13,169.4-37,209.13-94.32,36.68-52.88-11.4-122.66,15.42-174.32s183.11-84.32,225.95-143.94c50.79-70.71-64.34-134.33-10.32-182.73s236.09-99.14,252.42-159.16-56.26-61.14,9.14-171.18c55.39-93.17,129.57-215.37,64.93-270.34-68.88-58.58-157.05,36.27-203.9,111.36-60.36,96.72-115.56-10.24-182.29,33.27-60.33,39.34-61.12,267.88-107.42,311.38s-131.79,6-196.34,82.1,20.71,202.07-13.24,259.8-124.52,31.45-173.12,113.4S2815.6,2079,2815.6,2079Z"/><path class="cls-4" d="M3388.65,1909.54c-6.28,154.23-323.63,147.15-330.67,175.82s151.14,49.1,100.25,118.55c-47.15,64.34-293.36,30.85-446.86-95.91-4.44-3.67-72.65-250.94,50.68-353.57s94.53,121.22,138.11,126.5,20.09-284.74,120.77-319.47c104.32-36,82.51,162.14,131.82,143.61,46.72-17.54,137.54-283.53,237.51-220.21a87.82,87.82,0,0,1,10.91,8.2l0,0h0c1.93,1.69,3.86,3.5,5.8,5.46,106.48,107.34-207.25,331.2-155.44,356.3S3391.83,1831.37,3388.65,1909.54Z"/><circle class="cls-5" cx="1891.54" cy="400.68" r="253.19" transform="translate(270.69 1454.88) rotate(-45)"/><path class="cls-6" d="M1991.89,240.13l-273.81,84.69a28.23,28.23,0,0,0-18.63,35.31l56.43,182.47a28.23,28.23,0,0,0,35.31,18.63l84.66-26.18,69.22,38.7,35.28-71L2065,476.55a28.24,28.24,0,0,0,18.63-35.32L2027.2,258.76A28.23,28.23,0,0,0,1991.89,240.13Z"/><path class="cls-7" d="M1922.72,329.12l-1.38-.07h0c-21.19-.7-37.39,20.11-39,41.92-13.63-17.1-38.75-25.13-55.84-12.59h0c-.37.27-.74.55-1.1.84-20.5,16.19-19.16,49.45,2.13,66.09,23.61,18.46,85.7,45.52,85.7,45.52s36-57.38,45-85.95C1966.45,359.13,1948.78,330.92,1922.72,329.12Z"/><circle class="cls-8" cx="2349.82" cy="169.5" r="169.5" transform="translate(568.39 1711.22) rotate(-45)"/><path class="cls-6" d="M2438.23,87.51l-176.8-.32A17.42,17.42,0,0,0,2244,104.57l-.22,117.82a17.43,17.43,0,0,0,17.39,17.45l54.66.1,33.67,35.49,33.81-35.37,54.66.1a17.41,17.41,0,0,0,17.45-17.38l.21-117.82A17.41,17.41,0,0,0,2438.23,87.51Z"/><path class="cls-9" d="M2407.91,132.92l-.1,58A12.06,12.06,0,0,1,2395.7,203h-8.29l-24.71,0-24.31,0-34.86-.06a12,12,0,0,1-10.62-6.4,11.85,11.85,0,0,1-1.44-5.7l.11-58.06a12.08,12.08,0,0,1,12.1-12l92.17.18A12.05,12.05,0,0,1,2407.91,132.92Z"/><path class="cls-10" d="M2387.41,203,2367,171.37a5,5,0,0,0-8.11,0l-8.13,12.5h0l-19-29.47a7.06,7.06,0,0,0-11.5,0l-27.35,42.08a12,12,0,0,0,10.62,6.4l34.86.06h0l16.2,0h8.11Z"/><path class="cls-11" d="M2388.68,144.08a7.8,7.8,0,1,1-7.92-7.67A7.81,7.81,0,0,1,2388.68,144.08Z"/><rect class="cls-12" x="817.44" y="699.43" width="2143.59" height="1538.83" rx="140.71"/><path class="cls-13" d="M2875.14,900V2048.37a128.13,128.13,0,0,1-3.45,29.58c-13.45,56.72-64.76,98.93-126,98.93H1032.77c-71.5,0-129.43-57.53-129.43-128.51V900c0-71,57.93-128.51,129.43-128.51H2745.69C2817.17,771.5,2875.14,829,2875.14,900Z"/><path class="cls-12" d="M574,2054.14v43.41c0,77.72,77.32,140.71,172.68,140.71h2285.2c95.37,0,172.68-63,172.68-140.71v-43.41Z"/><path class="cls-14" d="M1573.93,2054.14v15.63c0,28,18.53,50.67,41.39,50.67h547.82c22.86,0,41.4-22.68,41.4-50.67v-15.63Z"/><rect class="cls-6" x="1036.67" y="802.78" width="1122.57" height="1188.5" rx="104.8"/><rect class="cls-14" x="1418.57" y="909.63" width="347.72" height="34.89"/><rect class="cls-14" x="1418.57" y="987.71" width="602.39" height="34.89"/><circle class="cls-14" cx="1276.74" cy="960.22" r="86.63"/><rect class="cls-15" x="1130.39" y="1111.85" width="950.3" height="682.6"/><circle class="cls-7" cx="1901.62" cy="1270.01" r="60.34"/><polygon class="cls-12" points="1436.01 1385.87 1159.25 1794.45 1712.78 1794.45 1436.01 1385.87"/><polygon class="cls-12" points="1749.23 1488.96 1542.3 1794.45 1956.16 1794.45 1749.23 1488.96"/><rect class="cls-6" x="2207.92" y="822.36" width="542.4" height="501.83" rx="61.99"/><rect class="cls-14" x="2429.46" y="1103.65" width="277.45" height="32.61"/><rect class="cls-14" x="2429.46" y="1169.84" width="277.45" height="32.61"/><path class="cls-16" d="M2374.42,1092.28H2262.54a11,11,0,0,0-11,11v74.56a11,11,0,0,0,11,11h34.59l21.35,22.41,21.35-22.41h34.59a11,11,0,0,0,11-11V1103.3A11,11,0,0,0,2374.42,1092.28Z"/><rect class="cls-14" x="2425.3" y="923.53" width="277.45" height="32.61"/><rect class="cls-14" x="2425.3" y="989.71" width="277.45" height="32.61"/><path class="cls-7" d="M2363.58,914.09c-.38-.15-.76-.29-1.15-.42h0c-17.69-6.13-36.79,7.2-43.83,25.19-7-18-26.13-31.32-43.82-25.19h0c-.39.13-.78.27-1.16.42-21.51,8.31-29.06,36.72-15.44,56.31,15.1,21.74,60.42,60.77,60.42,60.77s45.32-39,60.43-60.77C2392.65,950.81,2385.1,922.4,2363.58,914.09Z"/><path class="cls-4" d="M3072.33,814.6a16.4,16.4,0,0,1-8.26-2.22L2703.1,604a16.55,16.55,0,0,1,0-28.67l361-208.41a16.56,16.56,0,0,1,16.55,28.68L2744.49,589.64l336.13,194.07a16.55,16.55,0,0,1-8.29,30.89Z"/><path class="cls-3" d="M3150.62,396.05a96.68,96.68,0,0,1-64.95,91.32c-1.56.55-3.14,1-4.73,1.51q-4.24,1.23-8.64,2.07c-2.42.47-4.87.85-7.35,1.12l-.76.09a98.43,98.43,0,0,1-10.21.53l-1.92,0a96.29,96.29,0,0,1-31.29-5.84c-2.37-.87-4.68-1.82-6.95-2.86-1-.44-1.91-.89-2.85-1.36l-1.61-.82a97,97,0,0,1-12.31-7.65q-2.45-1.77-4.75-3.69a96.64,96.64,0,1,1,158.32-74.4Z"/><path class="cls-3" d="M3150.62,773.32a96.69,96.69,0,0,1-64.95,91.33q-2.34.81-4.73,1.5c-2.83.82-5.71,1.52-8.64,2.08-2.42.46-4.87.84-7.35,1.11l-.76.09A98.43,98.43,0,0,1,3054,870l-1.92,0a96,96,0,0,1-31.29-5.84c-2.37-.86-4.68-1.82-6.95-2.86-1-.44-1.91-.89-2.85-1.36l-1.61-.82a95.82,95.82,0,0,1-12.31-7.64q-2.45-1.78-4.75-3.7a96.64,96.64,0,1,1,158.32-74.4Z"/><path class="cls-3" d="M2819.26,589.64a108.14,108.14,0,0,1-72.64,102.15c-1.75.6-3.51,1.16-5.3,1.68q-4.74,1.38-9.66,2.32-4.07.78-8.21,1.25l-.86.09a107.65,107.65,0,0,1-11.42.6l-2.14,0a107.5,107.5,0,0,1-35-6.54c-2.64-1-5.23-2-7.77-3.19-1.08-.49-2.14-1-3.19-1.52l-1.8-.92a107.32,107.32,0,0,1-13.77-8.55q-2.72-2-5.3-4.13a108.09,108.09,0,1,1,177.07-83.22Z"/><path class="cls-12" d="M2802.34,1687.41l-330.52-281.19a9.83,9.83,0,0,0-16.19,7.49v106C2234,1548,2067,1676.72,1996.65,1918c-2.77,9.51,7.55,17.47,16.11,12.47,151.63-88.66,275.66-111.24,442.87-69.29v114.93a9.82,9.82,0,0,0,16.19,7.48l330.52-281.18A9.82,9.82,0,0,0,2802.34,1687.41Z"/><polygon class="cls-17" points="1203.03 295.46 1150.51 281.02 1178.14 180.54 1210.24 189.37 1203.03 295.46"/><path class="cls-18" d="M1283.44,154.8c-2.47,43.68-20.47,83.46-47.85,85.64-25.68,2-60-31.49-67.38-77.36-7.72-48.3,10.64-77.76,48.5-80.19C1256.94,80.3,1286.14,106.91,1283.44,154.8Z"/><path class="cls-19" d="M1212.68,153.2c8.44-15.94,25.18-20.09,37.85-21.52s33.23,4.23,35.74-4.91-2.68-43-54.52-51.84c-46.93-8-76.27,18.33-88,51.95-10.24,29.42,7,63.23,30.45,58.67S1202.46,172.5,1212.68,153.2Z"/><ellipse class="cls-18" cx="1198.52" cy="168.96" rx="11.84" ry="14.21" transform="matrix(0.99, -0.14, 0.14, 0.99, -11.84, 173.77)"/><path class="cls-19" d="M1229.67,30.25c7.78,20-3.08,51.68-27.92,61.33s-54.24-6.36-62-26.37,10.5-32.61,35.33-42.26S1221.89,10.24,1229.67,30.25Z"/><path class="cls-17" d="M1454.77,537.12c-.47,9.54-15.33,20.52-35.65,22-18.74,1.37-31.12-9.28-31.21-18.93C1387.69,518.62,1455.49,522.35,1454.77,537.12Z"/><path class="cls-17" d="M1476.64,642.67l-3.78-.7-270.7-50.07-47.63-8.81-11.86,102.53,48.39,2.29L1425.89,699l-95,228.34-4.52,10.88,19.81,9.72,5.83-10.24,144.12-253.21a28.92,28.92,0,0,0,3.23-8.85A28.31,28.31,0,0,0,1476.64,642.67Z"/><path class="cls-17" d="M1502.87,656.83l-3.44-.64L1199.11,600.9l-47.62-8.76L1139.11,694l48.34,2.89,280.22,16.78L1483,1002.89l.63,11.76,22.18.08.71-11.76,19-317.22A27.72,27.72,0,0,0,1502.87,656.83Z"/><path class="cls-20" d="M1237.75,568c34.32,55.33,238.35,36.19,267.75,76.81,39.22,54.18-121.93,263.62-121.93,263.62l-53.64-29.95s82.16-148.14,78.85-158.77c-4.2-13.5-228.11,18.49-288.69-32.64C1073,647.35,1096.27,568,1096.27,568Z"/><path class="cls-21" d="M1221.77,568c30,68,273.32,42.86,307.83,102.11,27.84,47.81-.75,290.5-.75,290.5l-64.39-1.76s.35-206.61-12.25-220.64c-9.27-10.31-267.65,13.5-332.12-32.63C1064.88,666.08,1096.27,568,1096.27,568Z"/><path class="cls-17" d="M1210.28,317.48,1246.86,526l-17.4-14.92,152.71,11.33,13.87,1-1.17,26.93-13.91-.18-153.12-2a17.85,17.85,0,0,1-17.19-14l-.21-1L1164.5,326.58l-5.06-22.79,46.8-9.3Z"/><path class="cls-22" d="M1138.2,322.34c-3.62,49.91,28.66,179.59,79.57,224.19,30.23,26.48,130.89,8.7,130.89,8.7l4.9-39.3s-75.3,11.34-92.5-32.42S1233,320.24,1207.54,302C1185.11,286,1139.82,299.91,1138.2,322.34Z"/><path class="cls-23" d="M1162.51,276.16s27.74,26,56.85,10.21c0,0,6.37,104.66,17.76,147.64s45.33,156.06,45.33,156.06l-207.64-6.77C1072.37,487.86,1111.88,380.84,1162.51,276.16Z"/><path class="cls-24" d="M1152.91,267.28s-104.07,145.18-89,304.15c0,0-9.54,30.82,103.2,30.25s119.69-15.91,119.69-15.91c-32.87-86.12-57.43-183.18-67.41-299.4C1219.36,286.37,1177.21,286.55,1152.91,267.28Z"/><path class="cls-18" d="M1186.39,350c-15.19,23.78-30,48.63-43.72,73.5-6.84,12.48-13.43,25-19.49,37.69a334,334,0,0,0-15.8,37.85c-1,3.11-1.88,6.08-2.67,9.13l-2.37,10.09c-1.44,6.86-2.85,13.75-4.11,20.76-2.53,14-4.76,28.16-6.82,42.38-4.05,28.46-7.52,57.24-10.44,85.84l-1.42,13.84-26.94-1.87.62-13.89c1.32-29.32,3.16-58.38,5.62-87.64,1.28-14.62,2.73-29.26,4.54-44,.89-7.36,2-14.77,3.09-22.2l2-11.26c.81-4,1.77-8.09,2.82-11.93a369.12,369.12,0,0,1,15.46-43.41c5.79-13.87,12-27.37,18.46-40.72,13-26.71,26.61-52.53,41.37-78.51l11.54-20.29,40.86,25Z"/><path class="cls-25" d="M1139.53,300.39c-37.31,33.35-61.4,111.75-79.52,177s-10.16,165.8-10.16,165.8l40.94,3.61s6.83-101.71,24.92-145.11S1209.1,364.82,1203.48,334C1198.54,306.89,1156.3,285.41,1139.53,300.39Z"/><path class="cls-18" d="M1051.91,761.28c-9.29-2.3-16.09-24.56-12.07-52.67,3.71-25.91,17.54-41,27.07-39.48C1088.22,672.58,1066.26,764.83,1051.91,761.28Z"/><path class="cls-18" d="M1079.32,725.49c4.16-.64,7.89-11.53,7.06-26-.77-13.34-6.35-21.78-10.59-21.54C1066.31,678.49,1072.89,726.47,1079.32,725.49Z"/><path class="cls-26" d="M1591.24,1026.83l-16.85-3h0L1512.77,1000v.5s-.75,10.56-13.54,12.54c-9.43,1.47-15.55-1-18.12-2.47a2.89,2.89,0,0,0-1.39-.88c-4.11,0-7.45,6.73-7.45,15a27.42,27.42,0,0,0,1,7.48v11.53H1596V1032A5.22,5.22,0,0,0,1591.24,1026.83Z"/><path class="cls-26" d="M1401.84,1010.43l-11.43-12.74h0L1356.52,941l-.3.39s-7.09,7.87-18.4,1.56c-8.33-4.65-11.6-10.4-12.75-13.1a2.91,2.91,0,0,0-.56-1.55c-3.24-2.54-10,.71-15.12,7.26a27.47,27.47,0,0,0-3.82,6.5l-7.1,9.09,96.74,75.55,7.18-9.21A5.21,5.21,0,0,0,1401.84,1010.43Z"/><path class="cls-17" d="M1437.75,520c-1.2-4-12.5-6.24-26.71-3.45-13.11,2.58-20.72,9.26-19.9,13.43C1393,539.33,1439.6,526.26,1437.75,520Z"/><path class="cls-12" d="M1551,400.6h0a9.4,9.4,0,0,0-11.8,6.13l-36.83,116.52H1391.94a9.41,9.41,0,0,0,0,18.82h117.47a9.4,9.4,0,0,0,9.31-8.12l38.42-121.54A9.4,9.4,0,0,0,1551,400.6Z"/><polygon class="cls-6" points="1502.37 523.25 1508.21 523.25 1544 408.68 1538.58 408.68 1502.37 523.25"/><polygon class="cls-17" points="2930.74 1174.58 2982.69 1174.58 2982.69 1075.2 2950.95 1075.2 2930.74 1174.58"/><path class="cls-18" d="M2892.38,1024.89c-8.78,40.79-2.29,81.93,22.34,90.85,23.1,8.37,63.18-13.77,81.52-54.09,19.31-42.46,9.88-74.19-24.32-86C2935.59,963.09,2902,980.18,2892.38,1024.89Z"/><path class="cls-19" d="M2964.84,961.22c37.78,2.95,58.67,37.2,56.25,71.06-2.26,31.62-36.07,48.51-36.07,48.51s-11.15-32.1-29.43-37.21c-25.5-7.14-14.48-29.93-26.39-32.39-12.41-2.56-39.41-12.42-39-30.49C2907.72,981.31,2922.41,957.9,2964.84,961.22Z"/><ellipse class="cls-18" cx="2971.4" cy="1054.87" rx="13.55" ry="11.29" transform="translate(793.35 3334.8) rotate(-65.85)"/><path class="cls-19" d="M2964.84,1043s-2.84,44.09-11.26,60.84c-7.34,14.59-39.34,29.65-56.78-5,0,0,17.65,3.69,15.65-3.79-2.35-8.79-20.52-8.89-20.52-8.89s-3.55-.17-4.18-3.44c-.94-4.84,1.41-12.71,1.41-12.71s24,8.57,34.39,8.57c11.74,0,22.4-8.28,32.33-35.62Z"/><path class="cls-17" d="M2813.11,2015l47.74-267.09,32.44-131.62,32.65-131.87,11.11-44.84,93.65,29.88-16.94,43-49.34,125.19c-16.4,41.8-33.08,83.57-49.31,125.53l-80.22,257.17-3.34,10.73-20.42-5Z"/><path class="cls-17" d="M2985.66,1440.7l3.73,46,21.13,260.81L3207.73,1840l10.18,4.77-7.44,19.43-10.76-3.26-226.14-68.35A24.84,24.84,0,0,1,2956.5,1774l-.8-3.76-57.52-270.15-9.62-45.17Z"/><polygon class="cls-27" points="3044.44 1412.23 2869.37 1446.23 2814.64 1969.49 2873.36 1977.55 3044.44 1412.23"/><path class="cls-28" d="M3053,1447.14l-176.63-24.68s27.08,327.6,79.92,369.38c29.4,23.23,192.75,62.36,192.75,62.36l17.59-50.16s-123-49.78-133.27-65.17C3022.19,1722.13,3053,1447.14,3053,1447.14Z"/><path class="cls-17" d="M2927.13,1192.82l-115.77,165.45,21.06-5.88-136.53-51.84-12.4-4.7-9.86,23.74,12.09,5.45,133.13,60a17,17,0,0,0,20.49-5.12l.57-.75L2963,1219.15l13.57-17.65-36.69-26.92Z"/><path class="cls-29" d="M2987.46,1226.1c-17,44.59-97.24,143.62-159.23,161.61-36.81,10.69-116.62-45.3-116.62-45.3l11.62-35.93s60.5,40.19,93,9.31,90.14-129.75,119.49-135.23C2961.6,1175.74,2995.11,1206.07,2987.46,1226.1Z"/><path class="cls-23" d="M2979.14,1153.58s-27.25,23.9-54.5,8c0,0-9.33,99.55-21.52,140.17s-46,144-46,144l196.06,3.4C3058.49,1358.17,3024.15,1254.93,2979.14,1153.58Z"/><path class="cls-30" d="M2988.57,1145.41S3083.26,1287,3064,1438.09c0,0,8.14,29.67-99.31,25.63s-113.59-18.89-113.59-18.89c34-81.06,60.43-172.81,73.56-283.28C2924.64,1161.55,2964.81,1163,2988.57,1145.41Z"/><path class="cls-18" d="M2957.73,1215.59c13.48,23.29,26.56,47.59,38.57,71.86,6,12.18,11.74,24.43,17,36.73a317.57,317.57,0,0,1,13.46,36.72c.85,3,1.54,5.88,2.17,8.82l1.83,9.71c1.09,6.59,2.14,13.22,3,20,1.83,13.43,3.36,27,4.72,40.67,2.66,27.28,4.77,54.85,6.35,82.22l.76,13.24,25.76-.64,0-13.26c0-28-.55-55.76-1.67-83.74-.6-14-1.37-28-2.48-42.1-.54-7-1.25-14.15-2-21.28l-1.41-10.81c-.6-3.87-1.34-7.78-2.18-11.48a349.63,349.63,0,0,0-12.91-42c-4.94-13.46-10.3-26.58-15.87-39.57-11.25-26-23.15-51.17-36.13-76.54l-10.14-19.82-40,22.06Z"/><path class="cls-31" d="M3004.46,1170.31c34.15,33.34,53.81,109,68.34,171.94s2.72,158.39,2.72,158.39l-39.16,1.73s-2.24-97.2-17.65-139.31-83.23-134.29-76.59-163.39C2948,1174,2989.12,1155.33,3004.46,1170.31Z"/><path class="cls-17" d="M2624.06,1286.25c-3,8.6,7.36,24.1,26.46,33.37,17.61,8.55,33.44,4,37-4.47C2695.59,1296.21,2628.73,1272.94,2624.06,1286.25Z"/><path class="cls-18" d="M3058.86,1612.81c9.09-.71,19-20.58,19.59-47.65.57-25-10.07-41.34-19.29-41.38C3038.58,1523.68,3044.8,1613.9,3058.86,1612.81Z"/><path class="cls-18" d="M3038.67,1574.85c-3.81-1.25-5.62-12.08-2.57-25.56,2.81-12.43,9.38-19.5,13.33-18.6C3058.27,1532.68,3044.56,1576.79,3038.67,1574.85Z"/><path class="cls-26" d="M2734.89,2044.32s13.5-3.56,17.24-4.91c14.93-5.37,53.59-21.21,53.59-21.21s4.77,7.68,16.7,9.17a31.4,31.4,0,0,0,15.53-2.08c3.82-.11,7.11,6,7.34,13.75a25.84,25.84,0,0,1-.72,7l.32,10.7-113.95,3.43-.33-10.85A4.86,4.86,0,0,1,2734.89,2044.32Z"/><path class="cls-26" d="M3203.29,1943.75s.52-14,.33-17.93c-.79-15.84-4.67-57.44-4.67-57.44s8.74-2.32,13.64-13.3a31.5,31.5,0,0,0,2.53-15.46c1-3.69,7.85-5,15.29-3a25.26,25.26,0,0,1,6.46,2.71l10.34,2.81-29.95,110-10.46-2.85A4.86,4.86,0,0,1,3203.29,1943.75Z"/><path class="cls-17" d="M2648.83,1276c2.67-3,13.32-.35,24.48,7.8,10.29,7.52,14.16,16.36,11.77,19.63C2679.75,1310.79,2644.72,1280.68,2648.83,1276Z"/><path class="cls-19" d="M1229.77,150.7a3.53,3.53,0,0,0-3.46-3.57l-13.25-.2a3.51,3.51,0,1,0-.11,7l13.25.2A3.52,3.52,0,0,0,1229.77,150.7Z"/><path class="cls-19" d="M1274.75,147.89l-10.29-.16c-1.5,0-2.75,1.54-2.78,3.47s1.17,3.52,2.67,3.55l10.29.16c1.5,0,2.75-1.54,2.78-3.47S1276.25,147.91,1274.75,147.89Z"/><path class="cls-26" d="M1220.09,163.43c-2.19,0-4,2.65-4,6s1.67,6.1,3.86,6.13,4-2.66,4-6a8.62,8.62,0,0,0-.46-2.81l3.33-3.22Z"/><path class="cls-26" d="M1267.64,164.17c-2.18,0-4,2.65-4.05,6s1.68,6.1,3.86,6.13,4-2.66,4-6a8.41,8.41,0,0,0-.46-2.81l3.33-3.22Z"/><path class="cls-6" d="M1253.57,218.09s-13,9.13-21.42-4.67"/><path class="cls-26" d="M2890.72,1033.75c2.47.31,4.09,3.7,3.61,7.55s-2.87,6.74-5.35,6.42"/><path class="cls-26" d="M2932.29,1040.36c2.75.52,4.41,3.62,3.73,6.92s-3.45,5.58-6.2,5.07-4.41-3.62-3.72-6.93S2929.55,1039.85,2932.29,1040.36Z"/></g></g></svg>