<svg xmlns="http://www.w3.org/2000/svg" viewBox="0 0 3936.43 1446.17"><defs><style>.cls-1{fill:#ffd878;}.cls-2{fill:#8881b6;}.cls-3{fill:#f9c7ac;}.cls-4{fill:#f9cdaf;}.cls-5{fill:#f29585;}.cls-6{fill:#283271;}.cls-7{fill:#cd361c;}.cls-8{fill:#ea5c3c;}.cls-9{fill:#4b7aa0;}.cls-10{fill:#7aa3cd;}.cls-11{fill:#8fbde4;}.cls-12{fill:#3eb9cd;}.cls-13{fill:#ec6d40;}.cls-14{fill:#f39c5d;}.cls-15{fill:#fff;}.cls-16{fill:#ffd779;}.cls-17{fill:#f7af6f;}.cls-18{fill:#a1cb83;}.cls-19{fill:#7ea45d;}.cls-20{fill:#36d6d2;}.cls-21{fill:#1a1d3b;}.cls-22{fill:#ec6852;}.cls-23{fill:#59773a;}.cls-24{fill:#fae8db;}.cls-25{fill:#bbd8ee;}.cls-26{fill:#943438;}.cls-27{fill:#c45860;}.cls-28{fill:#fce4d4;}.cls-29{fill:#a29dcd;}.cls-30{fill:#bf4632;}.cls-31{fill:#fbf08a;}.cls-32{fill:#273583;}.cls-33{fill:#ffdb85;}.cls-34{fill:#b3c2e4;}.cls-35{fill:#fbc774;}.cls-36{fill:#d4dff2;}.cls-37{fill:#fbf8f8;}.cls-38{fill:#eaebf7;}.cls-39{fill:#535880;}.cls-40{fill:#8680b5;}.cls-41{fill:#eaa6a6;}</style></defs><g id="Слой_2" data-name="Слой 2"><g id="_лой_1" data-name="‘лой_1"><path class="cls-1" d="M23.9,967.7c55.17-344.86,317.25-654.31,983.41-833.49,938.29-252.37,2161-28.76,2503.24,218.58,428.5,309.66-52.27,703.51,189.34,963.93,28.41,30.62,60.2,67.76,92.52,107.34H82.93C12.52,1304.91-6.2,1155.82,23.9,967.7Z"/><path class="cls-2" d="M2733.06,193.11c7.06-30.6,49.53-68,80.92-68.52,17.89-.28,36.52,6.29,53.22-.16,21.34-8.25,29.57-33.22,40.6-53.26,22.34-40.57,66.38-68.32,112.63-71s93.15,19.92,120,57.69c15.86,22.35,25.24,49.66,45.49,68.13,52.34,47.78,157.22,20.81,187.65,84.82,19.35,40.71-8.6,92.66,11.69,132.92,24.91,49.41,104.77,48.72,129.6,98.18,5.35,10.67,7.45,22.69,8.3,34.6,4.25,59.1-22.48,119.56-69.06,156.19S3342.42,681.08,3286,663c-85.89-27.51-141.42-114.38-225.82-146.17-60.58-22.81-126-13.86-188.74-8.34C2828.43,512.29,2739,526,2720.1,471c-13.28-38.67,17.13-47.07,28.26-81.37C2768.79,326.66,2717.36,261.15,2733.06,193.11Z"/><path class="cls-2" d="M236.32,302.42c1.86-9.91,3.88-20,6.32-30.07,23-28.57,56.43-25.82,89.86-27.62,46.19-2.49,71.33-24.42,104.57-57.11,26.91-26.48,50.19-33.6,85.67-34.49,19.53-.49,37.34-1.15,56-8.34,33.54-12.92,59.65-39.79,85.76-65.07,34.1-33,75.26-67.75,124.28-55.1,25.7,6.64,41.35,22.24,68.91,20.56,39.89-2.44,69.8-18.16,110.59-3.6,56.92,20.31,97.19,72.71,152.7,96.66,52,22.42,108.62,26.57,163.41,36.67,3.33,1.85,6.6,3.78,9.72,5.91,41.39,28.22,52.55,77,60.92,121.6,2.31,12.35,4.44,25.74-2.53,36.74-9.58,15.13-32.82,19.86-52.92,18.24s-39.49-7.94-59.67-8.32c-46.84-.88-87.18,29.7-133.76,34-56.26,5.16-110.36-28.79-166.41-22.2-22.3,2.61-42.8,11.49-64.22,17.38a227,227,0,0,1-79.85,7,227.09,227.09,0,0,1-79.86-7c-21.41-5.89-41.92-14.77-64.21-17.38-56.06-6.59-110.16,27.36-166.42,22.2-46.57-4.27-86.92-34.85-133.76-34-20.17.38-39.58,6.69-59.67,8.32s-43.34-3.11-52.92-18.24C231.87,328.16,234,314.77,236.32,302.42Z"/><path class="cls-2" d="M801.71,618.42a3.07,3.07,0,0,1-.53,0,3,3,0,0,1-2.39-2.92q0-5.85-.22-11.72l-8.43-7.22c-36.91-31.51-72-61.59-92.72-100.86a166.51,166.51,0,0,0,.45,23.51c22.3,33.05,53.82,60,84.63,86.35,18,15.35,36.21,31,52.65,47.81q-.6-9-1.26-17.92c-9.46-9.1-19.32-17.86-29.26-26.45q.07,3.27,0,6.54A2.94,2.94,0,0,1,801.71,618.42Z"/><path class="cls-2" d="M685,465.17c-7.19-24.8-8.88-51.92-10.51-78.25-2.62-42.38-5.33-86.22-31.08-121a5.9,5.9,0,1,0-9.46,7c23.67,32,26.15,72.17,28.78,114.71.19,3,.38,6.12.58,9.19.82.47,1.46.89,2,1.23a5.24,5.24,0,0,0,3,1.11,4.73,4.73,0,0,1-1.34,9.36c-.39-.06-.76-.12-1.11-.19a15.3,15.3,0,0,1-1.71-.42c1.77,23.39,4.62,46.91,12.25,68.91,1.48,4.27,3.17,8.41,5,12.49.35-4.25.82-8.47,1.48-12.66C683.4,472.8,684.17,469,685,465.17Z"/><path class="cls-2" d="M697.42,495.65a156.84,156.84,0,0,1,1.66-16.39c3.65-23.28,12.29-44.88,21.44-67.74l2.34-5.85c-.51-1.95-1-3.92-1.43-5.9a193.23,193.23,0,0,1-3.71-27.39c-3.79,11.17-8.18,22.17-12.5,33-7.69,19.2-15.56,39-20.2,59.81.76,2.62,1.56,5.23,2.45,7.79A162.49,162.49,0,0,0,697.42,495.65Z"/><path class="cls-2" d="M742.22,344.62c4.79-26,3.74-52.08,2.07-74.18a8.25,8.25,0,1,0-16.45,1.25c1.59,21,2.61,45.8-1.83,69.92-.89,4.83-2,9.62-3.3,14.39.55,13.31,1.37,26.87,4,39.95C733.06,379.45,738.94,362.44,742.22,344.62Z"/><path class="cls-2" d="M827.73,695.77c-14.6-10.37-29.69-21.1-43.88-32.6-30.49-24.73-51.38-48.95-65.75-76.2a180.93,180.93,0,0,1-20.23-67.81,189.89,189.89,0,0,1-16.56-29.82c-2.91,35.36,4.79,72.31,22.21,105.36C719,624,741.2,649.85,773.49,676c14.59,11.83,29.9,22.71,44.7,33.23,6.89,4.9,13.91,9.9,20.88,15q-.51-10.68-1-21.15Q832.85,699.41,827.73,695.77Z"/><path class="cls-2" d="M697.42,495.65A162.49,162.49,0,0,1,687.47,473c-.89-2.56-1.69-5.17-2.45-7.79-.85,3.81-1.62,7.63-2.23,11.51-.66,4.19-1.13,8.41-1.48,12.66a189.89,189.89,0,0,0,16.56,29.82A166.51,166.51,0,0,1,697.42,495.65Z"/><path class="cls-3" d="M874.75,719.63c1.17-2.75,2.32-5.56,3.45-8.41-1.34-2.66-2.76-5.29-4.23-7.88Q874.36,711.43,874.75,719.63Z"/><path class="cls-2" d="M1178,333.38a8.22,8.22,0,0,0-11.65.42c-7.55,8.15-17.73,11.61-28.38,14.72-14.37,4.19-29.14,7.82-43.43,11.33-17.62,4.33-35.85,8.81-53.75,14.44-39.62,12.46-69.76,28.3-94.86,49.87-31.69,27.23-53.89,63.5-62.49,102.12-5.54,24.83-5.39,50.13-5.26,74.6.13,22.2.26,45.14-4,67-.49,2.5-1.07,5-1.66,7.45.08,1.39.16,2.79.23,4.19,3.88,5.45,7.52,11.07,10.87,16.88A209.88,209.88,0,0,0,890.33,671c4.58-23.43,4.45-47.22,4.32-70.22-.14-24.63-.27-47.9,4.85-70.9,7.83-35.15,28.12-68.24,57.13-93.17,23.34-20.06,51.64-34.88,89.06-46.64,17.4-5.47,35.37-9.89,52.74-14.16,14.46-3.55,29.41-7.22,44.11-11.51,11.9-3.47,25.45-8.12,35.85-19.34A8.29,8.29,0,0,0,1178,333.38Z"/><path class="cls-3" d="M872.72,679.47c-.07-1.4-.15-2.8-.23-4.19-.24,1-.47,1.93-.72,2.89C872.08,678.61,872.41,679,872.72,679.47Z"/><path class="cls-3" d="M872.72,679.47q.66,11.85,1.25,23.87c1.47,2.59,2.89,5.22,4.23,7.88,1.9-4.83,3.71-9.79,5.39-14.87C880.24,690.54,876.6,684.92,872.72,679.47Z"/><path class="cls-2" d="M833.89,635.4q.66,9,1.26,17.92c1.09,16.48,2,33,2.89,49.81q.53,10.47,1,21.15c.54,11.64,1.06,23.47,1.58,35.62,2.74,63.87-10.46,240.14-29.69,332h36c18.67-91,31.28-265.43,29.52-330-.29-10.69-2.24-54.11-3.81-82.45-.31-.44-.64-.86-1-1.3.25-1,.48-1.92.72-2.89-2.67-47.23-6.25-93-12.49-144.26-9.53-78.31,41.25-154.34,72.37-192.69,7.24-8.92,7.68-22.8,1-31s-18-7.63-25.21,1.29c-27.92,34.41-49.43,69.91-63.93,105.51-17.86,43.85-24.42,86.51-19.52,126.79C828.73,574,831.63,604.85,833.89,635.4Z"/><path class="cls-2" d="M722.49,350.56c-.44-11-.88-22.29-2.23-33.4-2.37-19.62-10.52-55.08-38.37-72.14a3,3,0,0,0-3.07,5c25.74,15.76,33.35,49.25,35.6,67.81,1.31,10.87,1.75,22.08,2.18,32.93.28,7.12.58,14.34,1.12,21.58,1.83-5.42,3.52-10.88,5-16.38C722.63,354.18,722.56,352.37,722.49,350.56Z"/><path class="cls-2" d="M756.05,477.42c8.35,14.55,17,29.6,23.74,45.05a229.63,229.63,0,0,1,18.78,81.26c2,1.74,4,3.47,6.06,5.22a235.57,235.57,0,0,0-19.45-88.85c-6.87-15.74-15.59-30.94-24-45.63-13.78-24-28-48.82-34-76-.18-.85-.33-1.71-.5-2.56q-1.89,4.89-3.82,9.72C729.62,431.36,743,454.75,756.05,477.42Z"/><path class="cls-2" d="M798.79,615.45a3,3,0,0,0,2.39,2.92,3.07,3.07,0,0,0,.53,0,2.94,2.94,0,0,0,3-2.93q0-3.27,0-6.54c-2-1.75-4-3.48-6.06-5.22Q798.84,609.6,798.79,615.45Z"/><path class="cls-2" d="M722.86,405.67q1.92-4.83,3.82-9.72c-2.6-13.08-3.42-26.64-4-39.95-1.47,5.5-3.16,11-5,16.38a193.23,193.23,0,0,0,3.71,27.39C721.86,401.75,722.35,403.72,722.86,405.67Z"/><path class="cls-2" d="M661.61,396C603.55,368.36,558.5,312.21,544,249.4a4.71,4.71,0,1,0-9.18,2.13,228.62,228.62,0,0,0,122.72,153,16.67,16.67,0,0,1,2.47,1.45,13.93,13.93,0,0,0,4.05,2c-.28-3.7-.53-7.4-.77-11.09C662.83,396.57,662.28,396.27,661.61,396Z"/><path class="cls-2" d="M666.92,408.55a4.73,4.73,0,0,0,1.34-9.36,5.24,5.24,0,0,1-3-1.11c-.5-.34-1.14-.76-2-1.23.24,3.69.49,7.39.77,11.09a15.3,15.3,0,0,0,1.71.42C666.16,408.43,666.53,408.49,666.92,408.55Z"/><path class="cls-2" d="M2996.59,546.39a3.07,3.07,0,0,1-.53,0,3,3,0,0,1-2.39-2.93q0-5.85-.21-11.71l-8.44-7.22c-36.91-31.51-72-61.59-92.72-100.86a166.54,166.54,0,0,0,.45,23.51c22.3,33.05,53.82,60,84.64,86.35,18,15.35,36.2,30.95,52.64,47.8q-.6-8.94-1.26-17.91c-9.46-9.1-19.32-17.86-29.25-26.46,0,2.19.06,4.37,0,6.55A3,3,0,0,1,2996.59,546.39Z"/><path class="cls-2" d="M3070.9,462.3a8.22,8.22,0,0,0-7.68,8.77c.75,11.08-3.72,20.87-8.76,30.75-6.81,13.33-14.3,26.57-21.54,39.37-8.94,15.79-18.19,32.13-26.37,49-18.11,37.38-27.26,70.18-28.78,103.23-1.93,41.75,9.24,82.78,31.44,115.53,14.27,21.06,32.78,38.31,50.68,55,16.23,15.13,33,30.78,46,48.83,1.49,2.08,2.9,4.19,4.28,6.32l3.21,2.71c6.63.92,13.21,2.12,19.74,3.67a208.7,208.7,0,0,0-13.81-22.29c-13.91-19.4-31.31-35.62-48.14-51.31-18-16.79-35-32.66-48.26-52.16-20.2-29.82-30.36-67.28-28.6-105.49,1.42-30.74,10-61.5,27.15-96.79,8-16.42,17.07-32.52,25.88-48.09,7.33-13,14.91-26.35,21.88-40,5.63-11,11.55-24.08,10.52-39.35A8.29,8.29,0,0,0,3070.9,462.3Z"/><path class="cls-2" d="M2944.84,551.13c8.35,14.55,17,29.6,23.74,45a229.91,229.91,0,0,1,18.79,81.26l6.06,5.22A235.58,235.58,0,0,0,2974,593.81c-6.87-15.74-15.59-30.94-24-45.63-13.78-24-28-48.82-34-76-.18-.85-.33-1.71-.5-2.56q-1.89,4.89-3.82,9.72C2918.41,505.08,2931.83,528.46,2944.84,551.13Z"/><path class="cls-2" d="M3148.31,478.43c-23.17,60-75.8,109.09-137.34,128.2a4.71,4.71,0,1,0,2.81,9,228.61,228.61,0,0,0,143.35-133.81,16.47,16.47,0,0,1,1.25-2.58,14,14,0,0,0,1.7-4.19q-5.51.82-11,1.6C3148.83,477.17,3148.58,477.74,3148.31,478.43Z"/><polygon class="cls-4" points="2062.1 964.1 2287.32 964.1 2253.92 888.85 2028.7 888.85 2062.1 964.1"/><path class="cls-5" d="M2078.87,710.42l273.07,30.67c22,2.47,41.89-12,45.38-33,4.17-45.78-29.44-64.82-76-75.62l-231.72-56.3Z"/><path class="cls-6" d="M1957.72,741.2c64.85,14.26,128.64,24.36,260.81,36.56,16.53,1.51,31.14-9.94,33-25.84l16.54-134.38c1.78-15.36-25.26-24.29-40.93-27.7-109.07-23.78-201.29-35.1-275.42-51.36C1832.53,512.34,1836.27,714.5,1957.72,741.2Z"/><path class="cls-7" d="M2257.28,925.7c.06-1.26.13-2.53.2-3.8a19.49,19.49,0,0,1,1.4-7.56c1-2,2.56-4.52.43-6.36-.4-.35-.9-.63-1.25-1-1-1.05-.41-2.33,0-3.43a2.42,2.42,0,0,0-1.09-3.27,2.85,2.85,0,0,0-3.34,1.17c-.61.93-.91,2.07-2,2.67s-3.36,0-3.26-1.11c0-.34.29-.63.3-1,0-.83-1.49-1.42-2.46-1.16a3.38,3.38,0,0,0-1.92,1.72c-1.39-.66-1.05-2.3-2.1-3.27a3.31,3.31,0,0,0-3.82-.13,4.59,4.59,0,0,0-1.5,2.87c-1.77.3-3.11-2.43-4.92-2.23-1.4.16-1.11,1.8-.33,2.84s5.93,11.27,5,12c6.11,2.32,7.93-2.14,11.81,2.26C2251.14,920,2253.47,923.4,2257.28,925.7Z"/><path class="cls-8" d="M2299.67,966.31a39.88,39.88,0,0,0-6.93-10.69c-5.5-5.83-13.28-9.3-20.27-13.57s-13.76-10.1-15.06-17.69c-.78-4.58.25-10-3.37-13.23-3.83-3.44-13.9-8.1-17.19-2.36-1.58,2.76-.6,6.6-1.37,9.61a19.25,19.25,0,0,1-5.11,8.94c-4.5,4.41-10.91,6.67-16.43,10-11.14,6.65-18.4,17.44-23.11,29Z"/><path class="cls-7" d="M2225.42,938.66a11.06,11.06,0,0,0-3.35,4,2.54,2.54,0,0,0-.31,1.89,2.94,2.94,0,0,0,1.93,1.77,4.09,4.09,0,0,0,3.81-.91,6.78,6.78,0,0,0,2.29-2.4,2.7,2.7,0,0,0-1.07-3.16c-1.21-1-3.48-1.39-4.4-.67Z"/><path class="cls-7" d="M2256.43,941.59a6.8,6.8,0,0,0-3.7,4c-1.05,2.84.5,4.28,2.5,4.92,3.34,1.09,7.6-3.2,8.21-4.83a3.16,3.16,0,0,0-2.31-4.19A7.17,7.17,0,0,0,2256.43,941.59Z"/><path class="cls-7" d="M2239.77,931.82c-1.75,0-3.65.84-4,1.77-.29.78.56,1.31,1.88,1.74,2.82.91,6.66.58,7.3-1.14.18-.75-.51-1.59-1.81-2a5.44,5.44,0,0,0-1.25-.24Z"/><path class="cls-7" d="M2285.65,966.31a8.42,8.42,0,0,0-3.36-2.48c-2-.65-3.52.18-4,1.51a9.52,9.52,0,0,1,2.11,1Z"/><path class="cls-7" d="M2221.44,956.89c-2.62,1.56-5.86,2.92-6.8,5.46-.36,1,.2,1.69,1.79,2.21.52.17,7.73-2.66,8.22-4S2223.89,957.89,2221.44,956.89Z"/><path class="cls-7" d="M2244.48,956.42c2,1.66-.19,3.92,1.72,4.66s3-.75,3.42-2,.48-3.48-1.54-4.13c-2.17-.71-3.09-.16-3.58,1.15a2,2,0,0,0,0,1.4Z"/><path class="cls-7" d="M2228.13,951.62c.74-1.24,2.7-1.37,4.49-.79,2.72.89,4.15,3.19,3.7,4.41-.37,1-2.12,1.28-3.15,1-2.16-.71-2.62-4.2-3-4.31C2229.71,951.72,2228.71,951.81,2228.13,951.62Z"/><path class="cls-7" d="M2239.8,941.06a2.45,2.45,0,0,0-2.06,1.46c-.3.79,0,1.68,1.27,2.08,1.92.63,3.22-1.3,4-2.34.08-.22-.27-.71-.85-.9S2239.8,941.06,2239.8,941.06Z"/><path class="cls-9" d="M2480.41,885.72c13.07,15.4,24.38,33.61,25.25,52.24.23,4.82-6.42,7.3-10.31,3.84a113.31,113.31,0,0,0-30.64-19.4c-14.73-6.35-31.22-10-44.33-18.58-19.15-12.57-36.38-44.65-7.84-57.17C2440.78,834.25,2466.59,869.45,2480.41,885.72Z"/><path class="cls-10" d="M2393.76,966.31h20.54a694,694,0,0,0,9.23-167.06h-23.16c2.26,51.21,3.72,103.75-4.52,155.13C2395.21,958.35,2394.5,962.33,2393.76,966.31Z"/><path class="cls-10" d="M2372.89,966.31h18.93c.76-4.07,1.48-8.14,2.13-12.2,8.23-51.24,6.77-103.72,4.51-154.86h-25.14C2375,854.77,2374.51,910.6,2372.89,966.31Z"/><path class="cls-10" d="M2416.24,966.31h16.21c2.57-11.35,5-22.85,6.87-34.32,7.49-46.2,5.94-92.35,2.74-132.74h-16.61A696,696,0,0,1,2416.24,966.31Z"/><path class="cls-10" d="M2434.41,966.31h9.38c8-38.52,13.52-79.36,13.27-122.15a328.85,328.85,0,0,0-3.06-44.91h-10c3.2,40.46,4.74,86.69-2.77,133C2439.36,943.65,2437,955.06,2434.41,966.31Z"/><path class="cls-10" d="M2347.91,966.31H2371c1.62-55.71,2.07-111.54.42-167.06H2338c.29,53.51,4.88,107.76,9.34,160.28C2347.54,961.78,2347.72,964.06,2347.91,966.31Z"/><path class="cls-10" d="M2346,966.31c-.19-2.21-.36-4.44-.55-6.63-4.46-52.57-9.06-106.85-9.34-160.43h-32.65c-5.29,68.51,5.45,119.14,17.14,167.06Z"/><path class="cls-10" d="M2267.78,966.31H2289c-17.08-48.86-17.81-99-18.51-147.62-.09-6.4-.19-12.91-.32-19.44H2252c-3.83,23.65-5.53,45.93,2.13,113.1A207.58,207.58,0,0,0,2267.78,966.31Z"/><path class="cls-10" d="M2291,966.31h27.59c-11.68-47.9-22.38-98.55-17.1-167.06H2272.1c.13,6.52.23,13,.32,19.41C2273.12,867.34,2273.86,917.53,2291,966.31Z"/><path class="cls-11" d="M2432.45,966.31h2c2.54-11.25,5-22.66,6.8-34,7.51-46.32,6-92.55,2.77-133h-1.92c3.2,40.39,4.75,86.54-2.74,132.74C2437.46,943.46,2435,955,2432.45,966.31Z"/><path class="cls-12" d="M2422.53,786l1.91-.14q.57,6.7,1,13.43h-1.92Q2423.09,792.61,2422.53,786Z"/><path class="cls-11" d="M2414.3,966.31h1.94a696,696,0,0,0,9.21-167.06h-1.92A694,694,0,0,1,2414.3,966.31Z"/><path class="cls-12" d="M2397.78,784.22l1.91-.08q.34,7.53.68,15.11h-1.91Q2398.11,791.71,2397.78,784.22Z"/><path class="cls-11" d="M2391.82,966.31h1.94c.74-4,1.45-8,2.09-11.93,8.24-51.38,6.78-103.92,4.52-155.13h-1.91c2.26,51.14,3.72,103.62-4.51,154.86C2393.3,958.17,2392.58,962.24,2391.82,966.31Z"/><path class="cls-12" d="M2371,787.68l1.91-.06q.21,5.82.38,11.63h-1.92C2371.29,795.39,2371.17,791.54,2371,787.68Z"/><path class="cls-11" d="M2371,966.31h1.91c1.62-55.71,2.08-111.54.43-167.06h-1.92C2373.05,854.77,2372.6,910.6,2371,966.31Z"/><path class="cls-12" d="M2336.07,793H2338c0,2.07,0,4.14,0,6.22h-1.91C2336.09,797.17,2336.07,795.1,2336.07,793Z"/><path class="cls-11" d="M2346,966.31h1.92c-.19-2.25-.37-4.53-.56-6.78-4.46-52.52-9-106.77-9.34-160.28h-1.91c.28,53.58,4.88,107.86,9.34,160.43C2345.63,961.87,2345.8,964.1,2346,966.31Z"/><path class="cls-12" d="M2302.56,787.62l1.91.17c-.39,3.88-.73,7.69-1,11.46h-1.92Q2302,793.52,2302.56,787.62Z"/><path class="cls-11" d="M2320.59,966.31c-11.69-47.92-22.43-98.55-17.14-167.06h-1.92c-5.28,68.51,5.42,119.16,17.1,167.06Z"/><path class="cls-11" d="M2289,966.31h2c-17.18-48.78-17.92-99-18.62-147.65-.09-6.39-.19-12.89-.32-19.41h-1.91c.13,6.53.23,13,.32,19.44C2271.21,867.31,2271.94,917.45,2289,966.31Z"/><path class="cls-13" d="M2251.56,800.52c0,14.26,45.25,25.81,101.07,25.81s101.07-11.55,101.07-25.81-45.25-25.8-101.07-25.8S2251.56,786.27,2251.56,800.52Z"/><path class="cls-14" d="M2275.11,799.84c0-13.51,44.66-20.8,86.68-20.8s86.69,7.29,86.69,20.8-44.67,20.81-86.69,20.81S2275.11,813.35,2275.11,799.84Zm169.35,0c0-8.06-33.95-17-82.67-17s-82.67,9-82.67,17,34,17,82.67,17S2444.46,807.9,2444.46,799.84Z"/><path class="cls-15" d="M2349.19,799.43c0,4,12.49,7.32,27.91,7.32s27.9-3.28,27.9-7.32-12.49-7.32-27.9-7.32S2349.19,795.39,2349.19,799.43Z"/><path class="cls-7" d="M2327,848.81a63.89,63.89,0,0,1,11.27-2.06c2.23-.21,4.55-.32,6.38-1.27,2.68-1.4,3.86-4.4,3.85-7.46s-1.07-6.2-2.1-9.28a4.64,4.64,0,0,0-1.81-2.77,4.53,4.53,0,0,0-1.79-.5c-11.09-1.32-21,5.51-22.11,15.27a38.45,38.45,0,0,1,7.42,7.15Z"/><path class="cls-16" d="M2182.36,966.31c.8-1.07,1.56-2.17,2.38-3.22,24.35-31.36,57.06-56.58,93.37-75.39,4.06-2.1,8.34-4.29,10.74-8s1.94-9.44-2.18-11.6a12.49,12.49,0,0,0-6.28-1c-14.86.57-28.47,7.14-41.51,13.6-23.93,11.84-48.25,24.1-66.62,42.62-12.44,12.55-21.39,27.19-28.1,43Z"/><path class="cls-16" d="M2161.37,966.31c3.38-4.59,7-9,10.78-13.29,20.19-22.49,45.3-40.64,70.35-58.28a76.88,76.88,0,0,1,19.56-10c8.2-2.78,15.41-4.47,23.48-.65a229.56,229.56,0,0,1,48.31-38.23,3.34,3.34,0,0,0,1.35-4.42l-2.73-5.49a4,4,0,0,0-5.83-1.34,97,97,0,0,1-60.25,19.18c-10.26-.22-20.52-2-30.72-1.32-14.48,1-27.9,7-40.33,13.75a192.55,192.55,0,0,0-35.24,24c-20.6,18.13-36.92,49.56-46.35,74.7,6.4,3.54,15.13-1.53,21.83,1.36Z"/><path class="cls-17" d="M2137.36,966.31c5.76-10.16,13.52-20.48,24-31.83,11-11.93,21.57-21.33,32.25-28.74,14.28-9.9,30.51-17.46,46.2-24.77l45.76-21.3-1.17-2.11-45.75,21.3c-15.8,7.35-32.13,14.95-46.57,25-10.83,7.51-21.51,17-32.65,29.08-10.86,11.75-18.85,22.43-24.73,33l1,.41Z"/><path class="cls-16" d="M2392.08,966.31h244.43c2.5-1.44,5-2.92,7.37-4.48-11.46-22.5-21.67-40.83-45.23-56.1-26.62-17.27-58.75-26.06-90.38-31-14.4-2.25-29.21-3.83-43.51-1.1-12.32,2.34-23.69,7.77-34.88,13.14l-34.36,16.49c-13.79,6.62-29.66,16.45-28.71,30.93C2367.7,947.78,2382.74,955.59,2392.08,966.31Z"/><path class="cls-18" d="M2543.36,866.9A84.39,84.39,0,0,0,2554.93,822c-.09-3.19-.35-6.49.85-9.48s4.42-5.56,7.77-5c3.6.6,5.55,4.28,6.42,7.61,3,11.48-.33,23.57-4.87,34.6-3,7.22-7.78,29.54-14.3,34.07C2538.63,892.25,2539.21,874,2543.36,866.9Z"/><path class="cls-19" d="M2577.72,896c-1.74.25-3.66-.23-5.18.59-2.47,1.33-1.95,4.69-2.37,7.33-.89,5.66-8.63,9.25-14,6.49-4.1-2.11-6.45-7-11-7.83-2.17-.41-4.38.2-6.54.63a41.35,41.35,0,0,1-22.37-1.82c-2.82-1-5.85-2.87-6.13-5.71-.14-1.4.44-2.83.1-4.2-.95-3.88-7.27-3.41-10.4-6.1s-2.2-7.09-1.12-10.76a6.74,6.74,0,0,1,1.3-2.74c2.23-2.42,6.46-1,9.75-1.79s5.32-3.77,8.44-4.78a11.62,11.62,0,0,1,7,.36c9.8,3.12,16.9,12.24,27.14,13.65,7.23,1,19-3.14,25.58,1C2582.76,883.51,2586.93,894.72,2577.72,896Z"/><path class="cls-17" d="M2345.3,962.08a17.08,17.08,0,0,1,1,4.23h129a93.2,93.2,0,0,0-9.11-9.46c-3.19-2.82-6.89-5.5-11.32-6.55-6.47-1.53-13,.67-19.57.62-10.17-.07-19.66-5.5-27.09-11.64s-13.68-13.26-22-18.59-19.69-8.63-28.73-5.41a27.24,27.24,0,0,0-9.71,6.52c-8.42,8.19-13.92,19.83-8.43,30.35C2341.14,955.53,2343.94,958.6,2345.3,962.08Z"/><path class="cls-6" d="M2041.24,657.72c-8-35.23-28.33-60.92-52.17-84.27-61.74-60.48-149.62-60.56-204-38.89C1758.21,545.28,1696,572.16,1672,591c-166.64,130.88-97.54,594.36-133.43,681.07-19.55,47.23-48.12,167.48,10.48,163,59.65-4.55,97.63-21.31,191.06-33.35,105.32-13.57,153.5,28.11,218.49,25.18,90.18-4.07,82.06-61.42,74.77-82.88-50.61-149-37.51-230.4-38.54-310.32-.15-11.85-1.36-22.86-1.14-33,.57-26,17.61-43.48,17.29-57.84-.59-26.84-1-42.62,8.67-81.51C2033.16,806.9,2047.33,684.56,2041.24,657.72Z"/><path class="cls-6" d="M2025,1292.2c-7.07-20.86-19-41.81-15-63.56,3.89-20.73,21.36-35.44,28.94-55,13.47-34.66-6.79-74.21-1.65-111.32,5-36.19,21.24-42.45,17.46-86.56-1.14-13.34-7.75-40.7-12.13-53.25-10.13-29,2.42-63,5.77-93.75a1306.56,1306.56,0,0,0,7.64-138c.06-23.58-.78-48.21-11.44-68.88-7.52-14.58-19.42-26.07-32.08-35.81-35.1-27-79.72-42.57-122.22-33.81-19.54,4-40.91,17-42.25,38.2-1.43,22.53,19.73,37.91,34.84,53.75,40.64,42.59,45,111.48,33.2,170.89s-36.67,115.41-45.7,175.36c-9.35,62.06-1.26,125.41,6.83,187.67,6.16,47.34,12.57,95.6,32.36,138.5,14.51,31.47,50.53,83.22,87.87,85.09C2043.54,1404,2036,1324.6,2025,1292.2Z"/><path class="cls-5" d="M2371.89,1161.94c3.19,2.56,8.34,1.35,11.44-2.67l28-36.35c3.11-4,3-9.41-.16-12s-8.34-1.35-11.44,2.67l-28,36.35C2368.62,1154,2368.7,1159.39,2371.89,1161.94Z"/><path class="cls-5" d="M2467.41,1142.39c-2.31,7.07-5.29,14.1-9.7,18.32-3.41,3.26-7.36,4.54-11.21,5.5a91.08,91.08,0,0,1-29.69,2.48c-9-.76-19.11-4.31-22.43-16.69-3.2-12-.35-25.74,5.19-37,10.51-21.33,14.43-28.87,30.13-39.9,19.66-13.8,36.19-11.13,38.32,20.37C2469.12,1111.69,2472.45,1127,2467.41,1142.39Z"/><path class="cls-5" d="M2408.06,1148l5,61.17a9.23,9.23,0,0,1-6.68,9.38,6.2,6.2,0,0,1-7.92-5.7l-5-61.16a9.25,9.25,0,0,1,6.68-9.38A6.2,6.2,0,0,1,2408.06,1148Z"/><path class="cls-5" d="M2428.33,1149.13l5,61.17a9.27,9.27,0,0,1-6.69,9.38,6.2,6.2,0,0,1-7.92-5.7l-5-61.17a9.26,9.26,0,0,1,6.68-9.38A6.2,6.2,0,0,1,2428.33,1149.13Z"/><path class="cls-5" d="M2448.06,1136.06l5,61.17a9.26,9.26,0,0,1-6.68,9.38,6.2,6.2,0,0,1-7.92-5.7l-5-61.17a9.25,9.25,0,0,1,6.68-9.38A6.2,6.2,0,0,1,2448.06,1136.06Z"/><path class="cls-5" d="M2465.37,1115.49l5,61.17a9.23,9.23,0,0,1-6.68,9.37,6.19,6.19,0,0,1-7.92-5.69l-5-61.17a9.25,9.25,0,0,1,6.68-9.38A6.2,6.2,0,0,1,2465.37,1115.49Z"/><path class="cls-5" d="M2408.79,1113.06c-19.93-87.82-43.1-171.28-71.66-274.58-14.87-31.81-35.18-95.61-46.64-132.79a29.58,29.58,0,0,1,12.67-33.56l.66-.42c44.61-28.42,72.77-23,84.52-4.54,56.17,88.32,74.89,306,79.45,438.73Z"/><path class="cls-20" d="M1844.75,387.08c-4.81-6.61-11-13.47-10.34-21.63s8.35-15.41,7-23.62c-.49-3.06-2.21-5.75-3.86-8.37-9-14.32-17.17-32.49-9.28-47.45,6.16-11.66,20.35-17.31,26.66-28.9,3.94-7.21,4.5-16.25,10-22.4s14.38-7.78,21.36-12.19c9.06-5.71,14.4-15.83,22.69-22.61a38.94,38.94,0,0,1,26.36-8.63c6.12.31,12.11,2.09,18.24,2.22,7.88.16,15.56-2.4,23.42-3s16.82,1.46,20.9,8.2c1.77,2.93,2.57,6.63,5.31,8.68,4.32,3.21,10.32.46,15.27-1.66a56.74,56.74,0,0,1,22.11-4.56c9.92,0,21.19,3.78,24.71,13.06.72,1.92,1.08,4,2.1,5.75,5.57,9.64,24.75,3.47,28.66,13.89,1.78,4.74-1.21,10.2.26,15,1.57,5.17,7.55,7.76,9.9,12.62,4,8.21-3.88,16.79-9.25,24.16a50.78,50.78,0,0,0-9.53,25.87c-.36,4.77-2.26,11.5-6.91,10.4-1.78-.42-3-2-4.07-3.51-4.86-6.83-9.92-13.92-17.23-18-6.42-3.6-14-4.54-21.31-5.1a261.53,261.53,0,0,0-44.07.41c-17.87,1.68-36.25,5.51-50.63,16.26-16.86,12.6-26.17,33.58-27.86,54.57-.76,9.4-.14,18.94-1.87,28.21a57.19,57.19,0,0,1-24,36.49c-11.4,7.68-24.86,6.47-29.86-7.6C1855,410.69,1853.23,398.72,1844.75,387.08Z"/><path class="cls-20" d="M2073.2,355.08c11.17-17.31,16.42-38,11.56-57.35-21-9-44.35-13.3-66.88-14.19a204.3,204.3,0,0,0-80.26,12.88,194.69,194.69,0,0,0-82.14,58.74c.09.2.17.41.25.61A345.81,345.81,0,0,0,1858.2,409c1.65,14,5.27,26.09,10.79,35.82,0,.09,8.51,13.24,8.52,13.14a129.88,129.88,0,0,1,4.52-25,78.92,78.92,0,0,1-1.68-28.44c-13.09-2.92-20.54-17.6-17.08-32.84,3.34-14.71,15.62-24.45,27.85-22.53l16.19,7.45c55.79,2.73,52.08-57.45,102.92-55.82,33,1.06,51.21,10.89,59.94,17.65A91.44,91.44,0,0,1,2073.2,355.08Z"/><path class="cls-5" d="M2010.23,300.79c-50.84-1.63-47.13,58.55-102.92,55.82l-16.19-7.45c-12.23-1.92-24.51,7.82-27.85,22.53-3.46,15.24,4,29.92,16.64,32.79A90.46,90.46,0,0,0,1882,433c8.31,34.71,38.89,63.57,74.79,71.72,47.78,10.85,87.34-18.88,98.52-68.12l16.36-72.06c.19-.85.25-1.69.42-2.53a91.36,91.36,0,0,0-1.95-43.54C2061.44,311.68,2043.27,301.85,2010.23,300.79Z"/><path class="cls-5" d="M1877.77,588a31.48,31.48,0,0,0,40.31-19l56.74-158.29a16.13,16.13,0,0,0-9.4-20.71l-59.7-21.46a16.14,16.14,0,0,0-20.44,10L1828.52,536.8A31.47,31.47,0,0,0,1847.46,577Z"/><path class="cls-20" d="M1996.33,340.19l-19.71-4.37a5.36,5.36,0,1,0-2.33,10.47l19.72,4.38a5.37,5.37,0,1,0,2.32-10.48Z"/><path class="cls-20" d="M2074.29,356.31l-19.72-4.38a5.37,5.37,0,1,0-2.32,10.48l19.72,4.37a5.36,5.36,0,0,0,2.32-10.47Z"/><path class="cls-21" d="M2055.17,381.34c-1.14,5.14-5,8.73-8.31,8s-4.93-5.53-3.79-10.67,4.78-8.7,8.12-8S2056.31,376.2,2055.17,381.34Z"/><path class="cls-21" d="M1980.91,366.35c-1.14,5.14-4.56,8.73-8.59,7.51-3.28-1-4.64-5.05-3.5-10.19s4.77-8.71,8.11-8S1982.05,361.21,1980.91,366.35Z"/><path class="cls-22" d="M2024.1,405.64l-.36-1.92a10.66,10.66,0,0,1-9.37,7.08l-10.89.59a8.1,8.1,0,0,1-7.91-5.16l-.43.95a8.36,8.36,0,0,0,8,11.82l10.89-.58A10.8,10.8,0,0,0,2024.1,405.64Z"/><path class="cls-15" d="M1969.05,430.87l28.35,14.89S1975.71,453.56,1969.05,430.87Z"/><path class="cls-5" d="M1936.87,576.87c2.91,21,13.69,64.91-20.3,57.22s-102.29-63.89-97-84.49,37-31.08,71-23.4S1932.13,542.65,1936.87,576.87Z"/><path class="cls-19" d="M2073.13,874.22c4.14-8.5,3-22.65,2-29.66-1.43-9.82-6.32-18.72-9.88-28a107.65,107.65,0,0,1-7-45.15c1-16.79,6-33.07,10.75-49.21.76-2.6,1.51-5.46.45-8-1.23-2.86-4.61-4.33-7.72-4.16s-6,1.64-8.64,3.26c-23.46,14.31-36.86,42-37.89,69.46-.78,20.7,4.81,41.13,14.08,59.77a25.92,25.92,0,0,0,9.62,10.56Z"/><path class="cls-19" d="M2139.36,914.94a124.85,124.85,0,0,0,41.35-1.76,94.21,94.21,0,0,0,22.08-7.52c17.12-8.54,30.56-23.57,38.94-40.77,4.86-10,16.54-36,10.34-46.76-8.37-14.57-15.15,9.52-17.68,15a103.56,103.56,0,0,1-21.77,30.55c-18,17.55-42.21,29-67.41,30.4-12.5.71-25.17-.81-37.5,1.4Z"/><path class="cls-18" d="M2036.71,829.82c2.89,7.4,7.29,14.09,11.66,20.71,2.51,3.8,5,8.43,7.64,13.16l39,24c15.4-5.32,28.81-16.08,36.32-30.71,9.49-18.47,9.71-41.27,22.11-57.92,6.81-9.13,16.67-15.51,24.17-24.08,6.76-7.73,11.44-17.1,14.7-26.83,4.22-12.62,6-26.88.42-38.95A35.35,35.35,0,0,0,2165,689.33c-16.57-1.77-32.28,8.39-48.94,8.73-10.43.22-20.78-3.44-31.15-2.25-18.15,2.08-31.38,18.29-39.34,34.74a145.16,145.16,0,0,0-13.5,78.77A80.74,80.74,0,0,0,2036.71,829.82Z"/><path class="cls-18" d="M2130.4,909.44c29.57,3.38,60.52-5.31,83.58-24.22,24.69-20.24,45.35-58.38,40.62-91.35-3.95-27.56-38.48-51.24-62-28.87-10,9.49-13.67,24.83-25.22,32.33-7.85,5.1-18.15,5.67-25.51,11.46-7.72,6.06-10.41,16.32-13.61,25.6-4.64,13.44-12,26.94-24.49,33.69-3.46,1.87-7.33,3.23-10.06,6.07a13.64,13.64,0,0,0-3.44,10.63Z"/><path class="cls-19" d="M2223.93,800.92c10.45-17.75,18.66-40,9.49-58.43-4-8.06-10.93-14.32-18.36-19.41-14.88-10.18-33.08-16.46-50.95-14.11s-34.93,14.49-40.06,31.76c-3.69,12.4-1.18,25.95-4.63,38.41-7.59,27.37-41.61,42.86-44.64,71.1a35.64,35.64,0,0,0,53.34,34.65c11.35-6.58,18.43-19,29.9-25.39,11.12-6.2,24.84-5.88,36.36-11.29,11.09-5.21,19.23-15.38,24.38-26.5s7.65-23.24,10.1-35.25Z"/><path class="cls-23" d="M2093.73,876.71a1.42,1.42,0,0,1-.67-2c14.68-27.62,29.86-56.18,52.56-78.79,4.54-4.52,9.4-8.81,14.11-13,5.23-4.61,10.64-9.39,15.57-14.45a141.13,141.13,0,0,0,29.92-46.34,1.4,1.4,0,0,1,1.83-.8,1.36,1.36,0,0,1,.8,1.83,143.69,143.69,0,0,1-30.53,47.28c-5,5.14-10.45,10-15.72,14.6-4.67,4.13-9.5,8.4-14,12.85-22.4,22.31-37.48,50.68-52.07,78.12A1.41,1.41,0,0,1,2093.73,876.71Z"/><path class="cls-23" d="M2174.71,772.13a1.38,1.38,0,0,1-.64-.58,1.4,1.4,0,0,1,.51-1.93c3.49-2,8-2.61,13.38-1.7,2.17.37,4.31.93,6.37,1.47s4.06,1.06,6.1,1.41a35.81,35.81,0,0,0,31.24-10.17,1.41,1.41,0,1,1,2,2,38.66,38.66,0,0,1-33.75,11c-2.16-.37-4.28-.93-6.34-1.46s-4.08-1.07-6.12-1.42c-4.72-.8-8.58-.35-11.49,1.35A1.4,1.4,0,0,1,2174.71,772.13Z"/><path class="cls-23" d="M2141.41,803.1a1.25,1.25,0,0,1-.45-.31,1.41,1.41,0,0,1,.05-2,10.91,10.91,0,0,1,8.58-2.64,27.28,27.28,0,0,1,8.13,2.39c2.41,1,4.81,2.09,7.19,3.16,6.55,2.94,13.29,5.94,20.26,7.76,10.66,2.78,20.59,2.1,28-1.93a1.42,1.42,0,0,1,1.36,2.49c-10.27,5.6-22,4.27-30,2.18-7.2-1.88-14.06-4.93-20.7-7.92-2.37-1-4.75-2.13-7.14-3.13a24.32,24.32,0,0,0-7.27-2.18,8.16,8.16,0,0,0-6.39,1.86A1.4,1.4,0,0,1,2141.41,803.1Z"/><path class="cls-23" d="M2150.85,845.94a55.6,55.6,0,0,1-11.54-7.13c-.86-.66-1.7-1.35-2.55-2-3.11-2.53-6.09-5-9.52-6.44-1-.43-3.46-1.32-4.83-.18a1.42,1.42,0,0,1-1.81-2.18c1.84-1.53,4.61-1.62,7.78-.23,3.86,1.63,7,4.29,10.17,6.83.83.67,1.66,1.35,2.5,2a47.67,47.67,0,0,0,14.54,8.16,26.58,26.58,0,0,0,16.11.4,1.41,1.41,0,0,1,.87,2.69,29.2,29.2,0,0,1-17.84-.4A35.51,35.51,0,0,1,2150.85,845.94Z"/><path class="cls-23" d="M2105.81,855.52a1.36,1.36,0,0,1-.43-.29,1.42,1.42,0,0,1,0-2,8.35,8.35,0,0,1,7.77-1.82,23.8,23.8,0,0,1,5.41,2.12l1.28.62c3.45,1.64,10.15,4,15.63,1.28a1.42,1.42,0,1,1,1.27,2.53c-4.85,2.43-11.26,2-18.12-1.25l-1.31-.64a20.83,20.83,0,0,0-4.76-1.9c-1.63-.35-3.84-.26-5.17,1.06A1.4,1.4,0,0,1,2105.81,855.52Z"/><path class="cls-23" d="M2185.11,759.77l-.18-.1a1.42,1.42,0,0,1-.44-2c1.52-2.38,1.6-5.91.22-9.67a46.48,46.48,0,0,0-2.4-5.21,55.24,55.24,0,0,1-2.35-5c-2.62-6.75-2.18-14,1.16-19.32a1.44,1.44,0,0,1,2-.45,1.42,1.42,0,0,1,.45,2c-2.87,4.59-3.22,10.87-.92,16.8.63,1.61,1.41,3.14,2.23,4.76a48,48,0,0,1,2.54,5.53c1,2.7,2.24,7.88-.49,12.16A1.42,1.42,0,0,1,2185.11,759.77Z"/><path class="cls-23" d="M2160.58,785.23a1.44,1.44,0,0,1-.65-2,29.82,29.82,0,0,0,3.08-21.8,64.92,64.92,0,0,0-3.92-10.4c-2.61-5.86-5.3-11.93-4.69-18.52a1.41,1.41,0,0,1,1.53-1.28,1.43,1.43,0,0,1,1.29,1.54c-.54,5.86,1.88,11.33,4.45,17.12a66.7,66.7,0,0,1,4.09,10.87,32.66,32.66,0,0,1-3.38,23.89A1.41,1.41,0,0,1,2160.58,785.23Z"/><path class="cls-23" d="M2133.76,811.31a1.52,1.52,0,0,1-.49-.35,1.44,1.44,0,0,1,.11-2,1.41,1.41,0,0,0,.23-.46c1.13-3,.89-6.68-.72-11.09-.55-1.51-1.2-3-1.84-4.47a51.77,51.77,0,0,1-2.72-7.15,1.41,1.41,0,0,1,1-1.74,1.43,1.43,0,0,1,1.74,1,49.33,49.33,0,0,0,2.58,6.77c.67,1.53,1.34,3.06,1.91,4.63,1.85,5.07,2.08,9.47.7,13.08a3.8,3.8,0,0,1-1,1.57A1.37,1.37,0,0,1,2133.76,811.31Z"/><path class="cls-23" d="M2116.15,837.86a1.43,1.43,0,0,1-.84-1.24c-.24-6.36-3.07-12.6-5.55-18.11a1.41,1.41,0,0,1,2.57-1.17c2.6,5.75,5.54,12.26,5.8,19.17a1.41,1.41,0,0,1-1.35,1.47A1.45,1.45,0,0,1,2116.15,837.86Z"/><path class="cls-19" d="M2121,903.65a39.62,39.62,0,0,0,22.33-3.26,85.72,85.72,0,0,0,11.64-6.86,76.51,76.51,0,0,1,12.27-7.09c5-2.1,10.48-3.12,15.8-4.1,3.49-.65,7.1-1.31,10.6-2.29,15.81-4.39,30.3-15.54,39.76-30.61,8.61-13.71,13.26-30.52,13.44-48.6a1.42,1.42,0,0,0-2.83,0c-.18,17.56-4.68,33.86-13,47.13-9.08,14.47-23,25.18-38.12,29.39-3.37.93-6.92,1.59-10.36,2.22-5.46,1-11.11,2.06-16.38,4.28a78.12,78.12,0,0,0-12.74,7.34,83.56,83.56,0,0,1-11.24,6.64,36.32,36.32,0,0,1-23.13,2.6c-5-1.16-12.09-6.13-16.31-9.1-3.42-2.41-4-2.84-5-2.62a1.51,1.51,0,0,0-.58.32Z"/><path class="cls-19" d="M2228,854.48a1.43,1.43,0,0,1-.64-2c1.94-3.34,2-8.06.16-13a57,57,0,0,0-4.07-8.12c-.89-1.58-1.78-3.15-2.59-4.76-2.87-5.73-3.81-10.65-2.87-15a1.41,1.41,0,0,1,1.68-1.09,1.44,1.44,0,0,1,1.09,1.68c-.8,3.74.06,8.05,2.63,13.18.78,1.57,1.65,3.1,2.52,4.63a60.06,60.06,0,0,1,4.26,8.53c2.14,5.7,2,11.31-.37,15.38A1.42,1.42,0,0,1,2228,854.48Z"/><path class="cls-19" d="M2197.38,879.26a1.44,1.44,0,0,1-.66-2,25.12,25.12,0,0,0,3.08-15.3,55.37,55.37,0,0,0-2-8.61c-1.53-5.25-3.12-10.68-1.71-16.17a1.41,1.41,0,1,1,2.74.7c-1.21,4.74.19,9.57,1.69,14.68a56.79,56.79,0,0,1,2.12,9.06,28,28,0,0,1-3.42,17A1.41,1.41,0,0,1,2197.38,879.26Z"/><path class="cls-19" d="M2169.78,885.5a1.45,1.45,0,0,1-.62-2,19.54,19.54,0,0,0,2.58-13.92c-.22-1.17-.55-2.31-.88-3.45a22.71,22.71,0,0,1,0-15,1.41,1.41,0,1,1,2.75.64,27.68,27.68,0,0,0-1.09,8.67,26.83,26.83,0,0,0,1.1,4.94c.35,1.22.7,2.44.94,3.69a22.45,22.45,0,0,1-3,16A1.42,1.42,0,0,1,2169.78,885.5Z"/><path class="cls-19" d="M2139.42,901.69a1.45,1.45,0,0,1-.4-.26,1.42,1.42,0,0,1-.06-2,15.4,15.4,0,0,0,3.95-8c.55-3.39,0-6.83-.65-10.48-.17-1-.34-2-.48-3-.6-4-1-9.94,2.21-14.5a1.41,1.41,0,1,1,2.31,1.63c-2,2.84-2.56,6.8-1.73,12.46.15,1,.31,1.92.48,2.89.63,3.71,1.28,7.55.65,11.41a18.21,18.21,0,0,1-4.68,9.46A1.4,1.4,0,0,1,2139.42,901.69Z"/><path class="cls-19" d="M2117,883.6a36.56,36.56,0,0,1-1,7.54,10.44,10.44,0,0,1-4.73,6.53l2.58,1.59a13.68,13.68,0,0,0,4.87-7.34,38.72,38.72,0,0,0,1.13-8.13l.14-1.87a1.42,1.42,0,0,0-2.83-.22Z"/><path class="cls-19" d="M2235.53,843.92a1.45,1.45,0,0,1-.65-2c1.79-3.15,5.66-3.78,8.82-4s5.64-.49,7-2.2a1.41,1.41,0,0,1,2.22,1.75c-2.23,2.84-6.15,3.09-9,3.28-2.45.15-5.42.59-6.55,2.56A1.41,1.41,0,0,1,2235.53,843.92Z"/><path class="cls-19" d="M2214.27,869.38a1.5,1.5,0,0,1-.46-.33,1.4,1.4,0,0,1,.07-2c3.36-3.14,8.17-3.14,12.81-2.88,4,.23,8.14.25,10.67-2.18a1.41,1.41,0,1,1,2,2c-3.36,3.22-8.37,3.22-12.8,3-4-.24-8.16-.26-10.71,2.12A1.42,1.42,0,0,1,2214.27,869.38Z"/><path class="cls-19" d="M2194.09,894.08a22.57,22.57,0,0,1-8.47-6.34c-.32-.4-.63-.81-.93-1.22a16.23,16.23,0,0,0-1.84-2.2,4,4,0,0,0-3-1.29,1.41,1.41,0,0,1-1.57-1.24,1.42,1.42,0,0,1,1.24-1.57,6.59,6.59,0,0,1,5.26,2,18.83,18.83,0,0,1,2.15,2.56c.29.38.58.77.87,1.13,4.53,5.6,12.75,8.52,22,7.78a1.43,1.43,0,0,1,1.53,1.3,1.41,1.41,0,0,1-1.3,1.52A32.93,32.93,0,0,1,2194.09,894.08Z"/><path class="cls-19" d="M2166.45,906.44a39.37,39.37,0,0,1-10.89-7.29l-.36-.34a12.64,12.64,0,0,0-2.46-2,3.14,3.14,0,0,0-2.59-.31A1.41,1.41,0,1,1,2149,894a5.76,5.76,0,0,1,5.14.39,14.68,14.68,0,0,1,3.05,2.41l.35.34c7.77,7.28,18,10.7,26.74,8.91a1.42,1.42,0,1,1,.57,2.78A30.29,30.29,0,0,1,2166.45,906.44Z"/><path class="cls-19" d="M2046.67,844.81c1.81,5.29,3.55,10.71,5,16.19l3.45,2.12a194,194,0,0,0-5.73-19.23c-1.69-4.94-3.44-10-4.81-15.13-10.14-37.6,0-80.69,25.94-109.78a1.41,1.41,0,1,0-2.11-1.88c-26.52,29.78-36.95,73.9-26.56,112.4C2043.2,834.67,2045,839.82,2046.67,844.81Z"/><path class="cls-19" d="M2049.08,749a1.42,1.42,0,0,1-.83-1.16,9.5,9.5,0,0,0-2.9-6c-.39-.36-.8-.68-1.21-1a17.93,17.93,0,0,1-1.85-1.64,5.71,5.71,0,0,1-1.7-4.79,1.41,1.41,0,0,1,2.78.5,3,3,0,0,0,1,2.36,14.43,14.43,0,0,0,1.56,1.37c.47.38.93.75,1.36,1.16a12.32,12.32,0,0,1,3.79,7.79,1.42,1.42,0,0,1-1.29,1.54A1.4,1.4,0,0,1,2049.08,749Z"/><path class="cls-19" d="M2040.7,779.46l-8.12-3.93c-1.8-.88-4.53-2.2-5.65-4.8a1.42,1.42,0,0,1,2.61-1.12c.64,1.51,2.39,2.46,4.28,3.37l8.07,3.91a1.42,1.42,0,0,1-1.19,2.57Z"/><path class="cls-19" d="M2029,799.57a12.77,12.77,0,0,1-5.92-5,1.42,1.42,0,1,1,2.44-1.44,10.64,10.64,0,0,0,5.93,4.36,34.6,34.6,0,0,0,8.08,1.3,1.4,1.4,0,0,1,1.29,1.52,1.41,1.41,0,0,1-1.52,1.3,36.92,36.92,0,0,1-8.74-1.43A15.31,15.31,0,0,1,2029,799.57Z"/><path class="cls-19" d="M2032.39,826.77a9.12,9.12,0,0,1-.83-.41c-3-1.71-5.42-5-6.66-9.16a1.41,1.41,0,1,1,2.71-.8c.6,2,2.09,5.67,5.33,7.49,2.38,1.36,6,1.36,7.89-.87a1.42,1.42,0,0,1,2.14,1.86C2040.53,827.69,2036.12,828.44,2032.39,826.77Z"/><path class="cls-19" d="M2039.9,813.2a1.41,1.41,0,0,1,0-2.6,27,27,0,0,0,7.29-4.41,1.42,1.42,0,1,1,1.83,2.17,30,30,0,0,1-8.06,4.86A1.42,1.42,0,0,1,2039.9,813.2Z"/><path class="cls-19" d="M2038.88,792.75a1.34,1.34,0,0,1-.58-.48,1.4,1.4,0,0,1,.35-2,21.39,21.39,0,0,1,11.6-3.83,1.42,1.42,0,1,1,.07,2.83,18.66,18.66,0,0,0-10.05,3.32A1.39,1.39,0,0,1,2038.88,792.75Z"/><path class="cls-19" d="M2043.83,766.08a1.46,1.46,0,0,1-.53-.4,1.41,1.41,0,0,1,.22-2,13.94,13.94,0,0,1,15.36-1.19,1.41,1.41,0,1,1-1.41,2.45,11.22,11.22,0,0,0-12.18.95A1.41,1.41,0,0,1,2043.83,766.08Z"/><path class="cls-19" d="M2067.5,731.34a18.91,18.91,0,0,1-5.5-3.69,1.41,1.41,0,0,1,0-2,1.43,1.43,0,0,1,2,0,17.61,17.61,0,0,0,20.34,2.62,1.43,1.43,0,0,1,1.93.54,1.41,1.41,0,0,1-.53,1.93A20.62,20.62,0,0,1,2067.5,731.34Z"/><path class="cls-23" d="M2060.9,855.85a165.21,165.21,0,0,0,10,17L2095.56,888c7.65-1.66,13.17-9.25,13.73-18.52.37-6-.55-12-.27-18,.88-19.23,13.53-35.55,24.3-51.52s20.45-35.43,14.67-53.79c-4.91-15.58-20.87-26.32-37.18-27.14s-32.33,7.28-43.17,19.5-16.89,28.13-19.34,44.28C2044.51,807.68,2049.26,833.62,2060.9,855.85Z"/><path class="cls-19" d="M2083.68,815.61c-2,21.61-1.25,43.54-.26,64.93l2.91,1.79c-1-21.89-1.91-44.39.17-66.46,2.47-26.32,9-49,19.51-67.39a250.93,250.93,0,0,1,14.49-21.78,1.4,1.4,0,0,0-.34-2,1.45,1.45,0,0,0-2,.35,256.34,256.34,0,0,0-14.62,22C2092.88,765.82,2086.19,788.88,2083.68,815.61Z"/><path class="cls-19" d="M2092.32,776.17a1.44,1.44,0,0,1-.65-2,49.12,49.12,0,0,1,17.25-17.75,88.17,88.17,0,0,1,10.52-4.92c7-2.88,13.54-5.6,17.65-11.25a1.41,1.41,0,1,1,2.28,1.67c-4.57,6.29-11.83,9.29-18.84,12.2a83.82,83.82,0,0,0-10.19,4.75,46.28,46.28,0,0,0-16.23,16.73A1.41,1.41,0,0,1,2092.32,776.17Z"/><path class="cls-19" d="M2087.18,798.34a1.41,1.41,0,0,1-.75-1.78c1.92-5.21,7-9.52,13.86-11.8a71.19,71.19,0,0,1,10.67-2.39c2.19-.38,4.45-.77,6.63-1.28,6.65-1.55,11.38-4.24,14.09-8a1.41,1.41,0,1,1,2.29,1.65c-3.11,4.32-8.4,7.38-15.74,9.1-2.25.53-4.56.92-6.79,1.3a71.75,71.75,0,0,0-10.26,2.29c-6.06,2-10.47,5.7-12.09,10.1a1.42,1.42,0,0,1-1.82.84Z"/><path class="cls-19" d="M2083.62,830.18a1.42,1.42,0,0,1-.73-1.86,35.23,35.23,0,0,1,11.85-14.59,15.46,15.46,0,0,1,4.52-2.36,18.43,18.43,0,0,1,4.61-.55l1,0c6.29-.27,11.48-2.33,14.63-5.8a1.4,1.4,0,0,1,2-.09,1.42,1.42,0,0,1,.09,2c-3.66,4-9.55,6.41-16.59,6.72l-1,0a16.29,16.29,0,0,0-3.92.44,12.62,12.62,0,0,0-3.67,1.94,32.58,32.58,0,0,0-10.9,13.42A1.41,1.41,0,0,1,2083.62,830.18Z"/><path class="cls-19" d="M2083.61,862.28a1.42,1.42,0,0,1-.76-1.75,25.18,25.18,0,0,1,19.34-16.33,1.41,1.41,0,1,1,.45,2.79,22.3,22.3,0,0,0-17.11,14.45,1.43,1.43,0,0,1-1.8.89Z"/><path class="cls-19" d="M2066.63,843.08a34.84,34.84,0,0,1-12.77-9.65,1.43,1.43,0,0,1,.2-2,1.41,1.41,0,0,1,2,.2,32.47,32.47,0,0,0,26.78,11.63,1.41,1.41,0,1,1,.18,2.82A34.8,34.8,0,0,1,2066.63,843.08Z"/><path class="cls-19" d="M2077.35,813c-6.2-2.76-11.77-8.35-16.6-16.66l-.38-.66c-1.47-2.54-3-5.17-5.35-6.51a1.41,1.41,0,0,1-.53-1.93,1.44,1.44,0,0,1,1.93-.53c3,1.71,4.81,4.82,6.39,7.55l.38.66c5.27,9.05,11.37,14.61,18.1,16.5,1.68.48,2.86.45,3.61-.06a1.44,1.44,0,0,1,2,.38,1.42,1.42,0,0,1-.38,2c-1.49,1-3.44,1.15-6,.44A24.67,24.67,0,0,1,2077.35,813Z"/><path class="cls-19" d="M2090,781.3a5.56,5.56,0,0,1-1.67-1.24,60,60,0,0,1-17.69-36,1.42,1.42,0,1,1,2.82-.32A57.14,57.14,0,0,0,2090.29,778c.25.24.71.69,1,.72a1.42,1.42,0,0,1-.34,2.81A3.24,3.24,0,0,1,2090,781.3Z"/><path class="cls-19" d="M2105.18,747a1.25,1.25,0,0,1-.41-.28c-3.12-3-4.14-7.45-5-11.35l-.18-.76c-.87-3.77-2.2-7.87-5.36-9.78a1.42,1.42,0,0,1,1.47-2.43c4.06,2.46,5.64,7.23,6.64,11.56l.18.78c.85,3.69,1.73,7.5,4.25,10a1.41,1.41,0,0,1-1.56,2.31Z"/><polygon class="cls-24" points="2726.91 964.1 2501.69 964.1 2535.08 888.85 2760.3 888.85 2726.91 964.1"/><rect class="cls-4" x="2276.47" y="964.1" width="450.44" height="315.84"/><rect class="cls-24" x="2062.21" y="964.1" width="439.48" height="315.84"/><path class="cls-4" d="M2225.69,1019.44h-139.4a2.08,2.08,0,0,1-2.09-2.09V985.14a2.09,2.09,0,0,1,2.09-2.09h139.4a2.1,2.1,0,0,1,2.09,2.09v32.21A2.09,2.09,0,0,1,2225.69,1019.44Zm-137.31-4.18H2223.6v-28H2088.38Z"/><path class="cls-5" d="M1591.69,806.27l-10,275.84c-2.8,22.14,6.94,33.57,28.3,38.54,46.58,7.34,66.41-25.46,78-71.94l60.29-231.24Z"/><path class="cls-6" d="M1601.79,692.68c-25.86,80.7-28,86.22-40.65,205.35-1.56,14.9,14.2,37.68,29.7,38.6l118.4,7.87c15,.9,33.44-20.35,36.86-34.56,23.76-98.94,25.67-185.61,41.91-252.85C1814.14,549,1642,567.25,1601.79,692.68Z"/><path class="cls-5" d="M2064.24,815.43c3.88,1.26,5.7,6.23,4,11l-15,43.34c-1.67,4.81-6.21,7.7-10.1,6.43s-5.7-6.23-4-11l15-43.35C2055.81,817.05,2060.35,814.16,2064.24,815.43Z"/><path class="cls-5" d="M2100.31,906c4.63-5.81,8.88-12.17,10-18.16.86-4.64-.24-8.65-1.56-12.39a90.8,90.8,0,0,0-14.21-26.18c-5.58-7.11-14.09-13.62-26.26-9.6-11.76,3.88-21.72,13.83-28.08,24.64-12.06,20.48-16.22,27.9-16.82,47.07-.76,24,10.55,36.36,38.06,20.87C2075.58,924.29,2090.24,918.65,2100.31,906Z"/><path class="cls-5" d="M2072.45,853.31l53.89-29.37a9.26,9.26,0,0,0,4.18-10.73,6.2,6.2,0,0,0-9.11-3.49l-53.89,29.36a9.24,9.24,0,0,0-4.17,10.73A6.19,6.19,0,0,0,2072.45,853.31Z"/><path class="cls-5" d="M2084.5,869.65l53.89-29.37a9.23,9.23,0,0,0,4.17-10.73,6.18,6.18,0,0,0-9.1-3.49l-53.9,29.36a9.24,9.24,0,0,0-4.17,10.73A6.2,6.2,0,0,0,2084.5,869.65Z"/><path class="cls-5" d="M2084.39,893.31l53.9-29.37a9.23,9.23,0,0,0,4.17-10.73,6.2,6.2,0,0,0-9.11-3.49l-53.89,29.36a9.24,9.24,0,0,0-4.17,10.73A6.19,6.19,0,0,0,2084.39,893.31Z"/><path class="cls-5" d="M2076.69,919.08l53.9-29.37a9.24,9.24,0,0,0,4.17-10.73,6.19,6.19,0,0,0-9.1-3.5l-53.9,29.37a9.24,9.24,0,0,0-4.17,10.73A6.19,6.19,0,0,0,2076.69,919.08Z"/><path class="cls-5" d="M2043.62,873.1c-84.36,31.53-166.85,57.95-268.87,90.75-34.76,5-99.24,23-136.61,33.87a29.59,29.59,0,0,0-21.11,29c0,.26,0,.52,0,.79.72,52.88-6,94.47,15.93,94.15,104.65-1.5,323.54-126.27,437-195.31Z"/><path class="cls-5" d="M806.34,752.2l-5.8.23-22,17.29C582.66,906.57,457.83,944.71,451,994.4c-.95,6.92,33.85,30.49,40.94,32.55,12.26,3.56,26.71-1.63,40.37-9.13,126.73-69.53,189-134.42,286.45-221C801.75,789.42,815,769.7,806.34,752.2Z"/><path class="cls-5" d="M812.74,726c3.59,1.83,4.54,6.68,2.12,10.78L793,773.88c-2.43,4.1-7.34,6-10.93,4.15s-4.54-6.67-2.11-10.78l21.88-37.06C804.23,726.08,809.15,724.21,812.74,726Z"/><path class="cls-5" d="M833,815c5.49-4.52,10.7-9.6,12.78-14.9,1.61-4.09,1.19-7.94.53-11.59a82.14,82.14,0,0,0-9.55-26.37c-4.26-7.44-11.5-14.85-24.06-13.25-12.13,1.54-23.52,8.93-31.53,17.73-15.19,16.67-20.48,22.74-24.25,40.17-4.73,21.83,4.27,35.05,33.72,25.58C805.75,827.51,821,824.86,833,815Z"/><path class="cls-5" d="M814.47,762.08,872,744.42a8.41,8.41,0,0,0,5.86-9.1c-.68-3.8-4.42-5.94-8.32-4.75L812,748.22a8.4,8.4,0,0,0-5.86,9.1C806.83,761.13,810.58,763.27,814.47,762.08Z"/><path class="cls-5" d="M823.53,779.07l57.55-17.65a8.41,8.41,0,0,0,5.86-9.1c-.68-3.81-4.42-6-8.32-4.75l-57.54,17.65a8.4,8.4,0,0,0-5.86,9.1C815.89,778.13,819.64,780.27,823.53,779.07Z"/><path class="cls-5" d="M819.5,800.69,877.05,783a8.42,8.42,0,0,0,5.86-9.1c-.68-3.81-4.42-6-8.32-4.75l-57.54,17.65a8.41,8.41,0,0,0-5.87,9.1C811.86,799.75,815.6,801.88,819.5,800.69Z"/><path class="cls-5" d="M807.7,822.93l57.55-17.65a8.39,8.39,0,0,0,5.85-9.1c-.67-3.81-4.41-5.95-8.31-4.75l-57.55,17.65a8.41,8.41,0,0,0-5.85,9.1C800.06,822,803.8,824.13,807.7,822.93Z"/><path class="cls-5" d="M437.83,1351.38l46,11.94c49.09-112.29,89.09-191,114.53-327.79,2.86-15.33,3.27-30.67-3.94-41.21a18.59,18.59,0,0,0-18.27-7.79C508.65,997.08,506.09,1123.69,437.83,1351.38Z"/><path class="cls-5" d="M407.44,653.72c28.13-36.93,82.26-29.46,96.61,13.33l57.38,171.11c22.8,91.08,53.46,183.38,30.64,203.29-10.67,9.3-23.39,24.88-40.05,12.36C517.62,1028,424.11,787.62,397.7,712.42,390.86,693,394.57,670.61,407.44,653.72Z"/><path class="cls-20" d="M226.28,254.65C231,244.92,243,242.05,249,233.21c4.66-6.86,4.85-15.94,7.25-24,4.51-15.09,17.83-26.75,32.38-28.33,7.8-.86,16.45.73,22.87-4.26,9.11-7.08,10.05-24.86,21-27,7.49-1.43,13.82,6.16,21.33,7,9.54,1.1,17-8.35,25.19-14a35.42,35.42,0,0,1,38.18-1.28c10.31,6.31,21.05,18.5,31.78,12.62,3.81-2.08,6.45-6.18,10.27-8.27,8.05-4.41,17.73,1.87,22.67,9.86s7.28,17.73,12.79,25.27c6.46,8.8,16.41,13.51,24.91,20s16.28,16.61,14.56,27.81c-1.31,8.64-8,15.83-8.35,24.57-.76,22.86,19.23,36.93,14.83,63.68-2.4,14.58-7.68,27.74-18.9,36.56-.47.38-1,.52-1.43.88.92,54.16-19.14,101.59-57,122-45.69,24.6-104.06,2.72-145.74-48.45-.29-.83-4.09-5.3-4.72-6.14-8.26-6.46-23.28-6.37-27.24-17.11-2.12-5.73,0-12.75-2.69-18.19s-8.75-7.16-13.45-10.47c-20-14.08-10.07-49.22-21.61-71.84C238.78,286.16,216.58,274.87,226.28,254.65Z"/><path class="cls-25" d="M525.24,770.88a69.55,69.55,0,0,0-.32-10.39c-.45-4.89-1.21-9.71-2.12-14.51-2.64-13.52-5.39-28.57-8.73-43.64-7.59-34.13-23.23-65.83-45.27-91.34-78.86-91.29-159.45-66.19-215.57-33.43l-19.34,12c-91.1,56.42-64.43,213.51-64.43,213.51,8,75.9,27.48,114.31,26.08,197.68-2.65,157.41-86.1,189.84-98.62,361.39,0,0-7.11,39.07,5.35,55,49.61,63.49,68-6.24,155.49-4.39,101,2.14,255.55-66.09,256.93-87.62,2.63-41-4.52,19.32-11.33-191C497.85,963.91,527.76,859.35,525.24,770.88Z"/><path class="cls-20" d="M348.54,399.52a87.35,87.35,0,0,0,26.59-16.68c13.8-12.74,23.24-29.65,36.74-42.73,16.37-15.86,56.09-40.91,112.66-32.17,5.51.85,13.74,2.44,16.87-3.64,1-1.85,1-4.89.58-8.27a86.08,86.08,0,0,1,13,54.78S566.15,340.17,567.2,310c.54-15.38-16.63-32.34-21.4-36.51-2.12-5.67-4.09-11.41-6.55-16.94-2.29-5.14-10-16.06-10-16.06-13.79-17.23-34.86-28.73-57-29.89-25.27-1.34-24-3.19-44.53.32-20.95,3.56-36.62-3.64-72.77,22.15a105,105,0,0,0-9.44,7.55c-11.2,10.12-17.83,24.13-20.44,39-2.82,16-10.52,32.21-24.48,47.39,2.26-2.45,3-3.15,2.87-2.93-3.06,6.6-5.46,13.55-4.18,20.71a47.89,47.89,0,0,0,3.37,11.08c4.5,10.18,11.61,19.44,18.68,28.22,7.53,9.35,25.41,21.73,40,33.79l1.23-5.4C356.37,410.54,351.43,405.77,348.54,399.52Z"/><path class="cls-5" d="M542,296c.38,3.38.38,6.42-.58,8.27-3.13,6.08-11.36,4.49-16.87,3.64-56.57-8.74-96.29,16.31-112.66,32.17-13.5,13.08-22.94,30-36.74,42.73a87.35,87.35,0,0,1-26.59,16.68c2.89,6.25,7.83,11,14.14,12.93l-37,163.21c-2,8.77,1.94,17.2,8.73,18.74l49.4,11.2c6.79,1.55,14-4.37,16-13.13l23-101.55a87.86,87.86,0,0,0,10.74,3.25c46.81,10.62,93.76-18.79,104.33-65.37l15.46-68.17a84.47,84.47,0,0,0,1.63-9.82A86.08,86.08,0,0,0,542,296ZM463.7,369.72c-1.16,5.25-4.88,8.89-8.29,8.14s-5.25-5.63-4.09-10.88,4.88-8.89,8.3-8.14l10.53,2.34-6.21,3.95A13.63,13.63,0,0,1,463.7,369.72Zm8.5-23.47-20.72-4.6a5.62,5.62,0,1,1,2.44-11l20.72,4.59a5.63,5.63,0,1,1-2.44,11Zm1.74,107.18c-12.29-4.52-11.65-10.44-11.1-16.41l32.63,10C487.61,459.23,473.94,453.43,473.94,453.43Zm24.13-28.06-9.92.94c-5.72.55-9.52-6-7-12.06l.42-1c1.1,3.13,3.62,5.46,7,5.13l9.92-.95c4.06-.39,7.3-3.6,8.74-7.66l.27,2C508.48,418.39,504,424.8,498.07,425.37Zm40.05-39.15c-1.16,5.25-4.88,8.89-8.3,8.14s-5.24-5.63-4.08-10.88,4.88-8.9,8.3-8.14l10.53,2.34-6.21,3.94A13.94,13.94,0,0,1,538.12,386.22ZM548,363.05l-16.09-3.56c-2.35-.52-3.72-3.42-3-6.44s3.14-5.07,5.49-4.55l16.09,3.57c2.35.52,3.73,3.42,3.06,6.44S550.36,363.58,548,363.05Z"/><path class="cls-20" d="M478.93,342a5.65,5.65,0,0,0-4.29-6.71l-20.72-4.59a5.62,5.62,0,1,0-2.44,11l20.72,4.6A5.65,5.65,0,0,0,478.93,342Z"/><path class="cls-20" d="M550.44,352.07l-16.09-3.57c-2.35-.52-4.82,1.52-5.49,4.55s.7,5.92,3,6.44L548,363.05c2.36.53,4.83-1.52,5.5-4.54S552.79,352.59,550.44,352.07Z"/><path class="cls-22" d="M507.31,409.76c-1.44,4.06-4.68,7.27-8.74,7.66l-9.92.95c-3.42.33-5.94-2-7-5.13l-.42,1c-2.56,6,1.24,12.61,7,12.06l9.92-.94c5.94-.57,10.41-7,9.51-13.63Z"/><path class="cls-21" d="M459.62,358.84c-3.42-.75-7.13,2.89-8.3,8.14s.67,10.12,4.09,10.88,7.13-2.89,8.29-8.14a13.63,13.63,0,0,0,.24-4.59l6.21-3.95Z"/><path class="cls-21" d="M534,375.34c-3.42-.76-7.14,2.88-8.3,8.14s.66,10.12,4.08,10.88,7.14-2.89,8.3-8.14a13.94,13.94,0,0,0,.24-4.6l6.21-3.94Z"/><path class="cls-15" d="M473.94,453.43s13.67,5.8,21.53-6.44l-32.63-10C462.29,443,461.65,448.91,473.94,453.43Z"/><path class="cls-5" d="M377.8,547.43c-24.69-5.41-48.13.75-67.83,12.14-14.2,8.21-15.87,26.5-3.59,40q28.59,31.51,56.14,63.72c10.66,12.46,30.49,13.16,38.07,1.29C430.38,618,422.12,632,438.29,602,451.61,577.27,405.25,553.45,377.8,547.43Z"/><path class="cls-5" d="M281.14,642.8c-26.66-38-81-32.66-97,9.53L120,821.06C93.68,911.18,59.43,1002.21,81.46,1023c10.29,9.71,22.39,25.78,39.53,13.93,35.39-24.48,138.25-261,167.58-335.09C296.17,682.65,293.34,660.18,281.14,642.8Z"/><path class="cls-26" d="M972.59,799.49c6.44,16.28,10.6,34.41,5.81,51.25-1.57,5.52-5.4,11.64-11.13,11.36a11.69,11.69,0,0,1-6.22-2.64c-11.86-8.79-14.91-24.86-18.47-39.19a233.47,233.47,0,0,0-50-96.24c-6.11-7-20.7-26.55-5.29-19.56C925.65,721.9,957.27,760.75,972.59,799.49Z"/><path class="cls-26" d="M824.87,735.79C788.49,854.42,852.43,895,866.26,899.17c16,4.85,33.86.66,48-8.36,7.88-5,14.95-11.7,19.07-20.09,7.11-14.47,4.48-32-1.8-46.84s-15.92-28-23.23-42.39c-6.25-12.29-10.73-27.22-4.59-39.57,1.69-3.4,4.12-6.43,5.38-10a22,22,0,0,0,.42-11.79c-4-18.46-22-26.83-39.24-23C852.34,701,830.17,718.53,824.87,735.79Z"/><path class="cls-26" d="M902.62,623.5a23.74,23.74,0,1,1-11.15-31.67A23.75,23.75,0,0,1,902.62,623.5Z"/><path class="cls-26" d="M973.79,650.89a23.74,23.74,0,1,1-11.15-31.67A23.75,23.75,0,0,1,973.79,650.89Z"/><path class="cls-27" d="M965.07,650.19a18.2,18.2,0,1,1-8.55-24.29A18.2,18.2,0,0,1,965.07,650.19Z"/><path class="cls-27" d="M899.21,622.81a18.21,18.21,0,1,1-8.55-24.29A18.2,18.2,0,0,1,899.21,622.81Z"/><ellipse class="cls-26" cx="900.7" cy="667.15" rx="52.57" ry="47.34" transform="translate(-90.22 1191.01) rotate(-64.39)"/><path class="cls-28" d="M911.4,692.57c-6.54,13.65-20.18,20.72-30.46,15.8s-13.31-20-6.77-33.64,20.18-20.72,30.46-15.79S918,678.92,911.4,692.57Z"/><path class="cls-21" d="M889.11,644.55a4.18,4.18,0,1,1-2-5.57A4.17,4.17,0,0,1,889.11,644.55Z"/><path class="cls-21" d="M930.37,665.21a4.18,4.18,0,1,1-2-5.58A4.19,4.19,0,0,1,930.37,665.21Z"/><path class="cls-21" d="M910.54,670.63l-17.88-8.81a15.2,15.2,0,0,0,2.49,4.53s1.51,9.91,1.51,9.91l8-5A19.64,19.64,0,0,0,910.54,670.63Z"/><path class="cls-21" d="M889.85,690.74a2,2,0,0,1-.91-.23,1.94,1.94,0,0,1-.81-2.62l8-15.13a1.93,1.93,0,1,1,3.42,1.81l-8,15.14A1.93,1.93,0,0,1,889.85,690.74Z"/><path class="cls-21" d="M882.65,680.67A1.93,1.93,0,0,1,884.5,682c3.55,10,14.08,7.86,14.51,7.75a2,2,0,0,1,2.31,1.48,1.93,1.93,0,0,1-1.46,2.31c-4.93,1.12-15.25.39-19-10.25a1.93,1.93,0,0,1,1.18-2.47A1.73,1.73,0,0,1,882.65,680.67Z"/><path class="cls-26" d="M903.44,913.49c4.63,18.14,7.9,36.7,14.31,54.3s16.18,34.44,32.34,47c5.53,4.28,13.07,8.23,21.71,6.3,9-2,15-9.51,17.25-16.36,5.46-16.28-3.08-31.53-14.54-43.53s-26-22.2-34.72-35.69c-11.48-17.81-11.83-40-22.66-58.1-2.23-3.73-7-7.7-13.33-3.43-4.23,2.85-4.14,8.42-4.76,12C896.8,889.13,900.34,901.35,903.44,913.49Z"/><path class="cls-26" d="M897.56,975.17c-1.9,17.41-7.6,35.47-20,47-3.19,3-7,5.52-11.07,5.92-7.38.72-13.81-5.95-15.82-13.64s-.56-16.05,1.41-23.91c3.3-13.13,8-25.86,11-39.06s4.08-27.29.12-39.9c-2-6.49-5.42-12.67-5.42-19.61,0-11.68,10.32-17,17.23-8.75,6.46,7.69,11.05,18.44,14.64,28.08A140.84,140.84,0,0,1,897.56,975.17Z"/><path class="cls-26" d="M767.7,826.89c-3.4,17.18-4.22,35.76,3.53,51.47,2.54,5.14,7.41,10.47,13,9.16a11.75,11.75,0,0,0,5.64-3.72C800,873,800.05,856.66,801,841.93a233.47,233.47,0,0,1,31.87-103.69c4.74-8,15.57-29.85,1.68-20.2C799.88,742.11,775.79,786,767.7,826.89Z"/><polygon class="cls-4" points="446.18 965.4 671.4 965.4 638.01 890.15 412.79 890.15 446.18 965.4"/><polygon class="cls-24" points="1110.99 965.4 885.77 965.4 919.16 890.15 1144.38 890.15 1110.99 965.4"/><path class="cls-5" d="M429.24,1089.71C219.78,1016.82,122.75,941.38,80.42,964.6c-6.13,3.36-6.2,49.83-3.62,56.75,4.44,12,17.22,20.48,31.39,27,116.47,53.51,199.87,68.52,306.19,89.82C419.33,1122,423.92,1105.74,429.24,1089.71Z"/><circle class="cls-29" cx="715.04" cy="1197.49" r="32.11" transform="translate(-284.53 224.8) rotate(-14.94)"/><rect class="cls-29" x="686.05" y="1106.41" width="20.24" height="38.65" transform="translate(-273.74 225.07) rotate(-15.39)"/><path class="cls-21" d="M863.7,1160.12a5.86,5.86,0,0,1-.75.14,4.7,4.7,0,0,1-5.16-4.17l-4.73-44.34-37,10.18,19.52,39.77a4.68,4.68,0,0,1-8.41,4.13l-22-44.85a4.68,4.68,0,0,1,3-6.58l47.81-13.16a4.69,4.69,0,0,1,5.9,4l5.31,49.83A4.68,4.68,0,0,1,863.7,1160.12Z"/><path class="cls-21" d="M835.51,1115.94a4.68,4.68,0,0,1-5.76-3.28l-5.25-19.07a4.69,4.69,0,1,1,9-2.49l5.24,19.07A4.69,4.69,0,0,1,835.51,1115.94Z"/><path class="cls-21" d="M580.28,1236.83a4.52,4.52,0,0,1-.75.14,4.7,4.7,0,0,1-5.16-4.16l-4.73-44.35-37,10.19,19.53,39.76a4.69,4.69,0,0,1-8.42,4.13l-22-44.84a4.69,4.69,0,0,1,3-6.59L572.48,1178a4.68,4.68,0,0,1,3.88.64,4.73,4.73,0,0,1,2,3.38l5.32,49.83A4.7,4.7,0,0,1,580.28,1236.83Z"/><path class="cls-21" d="M552.09,1192.65a4.69,4.69,0,0,1-5.76-3.28l-5.25-19.07a4.69,4.69,0,0,1,9-2.49l5.25,19.08A4.69,4.69,0,0,1,552.09,1192.65Z"/><rect class="cls-21" x="600.24" y="862.64" width="49.19" height="43.37" transform="translate(-212.24 197.48) rotate(-15.39)"/><circle class="cls-30" cx="605.1" cy="820.86" r="47.5" transform="translate(-325.48 403.76) rotate(-29.46)"/><path class="cls-30" d="M693,816.49A24.88,24.88,0,1,1,662.4,799.1,24.89,24.89,0,0,1,693,816.49Z"/><circle class="cls-30" cx="551.77" cy="855.35" r="24.88" transform="translate(-381.66 449.42) rotate(-33.67)"/><path class="cls-21" d="M723.28,908.27c.7-.17,1.39-.29,2.1-.43-3.47.69-.94.09-.07.14,1.61.1,3.23,0,4.86.15,1.2.09,1.87.27.28,0q1.53.25,3.06.57c2,.43,4,1,5.93,1.56a85.54,85.54,0,0,1,25.12,13.09c20.61,15.22,33.72,38.18,39,63.2,3.22,15.18,26.45,8.73,23.24-6.4a127.89,127.89,0,0,0-50.37-77.76c-16.14-11.6-39.23-22.35-59.59-17.37C701.81,888.72,708.21,912,723.28,908.27Z"/><path class="cls-21" d="M535,939.84c-20,6.13-34.41,27.18-42.3,45.41a128,128,0,0,0-3.5,92.58c5,14.62,28.25,8.33,23.24-6.39-8.24-24.22-8.71-50.65,1.21-74.28a99.15,99.15,0,0,1,7.28-13.93,57.05,57.05,0,0,1,7.21-9.73c1.49-1.68,3-3.29,4.69-4.81.64-.59,1.29-1.16,1.95-1.73,1.16-1-1.61,1.13.24-.21,1.46-1,3-1.9,4.48-2.88,2.57-1.7-1.89.37,1.9-.79C556.19,958.54,549.86,935.29,535,939.84Z"/><path class="cls-8" d="M754.11,1084.67,751.61,901A35.24,35.24,0,0,0,707,867.47L541,913.16A35.25,35.25,0,0,0,520.53,966L620,1123.45a47.06,47.06,0,0,0,52.25,20.24l47.35-13A47,47,0,0,0,754.11,1084.67Z"/><path class="cls-30" d="M720.66,1006.22l-113.91,31.34c-10,2.75-20.88-2.92-27.07-14.11l-35.84-64.84a13.12,13.12,0,0,1,8-19l163.53-45a13.11,13.11,0,0,1,16.57,11.8l4.7,72.7C737.49,992.25,730.92,1003.39,720.66,1006.22ZM552.2,940.9A11.79,11.79,0,0,0,545,958l35.85,64.84c5.88,10.64,16.14,16.06,25.54,13.47l113.9-31.35c9.64-2.65,15.81-13.23,15-25.73l-4.69-72.69a11.78,11.78,0,0,0-14.89-10.6Z"/><path class="cls-8" d="M663.39,1118.57a46.54,46.54,0,0,0,10.76-1.65l47.35-13a47,47,0,0,0,10.09-4.08Z"/><path class="cls-8" d="M654.75,862.24,583.6,881.82a34.52,34.52,0,1,1-18.32-66.56l71.15-19.58a34.52,34.52,0,0,1,18.32,66.56Z"/><path class="cls-31" d="M654.5,826.54l-87.61,24.11a7.57,7.57,0,1,1-4-14.6l87.6-24.11a7.57,7.57,0,1,1,4,14.6Z"/><path class="cls-8" d="M794.26,1091.22l7.49-156.09c.69-14.29,16.92-14.48,20.76-.24l36.87,136.8c3.15,11.7-1.78,23.11-10.92,25.28L808,1106.55C800.94,1108.21,793.83,1100.26,794.26,1091.22Z"/><path class="cls-8" d="M575.23,1152.68l-86.3-130.27c-7.9-11.93-21.94-3.79-17.95,10.41l38.31,136.4c3.28,11.66,13.35,19,22.31,16.13l39.69-12.48C578.19,1170.7,580.23,1160.23,575.23,1152.68Z"/><path class="cls-30" d="M619.61,864.6c-10.15,2.79-20.32.65-25.9-5.45a2.68,2.68,0,1,1,3.95-3.62c4.17,4.57,12.42,6.14,20.53,3.91,8.59-2.37,15.09-8.47,15.8-14.83a2.68,2.68,0,1,1,5.32.59C638.35,853.83,630.43,861.62,619.61,864.6Z"/><path class="cls-29" d="M743.42,1188.82,687,1204.34a2,2,0,0,1-2.47-1.4l-8.41-30.57a22.35,22.35,0,0,1,15.6-27.45l17.25-4.75a22.36,22.36,0,0,1,27.45,15.61l8.41,30.57A2,2,0,0,1,743.42,1188.82Zm-55.56,11.12,52.56-14.46-7.88-28.63a18.33,18.33,0,0,0-22.52-12.8l-17.24,4.74a18.33,18.33,0,0,0-12.8,22.52Z"/><rect class="cls-21" x="698.38" y="1148.46" width="35.84" height="104.01" rx="12" transform="translate(-292.81 233.05) rotate(-15.38)"/><rect class="cls-32" x="688.52" y="1164.46" width="35.08" height="1.34" transform="translate(-283.84 229.1) rotate(-15.39)"/><rect class="cls-32" x="692.65" y="1179.48" width="35.08" height="1.34" transform="matrix(0.96, -0.27, 0.27, 0.96, -287.67, 230.73)"/><rect class="cls-32" x="696.77" y="1194.5" width="35.08" height="1.34" transform="translate(-291.51 232.36) rotate(-15.39)"/><rect class="cls-32" x="700.89" y="1209.52" width="35.08" height="1.34" transform="translate(-295.35 234) rotate(-15.39)"/><rect class="cls-32" x="705.02" y="1224.55" width="35.08" height="1.34" transform="translate(-299.19 235.63) rotate(-15.39)"/><rect class="cls-32" x="709.14" y="1239.57" width="35.08" height="1.34" transform="translate(-303.02 237.26) rotate(-15.39)"/><rect class="cls-30" x="705.31" y="1012.63" width="1.34" height="119.71" transform="translate(-259.2 225.69) rotate(-15.38)"/><rect class="cls-30" x="689.05" y="873.14" width="1.34" height="29.47" transform="translate(-210.82 214.78) rotate(-15.38)"/><rect class="cls-31" x="565.18" y="945.8" width="33.48" height="25.92" rx="6.05" transform="translate(-233.53 188.77) rotate(-15.39)"/><path class="cls-31" d="M676.43,929.92a10.24,10.24,0,1,1-12.58-7.15A10.24,10.24,0,0,1,676.43,929.92Z"/><path class="cls-31" d="M703.57,923A10.24,10.24,0,1,1,691,915.85,10.25,10.25,0,0,1,703.57,923Z"/><path class="cls-31" d="M706.45,990.31a6.46,6.46,0,1,1-7.94-4.52A6.46,6.46,0,0,1,706.45,990.31Z"/><path class="cls-30" d="M723.49,1069.48l-16.35,4.5-.35-1.29,16.34-4.5a9.83,9.83,0,0,0,6.87-12.08l-13.6-49.42,1.29-.35,13.6,49.41A11.18,11.18,0,0,1,723.49,1069.48Z"/><path class="cls-30" d="M699.23,1126.63,662,1136.87a7.66,7.66,0,0,1-4.07-14.76l37.22-10.24a7.65,7.65,0,1,1,4.06,14.76Zm-40.92-3.23a6.32,6.32,0,0,0,3.35,12.18l37.21-10.24a6.32,6.32,0,1,0-3.35-12.18Z"/><path class="cls-31" d="M562.05,1164.31a6.78,6.78,0,1,1,4.74-8.34A6.79,6.79,0,0,1,562.05,1164.31Z"/><path class="cls-30" d="M542.45,1181.75l-1.29.36-17-61.71a7,7,0,0,0-8.56-4.86l-19.52,5.37-.36-1.29,19.53-5.38a8.31,8.31,0,0,1,10.2,5.8Z"/><rect class="cls-4" x="660.55" y="965.4" width="450.44" height="315.84"/><rect class="cls-24" x="446.29" y="965.4" width="439.48" height="315.84"/><path class="cls-4" d="M622,1256.23H482.6a2.09,2.09,0,0,1-2.09-2.09v-64.43a2.1,2.1,0,0,1,2.09-2.09H622a2.09,2.09,0,0,1,2.08,2.09v64.43A2.08,2.08,0,0,1,622,1256.23Zm-137.32-4.18H619.92V1191.8H484.69Z"/><path class="cls-5" d="M463.79,1050.32c2.33,3.27.93,8-3.11,10.53l-36.55,22.74c-4.05,2.51-9.27,1.9-11.61-1.38s-.94-8,3.11-10.53l36.54-22.74C456.22,1046.42,461.45,1047,463.79,1050.32Z"/><path class="cls-5" d="M440.54,1138.56c7-1.47,13.93-3.57,18.22-7.3,3.32-2.89,4.74-6.49,5.84-10a82.15,82.15,0,0,0,3.73-27.79c-.34-8.58-3.33-18.49-15.2-22.89-11.47-4.24-25-3-36.16,1.14-21.18,7.75-28.68,10.69-40.09,24.4-14.28,17.16-12.42,33.05,18.08,38.27C410.65,1137.05,425.4,1141.75,440.54,1138.56Z"/><path class="cls-5" d="M448.65,1083.07l59.18,11a8.42,8.42,0,0,0,9.41-5.36c1.16-3.69-1.17-7.32-5.18-8.06l-59.18-11a8.4,8.4,0,0,0-9.4,5.36C442.31,1078.7,444.64,1082.33,448.65,1083.07Z"/><path class="cls-5" d="M448.82,1102.33l59.19,11a8.41,8.41,0,0,0,9.4-5.36c1.16-3.69-1.17-7.32-5.18-8.06l-59.18-11a8.4,8.4,0,0,0-9.4,5.36C442.49,1098,444.81,1101.59,448.82,1102.33Z"/><path class="cls-5" d="M435.25,1119.63l59.18,11a8.42,8.42,0,0,0,9.41-5.36c1.16-3.69-1.17-7.31-5.18-8.06l-59.18-11a8.42,8.42,0,0,0-9.41,5.36C428.91,1115.26,431.24,1118.89,435.25,1119.63Z"/><path class="cls-5" d="M414.5,1133.89l59.18,11a8.38,8.38,0,0,0,9.4-5.36c1.17-3.69-1.16-7.31-5.17-8.06l-59.18-11a8.41,8.41,0,0,0-9.41,5.35C408.16,1129.52,410.49,1133.15,414.5,1133.89Z"/><path class="cls-5" d="M3270.55,1044c35-20.17,12.32,45.64,97.82-112.58,10.17-18.82,25.51-53.34,28.26-60.21L3290.54,828c-60.93,148.67-93.52,219-23.5,219A13.62,13.62,0,0,1,3270.55,1044Z"/><path class="cls-33" d="M3386.65,655.1,3261.59,869.77c-9.22,18.23-8.41,39.53,10.36,47.6L3362.33,955A35.38,35.38,0,0,0,3408,938.35c30.78-61.36,94.76-183.93,94.76-183.93l-86.4-55.76C3376.39,672.89,3408.09,612.69,3386.65,655.1Z"/><path class="cls-34" d="M3395,924.81a21.55,21.55,0,0,0,19.56-10.47l102.24-172.9a3.73,3.73,0,0,0-1.3-5.12,3.78,3.78,0,0,0-5.12,1.3L3408.14,910.53a14,14,0,0,1-18.09,5.46l-33.22-16a3.79,3.79,0,0,0-5,1.75,3.75,3.75,0,0,0,1.75,5l33.21,16A21.1,21.1,0,0,0,3395,924.81Z"/><path class="cls-20" d="M3578.89,158.54c11.64,5.68,22.14,13.62,35.28,16.16,11.25,2.15,23.25.06,34.7,1.43s23.53,8.32,22.93,18.49c-.28,4.83-3.41,9.37-3.69,14.18-.8,13.56,18.37,18.89,30.81,26.46,13.95,8.48,21.48,24.19,18.86,39.29-1.89,10.85-8.37,22.74-2.09,31.91,5,7.22,16.71,10.17,19.11,18.41,3.51,12.1-15.64,21.17-18.63,33.63-2.09,8.78,4.25,16.82,7.45,25.12,6,15.48.16,34.3-14.11,45.75-7.64,6.11-17.57,10.44-22.67,18.29-6.58,10.14-3.36,23.66-11.62,32.84-17.19,19.07-41.44,1.71-66.17.62-31.12-1.38-64.64,24.75-90.85,10.86-6.14-3.25-11.38-8.64-18.69-8.86s-14.07,5.1-21.52,5.57c-14,.88-21.84-14.38-33.36-19.8-1.26-.26-8.21-2.08-9.3-2-78.65-18.91-95.13-92.15-92.2-149.69,2.42-47.66,16.93-69.89,66-91.22,14.55-6.32,15.53-26.76,30.36-35.84,27.22-16.66,53.36-2.81,78.22-14,9.5-4.3,13.86-14.41,22.71-19.68C3551.91,149.62,3567.26,152.86,3578.89,158.54Z"/><path class="cls-33" d="M3367,1063.13c12.66-150.73-13.51-246.84-7.28-325.22l-.35-.28c.29-3,.65-6,1.11-8.93a115.85,115.85,0,0,1,2.75-12.68c.05-.17.06-.34.11-.51,3.13-11.23,6.57-24.31,10.6-37.35a166,166,0,0,1,49.93-76.42c84.18-72.82,165.31-42,221.17-6.94l19.22,12.69c90.54,59.79,56.85,196.62,56.85,196.62-11.25,66.64-32.74,98.72-34.77,173-3.49,128.53,76.44,171.9,94.16,296.72a265.86,265.86,0,0,0,13.32,54c7.6,20.77,1.55,41.53-12.75,54.7-54.35,50-111.08,60-177.87,39.66-98.81-30-166.38,7.72-237-25.5a50.83,50.83,0,0,1-29-44.44C3332.58,1199.69,3351.3,1249.4,3367,1063.13Z"/><path class="cls-5" d="M3351.61,372.07l14.48,70.38c9.9,48.09,56,79,102.51,68.68a82.22,82.22,0,0,0,10.67-3.21l17.34,84.28h76.93l-33.83-164.35c6.26-1.88,11.19-6.66,14.12-13.05a86.22,86.22,0,0,1-26.07-17.5c-13.52-13.3-22.66-30.84-35.86-44.48-16-16.54-55-42.85-111.16-34.61-5.46.8-13.63,2.33-16.66-4-.91-1.91-.89-5-.48-8.43A90.85,90.85,0,0,0,3351.61,372.07Zm101-18.18-20.57,4.45a5.61,5.61,0,0,1-6.61-4.49,5.81,5.81,0,0,1,4.32-6.85l20.58-4.46A5.6,5.6,0,0,1,3457,347,5.81,5.81,0,0,1,3452.66,353.89Zm-12.44,28.73a14.41,14.41,0,0,1-.13-4.7l-6.15-4.18,10.45-2.27c3.39-.73,7,3.07,8.12,8.49s-.78,10.41-4.17,11.14S3441.31,388,3440.22,382.62Zm-32.39,79.12,32.43-9.84c.47,6.15,1,12.27-11.19,16.76C3429.07,468.66,3408.67,476.33,3407.83,461.74Zm-11.56-36.45.29-2c1.37,4.2,4.54,7.55,8.56,8l9.81,1.11c3.38.38,5.91-2,7-5.18l.41,1c2.45,6.25-1.39,13-7,12.33l-9.81-1.11C3399.65,438.78,3395.29,432.12,3396.27,425.29Zm-30.06-31.38-6.15-4.18,10.45-2.26c3.4-.74,7,3.06,8.12,8.48s-.78,10.41-4.18,11.15-7-3.07-8.11-8.49A14.4,14.4,0,0,1,3366.21,393.91Zm-14.76-24c-.62-3.12.77-6.09,3.1-6.59l16-3.46c2.33-.51,4.75,1.63,5.38,4.75s-.77,6.09-3.1,6.59l-16,3.46C3354.5,375.14,3352.08,373,3351.45,369.88Z"/><path class="cls-20" d="M3425.48,353.85a5.81,5.81,0,0,1,4.32-6.85l20.58-4.46A5.6,5.6,0,0,1,3457,347a5.81,5.81,0,0,1-4.32,6.86l-20.57,4.45A5.61,5.61,0,0,1,3425.48,353.85Z"/><path class="cls-20" d="M3354.55,363.29l16-3.46c2.33-.51,4.75,1.63,5.38,4.75s-.77,6.09-3.1,6.59l-16,3.46c-2.33.51-4.75-1.63-5.38-4.75S3352.22,363.79,3354.55,363.29Z"/><path class="cls-22" d="M3396.56,423.25c1.37,4.2,4.54,7.55,8.56,8l9.81,1.11c3.38.38,5.91-2,7-5.18l.41,1c2.45,6.25-1.39,13-7,12.33l-9.81-1.11c-5.87-.66-10.23-7.32-9.25-14.15Z"/><path class="cls-21" d="M3444.39,371.47c3.39-.73,7,3.07,8.12,8.49s-.78,10.41-4.17,11.14-7-3.06-8.12-8.48a14.41,14.41,0,0,1-.13-4.7l-6.15-4.18Z"/><path class="cls-21" d="M3370.51,387.47c3.4-.74,7,3.06,8.12,8.48s-.78,10.41-4.18,11.15-7-3.07-8.11-8.49a14.4,14.4,0,0,1-.13-4.7l-6.15-4.18Z"/><path class="cls-15" d="M3440.26,451.9c.47,6.15,1,12.27-11.19,16.76,0,0-20.4,7.67-21.24-6.92Z"/><path class="cls-5" d="M3822.9,1030c-38.84-16.1-8.56,46.86-113.91-101-12.53-17.58-32-50.22-35.58-56.75L3781,817.15c78.55,141.12,119.66,207.43,45.9,215.37A13.91,13.91,0,0,0,3822.9,1030Z"/><path class="cls-33" d="M3695.3,636.46l131.84,205c11,17.19,7.48,31.34-10.37,41.28l-94.86,52.31a35.39,35.39,0,0,1-47.1-11.87c-36.88-57.89-113-173.29-113-173.29L3642,685.63C3679.11,655.92,3669.64,596.47,3695.3,636.46Z"/><path class="cls-35" d="M3631.38,835.52l69.5,94.06a14,14,0,0,0,18.55,3.59l31.4-19.33a3.79,3.79,0,0,1,5.15,1.23,3.75,3.75,0,0,1-1.23,5.14l-31.4,19.33a21.5,21.5,0,0,1-28.47-5.51L3625.36,840C3625.16,835.29,3627.68,834.22,3631.38,835.52Z"/><path class="cls-5" d="M3227.27,1069.32c8,.21,23.73,1.67,50.16-20,13.25-10.87,12.33-35.74,12.33-35.74s-81.7-173.59-99.05-230.8c-2.05-6.74-11.25-35.77-13.31-40.65l-43-19.31C3137.7,772.81,3181.37,1068.1,3227.27,1069.32Z"/><ellipse class="cls-5" cx="3531.77" cy="587.14" rx="56.97" ry="32.27"/><rect class="cls-36" x="3076.93" y="881.56" width="57.97" height="14.33"/><path class="cls-15" d="M3064.47,915.12c0-1.4,1.9-2.54,4.24-2.54h70.83c2.34,0,4.24,1.14,4.24,2.54v36.3c0,1.4-1.9,2.53-4.24,2.53h-70.83c-2.34,0-4.24-1.13-4.24-2.53Zm-11.63-10.19v90.69c0,5,6.76,9,15.1,9h75.12c8.35,0,15.11-4,15.11-9V904.93c0-5-6.76-9-15.11-9h-75.12C3059.6,895.9,3052.84,899.94,3052.84,904.93Z"/><polygon class="cls-36" points="3077.07 849.22 3075.63 881.56 3069.27 881.56 3071.31 849.22 3077.07 849.22"/><path class="cls-36" d="M3128.84,849.21c.76,17.86,1.41,32.35,1.41,32.35h-8.16V849.21Z"/><rect class="cls-36" x="3111.64" y="849.21" width="6.64" height="32.35"/><rect class="cls-36" x="3092.09" y="849.21" width="6.45" height="32.35"/><rect class="cls-36" x="3102.35" y="849.21" width="5.48" height="32.35"/><polygon class="cls-36" points="3139.36 849.22 3141.68 881.56 3134.06 881.56 3132.62 849.22 3139.36 849.22"/><polygon class="cls-36" points="3088.28 849.22 3088.28 881.56 3079.45 881.56 3080.89 849.22 3088.28 849.22"/><path class="cls-37" d="M3132.62,849.21c.8,17.86,1.44,32.35,1.44,32.35h-3.81l-1.44-32.35Z"/><polygon class="cls-37" points="3080.89 849.22 3079.45 881.56 3075.63 881.56 3077.07 849.22 3080.89 849.22"/><path class="cls-37" d="M3122.09,849.21v32.35h-3.81V849.21Z"/><path class="cls-37" d="M3111.64,849.21v32.35h-3.81V849.21Z"/><path class="cls-37" d="M3102.35,849.21v32.35h-3.81V849.21Z"/><path class="cls-37" d="M3092.09,849.21v32.35h-3.81V849.21Z"/><path class="cls-38" d="M3068.71,912.58h70.83c2.34,0,4.24,1.14,4.24,2.54v36.3c0,1.4-1.9,2.53-4.24,2.53h-70.83c-2.34,0-4.24-1.13-4.24-2.53v-36.3C3064.47,913.72,3066.37,912.58,3068.71,912.58Z"/><polygon class="cls-24" points="2814.72 972.76 3039.95 972.76 3006.55 897.51 2781.33 897.51 2814.72 972.76"/><polygon class="cls-4" points="3478.49 972.76 3253.27 972.76 3286.66 897.51 3511.88 897.51 3478.49 972.76"/><path class="cls-15" d="M2884.61,918.26a6.09,6.09,0,0,1,6.09-6.08h99.78a6.09,6.09,0,0,1,6.09,6.08v6.36h-112Z"/><rect class="cls-37" x="2891.23" y="1000.09" width="79.66" height="56.4" rx="2.25"/><path class="cls-36" d="M2865.43,937.4v157a12.77,12.77,0,0,0,12.77,12.77h240.71a12.77,12.77,0,0,0,12.77-12.77v-157a12.78,12.78,0,0,0-12.77-12.78H2878.2A12.77,12.77,0,0,0,2865.43,937.4Zm8.2,31a7.82,7.82,0,0,1,7.81-7.81h231.71a7.82,7.82,0,0,1,7.81,7.81v98.77a7.81,7.81,0,0,1-7.81,7.81H2881.44a7.81,7.81,0,0,1-7.81-7.81Z"/><path class="cls-37" d="M2880,968.44v98.77a1.46,1.46,0,0,0,1.46,1.46h231.71a1.46,1.46,0,0,0,1.46-1.46V968.44a1.45,1.45,0,0,0-1.46-1.45H2881.44A1.45,1.45,0,0,0,2880,968.44Zm160.83,57.07a3.17,3.17,0,0,1,3.17-3.18h59.18a3.18,3.18,0,1,1,0,6.35H3044A3.17,3.17,0,0,1,3040.81,1025.51Zm-29.49-11.27a3.17,3.17,0,0,1,3.18-3.17h88.66a3.18,3.18,0,1,1,0,6.35H3014.5A3.18,3.18,0,0,1,3011.32,1014.24Zm0-11.26a3.18,3.18,0,0,1,3.18-3.18h88.66a3.18,3.18,0,1,1,0,6.36H3014.5A3.18,3.18,0,0,1,3011.32,1003Zm0-11.26a3.18,3.18,0,0,1,3.18-3.18h88.66a3.18,3.18,0,1,1,0,6.35H3014.5A3.17,3.17,0,0,1,3011.32,991.72Zm0-11.27a3.17,3.17,0,0,1,3.18-3.17h88.66a3.18,3.18,0,1,1,0,6.35H3014.5A3.18,3.18,0,0,1,3011.32,980.45Zm-126.44,21.89a8.61,8.61,0,0,1,8.6-8.61h75.17a8.61,8.61,0,0,1,8.6,8.61v51.89a8.61,8.61,0,0,1-8.6,8.61h-75.17a8.61,8.61,0,0,1-8.6-8.61Z"/><path class="cls-36" d="M3014.5,977.28h88.66a3.18,3.18,0,1,1,0,6.35H3014.5a3.18,3.18,0,1,1,0-6.35Z"/><path class="cls-36" d="M3014.5,988.54h88.66a3.18,3.18,0,1,1,0,6.35H3014.5a3.18,3.18,0,1,1,0-6.35Z"/><path class="cls-36" d="M3014.5,999.8h88.66a3.18,3.18,0,1,1,0,6.36H3014.5a3.18,3.18,0,1,1,0-6.36Z"/><path class="cls-36" d="M3014.5,1011.07h88.66a3.18,3.18,0,1,1,0,6.35H3014.5a3.18,3.18,0,1,1,0-6.35Z"/><path class="cls-36" d="M3044,1022.33h59.18a3.18,3.18,0,1,1,0,6.35H3044a3.18,3.18,0,0,1,0-6.35Z"/><path class="cls-36" d="M2873.63,968.44v98.77a7.81,7.81,0,0,0,7.81,7.81h231.71a7.81,7.81,0,0,0,7.81-7.81V968.44a7.82,7.82,0,0,0-7.81-7.81H2881.44A7.82,7.82,0,0,0,2873.63,968.44Zm6.35,0a1.45,1.45,0,0,1,1.46-1.45h231.71a1.45,1.45,0,0,1,1.46,1.45v98.77a1.46,1.46,0,0,1-1.46,1.46H2881.44a1.46,1.46,0,0,1-1.46-1.46Z"/><path class="cls-36" d="M2884.88,1002.34v51.89a8.61,8.61,0,0,0,8.6,8.61h75.17a8.61,8.61,0,0,0,8.6-8.61v-51.89a8.61,8.61,0,0,0-8.6-8.61h-75.17A8.61,8.61,0,0,0,2884.88,1002.34Zm6.35,0a2.25,2.25,0,0,1,2.25-2.25h75.17a2.24,2.24,0,0,1,2.24,2.25v51.89a2.25,2.25,0,0,1-2.24,2.26h-75.17a2.26,2.26,0,0,1-2.25-2.26Z"/><path class="cls-37" d="M3476.36,778a2.08,2.08,0,0,1-1.44,2.55L3440.35,792a2.1,2.1,0,0,1-2.69-1.19l-2-6.11a2.08,2.08,0,0,1,1.45-2.55l34.57-11.44a2.08,2.08,0,0,1,2.68,1.18Zm54.69,110.15L3474.27,743a4.12,4.12,0,0,0-5.09-2.27l-5.11,1.7-10.44-23.85-2.57.85,10.44,23.85-5.48,1.81-8.15-24.61-2.56.85,8.15,24.61-3.92,1.3-8.15-24.61-2.57.85,8.15,24.61-4.23,1.4-8.15-24.61-2.57.85,8.15,24.61-4.34,1.44-8.15-24.61-2.56.85,8.14,24.61-5.93,2-5.86-25.36-2.57.85,5.87,25.36s-4.28,1.42-4.3,1.35a4.26,4.26,0,0,0-2.3,4.81l42,150c.44,1.59,2.56,2.33,4.67,1.63l63.39-21C3530.39,891.51,3531.65,889.64,3531.05,888.1Z"/><rect class="cls-36" x="3431.64" y="725.75" width="4.57" height="25.92" transform="translate(-58.14 1116.93) rotate(-18.32)"/><rect class="cls-36" x="3438.55" y="723.48" width="4.46" height="25.92" transform="translate(-57.08 1118.95) rotate(-18.32)"/><polygon class="cls-36" points="3433.26 752.59 3427.33 754.55 3421.47 729.18 3425.12 727.98 3433.26 752.59"/><path class="cls-36" d="M3464.07,742.39l-10.44-23.85,3.73-1.24,11.78,23.3C3469.18,740.69,3464.07,742.39,3464.07,742.39Z"/><polygon class="cls-36" points="3461.5 743.24 3456.02 745.05 3447.87 720.44 3451.06 719.39 3461.5 743.24"/><rect class="cls-36" x="3445.36" y="721.28" width="4.13" height="25.92" transform="translate(-56.05 1120.92) rotate(-18.32)"/><path class="cls-36" d="M3424.77,755.4l-4.28,1.42c0-.07-4.91-25.68-4.91-25.68l3.32-1.1Z"/><path class="cls-36" d="M3474.92,780.5,3440.35,792a2.1,2.1,0,0,1-2.69-1.19l-2-6.11a2.08,2.08,0,0,1,1.45-2.55l34.57-11.44a2.08,2.08,0,0,1,2.68,1.18l2,6.11A2.08,2.08,0,0,1,3474.92,780.5Z"/><path class="cls-36" d="M3174.54,876.67H3180s6.66,0,6.66,0,2.87.05,2.87.05,4.84-.05,4.84-.05,2.86.05,2.86.05,12-.05,12-.05,2.86.05,2.86.05,6.15-.05,6.15-.05h6.53v1.65h-50.21Z"/><path class="cls-36" d="M3177,901.7a2.61,2.61,0,0,1,2.86-2.26H3217a2.61,2.61,0,0,1,2.86,2.26V927a2.61,2.61,0,0,1-2.86,2.26h-37.13A2.61,2.61,0,0,1,3177,927Zm-16.1,123.15c-.09,1.52,1.79,2.78,4.12,2.78h70.19c2.34,0,4.22-1.27,4.12-2.79l-8.69-143c-.13-2-2.21-3.57-4.74-3.57h-52.65c-2.54,0-4.63,1.59-4.74,3.6ZM3177,937a2.09,2.09,0,0,1,2.28-1.81h38.28a2.1,2.1,0,0,1,2.29,1.81v5.91a2.1,2.1,0,0,1-2.29,1.81h-38.28a2.09,2.09,0,0,1-2.28-1.81Z"/><polygon class="cls-36" points="3221.08 876.62 3218.5 854.63 3222.66 854.63 3226.82 876.66 3218.38 876.66 3221.08 876.62"/><polygon class="cls-36" points="3218.22 876.66 3212.07 876.66 3212.07 854.63 3215.63 854.63 3218.22 876.66"/><polygon class="cls-36" points="3209.21 876.66 3197.24 876.66 3197.24 854.63 3201.97 854.63 3201.97 876.61 3204.84 876.61 3204.84 854.63 3209.21 854.63 3209.21 876.66"/><polygon class="cls-36" points="3177.15 876.64 3178.16 876.66 3172.35 876.66 3176.03 854.63 3179.74 854.63 3177.15 876.64"/><polygon class="cls-36" points="3186.67 876.66 3180.01 876.66 3182.6 854.63 3186.67 854.63 3186.67 876.66"/><rect class="cls-36" x="3189.54" y="854.62" width="4.84" height="22.03"/><path class="cls-37" d="M3221.08,876.62l-2.7,0c-.16,0-2.75-22-2.75-22h2.87Z"/><path class="cls-37" d="M3180,876.66s-1.85,0-1.85,0l-1,0,2.59-22h2.86Z"/><path class="cls-37" d="M3212.07,876.66c0,.05-2.86.05-2.86.05V854.62h2.86Z"/><rect class="cls-37" x="3201.97" y="854.62" width="2.86" height="21.98"/><path class="cls-37" d="M3197.24,876.66c0,.05-2.86.05-2.86.05V854.62h2.86Z"/><path class="cls-37" d="M3189.54,876.66c0,.05-2.87.05-2.87.05V854.62h2.87Z"/><path class="cls-38" d="M3195,915.34c0-.5.63-.91,1.4-.91h16.3c.78,0,1.4.41,1.4.91s-.62.91-1.4.91h-16.3C3195.59,916.25,3195,915.84,3195,915.34Zm-13.48-7.63c0-.51.63-.91,1.4-.91h29.84c.78,0,1.4.4,1.4.91s-.62.91-1.4.91h-29.84C3182.11,908.62,3181.48,908.21,3181.48,907.71Zm-4.45-6V927a2.61,2.61,0,0,0,2.86,2.26H3217a2.61,2.61,0,0,0,2.86-2.26V901.7a2.61,2.61,0,0,0-2.86-2.26h-37.13A2.61,2.61,0,0,0,3177,901.7Zm4.45,10c0-.5.63-.91,1.4-.91h29.84c.78,0,1.4.41,1.4.91s-.62.91-1.4.91h-29.84C3182.11,912.57,3181.48,912.17,3181.48,911.66Z"/><path class="cls-38" d="M3179.31,935.15h38.28a2.1,2.1,0,0,1,2.29,1.81v5.91a2.1,2.1,0,0,1-2.29,1.81h-38.28a2.09,2.09,0,0,1-2.28-1.81V937A2.09,2.09,0,0,1,3179.31,935.15Z"/><path class="cls-37" d="M3182.88,906.8h29.84c.78,0,1.4.4,1.4.91s-.62.91-1.4.91h-29.84c-.77,0-1.4-.41-1.4-.91S3182.11,906.8,3182.88,906.8Z"/><path class="cls-37" d="M3182.88,910.75h29.84c.78,0,1.4.41,1.4.91s-.62.91-1.4.91h-29.84c-.77,0-1.4-.4-1.4-.91S3182.11,910.75,3182.88,910.75Z"/><path class="cls-37" d="M3196.36,914.43h16.3c.78,0,1.4.41,1.4.91s-.62.91-1.4.91h-16.3c-.77,0-1.4-.41-1.4-.91S3195.59,914.43,3196.36,914.43Z"/><rect class="cls-4" x="2814.73" y="972.76" width="450.44" height="315.84" transform="translate(6079.89 2261.37) rotate(180)"/><rect class="cls-24" x="3039.94" y="972.76" width="439.48" height="315.84" transform="translate(6519.37 2261.37) rotate(180)"/><path class="cls-4" d="M3072.24,1230.25V1014.76a2.1,2.1,0,0,1,2.09-2.09h139.41a2.1,2.1,0,0,1,2.09,2.09v215.49a2.09,2.09,0,0,1-2.09,2.09H3074.33A2.09,2.09,0,0,1,3072.24,1230.25Zm139.41-213.4H3076.42v211.31h135.23Z"/><path class="cls-5" d="M3842.19,1049.51c6.5-5.62,22.58-11,23.31-48.76.37-18.91-23.45-39.51-23.45-39.51s-187.11-75.49-253.93-111.81c-7.87-4.27-42.09-22.42-48.24-25.09l-10.11,47.22C3578.83,911.89,3804.82,1081.79,3842.19,1049.51Z"/><path class="cls-5" d="M3516.76,771.23a8.19,8.19,0,0,0-3.58,10L3526,815a6.22,6.22,0,0,0,8.75,3.64,8.18,8.18,0,0,0,3.58-10l-12.82-33.82A6.23,6.23,0,0,0,3516.76,771.23Z"/><path class="cls-5" d="M3485,854.17c-4.1-4.35-7.88-9.24-8.9-14.33-.78-3.94.15-7.64,1.26-11.15a99.14,99.14,0,0,1,12.23-25.33c4.82-7.15,12.22-14.26,22.9-12.71,10.33,1.5,19.14,8.62,24.8,17.08,10.72,16,14.42,21.89,15.11,38.65.86,21-8.94,33.68-33.15,24.54C3506.76,866.21,3493.88,863.64,3485,854.17Z"/><path class="cls-5" d="M3508.91,803.3l-47.42-17c-3.21-1.16-4.9-5.1-3.74-8.76s4.73-5.71,7.94-4.56l47.42,17c3.21,1.16,4.9,5.1,3.74,8.76S3512.12,804.46,3508.91,803.3Z"/><path class="cls-5" d="M3498.5,819.63l-47.42-17c-3.21-1.15-4.9-5.09-3.74-8.75s4.73-5.71,7.94-4.56l47.42,17c3.21,1.15,4.9,5.09,3.74,8.75S3501.71,820.78,3498.5,819.63Z"/><path class="cls-5" d="M3498.77,842l-47.42-17c-3.21-1.15-4.9-5.09-3.74-8.75s4.73-5.71,7.94-4.55l47.42,17c3.22,1.16,4.9,5.1,3.74,8.76S3502,843.18,3498.77,842Z"/><path class="cls-5" d="M3505.74,861.81l-47.42-17c-3.21-1.16-4.9-5.1-3.74-8.76s4.73-5.71,7.94-4.55l47.42,17c3.21,1.15,4.9,5.09,3.74,8.75S3509,863,3505.74,861.81Z"/><path class="cls-5" d="M3112.38,750.64c-2.43-5-4.4-10.44-3.76-15.06.49-3.57,2.49-6.36,4.6-8.93a85.78,85.78,0,0,1,19.09-17.13c6.65-4.37,15.67-7.83,25-2.91,9,4.76,15,13.72,17.56,22.75,4.93,17.11,6.54,23.27,2,37.58-5.69,17.92-18.64,25.26-38.12,9.37C3128.75,768.14,3117.68,761.62,3112.38,750.64Z"/><path class="cls-5" d="M3150.17,716l-38.43-30.39A6.06,6.06,0,0,1,3111,677a6.31,6.31,0,0,1,8.72-1.13l38.43,30.38a6.07,6.07,0,0,1,.74,8.62A6.3,6.3,0,0,1,3150.17,716Z"/><path class="cls-5" d="M3135.53,726.22l-38.43-30.39a6.06,6.06,0,0,1-.74-8.62,6.31,6.31,0,0,1,8.72-1.13l38.43,30.38a6.07,6.07,0,0,1,.75,8.62A6.32,6.32,0,0,1,3135.53,726.22Z"/><path class="cls-5" d="M3129.69,742.1l-38.43-30.38a6.07,6.07,0,0,1-.74-8.62,6.3,6.3,0,0,1,8.72-1.14l38.43,30.39a6.07,6.07,0,0,1,.74,8.62A6.31,6.31,0,0,1,3129.69,742.1Z"/><path class="cls-5" d="M3129.17,764.09l-38.43-30.38a6.07,6.07,0,0,1-.74-8.62,6.32,6.32,0,0,1,8.72-1.14l38.43,30.39a6.07,6.07,0,0,1,.75,8.62A6.33,6.33,0,0,1,3129.17,764.09Z"/><path class="cls-36" d="M3084.73,601.92l86.64,84.77a9.49,9.49,0,0,1,2.63,9.16l-98.42-96.28A9.28,9.28,0,0,1,3084.73,601.92Z"/><path class="cls-15" d="M3072.05,596.12l104.69,102.41a4.11,4.11,0,0,1,.25,5.75l-11,11.55L3055.32,607.6l11-11.55A4,4,0,0,1,3072.05,596.12Z"/><polygon class="cls-36" points="3115.98 679.4 3148.1 710.83 3141.94 717.26 3109.82 685.84 3115.98 679.4"/><path class="cls-36" d="M3142.59,719a.81.81,0,0,1-1.14,0l-33.31-32.58a.82.82,0,0,1,0-1.15l7.24-7.58a.8.8,0,0,1,1.14,0l33.31,32.58a.82.82,0,0,1,0,1.15Zm23.36-3.17L3055.32,607.6,3037,626.72,3147.67,735Z"/><path class="cls-15" d="M3110.74,773.58a4,4,0,0,1-5.69-.07L3000.36,671.1a4.11,4.11,0,0,1-.26-5.75l4.17-4.36,42.62,41.71a2.67,2.67,0,0,0,3.8,0l11-11.55a2.74,2.74,0,0,0-.17-3.83l-42.63-41.7,18.1-18.94L3147.67,735Z"/><path class="cls-36" d="M3016.73,655.38a.81.81,0,0,1,1.14,0l8.77,8.59a.82.82,0,0,1,.05,1.15.79.79,0,0,1-1.13,0l-8.78-8.58A.82.82,0,0,1,3016.73,655.38Zm-2.7,2.82a.81.81,0,0,1,1.14,0l17.45,17.07a.82.82,0,0,1,.05,1.15.81.81,0,0,1-1.14,0l-17.45-17.07A.83.83,0,0,1,3014,658.2Zm42.65,30.8a.81.81,0,0,1-1.14,0l-36.06-35.28a.82.82,0,0,1-.05-1.15.8.8,0,0,1,1.14,0l36.06,35.28A.82.82,0,0,1,3056.68,689Zm-2.7,2.82a.8.8,0,0,1-1.14,0l-23-22.53a.82.82,0,0,1-.05-1.15.81.81,0,0,1,1.14,0l23,22.52A.82.82,0,0,1,3054,691.82Zm-2.7,2.82a.8.8,0,0,1-1.14,0L3038,682.77a.82.82,0,0,1-.06-1.15.81.81,0,0,1,1.14,0l12.12,11.85A.82.82,0,0,1,3051.28,694.64Zm10.28-7.28-42.63-41.7L3004.27,661l42.62,41.71a2.67,2.67,0,0,0,3.8,0l11-11.55A2.74,2.74,0,0,0,3061.56,687.36Zm-13,10.11a.79.79,0,0,1-1.13,0L3019.37,670a.82.82,0,0,1-.06-1.15.81.81,0,0,1,1.14,0l28.08,27.47A.82.82,0,0,1,3048.58,697.47Z"/><path class="cls-37" d="M3055.54,689l-36.06-35.28a.82.82,0,0,1-.05-1.15.8.8,0,0,1,1.14,0l36.06,35.28a.82.82,0,0,1,0,1.15A.81.81,0,0,1,3055.54,689Z"/><path class="cls-37" d="M3017.87,655.39l8.77,8.59a.82.82,0,0,1,.05,1.15.79.79,0,0,1-1.13,0l-8.78-8.58a.82.82,0,0,1-.05-1.15A.81.81,0,0,1,3017.87,655.39Z"/><path class="cls-37" d="M3052.84,691.81l-23-22.53a.82.82,0,0,1-.05-1.15.81.81,0,0,1,1.14,0l23,22.52a.82.82,0,0,1,.05,1.15A.8.8,0,0,1,3052.84,691.81Z"/><path class="cls-37" d="M3015.17,658.22l17.45,17.07a.82.82,0,0,1,.05,1.15.81.81,0,0,1-1.14,0l-17.45-17.07a.83.83,0,0,1,0-1.15A.81.81,0,0,1,3015.17,658.22Z"/><path class="cls-37" d="M3050.14,694.63,3038,682.77a.82.82,0,0,1-.06-1.15.81.81,0,0,1,1.14,0l12.12,11.85a.82.82,0,0,1,.05,1.15A.8.8,0,0,1,3050.14,694.63Z"/><path class="cls-37" d="M3047.45,697.45,3019.37,670a.82.82,0,0,1-.06-1.15.81.81,0,0,1,1.14,0l28.08,27.47a.82.82,0,0,1,0,1.15A.79.79,0,0,1,3047.45,697.45Z"/><path class="cls-37" d="M3141.94,717.26l-32.12-31.42,6.16-6.44,32.12,31.43Zm.65,1.74,7.24-7.58a.82.82,0,0,0,0-1.15l-33.31-32.58a.8.8,0,0,0-1.14,0l-7.24,7.58a.82.82,0,0,0,0,1.15L3141.45,719A.81.81,0,0,0,3142.59,719Z"/><path class="cls-5" d="M3152,688.7a7,7,0,0,0-3.72,8.85l11.89,30.55a6.31,6.31,0,0,0,8.51,3.45,7,7,0,0,0,3.73-8.85l-11.89-30.55A6.32,6.32,0,0,0,3152,688.7Z"/><polygon class="cls-4" points="1085.47 912.83 1347.39 912.83 1308.56 825.31 1046.63 825.31 1085.47 912.83"/><path class="cls-39" d="M1045.13,1136.78c-34.88,3-71.7-.69-105.78,6.65-57.63,12.4-73.7,64.29-130.59,77.49-28.43,6.59-52.16-1.73-80.61-2.53-34.1-1-49.43,21-79.82,25.59-6,.91-12,.14-17.94-.09-32.74-1.26-53.48-3.16-83.75,8.76a270.6,270.6,0,0,0-44.21,22.72h625.68V1123.48C1100.91,1129.56,1073.45,1134.37,1045.13,1136.78Z"/><polygon class="cls-24" points="1858.62 912.83 1596.7 912.83 1635.53 825.31 1897.45 825.31 1858.62 912.83"/><path class="cls-16" d="M1223.88,863c21.77-.21,42.47,11.34,64.23,10.58,39-1.36,69-41.18,108.08-41.39,24.22-.13,46.31,15.32,70.52,16.12,16.25.53,34.41-5.15,47.59,4.35,11.44,8.25,13.48,24.07,15.9,38a219.43,219.43,0,0,0,21.28,63.09c3.69,7.12,7.84,14.26,9,22.2,3.37,23.72-21,42.4-44.15,48.46-41.39,10.82-85.22-.27-125.51-14.66s-80.19-32.32-122.85-35.58c-44.36-3.4-89.27,9.35-133.18,2.18-12.63-2.07-28.3-9.12-29.12-24.16-.83-15.26,17.49-26.13,27.45-34.9C1158.69,894.69,1187,863.32,1223.88,863Z"/><path class="cls-40" d="M1423.32,843.54c35.81-15.43,77.44-19.35,114-5.8,32.07,11.89,58.89,36.34,92.07,44.64,22,5.5,45,3.46,67.57,5.74s46.53,10.37,58.46,29.61c3.31,5.33,5.55,11.89,3.62,17.85-1.27,3.91-4.17,7.06-7.23,9.8-13.06,11.71-30,18.09-47,22.59-36.46,9.66-74.44,11.69-112.1,13.67-51.39,2.71-103,5.41-154.21.29-33.14-3.31-92.28-14.71-104-52.92C1324.15,895.34,1397.77,854.55,1423.32,843.54Z"/><rect class="cls-4" x="1334.77" y="912.83" width="523.85" height="367.31"/><rect class="cls-24" x="1085.6" y="912.83" width="511.1" height="367.31"/><path class="cls-4" d="M1569.15,974.94H1407a2.13,2.13,0,0,1-2.13-2.14V943.45a2.13,2.13,0,0,1,2.13-2.13h162.12a2.13,2.13,0,0,1,2.13,2.13V972.8A2.13,2.13,0,0,1,1569.15,974.94Zm-160-4.27H1567V945.59H1409.16Z"/><polygon class="cls-15" points="1171.26 941.32 1191.54 982.42 1236.89 989.01 1204.08 1021 1211.82 1066.16 1171.26 1044.84 1130.69 1066.16 1138.44 1021 1105.62 989.01 1150.98 982.42 1171.26 941.32"/><rect class="cls-41" y="1279.65" width="3936.43" height="166.52"/></g></g></svg>